<svg width="469" height="545" viewBox="0 0 469 545" fill="none" xmlns="http://www.w3.org/2000/svg">
<circle cx="233.461" cy="312.398" r="231.461" fill="url(#paint0_radial_1848_29552)" stroke="#FFB400" stroke-width="2"/>
<path d="M6.59607 336.937C2.00425 304.794 4.61585 227.336 51.7968 174.645" stroke="#FFB400" stroke-width="10" stroke-linecap="round"/>
<path d="M177.93 92.4209C204.907 83.6677 274.616 74.8571 337.639 109.64" stroke="#FFB400" stroke-width="10" stroke-linecap="round"/>
<path d="M434.926 208.221C448.845 225.87 473.239 277.701 459.463 343.823" stroke="#FFB400" stroke-width="10" stroke-linecap="round"/>
<path d="M38.8828 431.643C53.3757 459.337 98.0312 517.136 160.709 526.779" stroke="#FFB400" stroke-width="10" stroke-linecap="round"/>
<path d="M293.73 531.945C320.133 528.357 381.979 506.288 418.14 446.709" stroke="#FFB400" stroke-width="10" stroke-linecap="round"/>
<path d="M145.883 365.662L154.966 347.434H163.026L172.078 365.662H165.413L163.894 362.345H154.098L152.393 365.662H145.883ZM155.803 358.067H162.158L159.151 351.464H158.841L155.803 358.067ZM176.367 365.662V349.914L176.057 347.403H190.41C191.794 347.403 192.9 347.558 193.727 347.868C194.574 348.157 195.204 348.56 195.618 349.077C196.052 349.573 196.331 350.162 196.455 350.844C196.599 351.505 196.672 352.208 196.672 352.952V355.401C196.672 356.393 196.506 357.313 196.176 358.16C195.866 358.987 195.277 359.658 194.409 360.175C193.561 360.671 192.332 360.919 190.72 360.919H188.581C187.279 360.919 186.059 360.888 184.923 360.826C183.807 360.764 182.97 360.712 182.412 360.671V365.662H176.367ZM182.412 356.703H188.829C189.511 356.703 189.986 356.569 190.255 356.3C190.523 356.031 190.658 355.597 190.658 354.998V353.417C190.658 352.818 190.534 352.384 190.286 352.115C190.038 351.826 189.562 351.681 188.86 351.681H182.412V356.703ZM208.225 365.662C206.034 365.662 204.433 365.176 203.42 364.205C202.428 363.213 201.932 361.642 201.932 359.493V353.572C201.932 351.464 202.428 349.914 203.42 348.922C204.412 347.93 206.014 347.434 208.225 347.434H217.277C219.447 347.434 221.028 347.93 222.02 348.922C223.033 349.914 223.539 351.464 223.539 353.572V359.493C223.539 361.642 223.033 363.213 222.02 364.205C221.007 365.176 219.426 365.662 217.277 365.662H208.225ZM210.364 361.446H215.169C216.781 361.446 217.587 360.712 217.587 359.245V353.82C217.587 352.373 216.781 351.65 215.169 351.65H210.364C209.537 351.65 208.917 351.815 208.504 352.146C208.091 352.477 207.884 353.035 207.884 353.82V359.245C207.884 360.01 208.091 360.568 208.504 360.919C208.917 361.27 209.537 361.446 210.364 361.446ZM229.426 365.662L229.736 363.182V347.434H235.688V361.415H246.662L248.522 365.321C248.522 365.404 248.243 365.486 247.685 365.569C247.127 365.631 246.166 365.662 244.802 365.662H229.426ZM252.251 365.662L252.561 363.182V347.434H258.513V361.415H269.487L271.347 365.321C271.347 365.404 271.068 365.486 270.51 365.569C269.952 365.631 268.991 365.662 267.627 365.662H252.251ZM281.059 365.662C278.869 365.662 277.267 365.176 276.254 364.205C275.262 363.213 274.766 361.642 274.766 359.493V353.572C274.766 351.464 275.262 349.914 276.254 348.922C277.246 347.93 278.848 347.434 281.059 347.434H290.111C292.281 347.434 293.862 347.93 294.854 348.922C295.867 349.914 296.373 351.464 296.373 353.572V359.493C296.373 361.642 295.867 363.213 294.854 364.205C293.842 365.176 292.261 365.662 290.111 365.662H281.059ZM283.198 361.446H288.003C289.615 361.446 290.421 360.712 290.421 359.245V353.82C290.421 352.373 289.615 351.65 288.003 351.65H283.198C282.372 351.65 281.752 351.815 281.338 352.146C280.925 352.477 280.718 353.035 280.718 353.82V359.245C280.718 360.01 280.925 360.568 281.338 360.919C281.752 361.27 282.372 361.446 283.198 361.446ZM298.842 365.662L300.02 363.802L306.592 356.548L298.842 347.434H306.623L310.436 353.045H310.777L314.59 347.434H322.371L321.162 349.263L314.621 356.548L322.371 365.662H314.59L310.777 360.02H310.436L306.623 365.662H298.842Z" fill="#FFB400"/>
<path d="M177.283 439.297V430.971H175.857V429.016H177.283V426.969C177.283 426.448 177.383 425.965 177.582 425.52C177.797 425.075 178.142 424.715 178.617 424.439C179.108 424.163 179.752 424.025 180.549 424.025H181.699C183.539 424.025 184.858 424.109 185.655 424.278C186.468 424.447 186.874 424.592 186.874 424.715L186.184 426.463C185.923 426.356 185.456 426.256 184.781 426.164C184.106 426.057 183.294 426.003 182.343 426.003H181.193C180.81 426.003 180.526 426.072 180.342 426.21C180.173 426.348 180.089 426.586 180.089 426.923V429.016H184.873V430.971H180.089V439.297H177.283ZM190.588 439.297C189.561 439.297 188.794 439.09 188.288 438.676C187.797 438.262 187.552 437.587 187.552 436.652V431.937C187.552 431.707 187.567 431.431 187.598 431.109C187.644 430.772 187.751 430.442 187.92 430.12C188.104 429.798 188.403 429.53 188.817 429.315C189.246 429.1 189.837 428.993 190.588 428.993H196.936C197.703 428.993 198.293 429.1 198.707 429.315C199.121 429.53 199.412 429.798 199.581 430.12C199.765 430.442 199.872 430.772 199.903 431.109C199.949 431.431 199.972 431.707 199.972 431.937V436.353C199.972 436.629 199.949 436.936 199.903 437.273C199.872 437.61 199.765 437.932 199.581 438.239C199.397 438.546 199.098 438.799 198.684 438.998C198.27 439.197 197.687 439.297 196.936 439.297H190.588ZM191.462 437.319H196.062C196.813 437.319 197.189 437.012 197.189 436.399V431.891C197.189 431.278 196.813 430.971 196.062 430.971H191.462C190.726 430.971 190.358 431.278 190.358 431.891V436.399C190.358 437.012 190.726 437.319 191.462 437.319ZM203.414 439.297V428.993H205.3L206.174 429.453C206.573 429.238 207.002 429.07 207.462 428.947C207.922 428.824 208.505 428.763 209.21 428.763C210.329 428.763 211.234 428.886 211.924 429.131C212.629 429.376 213.097 429.56 213.327 429.683L212.522 431.684C212.338 431.592 212.031 431.477 211.602 431.339C211.188 431.186 210.697 431.048 210.13 430.925C209.563 430.802 208.942 430.741 208.267 430.741H208.014C207.278 430.741 206.795 430.887 206.565 431.178C206.35 431.469 206.235 431.952 206.22 432.627V439.297H203.414ZM226.269 439.297C225.181 439.297 224.33 439.144 223.716 438.837C223.103 438.53 222.674 438.07 222.428 437.457C222.183 436.844 222.06 436.085 222.06 435.18V430.051C222.06 428.579 222.39 427.498 223.049 426.808C223.709 426.103 224.782 425.75 226.269 425.75H233.192C234.25 425.75 235.055 425.811 235.607 425.934C236.175 426.041 236.458 426.156 236.458 426.279L235.998 428.188C235.738 428.142 234.963 428.096 233.675 428.05C232.403 427.989 230.547 427.958 228.109 427.958H226.936C225.71 427.958 225.096 428.502 225.096 429.591V435.456C225.096 435.977 225.227 436.384 225.487 436.675C225.763 436.951 226.246 437.089 226.936 437.089H227.879C230.425 437.089 232.395 437.066 233.79 437.02C235.201 436.959 236.075 436.897 236.412 436.836L237.355 438.354C237.355 438.431 237.225 438.546 236.964 438.699C236.719 438.852 236.259 438.99 235.584 439.113C234.91 439.236 233.936 439.297 232.663 439.297H226.269ZM240.342 439.297V426.555L240.112 424.715H243.148V439.297H240.342ZM249.794 439.297C248.629 439.297 247.786 439.029 247.264 438.492C246.743 437.94 246.482 437.189 246.482 436.238C246.482 435.241 246.751 434.475 247.287 433.938C247.839 433.401 248.675 433.133 249.794 433.133H250.967C252.117 433.133 253.152 433.164 254.072 433.225C254.992 433.286 255.751 433.348 256.349 433.409V431.891C256.349 431.753 256.334 431.615 256.303 431.477C256.273 431.324 256.181 431.201 256.027 431.109C255.874 431.017 255.613 430.971 255.245 430.971H254.095C252.424 430.971 251.029 431.002 249.909 431.063C248.79 431.109 248.031 431.155 247.632 431.201L247.379 429.453C247.379 429.238 247.962 429.108 249.127 429.062C250.293 429.016 252.24 428.993 254.969 428.993H256.119C256.886 428.993 257.476 429.1 257.89 429.315C258.304 429.53 258.596 429.798 258.764 430.12C258.948 430.442 259.056 430.772 259.086 431.109C259.132 431.431 259.155 431.707 259.155 431.937V439.297H257.269L256.372 438.837C255.728 438.944 254.954 439.052 254.049 439.159C253.145 439.251 252.11 439.297 250.944 439.297H249.794ZM250.392 437.319H255.659C255.997 437.319 256.196 437.288 256.257 437.227C256.319 437.166 256.349 436.974 256.349 436.652V434.881H250.392C249.978 434.881 249.687 434.981 249.518 435.18C249.365 435.379 249.288 435.694 249.288 436.123C249.288 436.552 249.38 436.859 249.564 437.043C249.748 437.227 250.024 437.319 250.392 437.319ZM265.328 439.297C264.301 439.297 263.572 439.243 263.143 439.136C262.714 439.029 262.499 438.921 262.499 438.814L263.189 437.089C263.634 437.135 264.446 437.189 265.627 437.25C266.823 437.296 268.295 437.319 270.043 437.319H271.193C271.576 437.319 271.814 437.219 271.906 437.02C272.013 436.805 272.067 436.522 272.067 436.169C272.067 435.816 272.006 435.533 271.883 435.318C271.776 435.103 271.546 434.996 271.193 434.996H265.535C264.462 434.996 263.687 434.797 263.212 434.398C262.737 433.984 262.499 433.371 262.499 432.558V431.638C262.499 431.423 262.522 431.17 262.568 430.879C262.614 430.588 262.729 430.296 262.913 430.005C263.097 429.714 263.396 429.476 263.81 429.292C264.224 429.093 264.799 428.993 265.535 428.993H271.883C272.803 428.993 273.455 429.047 273.838 429.154C274.221 429.261 274.413 429.369 274.413 429.476L274.183 431.201C273.738 431.155 272.918 431.109 271.722 431.063C270.526 431.002 269.062 430.971 267.329 430.971H266.179C265.796 430.971 265.55 431.078 265.443 431.293C265.351 431.492 265.305 431.73 265.305 432.006C265.305 432.297 265.351 432.543 265.443 432.742C265.55 432.926 265.796 433.018 266.179 433.018H271.837C272.88 433.018 273.646 433.233 274.137 433.662C274.628 434.091 274.873 434.636 274.873 435.295V436.652C274.873 436.928 274.85 437.219 274.804 437.526C274.773 437.833 274.666 438.124 274.482 438.4C274.298 438.661 273.999 438.875 273.585 439.044C273.171 439.213 272.588 439.297 271.837 439.297H265.328ZM280.915 439.297C279.888 439.297 279.159 439.243 278.73 439.136C278.301 439.029 278.086 438.921 278.086 438.814L278.776 437.089C279.221 437.135 280.033 437.189 281.214 437.25C282.41 437.296 283.882 437.319 285.63 437.319H286.78C287.163 437.319 287.401 437.219 287.493 437.02C287.6 436.805 287.654 436.522 287.654 436.169C287.654 435.816 287.593 435.533 287.47 435.318C287.363 435.103 287.133 434.996 286.78 434.996H281.122C280.049 434.996 279.274 434.797 278.799 434.398C278.324 433.984 278.086 433.371 278.086 432.558V431.638C278.086 431.423 278.109 431.17 278.155 430.879C278.201 430.588 278.316 430.296 278.5 430.005C278.684 429.714 278.983 429.476 279.397 429.292C279.811 429.093 280.386 428.993 281.122 428.993H287.47C288.39 428.993 289.042 429.047 289.425 429.154C289.808 429.261 290 429.369 290 429.476L289.77 431.201C289.325 431.155 288.505 431.109 287.309 431.063C286.113 431.002 284.649 430.971 282.916 430.971H281.766C281.383 430.971 281.137 431.078 281.03 431.293C280.938 431.492 280.892 431.73 280.892 432.006C280.892 432.297 280.938 432.543 281.03 432.742C281.137 432.926 281.383 433.018 281.766 433.018H287.424C288.467 433.018 289.233 433.233 289.724 433.662C290.215 434.091 290.46 434.636 290.46 435.295V436.652C290.46 436.928 290.437 437.219 290.391 437.526C290.36 437.833 290.253 438.124 290.069 438.4C289.885 438.661 289.586 438.875 289.172 439.044C288.758 439.213 288.175 439.297 287.424 439.297H280.915ZM214.5 467.297V455.981L211.74 456.188L211.579 454.233L217.536 453.543V467.297H214.5ZM223.686 467.297V455.981L220.926 456.188L220.765 454.233L226.722 453.543V467.297H223.686ZM234.872 467.297C233.707 467.297 232.91 467.052 232.48 466.561C232.051 466.07 231.836 465.334 231.836 464.353V458.971H229.95V456.993H230.916C231.208 456.993 231.415 456.947 231.537 456.855C231.675 456.763 231.775 456.579 231.836 456.303L232.296 453.842H234.642V456.993H239.426V458.971H234.642V464.376C234.642 464.759 234.734 465.012 234.918 465.135C235.102 465.258 235.378 465.319 235.746 465.319H238.989L239.219 467.067C238.897 467.113 238.407 467.167 237.747 467.228C237.088 467.274 236.367 467.297 235.585 467.297H234.872ZM242.19 467.297V452.393H244.996V457.453C245.64 457.33 246.414 457.223 247.319 457.131C248.223 457.039 249.258 456.993 250.424 456.993H251.574C252.34 456.993 252.931 457.1 253.345 457.315C253.759 457.53 254.05 457.798 254.219 458.12C254.403 458.442 254.51 458.772 254.541 459.109C254.587 459.431 254.61 459.707 254.61 459.937V467.297H251.804V459.891C251.804 459.278 251.436 458.971 250.7 458.971H245.686C245.394 458.971 245.203 459.002 245.111 459.063C245.034 459.109 244.996 459.247 244.996 459.477V467.297H242.19Z" fill="white"/>
<path d="M268.934 137.09H204.645C194.758 137.09 186.742 145.105 186.742 154.993V217.659C186.742 227.547 194.758 235.562 204.645 235.562H268.934C278.822 235.562 286.837 227.547 286.837 217.659V154.993C286.837 145.105 278.822 137.09 268.934 137.09Z" fill="white"/>
<path d="M268.936 237.355H204.648C193.788 237.355 184.953 228.52 184.953 217.66V154.995C184.953 144.134 193.788 135.299 204.648 135.299H268.936C279.797 135.299 288.631 144.134 288.631 154.995V217.66C288.631 228.52 279.797 237.355 268.936 237.355ZM204.648 138.885C195.765 138.885 188.537 146.111 188.537 154.997V217.662C188.537 226.546 195.764 233.773 204.648 233.773H268.936C277.821 233.773 285.048 226.547 285.048 217.662V154.995C285.048 146.11 277.822 138.883 268.936 138.883L204.648 138.885Z" fill="#371A45"/>
<path d="M299.016 201.171C299.016 201.171 303.433 214.949 288.914 217.904C286.298 218.442 283.798 218.222 281.562 217.406C271.927 213.854 267.267 198.998 279.924 184.133C280.592 183.345 281.309 182.561 282.075 181.773C282.109 181.743 282.142 181.711 282.171 181.676C282.171 181.676 281.497 180.565 279.349 178.997C278 178.016 276.066 176.851 273.355 175.673L268.152 159.747L268.143 159.72L267.221 156.897L261.594 139.703C261.594 139.703 266.749 141.455 273.34 144.439C275.517 145.424 277.856 146.549 280.216 147.79C280.866 148.13 281.52 148.484 282.174 148.842C282.174 148.842 283.603 149.613 285.843 151.002C297.296 158.132 329.848 181.545 299.016 201.171Z" fill="white"/>
<g opacity="0.2">
<path d="M280.213 147.788C277.274 151.345 272.793 154.458 267.217 156.895L261.59 139.701C261.59 139.701 266.746 141.453 273.336 144.437C275.513 145.422 277.848 146.547 280.213 147.788Z" fill="#371A45"/>
</g>
<path d="M223.43 137.088L206.335 155.806C201.218 153.252 197.2 150.085 194.699 146.524C203.421 141.207 213.254 137.977 223.43 137.088V137.088Z" fill="#D8D8D8"/>
<path d="M272.538 154.162C264.085 159.252 251.719 162.459 237.939 162.459C223.128 162.459 209.948 158.754 201.508 152.994C201.754 152.469 202 151.949 202.256 151.425C202.256 151.425 197.543 124.33 221.126 115.119C226.659 113.992 232.292 113.43 237.939 113.444C244.072 113.444 249.923 114.08 255.276 115.236C275.557 124.541 271.244 151.425 271.244 151.425C271.687 152.339 272.121 153.253 272.538 154.162Z" fill="#D8D8D8"/>
<g opacity="0.2">
<path d="M271.798 162.713L273.351 175.668C280.384 178.722 282.171 181.671 282.171 181.671C282.138 181.705 282.104 181.739 282.074 181.768C283.961 180.212 286.492 178.432 289.149 177.432C289.149 177.432 284.139 174.831 282.616 172.818C277.718 166.38 277.616 164.057 275.742 161.406C275.136 160.558 271.11 161.288 271.798 162.713Z" fill="#371A45"/>
</g>
<g opacity="0.2">
<path d="M288.916 217.906C303.264 214.981 299.119 201.493 299.022 201.172C299.022 201.172 296.531 214.524 283.56 210.861C275.266 208.515 275.967 196.825 277.551 188.705C277.411 188.384 277.296 188.053 277.205 187.715H277.2C265.747 204.743 275.923 220.556 288.916 217.906Z" fill="#371A45"/>
</g>
<path d="M286.117 219.989C280.568 219.989 275.506 216.978 272.693 211.793C268.926 204.856 268.904 193.39 279.742 181.635C278.798 180.756 277.009 179.376 273.912 177.902C273.696 177.802 273.503 177.661 273.342 177.486C273.182 177.312 273.058 177.107 272.977 176.884C272.896 176.661 272.861 176.424 272.872 176.187C272.884 175.95 272.942 175.717 273.044 175.503C273.146 175.289 273.29 175.097 273.467 174.939C273.643 174.781 273.85 174.659 274.074 174.581C274.298 174.503 274.535 174.471 274.772 174.485C275.009 174.5 275.241 174.561 275.453 174.666C281.694 177.638 283.521 180.441 283.709 180.752L284.43 181.944L283.452 182.937C272.834 193.728 272.559 204.038 275.841 210.087C278.452 214.904 283.324 217.225 288.553 216.157C292.377 215.377 295.053 213.72 296.511 211.231C298.968 207.034 297.326 201.776 297.31 201.724L296.888 200.408L298.053 199.665C306.3 194.415 310.363 188.534 310.132 182.184C309.534 165.799 281.605 150.576 281.323 150.424C271.428 144.964 261.116 141.442 261.013 141.408C260.567 141.252 260.201 140.926 259.994 140.502C259.787 140.077 259.756 139.588 259.907 139.141C260.059 138.693 260.381 138.324 260.804 138.113C261.226 137.902 261.715 137.866 262.164 138.013C262.596 138.16 272.87 141.666 283.039 147.277C284.246 147.927 313.036 163.618 313.713 182.049C313.985 189.461 309.729 196.162 301.059 201.982C301.516 204.24 302.022 208.92 299.604 213.043C297.61 216.448 294.133 218.677 289.269 219.669C288.232 219.881 287.176 219.988 286.117 219.989V219.989Z" fill="#371A45"/>
<path d="M299.287 202.599C296.685 203.568 293.925 204.221 291.133 204.172C292.127 203.479 293.518 202.561 294.528 201.882C295.625 201.155 296.755 200.409 297.869 199.742L299.287 202.599V202.599Z" fill="#371A45"/>
<path d="M308.711 193.765C308.535 193.765 308.36 193.73 308.197 193.662C308.034 193.593 307.886 193.494 307.761 193.369C307.637 193.243 307.538 193.095 307.471 192.931C307.404 192.768 307.37 192.593 307.371 192.416C307.379 189.259 304.515 185.871 300.076 183.788C294.739 181.283 286.636 180.613 279.898 186.241C279.764 186.359 279.607 186.448 279.437 186.504C279.267 186.56 279.088 186.581 278.909 186.567C278.731 186.553 278.558 186.503 278.399 186.421C278.24 186.339 278.099 186.226 277.984 186.089C277.87 185.952 277.784 185.793 277.731 185.622C277.679 185.451 277.661 185.271 277.679 185.093C277.696 184.915 277.75 184.743 277.835 184.586C277.92 184.429 278.036 184.29 278.176 184.178C285.884 177.741 295.133 178.5 301.218 181.355C306.599 183.881 310.069 188.225 310.058 192.423C310.056 192.779 309.914 193.12 309.661 193.372C309.409 193.623 309.067 193.765 308.711 193.765Z" fill="#371A45"/>
<path d="M280.77 180.414C283.441 179.065 286.226 177.862 289.152 177.27C286.722 178.811 284.643 180.826 282.731 182.93L280.771 180.414H280.77Z" fill="#371A45"/>
<path d="M235.39 234.654C235.112 239.13 234.933 243.601 234.817 247.96C234.79 249.062 234.763 250.159 234.74 251.243C234.369 270.364 235.09 286.676 233.661 290.797C231.707 296.407 226.636 296.894 226.636 296.894H209.293C209.293 296.894 197.306 297.495 194.119 294.564C190.932 291.633 191.247 287.472 193.572 284.591C195.561 282.119 199.127 281.079 199.127 281.079C199.127 281.079 196.719 263.24 194.253 239.491C194.157 238.528 194.052 237.557 193.953 236.575C193.201 229.237 192.457 221.406 191.781 213.404L235.39 234.654Z" fill="white"/>
<g opacity="0.2">
<path d="M235.393 234.655C235.115 239.131 234.936 243.602 234.819 247.96C234.792 249.063 234.765 250.16 234.743 251.244C215.067 252.4 201.851 245.463 194.258 239.489C194.161 238.526 194.056 237.555 193.958 236.573C193.205 229.235 192.462 221.404 191.785 213.402L235.393 234.655Z" fill="#371A45"/>
</g>
<g opacity="0.2">
<path d="M194.119 294.564C197.298 297.489 209.289 296.892 209.289 296.892H226.632C226.632 296.892 231.706 296.402 233.659 290.794C233.904 290.092 234.087 289.034 234.222 287.663C232 289.385 229.748 289.601 229.748 289.601H210.139C210.139 289.601 196.59 290.276 192.988 286.965C192.8 286.794 192.62 286.612 192.45 286.422C191.261 289.066 191.564 292.215 194.119 294.564Z" fill="#371A45"/>
</g>
<path d="M206.505 298.753C202.417 298.753 195.596 298.358 192.908 295.886C189.335 292.6 189.027 287.378 192.177 283.47C193.642 281.653 195.761 280.512 197.167 279.905C196.3 273.293 192.615 244.501 189.995 213.558C189.955 213.085 190.104 212.614 190.411 212.251C190.718 211.888 191.156 211.662 191.63 211.622C192.103 211.582 192.573 211.731 192.937 212.038C193.3 212.345 193.526 212.783 193.566 213.257C196.531 248.268 200.863 280.52 200.906 280.842C200.964 281.267 200.867 281.699 200.633 282.058C200.399 282.418 200.044 282.682 199.632 282.802C199.606 282.809 196.572 283.728 194.967 285.718C193.31 287.774 192.781 290.899 195.333 293.247C197.146 294.913 204.533 295.335 209.201 295.107C209.23 295.107 209.26 295.107 209.29 295.107H226.523C227.041 295.03 230.526 294.358 231.968 290.211C232.819 287.766 232.82 279.201 232.822 269.284C232.822 259.334 232.822 246.951 233.603 234.544C233.633 234.07 233.85 233.627 234.206 233.312C234.563 232.998 235.03 232.838 235.504 232.868C235.978 232.898 236.422 233.115 236.736 233.471C237.05 233.828 237.21 234.294 237.18 234.769C236.41 247.063 236.41 259.385 236.41 269.285C236.41 280.778 236.41 288.372 235.358 291.387C233.054 298.009 227.063 298.658 226.809 298.683C226.752 298.688 226.695 298.691 226.638 298.691H209.333C208.801 298.715 207.787 298.753 206.505 298.753Z" fill="#371A45"/>
<path d="M217.931 264.406C210.852 264.406 202.674 263.516 195.65 260.412C195.23 260.211 194.905 259.855 194.744 259.418C194.583 258.982 194.597 258.5 194.785 258.074C194.973 257.648 195.319 257.312 195.75 257.137C196.182 256.962 196.664 256.962 197.095 257.136C212.202 263.809 234.041 259.331 234.261 259.284C234.491 259.236 234.729 259.233 234.96 259.277C235.191 259.32 235.412 259.409 235.609 259.537C235.806 259.666 235.976 259.832 236.109 260.026C236.242 260.221 236.335 260.439 236.383 260.67C236.432 260.9 236.434 261.138 236.391 261.369C236.347 261.6 236.259 261.821 236.13 262.018C236.001 262.215 235.835 262.385 235.641 262.518C235.447 262.651 235.228 262.744 234.998 262.792C234.469 262.897 227.128 264.406 217.931 264.406Z" fill="#371A45"/>
<path d="M198.712 279.34C203.422 278.559 208.05 278.945 212.667 279.71C212.891 279.75 213.092 279.873 213.229 280.055C213.366 280.238 213.428 280.465 213.404 280.691C213.379 280.918 213.269 281.126 213.097 281.275C212.924 281.424 212.702 281.501 212.474 281.492C208.164 281.346 203.632 281.566 199.553 282.824C197.106 283.499 196.224 279.864 198.713 279.34H198.712Z" fill="#371A45"/>
<path d="M238.109 234.655C238.388 239.131 238.567 243.602 238.687 247.961C238.713 249.063 238.74 250.16 238.764 251.244C239.136 270.365 238.414 286.677 239.843 290.798C241.796 296.408 246.868 296.895 246.868 296.895H264.211C264.211 296.895 276.195 297.496 279.38 294.566C282.566 291.636 282.252 287.474 279.927 284.593C277.938 282.121 274.372 281.081 274.372 281.081C274.372 281.081 276.781 263.242 279.246 239.493C279.343 238.53 279.448 237.558 279.546 236.577C280.298 229.239 281.042 221.408 281.719 213.406L238.109 234.655Z" fill="white"/>
<g opacity="0.2">
<path d="M238.109 234.655C238.388 239.131 238.567 243.602 238.687 247.96C238.713 249.063 238.74 250.16 238.764 251.244C258.439 252.4 271.655 245.463 279.249 239.489C279.346 238.526 279.451 237.555 279.549 236.573C280.301 229.235 281.045 221.404 281.722 213.402L238.109 234.655Z" fill="#371A45"/>
</g>
<g opacity="0.2">
<path d="M279.383 294.564C276.204 297.489 264.214 296.892 264.214 296.892H246.871C246.871 296.892 241.797 296.402 239.844 290.794C239.598 290.092 239.416 289.034 239.281 287.663C241.503 289.385 243.754 289.601 243.754 289.601H263.363C263.363 289.601 276.913 290.276 280.514 286.965C280.702 286.794 280.882 286.612 281.052 286.422C282.241 289.066 281.938 292.215 279.383 294.564Z" fill="#371A45"/>
</g>
<path d="M266.999 298.753C265.717 298.753 264.703 298.715 264.17 298.689H246.87C246.814 298.689 246.756 298.689 246.699 298.681C246.446 298.656 240.453 298.007 238.151 291.386C237.101 288.37 237.1 280.776 237.099 269.283C237.099 259.383 237.099 247.061 236.328 234.767C236.298 234.293 236.458 233.826 236.772 233.469C237.087 233.113 237.53 232.896 238.004 232.866C238.479 232.836 238.945 232.996 239.302 233.31C239.658 233.625 239.875 234.068 239.905 234.542C240.683 246.95 240.685 259.333 240.687 269.282C240.687 279.199 240.687 287.764 241.539 290.209C242.975 294.334 246.429 295.02 246.989 295.105H264.218C264.248 295.105 264.278 295.105 264.307 295.105C268.974 295.333 276.362 294.912 278.175 293.245C280.727 290.897 280.198 287.772 278.541 285.716C276.937 283.726 273.903 282.807 273.872 282.799C273.462 282.677 273.108 282.413 272.875 282.054C272.643 281.695 272.546 281.264 272.602 280.84C272.645 280.518 276.977 248.266 279.942 213.255C279.982 212.781 280.208 212.343 280.572 212.036C280.935 211.729 281.405 211.58 281.879 211.62C282.352 211.66 282.79 211.886 283.097 212.249C283.404 212.613 283.554 213.083 283.514 213.556C280.893 244.499 277.207 273.294 276.341 279.903C277.747 280.509 279.867 281.65 281.331 283.468C284.481 287.376 284.174 292.598 280.6 295.884C277.908 298.358 271.087 298.753 266.999 298.753Z" fill="#371A45"/>
<path d="M255.57 264.406C246.372 264.406 239.033 262.902 238.502 262.79C238.272 262.742 238.053 262.648 237.859 262.515C237.664 262.383 237.498 262.213 237.37 262.016C237.241 261.819 237.152 261.598 237.109 261.367C237.065 261.135 237.068 260.898 237.116 260.667C237.165 260.437 237.258 260.218 237.391 260.024C237.524 259.83 237.694 259.664 237.891 259.535C238.088 259.406 238.308 259.318 238.54 259.274C238.771 259.231 239.009 259.233 239.239 259.282C239.458 259.328 261.32 263.798 276.403 257.134C276.62 257.027 276.857 256.964 277.099 256.95C277.34 256.936 277.582 256.972 277.81 257.054C278.038 257.137 278.247 257.264 278.424 257.43C278.601 257.595 278.742 257.794 278.84 258.016C278.938 258.238 278.99 258.477 278.992 258.719C278.995 258.961 278.949 259.201 278.856 259.425C278.763 259.649 278.626 259.851 278.453 260.021C278.28 260.19 278.074 260.323 277.849 260.41C270.828 263.51 262.648 264.406 255.57 264.406Z" fill="#371A45"/>
<path d="M273.954 282.823C269.873 281.564 265.343 281.345 261.032 281.49C259.924 281.53 259.749 279.905 260.839 279.709C265.457 278.944 270.083 278.552 274.795 279.339C277.278 279.859 276.409 283.491 273.955 282.823H273.954Z" fill="#371A45"/>
<path d="M266.999 298.753C265.717 298.753 264.703 298.715 264.17 298.689H246.87C246.814 298.689 246.756 298.689 246.699 298.681C246.446 298.656 240.453 298.007 238.151 291.386C237.101 288.37 237.1 280.776 237.099 269.283C237.099 259.383 237.099 247.061 236.328 234.767C236.298 234.293 236.458 233.826 236.772 233.469C237.087 233.113 237.53 232.896 238.004 232.866C238.479 232.836 238.945 232.996 239.302 233.31C239.658 233.625 239.875 234.068 239.905 234.542C240.683 246.95 240.685 259.333 240.687 269.282C240.687 279.199 240.687 287.764 241.54 290.209C242.975 294.334 246.43 295.02 246.99 295.105H264.218C264.248 295.105 264.278 295.105 264.307 295.105C268.975 295.334 276.362 294.912 278.175 293.245C280.727 290.897 280.198 287.772 278.541 285.716C276.937 283.726 273.903 282.807 273.872 282.799C273.462 282.677 273.108 282.413 272.875 282.054C272.643 281.695 272.546 281.264 272.602 280.84C272.645 280.518 276.977 248.266 279.942 213.255C279.982 212.781 280.208 212.343 280.572 212.036C280.935 211.729 281.405 211.58 281.879 211.62C282.352 211.66 282.79 211.886 283.097 212.249C283.404 212.613 283.554 213.083 283.514 213.556C280.893 244.499 277.207 273.294 276.341 279.903C277.747 280.509 279.867 281.65 281.331 283.468C284.481 287.376 284.174 292.598 280.601 295.884C277.908 298.358 271.087 298.753 266.999 298.753Z" fill="#371A45"/>
<path d="M271.247 151.425C282.52 174.749 287.592 196.095 284.152 212.688C282.924 218.608 280.876 223.48 278.254 227.485C272.593 236.115 264.229 240.709 255.515 243.05C249.146 244.76 242.588 245.266 236.757 245.266C232.268 245.266 227.347 244.965 222.413 244.046C221.029 243.788 219.645 243.481 218.27 243.12C210.501 241.076 202.994 237.261 197.406 230.416C193.745 225.927 190.904 220.135 189.36 212.687C185.919 196.094 190.99 174.748 202.264 151.424" fill="white"/>
<path d="M285.209 201.171C285.25 205.218 284.904 209.065 284.149 212.689C283.98 213.519 283.792 214.327 283.586 215.113C282.34 219.956 280.512 224.042 278.25 227.487C272.591 236.115 264.227 240.707 255.511 243.05C249.14 244.761 242.582 245.266 236.753 245.266C232.264 245.266 227.341 244.966 222.409 244.048C221.024 243.787 219.64 243.483 218.266 243.121C210.493 241.077 202.988 237.261 197.398 230.415C194.122 226.396 191.502 221.33 189.876 214.968C189.683 214.224 189.513 213.467 189.352 212.687C188.599 209.064 188.254 205.215 188.292 201.17C188.418 186.681 193.44 169.653 202.257 151.424C202.257 151.424 195.705 113.729 236.75 112.148C277.796 110.567 271.244 151.424 271.244 151.424C280.065 169.655 285.083 186.683 285.209 201.171Z" fill="white"/>
<g opacity="0.2">
<path d="M272.538 154.162C264.085 159.252 251.719 162.459 237.939 162.459C223.128 162.459 209.948 158.754 201.508 152.994C201.754 152.469 202 151.949 202.256 151.425C202.256 151.425 197.543 124.33 221.126 115.119C226.659 113.992 232.292 113.43 237.939 113.444C244.072 113.444 249.923 114.08 255.276 115.236C275.557 124.541 271.244 151.425 271.244 151.425C271.687 152.339 272.121 153.253 272.538 154.162Z" fill="#371A45"/>
</g>
<g opacity="0.2">
<path d="M284.153 212.689C282.926 218.607 280.883 223.48 278.254 227.486C272.595 236.114 264.231 240.706 255.515 243.05C249.144 244.761 242.586 245.266 236.757 245.266C232.268 245.266 227.345 244.965 222.413 244.047C221.028 243.787 219.644 243.482 218.27 243.12C210.497 241.076 202.992 237.26 197.402 230.414C193.741 225.925 190.901 220.133 189.356 212.686C188.406 208.107 188.103 203.166 188.406 197.92C188.543 200.385 188.861 202.836 189.356 205.254C190.897 212.704 193.742 218.492 197.402 222.983C202.99 229.828 210.497 233.646 218.27 235.688C219.645 236.051 221.029 236.356 222.413 236.615C227.345 237.534 232.268 237.834 236.757 237.834C242.586 237.834 249.144 237.328 255.515 235.618C264.233 233.28 272.597 228.681 278.254 220.055C280.883 216.05 282.926 211.176 284.153 205.258C284.649 202.84 284.967 200.388 285.103 197.924C285.404 203.169 285.103 208.11 284.153 212.689Z" fill="#371A45"/>
</g>
<path d="M196.703 230.983C193.257 228.177 191.059 224.158 189.519 220.06C184.804 207.787 185.781 194.088 189.134 181.616C189.252 181.16 189.545 180.769 189.949 180.528C190.352 180.286 190.835 180.213 191.293 180.324C191.75 180.436 192.145 180.723 192.393 181.123C192.64 181.523 192.721 182.005 192.616 182.464C192.194 184.495 191.789 186.525 191.447 188.562C190.17 196.627 189.695 204.933 191.389 212.944C192.523 219.014 195.269 224.404 198.094 229.854C198.551 230.711 197.46 231.614 196.706 230.987L196.703 230.983Z" fill="#371A45"/>
<path d="M255.747 243.914C245.727 247.727 233.008 247.908 222.623 245.442C221.074 245.011 219.54 244.519 218.039 243.986C217.928 243.947 217.826 243.886 217.738 243.807C217.651 243.728 217.579 243.633 217.529 243.526C217.478 243.42 217.449 243.305 217.443 243.187C217.436 243.069 217.454 242.951 217.493 242.84C217.565 242.641 217.705 242.472 217.888 242.365C218.071 242.258 218.286 242.218 218.495 242.253C220.053 242.386 221.569 242.638 223.094 242.808C230.732 243.601 238.442 243.661 246.101 243.178C249.164 242.965 252.214 242.622 255.287 242.182C256.323 242.034 256.732 243.524 255.747 243.917V243.914Z" fill="#371A45"/>
<path d="M276.569 161.07C285.597 179.551 292.004 204.059 282.366 223.455C280.912 226.237 279.078 228.846 276.797 230.983C276.037 231.679 274.862 230.748 275.409 229.849C288.822 208.956 282.364 183.641 274.913 161.758C274.574 160.732 276.052 160.067 276.569 161.07V161.07Z" fill="#371A45"/>
<g opacity="0.2">
<path d="M265.276 201.171V190.453C265.272 188.916 264.659 187.443 263.572 186.356C262.486 185.269 261.013 184.657 259.476 184.652H213.675C212.138 184.657 210.665 185.269 209.578 186.356C208.492 187.443 207.879 188.916 207.874 190.453V201.171H188.297L189.879 214.969C195.457 214.216 201.685 213.409 207.874 212.679V219.672C207.879 221.209 208.492 222.682 209.578 223.768C210.665 224.855 212.138 225.468 213.675 225.472H259.476C261.013 225.468 262.486 224.855 263.572 223.768C264.659 222.682 265.272 221.209 265.276 219.672V212.584C271.635 213.385 278.018 214.286 283.591 215.113C283.797 214.324 283.985 213.516 284.155 212.688C284.908 209.065 285.254 205.216 285.215 201.171H265.276Z" fill="#371A45"/>
</g>
<path d="M262.261 196.391C262.261 196.391 277.592 195.222 284.046 199.868C290.903 204.806 283.994 210.519 283.994 210.519C283.994 210.519 271.647 207.821 261.277 208.206L262.261 196.391Z" fill="white"/>
<g opacity="0.2">
<path d="M283.996 210.52C283.996 210.52 271.644 207.822 261.277 208.208L261.649 203.719C268.856 203.499 276.933 204.727 281.124 205.481C283.351 205.882 285.61 204.76 286.536 202.695C286.545 202.674 286.554 202.654 286.563 202.635C288.592 206.716 283.996 210.52 283.996 210.52Z" fill="#371A45"/>
</g>
<path d="M212.527 196.391C212.527 196.391 197.196 195.222 190.742 199.868C183.884 204.806 190.793 210.519 190.793 210.519C190.793 210.519 203.141 207.821 213.511 208.206L212.527 196.391Z" fill="white"/>
<path d="M284.465 212.456L283.613 212.27C283.492 212.244 271.355 209.629 261.344 209.999L259.32 210.075L260.604 194.721L262.126 194.605C262.779 194.555 278.19 193.443 285.094 198.415C287.521 200.163 288.792 202.236 288.87 204.582C289.007 208.656 285.295 211.772 285.137 211.904L284.465 212.456ZM263.39 206.379C271.742 206.379 280.573 208 283.438 208.574C284.251 207.707 285.343 206.185 285.287 204.689C285.243 203.517 284.474 202.386 282.999 201.324C278.651 198.193 268.857 197.899 263.922 198.093L263.232 206.38L263.39 206.379Z" fill="#371944"/>
<path d="M284.465 212.454L283.613 212.268C283.492 212.242 271.355 209.628 261.344 209.997L259.32 210.073L260.604 194.719L262.126 194.603C262.779 194.553 278.19 193.441 285.094 198.413C287.521 200.161 288.792 202.235 288.87 204.58C289.007 208.654 285.295 211.77 285.137 211.902L284.465 212.454ZM263.39 206.377C271.742 206.377 280.573 207.998 283.438 208.572C284.251 207.705 285.343 206.183 285.287 204.687C285.243 203.515 284.474 202.384 282.999 201.322C278.651 198.191 268.857 197.897 263.922 198.091L263.232 206.378L263.39 206.377Z" fill="#371944"/>
<path d="M190.317 212.456L189.643 211.901C189.485 211.77 185.774 208.654 185.91 204.578C185.988 202.235 187.259 200.161 189.686 198.412C196.59 193.44 212.001 194.551 212.654 194.601L214.177 194.717L215.455 210.071L213.432 209.996C203.417 209.628 191.283 212.241 191.162 212.267L190.317 212.456ZM208.417 198.047C203.175 198.047 195.489 198.654 191.782 201.323C190.308 202.383 189.538 203.516 189.495 204.688C189.439 206.183 190.53 207.7 191.345 208.574C194.21 207.996 203.042 206.378 211.392 206.378H211.554L210.864 198.092C210.142 198.065 209.315 198.047 208.417 198.047V198.047Z" fill="#371944"/>
<path d="M263.25 191.822V213.653C263.25 217.705 260.059 221.019 256.162 221.019H217.451C213.55 221.019 210.363 217.705 210.363 213.653V191.822C210.363 187.775 213.55 184.461 217.451 184.461H256.162C259.275 184.461 261.943 186.581 262.884 189.493C263.126 190.246 263.25 191.032 263.25 191.822V191.822Z" fill="white"/>
<g opacity="0.2">
<path d="M263.25 191.822V213.653C263.25 217.705 260.059 221.019 256.162 221.019H217.451C213.55 221.019 210.363 217.705 210.363 213.653V206.306C217.042 210.145 230.273 215.91 243.553 211.153C250.041 208.828 257.478 200.858 257.478 200.858C257.478 200.858 257.767 209.22 258.96 209.088C262.281 208.721 262.257 191.802 262.884 189.494C263.126 190.246 263.25 191.032 263.25 191.822V191.822Z" fill="#371A45"/>
</g>
<path d="M256.427 222.81H217.186C214.902 222.807 212.712 221.899 211.097 220.283C209.481 218.668 208.573 216.478 208.57 214.194V191.286C208.573 189.001 209.481 186.811 211.097 185.196C212.712 183.581 214.902 182.672 217.186 182.67H256.427C258.711 182.672 260.901 183.581 262.516 185.196C264.131 186.811 265.04 189.001 265.042 191.286V214.194C265.04 216.478 264.131 218.668 262.516 220.283C260.901 221.899 258.711 222.807 256.427 222.81ZM217.186 186.254C215.852 186.256 214.573 186.786 213.63 187.729C212.686 188.673 212.155 189.952 212.154 191.286V214.194C212.155 215.528 212.686 216.807 213.63 217.75C214.573 218.693 215.852 219.224 217.186 219.225H256.427C257.761 219.224 259.04 218.693 259.983 217.75C260.927 216.807 261.457 215.528 261.459 214.194V191.286C261.457 189.952 260.927 188.673 259.983 187.729C259.04 186.786 257.761 186.256 256.427 186.254H217.186Z" fill="#371944"/>
<path d="M250.52 209.088C253.896 209.088 256.633 206.245 256.633 202.739C256.633 199.233 253.896 196.391 250.52 196.391C247.143 196.391 244.406 199.233 244.406 202.739C244.406 206.245 247.143 209.088 250.52 209.088Z" fill="#22A7F0"/>
<path d="M256.633 202.742C256.634 203.165 256.594 203.587 256.513 204.002C255.948 201.095 253.478 198.907 250.518 198.907C247.558 198.907 245.087 201.095 244.527 204.002C244.446 203.587 244.405 203.165 244.406 202.742C244.406 199.236 247.142 196.391 250.518 196.391C253.894 196.391 256.633 199.235 256.633 202.742Z" fill="white"/>
<path d="M256.631 202.742C256.631 206.251 253.893 209.09 250.519 209.09C247.145 209.09 244.406 206.251 244.406 202.742C244.406 202.168 244.481 201.596 244.628 201.041C245.347 203.719 247.711 205.685 250.519 205.685C253.326 205.685 255.691 203.719 256.41 201.041C256.557 201.596 256.631 202.168 256.631 202.742Z" fill="#1C7AEA"/>
<path d="M250.52 210.432C246.408 210.432 243.062 206.982 243.062 202.74C243.062 198.497 246.408 195.047 250.52 195.047C254.632 195.047 257.978 198.498 257.978 202.74C257.978 206.981 254.628 210.432 250.52 210.432ZM250.52 197.735C247.891 197.735 245.751 199.98 245.751 202.74C245.751 205.499 247.891 207.744 250.52 207.744C253.149 207.744 255.289 205.499 255.289 202.74C255.289 199.98 253.149 197.732 250.52 197.732V197.735Z" fill="#371944"/>
<path d="M231.175 222.81C230.699 222.81 230.243 222.621 229.907 222.285C229.571 221.949 229.382 221.493 229.382 221.018V209.841C229.382 207.637 228.377 205.536 226.691 204.217L225.709 203.446C223.161 201.454 221.641 198.296 221.641 194.998V184.462C221.641 183.987 221.829 183.531 222.166 183.195C222.502 182.859 222.957 182.67 223.433 182.67C223.908 182.67 224.364 182.859 224.7 183.195C225.036 183.531 225.225 183.987 225.225 184.462V195.005C225.225 197.209 226.231 199.312 227.916 200.629L228.899 201.4C231.446 203.392 232.967 206.549 232.967 209.847V221.023C232.965 221.498 232.776 221.952 232.44 222.287C232.104 222.622 231.649 222.81 231.175 222.81V222.81Z" fill="#371944"/>
<path d="M237.18 182.627C238.116 188.137 237.395 191.534 236.105 193.867C235.258 195.409 234.156 196.493 233.126 197.411C229.116 200.986 216.504 201.94 216.504 201.94C216.504 201.94 192.129 212.376 177.067 205.063C167.028 200.184 164.541 186.082 168.945 175.056C169.286 174.209 169.685 173.322 170.146 172.391C170.147 172.386 170.147 172.382 170.146 172.377C176.589 159.385 194.71 139.656 223.428 137.088L199.227 163.584L195.444 173.932C205.484 173.829 212.517 173.565 214.538 172.642C216.558 171.719 215.958 164.69 217.916 161.997C219.013 160.484 223.26 160.56 224.609 163.494C226.195 166.962 223.945 170.999 226.06 172.561C227.633 173.726 233.287 171.818 236.592 174.837C238.457 176.539 237.961 180.432 237.18 182.627Z" fill="white"/>
<g opacity="0.2">
<path d="M223.43 137.088L206.335 155.806C201.218 153.252 197.2 150.085 194.699 146.524C203.421 141.207 213.254 137.977 223.43 137.088V137.088Z" fill="#371A45"/>
</g>
<g opacity="0.2">
<path d="M236.105 193.869C235.258 195.411 234.156 196.495 233.126 197.413C229.116 200.988 216.504 201.941 216.504 201.941C216.504 201.941 192.129 212.378 177.067 205.065C167.028 200.186 164.541 186.084 168.945 175.058C169.286 174.211 169.685 173.323 170.146 172.393C169.975 173.055 163.691 197.932 181.419 202.743C197.337 207.065 209.984 196.937 215.099 196.395C219.336 195.944 228.793 200.213 236.105 193.869Z" fill="#371A45"/>
</g>
<path d="M223.589 138.877C206.053 140.356 189.481 149.399 178.416 163.042C174.807 167.521 171.557 172.453 169.832 177.958C167.509 185.81 168.357 195.508 174.574 201.241C180.975 206.748 190.999 206.333 198.916 205.088C204.699 204.097 210.359 202.489 215.799 200.291C215.981 200.216 216.173 200.169 216.369 200.151C219.078 199.92 221.769 199.523 224.428 198.962C226.843 198.42 229.613 197.709 231.572 196.36C235.995 193.077 236.308 188.11 235.413 182.927C235.362 182.625 235.389 182.314 235.492 182.025C236.016 180.472 236.324 178.551 235.869 176.996C235.717 176.586 235.612 176.344 235.281 176.076C234.559 175.444 233.547 175.088 232.366 174.92C229.166 174.398 224.39 176.023 223.429 171.436C222.794 168.432 224.971 163.218 220.57 162.821C220.068 162.797 219.576 162.907 219.356 163.065C219.215 163.271 219.098 163.492 219.007 163.725C217.827 166.615 218.332 170.381 216.537 173.221C215.72 174.493 213.738 174.783 212.463 174.977C209.517 175.376 206.72 175.459 203.888 175.566C200.974 175.635 198.071 175.738 195.17 175.704C194.014 175.646 193.257 174.355 193.758 173.316L198.383 163.281C198.857 162.294 200.345 162.845 200.066 163.898L197.122 174.548L195.421 172.139C198.215 172.109 201.001 172.069 203.774 171.983C207.136 171.79 210.646 171.895 213.768 171.019C213.806 171.005 213.76 171.019 213.743 171.034C213.726 171.048 213.6 171.144 213.641 171.103C213.987 170.525 214.123 169.675 214.282 168.873C214.797 166.261 214.83 163.401 216.45 160.956C217.393 159.625 219.308 159.158 220.716 159.239C225.01 159.424 227.171 162.923 227.007 166.908C227.065 168.273 226.636 169.902 227.046 171.045C227.063 171.08 227.155 171.136 227.056 171.077C227.272 171.181 228.062 171.197 228.438 171.203C231.604 171.135 235.77 171.203 238.159 173.887C240.321 176.522 239.822 180.246 238.863 183.233L238.942 182.331C239.691 186.661 239.756 191.934 237 195.82C236.072 197.126 234.953 198.284 233.681 199.258C232.271 200.269 230.846 200.819 229.431 201.321C225.248 202.689 220.996 203.321 216.635 203.729L217.206 203.59C211.504 205.9 205.569 207.587 199.504 208.62C190.432 210.047 179.56 210.294 172.182 203.907C164.838 197.177 163.703 186.042 166.401 176.923C172.04 160.104 188.903 145.429 205.287 139.396C211.056 137.2 217.138 135.884 223.27 135.304C223.506 135.28 223.744 135.303 223.971 135.372C224.198 135.441 224.409 135.555 224.592 135.706C224.774 135.857 224.925 136.042 225.036 136.252C225.146 136.462 225.214 136.691 225.235 136.928C225.256 137.164 225.23 137.402 225.159 137.628C225.087 137.854 224.971 138.063 224.818 138.244C224.665 138.425 224.478 138.574 224.267 138.682C224.056 138.79 223.825 138.855 223.589 138.874V138.877Z" fill="#371A45"/>
<path d="M178.902 178.077C178.902 178.077 183.142 174.704 195.444 173.934Z" fill="white"/>
<path d="M178.345 177.372C180.805 175.541 183.727 174.57 186.631 173.753C189.395 172.982 192.481 172.486 195.332 172.143C197.812 171.916 198.103 175.558 195.61 175.719C191.454 175.785 187.141 176.115 183.145 177.274C181.844 177.659 180.523 178.125 179.369 178.829C178.428 179.391 177.497 178.068 178.344 177.372H178.345Z" fill="#371A45"/>
<path d="M181.009 207.88C180.794 207.881 180.582 207.829 180.391 207.731C180.2 207.632 180.036 207.489 179.912 207.313C175.791 201.492 174.749 195.549 176.813 189.647C180.227 179.89 190.784 173.884 195.071 172.642C195.245 172.575 195.431 172.545 195.618 172.554C195.804 172.563 195.987 172.611 196.154 172.694C196.321 172.777 196.469 172.894 196.589 173.037C196.709 173.181 196.797 173.347 196.849 173.526C196.901 173.706 196.915 173.894 196.891 174.079C196.866 174.264 196.804 174.442 196.707 174.602C196.61 174.761 196.481 174.899 196.328 175.006C196.175 175.113 196.002 175.188 195.818 175.224C191.508 176.477 182.251 182.243 179.35 190.535C177.59 195.568 178.517 200.69 182.105 205.759C182.247 205.96 182.332 206.196 182.349 206.442C182.366 206.687 182.315 206.933 182.202 207.152C182.089 207.371 181.918 207.554 181.708 207.683C181.497 207.811 181.256 207.878 181.009 207.879V207.88Z" fill="#371A45"/>
<path d="M307.468 56.8008C307.468 56.8008 323.779 62.9846 325.456 66.0042C328.564 71.6022 327.987 104.508 319.386 113.086C316.019 116.446 291.285 119.585 291.285 119.585L307.468 56.8008Z" fill="white"/>
<g opacity="0.2">
<path d="M291.293 119.584C291.293 119.584 316.027 116.444 319.392 113.084C322.756 109.724 324.884 102.678 326.049 94.9844C325.776 95.2311 317.04 102.77 299.613 87.4449L299.581 87.418L291.293 119.584Z" fill="#371A45"/>
</g>
<path d="M236.758 91.1445V91.4265L236.578 91.2879L236.758 91.1445Z" fill="#D8D8D8"/>
<path d="M236.582 91.2879L236.402 91.4265V91.1445L236.582 91.2879Z" fill="#D8D8D8"/>
<path d="M182.709 119.584C182.709 119.584 157.975 116.444 154.61 113.084C151.246 109.724 149.118 102.678 147.954 94.9846C146.131 82.9773 146.655 69.4218 148.55 66.0081C150.225 62.9884 166.537 56.8008 166.537 56.8008L174.426 87.422L182.709 119.584Z" fill="white"/>
<g opacity="0.2">
<path d="M182.705 119.584C182.705 119.584 157.971 116.444 154.606 113.084C151.242 109.724 149.114 102.678 147.949 94.9844C148.223 95.2311 156.958 102.77 174.386 87.4449C174.395 87.4363 174.408 87.4266 174.417 87.418L182.705 119.584Z" fill="#371A45"/>
</g>
<path d="M288.895 121.696L306.232 54.416L308.103 55.1252C313.191 57.0522 325.223 61.8919 327.022 65.135C330.467 71.34 330.03 105.001 320.656 114.356C317.039 117.964 295.746 120.826 291.514 121.363L288.895 121.696ZM308.7 59.1998L293.687 117.459C304.818 115.918 316.426 113.517 318.123 111.819C326.064 103.896 326.674 71.8902 323.889 66.8751C323.053 65.4983 315.701 61.9747 308.7 59.1998V59.1998Z" fill="#371A45"/>
<path d="M185.103 121.696L182.483 121.363C178.251 120.826 156.959 117.964 153.343 114.356C143.968 105.001 143.53 71.34 146.975 65.135C148.776 61.8919 160.806 57.0551 165.894 55.1252L167.765 54.416L185.103 121.696ZM165.298 59.2008C158.295 61.9699 150.942 65.4992 150.106 66.878C147.325 71.8883 147.934 103.896 155.874 111.819C157.574 113.517 169.179 115.918 180.31 117.459L165.298 59.2008Z" fill="#371A45"/>
<path d="M236.994 153.05C278.762 153.05 312.622 119.19 312.622 77.4215C312.622 35.653 278.762 1.79297 236.994 1.79297C195.225 1.79297 161.365 35.653 161.365 77.4215C161.365 119.19 195.225 153.05 236.994 153.05Z" fill="white"/>
<g opacity="0.2">
<path d="M312.621 77.4185C312.621 119.187 278.762 153.047 236.993 153.047C195.224 153.047 161.357 119.187 161.357 77.4185C161.354 73.0834 161.725 68.756 162.464 64.4844C168.599 100.089 199.632 127.174 236.991 127.174C274.35 127.174 305.378 100.089 311.513 64.4844C312.253 68.756 312.624 73.0833 312.621 77.4185Z" fill="#371A45"/>
</g>
<path d="M236.995 154.841C194.305 154.841 159.574 120.111 159.574 77.4207C159.574 34.7306 194.302 0 236.995 0C279.688 0 314.416 34.7306 314.416 77.4207C314.416 120.111 279.678 154.841 236.995 154.841ZM236.995 3.58425C196.281 3.58425 163.158 36.7067 163.158 77.4207C163.158 118.135 196.281 151.258 236.995 151.258C277.709 151.258 310.831 118.135 310.831 77.4207C310.831 36.7067 277.706 3.58425 236.995 3.58425Z" fill="#371A45"/>
<path d="M236.995 154.841C194.305 154.841 159.574 120.111 159.574 77.4207C159.574 34.7306 194.302 0 236.995 0C279.688 0 314.416 34.7306 314.416 77.4207C314.416 120.111 279.678 154.841 236.995 154.841ZM236.995 3.58425C196.281 3.58425 163.158 36.7067 163.158 77.4207C163.158 118.135 196.281 151.258 236.995 151.258C277.709 151.258 310.831 118.135 310.831 77.4207C310.831 36.7067 277.706 3.58425 236.995 3.58425Z" fill="#371A45"/>
<path d="M236.995 154.841C194.305 154.841 159.574 120.111 159.574 77.4207C159.574 34.7306 194.302 0 236.995 0C279.688 0 314.416 34.7306 314.416 77.4207C314.416 120.111 279.678 154.841 236.995 154.841ZM236.995 3.58425C196.281 3.58425 163.158 36.7067 163.158 77.4207C163.158 118.135 196.281 151.258 236.995 151.258C277.709 151.258 310.831 118.135 310.831 77.4207C310.831 36.7067 277.706 3.58425 236.995 3.58425Z" fill="#371A45"/>
<path d="M236.998 154.841C201.721 154.841 170.928 131.043 162.073 96.9578C162.058 96.9164 162.046 96.875 162.035 96.8316C159.674 87.6691 159.007 78.1524 160.067 68.7502C164.422 29.5605 197.494 0.00202942 236.998 0.00202942C276.502 0.00202942 309.585 29.5692 313.937 68.7772C314.984 78.17 314.317 87.6749 311.969 96.8297C311.958 96.874 311.945 96.9183 311.931 96.9607C303.061 131.046 272.262 154.841 236.998 154.841ZM165.516 95.9616C173.93 128.521 203.321 151.257 236.998 151.257C270.675 151.257 300.068 128.518 308.49 95.9587C308.502 95.9095 308.516 95.8623 308.533 95.8132C310.748 87.1175 311.372 78.093 310.377 69.1751C306.219 31.7823 274.671 3.58531 236.998 3.58531C199.325 3.58531 167.786 31.7727 163.629 69.151C163.317 71.8966 163.161 74.6576 163.163 77.4208C163.157 83.6244 163.934 89.8039 165.475 95.8132C165.485 95.8623 165.499 95.9115 165.512 95.9616H165.516Z" fill="#371A45"/>
<path d="M309.989 59.38C309.638 59.3798 309.296 59.2771 309.003 59.0844C308.711 58.8918 308.481 58.6177 308.342 58.296C296.395 30.5518 268.385 12.6258 236.994 12.6258C205.623 12.6258 177.622 30.5364 165.659 58.2565C165.477 58.6682 165.146 58.996 164.733 59.1749C164.32 59.3538 163.854 59.3706 163.429 59.2219C163.004 59.0733 162.651 58.7701 162.439 58.3727C162.227 57.9753 162.173 57.5128 162.287 57.0772C171.405 23.471 202.126 0 236.997 0C271.889 0 302.617 23.4884 311.72 57.1196C311.792 57.3852 311.801 57.6637 311.748 57.9336C311.694 58.2035 311.58 58.4575 311.413 58.676C311.246 58.8946 311.031 59.0718 310.784 59.194C310.538 59.3162 310.267 59.3802 309.992 59.3809L309.989 59.38ZM236.997 9.04059C253.287 9.04059 268.986 13.6654 282.395 22.4189C288.028 26.0854 293.177 30.4461 297.721 35.3983C284.209 15.9181 261.694 3.58521 236.997 3.58521C212.397 3.58521 189.962 15.8333 176.43 35.1796C191.463 18.8183 213.314 9.04059 236.997 9.04059Z" fill="#371A45"/>
<path d="M312.617 77.4232C312.621 83.8192 311.816 90.19 310.222 96.3841C310.22 96.3841 310.219 96.3848 310.217 96.3861C310.216 96.3873 310.216 96.389 310.216 96.3908C297.095 121.738 269.232 143.548 236.989 143.548C204.746 143.548 176.886 121.738 163.769 96.3908C163.769 96.389 163.768 96.3873 163.767 96.3861C163.766 96.3848 163.764 96.3841 163.762 96.3841C162.163 90.1909 161.357 83.8196 161.363 77.4232C161.363 74.5939 161.524 71.7669 161.845 68.9559C172.048 40.7252 201.831 20.2988 236.999 20.2988C272.167 20.2988 301.961 40.7387 312.152 68.9752C312.464 71.7804 312.619 74.6008 312.617 77.4232V77.4232Z" fill="#371A45"/>
<g opacity="0.35">
<path d="M312.622 77.4245C312.628 83.8204 311.824 90.1913 310.231 96.3854C310.229 96.3854 310.227 96.3861 310.226 96.3874C310.225 96.3886 310.224 96.3903 310.224 96.3921C297.105 121.739 269.241 143.548 236.997 143.548C204.753 143.548 176.893 121.739 163.772 96.3921C163.772 96.3903 163.771 96.3886 163.77 96.3874C163.768 96.3861 163.767 96.3854 163.765 96.3854C162.822 92.7333 162.154 89.0156 161.768 85.2636C178.725 104.313 203.38 118.173 230.828 118.173C265.797 118.173 296.25 95.6801 312.013 68.6113C312.061 68.7356 312.109 68.8532 312.152 68.9775C312.465 71.7822 312.622 74.6023 312.622 77.4245Z" fill="#111A28"/>
</g>
<path d="M236.987 144.173C221.643 144.173 206.314 139.249 192.665 129.932C180.277 121.48 169.725 109.628 162.945 96.5556C162.893 96.4724 162.854 96.3817 162.83 96.2868C161.21 90.0149 160.391 83.5628 160.395 77.085C160.393 74.2198 160.554 71.3568 160.876 68.5098C160.884 68.4354 160.901 68.3622 160.927 68.2921C166.068 54.0678 175.958 41.8303 189.518 32.9005C203.332 23.8069 219.746 19 236.984 19C254.222 19 270.642 23.8098 284.458 32.9082C298.024 41.8428 307.91 54.0852 313.048 68.3133C313.074 68.3841 313.091 68.4579 313.099 68.5329C314.135 77.8264 313.476 87.2308 311.153 96.2887C311.128 96.3834 311.089 96.474 311.038 96.5575C304.258 109.629 293.703 121.482 281.314 129.934C267.661 139.249 252.331 144.173 236.987 144.173ZM164.66 95.6865C176.695 118.875 203.708 142.246 236.987 142.246C270.265 142.246 297.285 118.875 309.32 95.6865C311.55 86.9299 312.187 77.8435 311.2 68.8615C300.789 40.1856 270.982 20.928 236.987 20.928C202.991 20.928 173.196 40.1779 162.78 68.8422C161.782 77.8314 162.419 86.927 164.66 95.6894V95.6865Z" fill="#371A45"/>
<g opacity="0.5">
<path d="M299.761 75.7161C300.909 68.5541 297.633 62.0735 292.443 61.2413C287.253 60.409 282.115 65.5403 280.966 72.7023C279.818 79.8642 283.094 86.3448 288.284 87.177C293.474 88.0093 298.613 82.8781 299.761 75.7161Z" fill="white"/>
</g>
<g opacity="0.5">
<path d="M283.997 100.539C284.963 97.3427 283.522 94.0799 280.779 93.2514C278.036 92.4228 275.03 94.3423 274.065 97.5387C273.099 100.735 274.54 103.998 277.283 104.826C280.025 105.655 283.031 103.735 283.997 100.539Z" fill="white"/>
</g>
<g opacity="0.5">
<path d="M179.047 100.096C179.047 100.096 166.409 62.5188 186.484 47.0352C206.56 31.5517 235.884 31.0198 235.238 32.9141C235.238 32.9141 202.935 41.4305 190.754 67.3508C181.357 87.3387 179.047 100.096 179.047 100.096Z" fill="white"/>
</g>
<defs>
<radialGradient id="paint0_radial_1848_29552" cx="0" cy="0" r="1" gradientUnits="userSpaceOnUse" gradientTransform="translate(233.461 312.398) rotate(90) scale(232.461)">
<stop stop-color="#1A277E"/>
<stop offset="1" stop-color="#4255D0" stop-opacity="0"/>
</radialGradient>
</defs>
</svg>
