<svg width="469" height="522" viewBox="0 0 469 522" fill="none" xmlns="http://www.w3.org/2000/svg">
<circle cx="233.461" cy="289.15" r="231.461" fill="url(#paint0_radial_1848_29660)" stroke="#FFB400" stroke-width="2"/>
<path d="M6.59803 313.689C2.00621 281.546 4.6178 204.088 51.7987 151.396" stroke="#FFB400" stroke-width="10" stroke-linecap="round"/>
<path d="M177.93 69.1728C204.907 60.4197 274.616 51.6091 337.639 86.3921" stroke="#FFB400" stroke-width="10" stroke-linecap="round"/>
<path d="M434.926 184.973C448.845 202.622 473.239 254.453 459.463 320.575" stroke="#FFB400" stroke-width="10" stroke-linecap="round"/>
<path d="M38.8828 408.395C53.3757 436.089 98.0312 493.888 160.709 503.531" stroke="#FFB400" stroke-width="10" stroke-linecap="round"/>
<path d="M293.73 508.697C320.133 505.109 381.979 483.04 418.14 423.461" stroke="#FFB400" stroke-width="10" stroke-linecap="round"/>
<path d="M143.491 342.414L152.574 324.186H160.634L169.686 342.414H163.021L161.502 339.097H151.706L150.001 342.414H143.491ZM153.411 334.819H159.766L156.759 328.216H156.449L153.411 334.819ZM176.094 342.414V328.371H168.716V324.155H189.579V328.371H182.108V342.414H176.094ZM193.916 342.414V324.186H199.899V331.13H209.54V324.186H215.492V342.414H209.54V335.346H199.899V342.414H193.916ZM221.706 342.414V324.186H241.608V328.402H227.751V330.975H238.012V335.284H227.751V338.167H241.112L242.972 342.073C242.972 342.156 242.693 342.238 242.135 342.321C241.577 342.383 240.616 342.414 239.252 342.414H221.706ZM247.626 342.414V326.666L247.316 324.186H253.02L261.762 333.052L262.971 334.416H263.312V324.186H269.264V342.414H264.087L255.097 333.455L253.888 331.998H253.578V342.414H247.626ZM281.452 342.414C279.261 342.414 277.659 341.928 276.647 340.957C275.655 339.965 275.159 338.394 275.159 336.245V330.324C275.159 328.216 275.655 326.666 276.647 325.674C277.639 324.682 279.24 324.186 281.452 324.186H290.504C292.674 324.186 294.255 324.682 295.247 325.674C296.259 326.666 296.766 328.216 296.766 330.324V336.245C296.766 338.394 296.259 339.965 295.247 340.957C294.234 341.928 292.653 342.414 290.504 342.414H281.452ZM283.591 338.198H288.396C290.008 338.198 290.814 337.464 290.814 335.997V330.572C290.814 329.125 290.008 328.402 288.396 328.402H283.591C282.764 328.402 282.144 328.567 281.731 328.898C281.317 329.229 281.111 329.787 281.111 330.572V335.997C281.111 336.762 281.317 337.32 281.731 337.671C282.144 338.022 282.764 338.198 283.591 338.198ZM299.235 342.414L300.413 340.554L306.985 333.3L299.235 324.186H307.016L310.829 329.797H311.17L314.983 324.186H322.764L321.555 326.015L315.014 333.3L322.764 342.414H314.983L311.17 336.772H310.829L307.016 342.414H299.235Z" fill="#FFB400"/>
<path d="M177.283 416.049V407.723H175.857V405.768H177.283V403.721C177.283 403.199 177.383 402.716 177.582 402.272C177.797 401.827 178.142 401.467 178.617 401.191C179.108 400.915 179.752 400.777 180.549 400.777H181.699C183.539 400.777 184.858 400.861 185.655 401.03C186.468 401.198 186.874 401.344 186.874 401.467L186.184 403.215C185.923 403.107 185.456 403.008 184.781 402.916C184.106 402.808 183.294 402.755 182.343 402.755H181.193C180.81 402.755 180.526 402.824 180.342 402.962C180.173 403.1 180.089 403.337 180.089 403.675V405.768H184.873V407.723H180.089V416.049H177.283ZM190.588 416.049C189.561 416.049 188.794 415.842 188.288 415.428C187.797 415.014 187.552 414.339 187.552 413.404V408.689C187.552 408.459 187.567 408.183 187.598 407.861C187.644 407.523 187.751 407.194 187.92 406.872C188.104 406.55 188.403 406.281 188.817 406.067C189.246 405.852 189.837 405.745 190.588 405.745H196.936C197.703 405.745 198.293 405.852 198.707 406.067C199.121 406.281 199.412 406.55 199.581 406.872C199.765 407.194 199.872 407.523 199.903 407.861C199.949 408.183 199.972 408.459 199.972 408.689V413.105C199.972 413.381 199.949 413.687 199.903 414.025C199.872 414.362 199.765 414.684 199.581 414.991C199.397 415.297 199.098 415.55 198.684 415.75C198.27 415.949 197.687 416.049 196.936 416.049H190.588ZM191.462 414.071H196.062C196.813 414.071 197.189 413.764 197.189 413.151V408.643C197.189 408.029 196.813 407.723 196.062 407.723H191.462C190.726 407.723 190.358 408.029 190.358 408.643V413.151C190.358 413.764 190.726 414.071 191.462 414.071ZM203.414 416.049V405.745H205.3L206.174 406.205C206.573 405.99 207.002 405.821 207.462 405.699C207.922 405.576 208.505 405.515 209.21 405.515C210.329 405.515 211.234 405.637 211.924 405.883C212.629 406.128 213.097 406.312 213.327 406.435L212.522 408.436C212.338 408.344 212.031 408.229 211.602 408.091C211.188 407.937 210.697 407.799 210.13 407.677C209.563 407.554 208.942 407.493 208.267 407.493H208.014C207.278 407.493 206.795 407.638 206.565 407.93C206.35 408.221 206.235 408.704 206.22 409.379V416.049H203.414ZM226.269 416.049C225.181 416.049 224.33 415.895 223.716 415.589C223.103 415.282 222.674 414.822 222.428 414.209C222.183 413.595 222.06 412.836 222.06 411.932V406.803C222.06 405.331 222.39 404.25 223.049 403.56C223.709 402.854 224.782 402.502 226.269 402.502H233.192C234.25 402.502 235.055 402.563 235.607 402.686C236.175 402.793 236.458 402.908 236.458 403.031L235.998 404.94C235.738 404.894 234.963 404.848 233.675 404.802C232.403 404.74 230.547 404.71 228.109 404.71H226.936C225.71 404.71 225.096 405.254 225.096 406.343V412.208C225.096 412.729 225.227 413.135 225.487 413.427C225.763 413.703 226.246 413.841 226.936 413.841H227.879C230.425 413.841 232.395 413.818 233.79 413.772C235.201 413.71 236.075 413.649 236.412 413.588L237.355 415.106C237.355 415.182 237.225 415.297 236.964 415.451C236.719 415.604 236.259 415.742 235.584 415.865C234.91 415.987 233.936 416.049 232.663 416.049H226.269ZM240.342 416.049V403.307L240.112 401.467H243.148V416.049H240.342ZM249.794 416.049C248.629 416.049 247.786 415.78 247.264 415.244C246.743 414.692 246.482 413.94 246.482 412.99C246.482 411.993 246.751 411.226 247.287 410.69C247.839 410.153 248.675 409.885 249.794 409.885H250.967C252.117 409.885 253.152 409.915 254.072 409.977C254.992 410.038 255.751 410.099 256.349 410.161V408.643C256.349 408.505 256.334 408.367 256.303 408.229C256.273 408.075 256.181 407.953 256.027 407.861C255.874 407.769 255.613 407.723 255.245 407.723H254.095C252.424 407.723 251.029 407.753 249.909 407.815C248.79 407.861 248.031 407.907 247.632 407.953L247.379 406.205C247.379 405.99 247.962 405.86 249.127 405.814C250.293 405.768 252.24 405.745 254.969 405.745H256.119C256.886 405.745 257.476 405.852 257.89 406.067C258.304 406.281 258.596 406.55 258.764 406.872C258.948 407.194 259.056 407.523 259.086 407.861C259.132 408.183 259.155 408.459 259.155 408.689V416.049H257.269L256.372 415.589C255.728 415.696 254.954 415.803 254.049 415.911C253.145 416.003 252.11 416.049 250.944 416.049H249.794ZM250.392 414.071H255.659C255.997 414.071 256.196 414.04 256.257 413.979C256.319 413.917 256.349 413.726 256.349 413.404V411.633H250.392C249.978 411.633 249.687 411.732 249.518 411.932C249.365 412.131 249.288 412.445 249.288 412.875C249.288 413.304 249.38 413.611 249.564 413.795C249.748 413.979 250.024 414.071 250.392 414.071ZM265.328 416.049C264.301 416.049 263.572 415.995 263.143 415.888C262.714 415.78 262.499 415.673 262.499 415.566L263.189 413.841C263.634 413.887 264.446 413.94 265.627 414.002C266.823 414.048 268.295 414.071 270.043 414.071H271.193C271.576 414.071 271.814 413.971 271.906 413.772C272.013 413.557 272.067 413.273 272.067 412.921C272.067 412.568 272.006 412.284 271.883 412.07C271.776 411.855 271.546 411.748 271.193 411.748H265.535C264.462 411.748 263.687 411.548 263.212 411.15C262.737 410.736 262.499 410.122 262.499 409.31V408.39C262.499 408.175 262.522 407.922 262.568 407.631C262.614 407.339 262.729 407.048 262.913 406.757C263.097 406.465 263.396 406.228 263.81 406.044C264.224 405.844 264.799 405.745 265.535 405.745H271.883C272.803 405.745 273.455 405.798 273.838 405.906C274.221 406.013 274.413 406.12 274.413 406.228L274.183 407.953C273.738 407.907 272.918 407.861 271.722 407.815C270.526 407.753 269.062 407.723 267.329 407.723H266.179C265.796 407.723 265.55 407.83 265.443 408.045C265.351 408.244 265.305 408.482 265.305 408.758C265.305 409.049 265.351 409.294 265.443 409.494C265.55 409.678 265.796 409.77 266.179 409.77H271.837C272.88 409.77 273.646 409.984 274.137 410.414C274.628 410.843 274.873 411.387 274.873 412.047V413.404C274.873 413.68 274.85 413.971 274.804 414.278C274.773 414.584 274.666 414.876 274.482 415.152C274.298 415.412 273.999 415.627 273.585 415.796C273.171 415.964 272.588 416.049 271.837 416.049H265.328ZM280.915 416.049C279.888 416.049 279.159 415.995 278.73 415.888C278.301 415.78 278.086 415.673 278.086 415.566L278.776 413.841C279.221 413.887 280.033 413.94 281.214 414.002C282.41 414.048 283.882 414.071 285.63 414.071H286.78C287.163 414.071 287.401 413.971 287.493 413.772C287.6 413.557 287.654 413.273 287.654 412.921C287.654 412.568 287.593 412.284 287.47 412.07C287.363 411.855 287.133 411.748 286.78 411.748H281.122C280.049 411.748 279.274 411.548 278.799 411.15C278.324 410.736 278.086 410.122 278.086 409.31V408.39C278.086 408.175 278.109 407.922 278.155 407.631C278.201 407.339 278.316 407.048 278.5 406.757C278.684 406.465 278.983 406.228 279.397 406.044C279.811 405.844 280.386 405.745 281.122 405.745H287.47C288.39 405.745 289.042 405.798 289.425 405.906C289.808 406.013 290 406.12 290 406.228L289.77 407.953C289.325 407.907 288.505 407.861 287.309 407.815C286.113 407.753 284.649 407.723 282.916 407.723H281.766C281.383 407.723 281.137 407.83 281.03 408.045C280.938 408.244 280.892 408.482 280.892 408.758C280.892 409.049 280.938 409.294 281.03 409.494C281.137 409.678 281.383 409.77 281.766 409.77H287.424C288.467 409.77 289.233 409.984 289.724 410.414C290.215 410.843 290.46 411.387 290.46 412.047V413.404C290.46 413.68 290.437 413.971 290.391 414.278C290.36 414.584 290.253 414.876 290.069 415.152C289.885 415.412 289.586 415.627 289.172 415.796C288.758 415.964 288.175 416.049 287.424 416.049H280.915ZM211.322 444.049V432.733L208.562 432.94L208.401 430.985L214.358 430.295V444.049H211.322ZM218.046 444.049V441.818C218.307 441.649 218.698 441.396 219.219 441.059C219.756 440.721 220.346 440.346 220.99 439.932C221.65 439.518 222.317 439.096 222.991 438.667C223.666 438.222 224.287 437.808 224.854 437.425C225.437 437.026 225.897 436.696 226.234 436.436C226.725 436.052 227.062 435.684 227.246 435.332C227.446 434.964 227.545 434.603 227.545 434.251V433.791C227.545 433.407 227.392 433.093 227.085 432.848C226.779 432.602 226.273 432.48 225.567 432.48H224.877C223.988 432.48 223.099 432.51 222.209 432.572C221.32 432.633 220.523 432.702 219.817 432.779C219.127 432.84 218.614 432.894 218.276 432.94L218.046 430.847C218.476 430.77 219.066 430.686 219.817 430.594C220.569 430.502 221.435 430.425 222.416 430.364C223.398 430.302 224.425 430.272 225.498 430.272H226.142C227.108 430.272 227.883 430.387 228.465 430.617C229.048 430.831 229.493 431.115 229.799 431.468C230.121 431.82 230.336 432.211 230.443 432.641C230.551 433.055 230.604 433.461 230.604 433.86V434.343C230.604 435.155 230.336 435.945 229.799 436.712C229.278 437.463 228.427 438.168 227.246 438.828C225.958 439.533 224.87 440.131 223.98 440.622C223.106 441.097 222.478 441.442 222.094 441.657V441.841H231.294V444.049H218.046ZM238.05 444.049C236.885 444.049 236.088 443.803 235.658 443.313C235.229 442.822 235.014 442.086 235.014 441.105V435.723H233.128V433.745H234.094C234.386 433.745 234.593 433.699 234.715 433.607C234.853 433.515 234.953 433.331 235.014 433.055L235.474 430.594H237.82V433.745H242.604V435.723H237.82V441.128C237.82 441.511 237.912 441.764 238.096 441.887C238.28 442.009 238.556 442.071 238.924 442.071H242.167L242.397 443.819C242.075 443.865 241.585 443.918 240.925 443.98C240.266 444.026 239.545 444.049 238.763 444.049H238.05ZM245.368 444.049V429.145H248.174V434.205C248.818 434.082 249.592 433.975 250.497 433.883C251.402 433.791 252.437 433.745 253.602 433.745H254.752C255.519 433.745 256.109 433.852 256.523 434.067C256.937 434.281 257.228 434.55 257.397 434.872C257.581 435.194 257.688 435.523 257.719 435.861C257.765 436.183 257.788 436.459 257.788 436.689V444.049H254.982V436.643C254.982 436.029 254.614 435.723 253.878 435.723H248.864C248.573 435.723 248.381 435.753 248.289 435.815C248.212 435.861 248.174 435.999 248.174 436.229V444.049H245.368Z" fill="white"/>
<path d="M249.348 114.533L251.753 123.146L252.975 127.533L274.087 203.192C274.087 203.192 279.165 201.46 285.785 198.59C287.081 198.028 288.435 197.425 289.823 196.78C300.161 191.989 312.303 185.034 315.26 177.777C319.677 166.927 306.534 126.391 294.262 112.849C288.64 106.642 272.203 108.951 260.851 111.494C259.582 111.781 258.376 112.067 257.257 112.343C252.539 113.514 249.348 114.533 249.348 114.533Z" fill="white"/>
<g opacity="0.35">
<path d="M251.754 123.146L252.976 127.533L269.739 187.608L274.088 203.192L274.395 203.085L274.592 203.016L274.777 202.949C274.826 202.934 274.872 202.914 274.925 202.898C274.944 202.891 274.967 202.885 274.986 202.876C275.081 202.844 275.177 202.807 275.284 202.767C275.308 202.761 275.333 202.753 275.356 202.743C275.442 202.711 275.533 202.678 275.631 202.647C275.764 202.6 275.9 202.552 276.043 202.496C276.144 202.456 276.255 202.419 276.364 202.378L276.707 202.25C276.854 202.196 277.008 202.136 277.167 202.08C277.487 201.958 277.826 201.831 278.183 201.692C278.499 201.575 278.83 201.446 279.175 201.31C279.573 201.154 279.991 200.993 280.421 200.821C282.015 200.187 283.832 199.44 285.786 198.593C286.168 198.429 286.55 198.259 286.943 198.088C287.215 197.969 287.493 197.844 287.77 197.719C288.439 197.419 289.132 197.106 289.824 196.784C300.166 191.993 312.304 185.038 315.257 177.78C318.897 168.846 310.632 139.782 300.741 122.236C307.116 138.291 311.136 156.45 308.391 163.183C307.035 166.513 295.038 160.399 293.437 155.103C289.311 141.448 281.331 124.759 265.41 118.568C264.997 118.404 258.023 121.763 251.754 123.146Z" fill="#371A45"/>
</g>
<path d="M272.986 205.284L247.367 113.462L248.858 112.984C249.229 112.865 258.091 110.05 268.209 108.4C282.213 106.115 291.384 107.244 295.47 111.753C308.274 125.886 321.41 166.984 316.766 178.387C311.173 192.117 276.102 204.219 274.613 204.727L272.986 205.284ZM251.341 115.615L275.185 201.074C282.148 198.528 309.35 187.983 313.758 177.161C315.634 172.555 313.954 160.64 309.478 146.818C304.895 132.644 298.602 120.044 293.064 113.933C286.658 106.864 262.076 112.387 251.341 115.617V115.615Z" fill="#371A45"/>
<path d="M307.778 146.317L293.51 152.231C292.891 152.487 292.374 152.942 292.041 153.523C291.708 154.105 291.577 154.78 291.669 155.444C292.369 160.445 294.585 171.91 300.372 174.032C305.175 175.794 311.245 173.402 313.86 169.142C316.785 164.374 313.629 153.453 311.804 148.133C311.67 147.741 311.457 147.381 311.179 147.075C310.9 146.769 310.562 146.524 310.184 146.354C309.807 146.183 309.399 146.092 308.985 146.086C308.571 146.08 308.16 146.159 307.778 146.317V146.317Z" fill="white"/>
<g opacity="0.35">
<path d="M291.671 155.447C292.367 160.446 294.585 171.912 300.372 174.032C305.176 175.795 311.245 173.404 313.862 169.141C315.658 166.208 315.156 160.948 314.079 156.097C314.193 158.661 313.786 160.907 312.91 162.581C307.895 172.172 299.611 165.541 299.611 165.541C299.611 165.541 299.33 167.906 298.607 168.274C295.584 169.808 292.962 159.625 291.727 154.324C291.636 154.691 291.617 155.073 291.671 155.447V155.447Z" fill="#371A45"/>
</g>
<path d="M303.775 176.239C302.425 176.247 301.085 176.017 299.816 175.558C293.424 173.215 290.962 162.094 290.064 155.671C289.922 154.651 290.123 153.612 290.635 152.719C291.147 151.825 291.941 151.126 292.892 150.733L307.159 144.819C307.746 144.575 308.377 144.454 309.013 144.463C309.649 144.473 310.276 144.613 310.855 144.874C311.435 145.135 311.955 145.513 312.382 145.983C312.81 146.453 313.138 147.006 313.343 147.607C315.901 155.066 318.309 165.004 315.247 169.993C312.869 173.867 308.242 176.239 303.775 176.239ZM308.944 147.71C308.758 147.711 308.575 147.748 308.404 147.819V147.819L294.136 153.734C293.848 153.851 293.607 154.061 293.452 154.33C293.296 154.599 293.234 154.912 293.276 155.22C294.613 164.779 297.478 171.242 300.93 172.504C304.893 173.958 310.181 172.027 312.474 168.288C314.289 165.328 313.467 157.987 310.268 148.656C310.173 148.378 309.995 148.137 309.757 147.966C309.519 147.795 309.233 147.702 308.94 147.701L308.944 147.71Z" fill="#371A45"/>
<path d="M308.1 175.12C307.813 175.062 307.532 174.983 307.257 174.884C307.012 174.797 306.771 174.705 306.543 174.598C306.086 174.397 305.644 174.164 305.219 173.902C304.388 173.398 303.616 172.801 302.918 172.122C301.561 170.81 300.441 169.273 299.606 167.58C299.199 166.757 298.842 165.91 298.536 165.044C298.203 164.185 297.973 163.337 297.721 162.472C297.469 161.607 297.269 160.734 297.101 159.848C297.021 159.403 296.947 158.958 296.894 158.505C296.833 158.038 296.808 157.567 296.819 157.096C296.822 156.986 296.867 156.881 296.945 156.804C297.023 156.726 297.129 156.682 297.239 156.68C297.349 156.678 297.456 156.718 297.537 156.793C297.618 156.868 297.667 156.971 297.673 157.081V157.128C297.709 157.538 297.773 157.944 297.864 158.346C297.953 158.763 298.065 159.178 298.182 159.593C298.42 160.421 298.703 161.239 299.013 162.048C299.324 162.857 299.645 163.678 300.026 164.435C300.383 165.202 300.784 165.947 301.228 166.667C302.09 168.071 303.188 169.316 304.475 170.346C305.093 170.843 305.766 171.268 306.48 171.613C306.824 171.782 307.179 171.927 307.543 172.047C307.721 172.11 307.898 172.158 308.074 172.202C308.218 172.239 308.365 172.266 308.513 172.284C308.889 172.303 309.242 172.469 309.498 172.745C309.754 173.021 309.891 173.387 309.881 173.763C309.871 174.139 309.715 174.497 309.445 174.759C309.175 175.022 308.813 175.168 308.437 175.168C308.356 175.165 308.275 175.156 308.196 175.141L308.1 175.12Z" fill="#371A45"/>
<path d="M271.43 118.238C273.155 117.396 274.881 116.609 276.629 115.84C278.378 115.072 280.138 114.337 281.924 113.644C283.711 112.951 285.515 112.293 287.367 111.725C289.22 111.156 291.104 110.636 293.115 110.327C293.541 110.262 293.976 110.369 294.324 110.624C294.671 110.879 294.903 111.262 294.968 111.688C295.034 112.114 294.927 112.549 294.672 112.896C294.417 113.244 294.034 113.475 293.608 113.541C293.571 113.547 293.534 113.55 293.498 113.554H293.482C291.732 113.697 289.919 114.057 288.122 114.477C286.325 114.896 284.524 115.415 282.734 115.966C280.945 116.517 279.164 117.122 277.392 117.756C275.621 118.39 273.853 119.055 272.12 119.761H272.111C271.911 119.84 271.688 119.838 271.489 119.756C271.289 119.675 271.129 119.519 271.041 119.323C270.954 119.126 270.945 118.903 271.017 118.7C271.09 118.497 271.237 118.33 271.43 118.233L271.43 118.238Z" fill="#371A45"/>
<path d="M189.635 123.314C191.431 127.357 194.006 131.364 194.824 133.497L190.606 140.931L185.825 149.352C183.417 149.629 181.101 149.835 178.878 149.97C139.057 152.431 127.354 133.198 126.046 123.996C123.455 105.784 133.835 94.2304 138.632 89.5292C139.414 88.7709 140.236 88.0547 141.094 87.3835C156.93 74.9062 198.38 63.2292 210.364 79.8567C217.116 89.2151 212.456 105.249 191.477 111.579C186.335 113.129 187.379 118.246 189.635 123.314Z" fill="white"/>
<g opacity="0.35">
<path d="M192.401 128.773C193.451 130.694 194.389 132.362 194.823 133.497L185.824 149.349C140.401 154.61 127.425 133.71 126.045 123.996C125.634 121.168 125.533 118.303 125.744 115.453C125.796 116.004 126.772 123.238 126.907 123.795C129.438 134.255 153.54 147.323 160.484 143.824C162.191 142.965 163.49 141.934 164.279 141.664C165.719 141.174 166.45 143.231 168.684 143.091C170.729 142.963 170.936 139.516 172.512 139.956C173.778 140.309 175.334 143.394 177.191 143.288L192.401 128.773Z" fill="#371A45"/>
</g>
<path d="M171.976 151.821C158.295 151.821 147.088 149.091 138.546 143.661C129.347 137.814 125.226 129.789 124.434 124.227C122.525 110.807 126.917 98.7444 137.494 88.3718C147.45 78.6066 173.963 68.5291 193.226 70.1735C201.82 70.9069 208.027 73.8462 211.679 78.9074C214.971 83.473 215.756 89.342 213.837 95.0115C211.074 103.166 203.094 109.771 191.94 113.134C179.971 116.744 166.019 122.748 164.351 126.153C164.274 126.312 164.256 126.421 164.266 126.457C164.343 126.656 164.379 126.868 164.374 127.081C164.368 127.294 164.321 127.504 164.234 127.699C164.147 127.894 164.023 128.07 163.868 128.217C163.714 128.364 163.532 128.479 163.333 128.555C163.133 128.632 162.921 128.668 162.708 128.663C162.495 128.657 162.285 128.61 162.09 128.523C161.895 128.436 161.719 128.312 161.572 128.158C161.426 128.003 161.311 127.821 161.234 127.622C160.99 126.986 160.826 125.966 161.435 124.724C164.721 118.017 189.931 110.348 191.002 110.025C201.138 106.969 208.339 101.116 210.76 93.9697C212.34 89.3076 211.715 84.51 209.041 80.8077C205.971 76.5487 200.556 74.0592 192.946 73.4098C174.829 71.8618 149.036 81.5984 139.766 90.6942C129.972 100.3 125.895 111.429 127.651 123.767C129.136 134.208 143.167 152.655 185.639 147.736C185.85 147.711 186.065 147.729 186.27 147.787C186.475 147.845 186.667 147.944 186.834 148.076C187.001 148.209 187.141 148.373 187.244 148.559C187.348 148.746 187.414 148.951 187.439 149.162C187.463 149.374 187.446 149.589 187.387 149.794C187.329 149.999 187.231 150.191 187.098 150.358C186.966 150.525 186.801 150.664 186.615 150.768C186.429 150.872 186.224 150.938 186.012 150.962C181.354 151.518 176.667 151.804 171.976 151.821V151.821Z" fill="#371A45"/>
<path d="M338.003 75.0853C337.448 78.0207 336.268 81.2045 334.419 84.5392C320.909 108.904 273.505 128.244 273.505 128.244C273.505 128.244 276.196 136.688 282.022 151.706C282.158 152.057 282.297 152.409 282.436 152.768C284.235 157.379 286.32 162.584 288.7 168.328C291.488 175.052 294.685 182.523 298.314 190.649C307.026 210.186 314.524 235.949 314.524 235.949C314.524 235.949 335.342 243.021 335.043 255.881C335.027 256.589 334.949 257.294 334.809 257.988C332.362 270.351 284.674 267.763 280.673 261.908C275.883 254.899 273.952 248.831 269.228 238.171C265.729 230.278 262.027 222.128 253.88 215.517C244.668 208.745 229.522 208.669 219.732 209.572C205.657 210.874 203.332 219.573 201.563 225.875C198.61 236.365 200.381 257.975 190.366 264.14C184.892 267.511 139.776 272.727 137.151 257.241C136.619 254.09 137.179 251.458 138.35 249.273C142.197 242.08 152.66 239.713 152.66 239.713C152.66 239.713 151.61 222.759 152.646 213.434C155.192 190.387 183.854 179.82 183.854 179.82C183.854 179.82 183.759 177.588 182.672 170.366C181.335 161.444 179.929 154.562 178.88 149.972C177.877 145.593 177.194 143.287 177.194 143.287L174.545 135.529L173.049 131.145L189.638 123.315L252.401 93.6732C254.441 92.406 256.706 90.9039 259.147 89.2528C277.722 76.6476 306.564 55.0239 325.598 57.7159C335.296 59.0891 339.746 65.8835 338.003 75.0853Z" fill="white"/>
<g opacity="0.35">
<path d="M338.002 75.084C337.448 78.0195 336.267 81.2032 334.418 84.5379C320.908 108.903 273.505 128.243 273.505 128.243C273.505 128.243 276.196 136.686 282.022 151.705L278.987 153.093C275.487 142.273 263.82 148.161 263.047 143.786C262.658 141.579 269.55 139.422 267.376 135.259C265.201 131.095 254.627 133.694 254.807 130.334C254.948 127.756 260.676 128.155 264.62 127.112C268.564 126.069 262.498 120.443 262.078 118.604C261.416 115.731 267.773 118.207 275.399 117.627C306.687 115.255 329.79 86.7534 338.002 75.084Z" fill="#371A45"/>
</g>
<g opacity="0.35">
<path d="M335.043 255.877C335.027 256.585 334.948 257.29 334.809 257.984C332.362 270.346 284.674 267.758 280.673 261.904C275.883 254.894 273.952 248.827 269.228 238.167C265.729 230.274 262.027 222.124 253.88 215.513C244.668 208.741 229.522 208.665 219.732 209.568C205.657 210.87 203.332 219.568 201.563 225.871C198.61 236.361 200.381 257.97 190.366 264.135C184.892 267.506 139.776 272.722 137.151 257.237C136.619 254.086 137.179 251.454 138.35 249.269C138.85 252.218 141.138 255.458 147.746 257.557C162.598 262.269 187.611 263.147 190.977 252.359C194.344 241.571 192.141 231.667 192.266 222.459C192.361 215.141 191.476 205.636 196.21 202.744C198.692 201.226 201.739 204.654 205.605 204.171C209.472 203.688 209.52 194.881 212.248 194.757C215.612 194.599 215.096 200.524 222.133 202.888C228.487 205.023 244.78 204.677 250.558 198.961C256.076 193.502 254.258 203.208 255.715 206.018C258.52 211.435 269.668 202.427 271.257 206.543C271.987 208.437 269.252 215.415 270.576 223.586C272.224 233.804 278.58 251.279 291.22 257.794C300.197 262.424 325.553 263.427 335.043 255.877Z" fill="#371A45"/>
</g>
<path d="M164.383 269.412C156.552 269.412 148.658 268.509 143.132 266.005C138.716 264 136.161 261.143 135.547 257.506C133.663 246.386 144.142 240.423 150.961 238.47C150.737 234.245 150.152 221.18 151.029 213.25C153.39 191.895 176.568 181.059 182.133 178.753C182.004 177.455 181.712 174.933 181.063 170.605C178.498 153.501 175.661 143.85 175.633 143.753C175.51 143.34 175.557 142.896 175.762 142.517C175.967 142.138 176.315 141.857 176.728 141.734C177.141 141.612 177.585 141.658 177.964 141.863C178.343 142.069 178.624 142.416 178.747 142.829C178.865 143.226 181.672 152.768 184.275 170.123C185.358 177.344 185.471 179.651 185.474 179.745L185.528 180.931L184.414 181.343C184.138 181.445 156.664 191.847 154.257 213.607C153.254 222.679 154.269 239.441 154.279 239.609L154.363 240.988L153.016 241.294C152.352 241.445 136.749 245.15 138.75 256.964C139.175 259.471 141.1 261.518 144.473 263.047C157.657 269.021 186.051 264.885 189.513 262.753C195.79 258.889 197.012 247.618 198.091 237.673C198.589 233.089 199.058 228.767 200.001 225.429L200.046 225.268C201.828 218.928 204.52 209.345 219.587 207.952C228.463 207.132 244.847 206.852 254.847 214.205L254.907 214.253C263.493 221.215 267.33 229.871 270.716 237.508C271.941 240.271 272.995 242.765 273.925 244.965C276.613 251.326 278.555 255.921 282.015 260.988C283.997 263.887 306.317 267.099 322.418 263.809C328.861 262.489 332.697 260.31 333.22 257.669C335.72 245.039 314.217 237.554 314.004 237.481L313.204 237.209L312.968 236.397C312.893 236.141 305.4 210.518 296.829 191.308C279.745 153.01 272.036 128.971 271.96 128.732L271.505 127.3L272.894 126.733C273.362 126.542 319.922 107.327 332.998 83.743C336.913 76.6822 337.811 70.2678 335.528 65.6831C333.802 62.2158 330.29 60.0156 325.372 59.3204C308.872 56.9894 284.062 74.078 265.944 86.5572C261.288 89.7648 256.89 92.7939 253.26 95.0495C252.894 95.2768 252.453 95.3495 252.034 95.2515C251.614 95.1535 251.251 94.893 251.023 94.5271C250.796 94.1613 250.724 93.7201 250.821 93.3007C250.919 92.8813 251.18 92.518 251.546 92.2907C255.111 90.0752 259.479 87.0671 264.102 83.8824C282.66 71.1005 308.076 53.5926 325.827 56.1041C331.851 56.9559 336.211 59.7673 338.432 64.2345C341.201 69.8056 340.284 77.2933 335.835 85.3186C323.356 107.824 283.646 125.681 275.516 129.15C277.406 134.803 285.123 157.095 299.791 189.98C307.596 207.476 314.502 230.183 315.845 234.691C320.111 236.294 339.17 244.296 336.399 258.296C335.583 262.418 331.096 265.341 323.063 266.986C308.9 269.886 282.973 268.153 279.327 262.814C275.681 257.476 273.688 252.759 270.923 246.224C269.999 244.037 268.951 241.557 267.737 238.82C264.503 231.527 260.839 223.262 252.883 216.795C243.744 210.101 228.285 210.404 219.876 211.182C207.033 212.37 204.884 220.006 203.165 226.142L203.119 226.304C202.254 229.381 201.798 233.576 201.317 238.018C200.157 248.704 198.843 260.816 191.212 265.514C188.384 267.263 176.46 269.412 164.383 269.412Z" fill="#371A45"/>
<g opacity="0.35">
<path d="M259.144 87.8207C256.508 110.166 242.308 128.053 223.365 136.006C222.32 136.443 221.259 136.852 220.183 137.233C214.696 139.156 208.949 140.232 203.138 140.425C199.974 140.535 196.806 140.386 193.666 139.98C192.637 139.84 191.616 139.684 190.61 139.502C190.582 139.502 190.557 139.491 190.528 139.487C184.971 138.467 179.589 136.654 174.546 134.104C168.526 131.055 163.056 127.024 158.361 122.178C148.796 112.317 142.73 99.5912 141.094 85.9519C156.93 73.4746 198.38 61.7976 210.364 78.425C217.117 87.7834 212.456 103.818 191.477 110.147C186.338 111.695 187.382 116.813 189.638 121.881L252.402 92.2392C254.439 90.9739 256.704 89.4756 259.144 87.8207Z" fill="#371A45"/>
</g>
<path d="M152.176 112.642C159.996 120.508 169.708 126.231 180.379 129.258C182.623 129.894 184.898 130.41 187.197 130.805C188.326 131.001 189.472 131.164 190.635 131.306C196.967 132.05 203.374 131.864 209.652 130.755C213.051 130.152 216.396 129.277 219.654 128.138C220.833 127.723 221.996 127.278 223.145 126.801C244.153 118.058 259.957 98.5351 262.798 74.3207C266.993 38.6575 241.478 6.35089 205.82 2.15583C199.134 1.3638 192.366 1.61669 185.759 2.90546C185.004 3.04679 184.251 3.21008 183.502 3.38866C181.497 3.85276 179.526 4.40918 177.591 5.0579C168.704 8.04886 160.565 12.9172 153.726 19.3324C152.647 20.3446 151.602 21.395 150.59 22.4837C141.195 32.5945 135.263 45.4346 133.656 59.1429C131.238 79.6579 138.656 99.0585 152.176 112.642Z" fill="white"/>
<path d="M198.266 131.93C195.706 131.929 193.149 131.779 190.606 131.481C189.333 131.324 188.207 131.159 187.168 130.977C184.864 130.582 182.582 130.065 180.333 129.428C169.638 126.381 159.902 120.644 152.056 112.764C137.913 98.5543 131.143 79.0038 133.481 59.1239C135.092 45.3796 141.037 32.5053 150.456 22.3672C151.45 21.2977 152.508 20.2368 153.6 19.2159C160.457 12.7842 168.618 7.90291 177.528 4.90327C179.459 4.25677 181.453 3.69336 183.455 3.23021C184.253 3.03922 184.993 2.8807 185.719 2.74606C192.344 1.45159 199.13 1.19644 205.833 1.98974C241.533 6.19148 267.161 38.649 262.963 74.3456C260.216 97.7417 244.982 117.902 223.205 126.963C222.059 127.44 220.879 127.888 219.705 128.3C213.676 130.405 207.369 131.607 200.988 131.867C200.08 131.909 199.173 131.93 198.266 131.93ZM152.295 112.521C160.099 120.361 169.783 126.067 180.422 129.096C182.66 129.731 184.93 130.246 187.222 130.639C188.261 130.82 189.381 130.983 190.647 131.139C200.409 132.298 210.307 131.218 219.589 127.98C220.757 127.568 221.929 127.12 223.071 126.643C244.734 117.629 259.888 97.5736 262.619 74.3017C266.795 38.7932 241.302 6.50566 205.791 2.32779C199.122 1.53813 192.371 1.79168 185.78 3.07933C185.059 3.21398 184.323 3.37059 183.531 3.5568C181.538 4.01804 179.555 4.57859 177.634 5.22222C168.771 8.20605 160.654 13.0613 153.832 19.4585C152.745 20.4784 151.693 21.5336 150.705 22.5974C141.334 32.6818 135.419 45.4881 133.816 59.1601C131.488 78.9351 138.224 98.3834 152.292 112.517L152.295 112.521Z" fill="#371A45"/>
<g opacity="0.35">
<path d="M262.795 74.3235C259.956 98.5351 244.153 118.06 223.141 126.804C221.995 127.281 220.832 127.727 219.653 128.141C210.343 131.38 200.42 132.465 190.631 131.312C189.475 131.165 188.329 131.005 187.199 130.811C184.901 130.414 182.625 129.896 180.381 129.26C169.709 126.234 159.997 120.512 152.177 112.644C147.959 108.408 144.342 103.613 141.426 98.3938C150.781 107.359 162.605 113.32 175.377 115.508C176.503 115.705 177.649 115.864 178.809 116.009C188.596 117.172 198.521 116.089 207.827 112.841C209.007 112.424 210.171 111.978 211.318 111.504C232.327 102.764 248.13 83.2379 250.973 59.0235C252.59 45.4469 249.865 31.7069 243.188 19.7754C257.396 33.3919 265.272 53.2738 262.795 74.3235Z" fill="#371A45"/>
</g>
<path d="M198.27 133.081C195.665 133.081 193.062 132.928 190.475 132.624C189.176 132.464 188.032 132.297 186.97 132.112C184.626 131.709 182.306 131.183 180.018 130.535C169.133 127.436 159.224 121.597 151.238 113.577C136.847 99.1168 129.957 79.2206 132.337 58.9902C133.978 45.0043 140.03 31.9042 149.616 21.589C150.627 20.5003 151.704 19.4194 152.817 18.3766C159.795 11.8312 168.1 6.86412 177.168 3.81275C179.133 3.15384 181.163 2.58088 183.2 2.10914C184.01 1.91815 184.768 1.75295 185.513 1.61448C192.252 0.300331 199.153 0.0425973 205.971 0.850528C242.302 5.12484 268.382 38.1572 264.11 74.4841C261.315 98.2917 245.812 118.81 223.651 128.031C222.482 128.515 221.285 128.973 220.092 129.394C213.953 131.536 207.532 132.759 201.036 133.023C200.117 133.061 199.195 133.081 198.27 133.081ZM153.114 111.71C160.78 119.409 170.291 125.013 180.74 127.988C182.94 128.612 185.171 129.118 187.425 129.504C188.448 129.683 189.549 129.843 190.796 129.997C196.996 130.724 203.27 130.542 209.417 129.456C212.746 128.865 216.022 128.008 219.214 126.893C220.36 126.489 221.513 126.048 222.636 125.583C243.912 116.73 258.797 97.0303 261.481 74.1718C265.587 39.2936 240.542 7.57904 205.662 3.4747C199.112 2.69768 192.482 2.94543 186.009 4.20905C185.295 4.34179 184.576 4.49554 183.805 4.67984C181.841 5.13535 179.89 5.68539 178.006 6.31756C169.301 9.24891 161.327 14.0181 154.627 20.3017C153.559 21.3035 152.526 22.3405 151.556 23.3852C142.35 33.2895 136.539 45.8688 134.965 59.2986C132.68 78.7231 139.295 97.8257 153.114 111.71Z" fill="#371A45"/>
<path d="M198.271 133.465C195.651 133.464 193.033 133.311 190.431 133.004C189.124 132.844 187.974 132.676 186.905 132.49C184.549 132.085 182.215 131.555 179.914 130.904C168.966 127.786 158.999 121.913 150.967 113.846C136.492 99.3036 129.563 79.2928 131.957 58.9449C133.606 44.8754 139.693 31.6968 149.337 21.3202C150.355 20.224 151.438 19.1372 152.557 18.0887C159.575 11.5078 167.926 6.5135 177.045 3.4447C179.022 2.78197 181.064 2.20328 183.113 1.72581C183.926 1.53482 184.691 1.36866 185.441 1.22828C192.218 -0.0921296 199.158 -0.349865 206.014 0.464331C242.555 4.76156 268.787 37.9878 264.489 74.5248C261.679 98.4699 246.086 119.106 223.797 128.383C222.621 128.869 221.418 129.331 220.218 129.754C214.044 131.91 207.585 133.141 201.05 133.407C200.127 133.445 199.201 133.464 198.271 133.465ZM153.389 111.438C161.008 119.09 170.462 124.662 180.847 127.619C183.033 128.238 185.249 128.741 187.488 129.125C188.505 129.302 189.6 129.463 190.841 129.615C194.182 130.009 197.55 130.137 200.911 129.997C207.109 129.746 213.234 128.578 219.09 126.533C220.228 126.132 221.374 125.693 222.49 125.231C243.638 116.431 258.434 96.8494 261.101 74.1294C265.178 39.4651 240.284 7.9377 205.619 3.85819C199.11 3.08689 192.52 3.33302 186.086 4.58776C185.376 4.7205 184.666 4.87425 183.897 5.05569C181.943 5.50928 180.007 6.05551 178.132 6.67909C169.479 9.59209 161.553 14.3327 154.894 20.5792C153.831 21.5752 152.804 22.6056 151.838 23.6436C142.688 33.4885 136.913 45.9922 135.349 59.3412C133.077 78.6482 139.652 97.6343 153.388 111.436L153.389 111.438Z" fill="#371A45"/>
<path d="M165.346 122.846C209.408 137.606 253.743 104.752 243.375 59.9158C236.321 29.4083 201.004 12.7609 172.136 21.4126C151.128 27.7086 133.366 43.0468 134.225 78.3271C134.225 78.3271 137.017 93.886 144.061 102.716C151.106 111.547 159.445 118.95 159.445 118.95L165.346 122.846Z" fill="#371A45"/>
<path d="M243.374 59.9129C253.743 104.753 209.407 137.606 165.347 122.849L164.152 122.056C206.469 117.376 239.433 81.5013 229.794 35.9688C236.332 42.407 241.196 50.4991 243.374 59.9129Z" fill="#220F2D"/>
<path d="M198.271 133.464C195.651 133.464 193.033 133.31 190.431 133.004C189.124 132.844 187.974 132.676 186.905 132.489C184.549 132.085 182.215 131.555 179.914 130.903C168.966 127.786 158.999 121.913 150.967 113.846C136.492 99.3033 129.563 79.2925 131.957 58.9437C133.33 47.1955 137.808 36.0251 144.93 26.5817L145.037 26.4404L145.171 26.3239C151.652 20.6783 159.831 16.3495 169.482 13.457C186.671 8.30032 206.652 10.871 222.924 20.3221C237.877 29.012 248.1 42.3812 251.707 57.9878C255.622 74.9447 253.01 91.1921 244.143 104.971C234.873 119.378 219.265 129.729 201.321 133.37L201.054 133.402C200.13 133.444 199.201 133.464 198.271 133.464ZM153.389 111.438C161.008 119.09 170.462 124.661 180.847 127.619C183.033 128.238 185.249 128.741 187.488 129.125C188.505 129.302 189.6 129.462 190.841 129.615C194.136 130.001 197.457 130.129 200.772 129.997C217.763 126.514 232.517 116.723 241.268 103.124C249.626 90.1368 252.084 74.7919 248.377 58.7537C244.991 44.0829 235.338 31.4815 221.213 23.2747C205.742 14.2878 186.772 11.8412 170.466 16.7277C161.35 19.4598 153.642 23.5144 147.547 28.7819C140.853 37.7115 136.644 48.2552 135.349 59.34C133.077 78.647 139.652 97.6331 153.388 111.435L153.389 111.438Z" fill="#371A45"/>
<path d="M186.986 128.117C179.444 128.104 171.955 126.871 164.807 124.465L164.594 124.393L158.319 120.216C157.975 119.911 149.788 112.618 142.734 103.774C135.504 94.7109 132.67 79.2752 132.552 78.623L132.526 78.3623C131.776 47.491 144.941 27.7781 171.651 19.7729C186.995 15.1739 204.824 17.4629 219.345 25.8959C232.694 33.6501 241.82 45.5935 245.041 59.5271C249.693 79.6438 243.859 98.9031 229.037 112.367C217.687 122.676 202.659 128.117 186.986 128.117ZM166.104 121.298C187.815 128.493 211.03 124.111 226.743 109.839C240.624 97.2339 246.081 79.1721 241.716 60.2948C238.709 47.2904 230.156 36.1224 217.631 28.8477C203.911 20.8796 187.089 18.7091 172.632 23.0416C147.613 30.5389 135.271 49.0781 135.938 78.1417C136.217 79.6066 139.039 93.6662 145.404 101.645C151.889 109.775 159.597 116.774 160.5 117.585L166.104 121.298Z" fill="#371A45"/>
<path d="M270.541 68.5116C268.948 72.6178 266.202 75.8159 262.508 77.3543C253.874 80.9468 243.332 74.0855 238.961 62.0313C238.601 61.0382 238.292 60.0393 238.038 59.0443C235.191 47.9421 238.756 36.9851 246.677 33.6896C255.311 30.0962 265.857 36.9536 270.228 49.0117C272.73 55.9111 272.669 63.0187 270.541 68.5116Z" fill="white"/>
<g opacity="0.35">
<path d="M270.538 68.5118C268.945 72.618 266.199 75.8161 262.505 77.3545C253.871 80.947 243.329 74.0858 238.958 62.0315C238.598 61.0384 238.289 60.0395 238.035 59.0445C240.088 60.8293 244.357 63.2462 248.295 57.2463L258.226 56.9551C258.226 56.9551 265.874 61.3402 270.538 68.5118Z" fill="#371A45"/>
</g>
<path d="M257.7 80.0231C255.532 80.0231 253.308 79.5371 251.104 78.5668C245.082 75.9188 240.07 70.1041 237.352 62.6117C232.682 49.7295 236.569 36.0481 246.019 32.1147C249.794 30.5429 253.965 30.668 258.079 32.4776C264.101 35.1247 269.113 40.9403 271.831 48.4318C276.501 61.3149 272.614 74.9963 263.165 78.9297C261.434 79.6533 259.576 80.0251 257.7 80.0231V80.0231ZM251.486 34.4409C250.061 34.438 248.65 34.7184 247.334 35.266C239.544 38.5128 236.507 50.2586 240.566 61.4486C242.931 67.9699 247.385 73.201 252.481 75.4423C255.721 76.8661 258.962 76.9816 261.855 75.7784C269.646 72.5316 272.682 60.7858 268.624 49.5958C266.257 43.0745 261.799 37.8434 256.706 35.6021C254.947 34.8286 253.187 34.4409 251.486 34.4409Z" fill="#371A45"/>
<path d="M265.128 73.3343C272.473 71.3717 276.295 61.7988 273.664 51.9528C271.033 42.1068 262.946 35.716 255.601 37.6787C248.255 39.6414 244.434 49.2142 247.064 59.0602C249.695 68.9063 257.783 75.297 265.128 73.3343Z" fill="white"/>
<path d="M262.484 73.8478C261.964 73.8474 261.444 73.8117 260.929 73.7409C253.063 72.6675 246.401 63.6185 246.079 53.5677C245.898 47.9393 247.716 42.9784 251.069 39.956C253.537 37.732 256.562 36.7894 259.816 37.2344C267.681 38.3078 274.343 47.3568 274.666 57.4076C274.846 63.035 273.028 67.9969 269.675 71.0183C267.606 72.8843 265.141 73.8478 262.484 73.8478ZM258.266 37.4846C255.693 37.4846 253.311 38.4157 251.309 40.2215C248.035 43.1732 246.259 48.0329 246.439 53.5563C246.757 63.4399 253.28 72.3362 260.981 73.3866C264.132 73.8144 267.053 72.9091 269.44 70.7538C272.714 67.8021 274.49 62.9414 274.311 57.419C273.993 47.5344 267.469 38.6382 259.769 37.5878C259.271 37.5197 258.768 37.4852 258.266 37.4846V37.4846Z" fill="#371A45"/>
<g opacity="0.35">
<path d="M250.808 67.2695C248.85 64.3732 247.682 60.9287 247.289 57.4384C252.308 63.6684 259.831 64.2242 264.642 58.4687C267.752 54.7502 269.01 49.2488 268.4 43.8477C268.719 44.2392 269.026 44.6603 269.323 45.0986C274.304 52.4784 274.194 63.4239 269.083 69.5451C263.972 75.6663 255.786 74.6454 250.808 67.2695Z" fill="#371A45"/>
</g>
<path d="M263.23 75.2424C261.618 75.2424 259.96 74.8805 258.308 74.1576C253.445 72.0319 249.18 66.9621 246.901 60.5974C243.016 49.7521 245.793 38.7799 253.223 35.6181C256.024 34.4253 259.143 34.5122 262.244 35.8683C267.106 37.994 271.37 43.0637 273.651 49.4284C277.534 60.2737 274.758 71.246 267.329 74.4078C266.033 74.9604 264.639 75.2444 263.23 75.2424ZM257.319 38.205C256.371 38.2016 255.432 38.3907 254.559 38.7608C248.887 41.1749 246.893 50.455 250.114 59.4486C252.082 64.9452 255.653 69.2759 259.674 71.033C261.892 72.0023 264.076 72.0834 265.991 71.2698C271.662 68.8548 273.656 59.5747 270.435 50.582C268.466 45.0853 264.897 40.7547 260.875 38.9976C259.667 38.4666 258.469 38.205 257.319 38.205Z" fill="#371A45"/>
<g opacity="0.5">
<path d="M191.372 29.3302C191.372 29.3302 164.886 39.145 154.693 59.1405C154.681 59.1616 154.671 59.1826 154.66 59.2036C152.524 63.4189 151.549 68.127 151.836 72.8439C152.206 79.0807 153.376 83.3235 154.549 87.0191C158.122 98.2568 161.902 102.854 161.902 102.854C153.622 98.9492 147.878 93.3532 144.808 84.0225C144.508 83.1019 144.233 82.1432 143.981 81.1462C143.922 80.917 143.87 80.6888 143.819 80.4586C143.819 80.4586 143.819 80.452 143.819 80.4443C143.354 77.8451 143.045 75.2204 142.895 72.5842C142.361 63.2468 143.682 50.4296 152.851 41.7558C169.989 25.5448 191.924 27.8624 191.372 29.3302Z" fill="white"/>
</g>
<g opacity="0.5">
<path d="M225.814 58.7568C229.858 56.1701 230.692 50.2538 227.678 45.5424C224.663 40.831 218.942 39.1087 214.899 41.6954C210.856 44.2821 210.022 50.1984 213.036 54.9098C216.05 59.6212 221.771 61.3435 225.814 58.7568Z" fill="white"/>
</g>
<g opacity="0.5">
<path d="M232.814 69.0147C234.387 67.8092 234.524 65.3459 233.119 63.5127C231.715 61.6795 229.301 61.1706 227.728 62.376C226.154 63.5815 226.018 66.0448 227.422 67.878C228.827 69.7112 231.241 70.2201 232.814 69.0147Z" fill="white"/>
</g>
<path d="M183.75 175.944C188.503 175.944 192.356 172.091 192.356 167.338C192.356 162.585 188.503 158.732 183.75 158.732C178.998 158.732 175.145 162.585 175.145 167.338C175.145 172.091 178.998 175.944 183.75 175.944Z" fill="white"/>
<g opacity="0.35">
<path d="M175.33 169.084C175.543 170.207 175.977 171.275 176.608 172.228C177.238 173.181 178.052 173.999 179.001 174.634C179.951 175.269 181.017 175.709 182.138 175.927C183.259 176.146 184.413 176.14 185.532 175.908C186.65 175.676 187.712 175.224 188.654 174.578C189.596 173.932 190.4 173.105 191.019 172.145C191.638 171.185 192.06 170.111 192.26 168.987C192.46 167.862 192.434 166.709 192.184 165.594C191.929 164.346 191.397 163.171 190.627 162.156C190.243 163.74 189.417 165.182 188.246 166.315C187.074 167.448 185.605 168.225 184.009 168.556C182.413 168.887 180.756 168.758 179.231 168.184C177.706 167.61 176.374 166.615 175.392 165.314C175.09 166.55 175.068 167.839 175.33 169.084V169.084Z" fill="#371A45"/>
</g>
<path d="M183.754 177.57C181.403 177.566 179.124 176.754 177.3 175.269C175.477 173.784 174.219 171.717 173.739 169.415C173.312 167.348 173.535 165.199 174.378 163.264C175.22 161.328 176.642 159.701 178.446 158.606C180.25 157.51 182.35 157 184.456 157.145C186.562 157.291 188.571 158.084 190.208 159.417C191.845 160.75 193.029 162.557 193.598 164.59C194.167 166.622 194.093 168.782 193.386 170.771C192.679 172.76 191.373 174.481 189.649 175.698C187.924 176.916 185.865 177.57 183.754 177.57V177.57ZM176.919 168.756C177.247 170.338 178.114 171.757 179.371 172.772C180.628 173.787 182.198 174.334 183.814 174.321C185.429 174.308 186.99 173.735 188.231 172.7C189.471 171.665 190.314 170.232 190.617 168.645C190.919 167.058 190.662 165.415 189.889 163.996C189.116 162.578 187.875 161.471 186.378 160.865C184.88 160.258 183.219 160.19 181.676 160.671C180.134 161.152 178.807 162.154 177.92 163.504C176.903 165.053 176.543 166.942 176.919 168.756V168.756Z" fill="#371A45"/>
<path d="M194.492 188.849L237.965 185.466C243.111 185.068 246.998 180.528 246.598 175.376L244.798 152.242C244.447 147.731 240.922 144.195 236.593 143.653C235.968 143.574 235.336 143.559 234.707 143.609L191.239 146.992C186.082 147.391 182.201 151.931 182.607 157.081L184.029 175.405L184.402 180.217C184.801 185.369 189.345 189.248 194.492 188.849Z" fill="white"/>
<path d="M280.553 146.151C280.553 146.151 286.323 146.034 288.064 152.692C289.174 156.937 286.784 161.772 286.784 161.772C286.784 161.772 270.887 170.719 243.633 170.855C243.633 170.855 234.991 163.251 242.952 155.509C242.952 155.509 267.794 153.42 280.553 146.151Z" fill="white"/>
<path d="M194.492 188.849L237.965 185.466C243.111 185.068 246.998 180.528 246.598 175.376L244.798 152.242C244.447 147.731 240.922 144.195 236.593 143.653C235.968 143.574 235.336 143.559 234.707 143.609L191.239 146.992C186.082 147.391 182.201 151.931 182.607 157.081L184.029 175.405L184.402 180.217C184.801 185.369 189.345 189.248 194.492 188.849Z" fill="white"/>
<path d="M280.553 146.151C280.553 146.151 286.323 146.034 288.064 152.692C289.174 156.937 286.784 161.772 286.784 161.772C286.784 161.772 270.887 170.719 243.633 170.855C243.633 170.855 234.991 163.251 242.952 155.509C242.952 155.509 267.794 153.42 280.553 146.151Z" fill="white"/>
<g opacity="0.35">
<path d="M249.97 181.193C250.368 186.344 246.483 190.883 241.335 191.285L197.863 194.666C192.716 195.065 188.173 191.187 187.771 186.031L187.401 181.221L185.978 162.896C185.572 157.745 189.458 153.206 194.609 152.808L238.078 149.427C238.706 149.375 239.337 149.389 239.962 149.469C244.291 150.012 247.817 153.547 248.165 158.057L248.404 161.113C254.36 160.464 271.71 158.186 282.434 152.762C284.233 157.374 284.732 158.722 287.113 164.466C281.908 168.934 273.194 175.292 249.614 176.623L249.97 181.193Z" fill="#371A45"/>
</g>
<path d="M194.492 188.849L237.965 185.466C243.111 185.068 246.998 180.528 246.598 175.376L244.798 152.242C244.447 147.731 240.922 144.195 236.593 143.653C235.968 143.574 235.336 143.559 234.707 143.609L191.239 146.992C186.082 147.391 182.201 151.931 182.607 157.081L184.029 175.405L184.402 180.217C184.801 185.369 189.345 189.248 194.492 188.849Z" fill="white"/>
<g opacity="0.35">
<path d="M194.49 188.851L237.963 185.467C243.11 185.069 246.996 180.529 246.596 175.377L244.796 152.243C244.445 147.732 240.92 144.196 236.591 143.654C234.25 145.486 232.764 146.658 232.764 146.658C232.095 165.393 233.979 179.096 205.017 179.427C195.032 179.542 188.151 177.135 184.027 175.406L184.4 180.218C184.799 185.37 189.343 189.249 194.49 188.851Z" fill="#371A45"/>
</g>
<path d="M193.758 190.505C190.987 190.5 188.319 189.451 186.286 187.569C184.253 185.686 183.003 183.107 182.785 180.345L180.986 157.206C180.762 154.296 181.702 151.415 183.6 149.196C185.497 146.978 188.198 145.603 191.108 145.373L234.582 141.99C237.492 141.771 240.37 142.712 242.588 144.609C244.805 146.506 246.182 149.204 246.416 152.113L248.216 175.251C248.44 178.162 247.499 181.042 245.602 183.261C243.704 185.479 241.004 186.855 238.094 187.085L194.622 190.468C194.331 190.494 194.042 190.505 193.758 190.505ZM235.441 145.206C235.24 145.206 235.037 145.212 234.834 145.228L191.362 148.611C189.309 148.773 187.405 149.742 186.067 151.307C184.728 152.871 184.065 154.902 184.223 156.955L186.022 180.093C186.189 182.144 187.16 184.045 188.724 185.383C190.287 186.72 192.315 187.385 194.367 187.233L237.838 183.851C239.89 183.689 241.795 182.72 243.133 181.155C244.472 179.591 245.135 177.56 244.978 175.507L243.176 152.369C243.022 150.421 242.141 148.603 240.708 147.276C239.275 145.949 237.394 145.21 235.441 145.206V145.206Z" fill="#371A45"/>
<path d="M192.734 188.815C193.318 188.889 193.907 188.901 194.493 188.851L237.967 185.467C239.764 185.323 241.482 184.665 242.917 183.573C244.351 182.48 245.441 180.998 246.056 179.303C246.517 178.049 246.7 176.71 246.593 175.378L245.798 165.1L245.535 161.708L244.799 152.243C244.399 147.086 239.854 143.211 234.708 143.61L225.314 144.344C229.707 144.821 233.302 148.383 233.659 152.938L234.635 165.435L235.461 176.079C235.86 181.224 231.975 185.77 226.83 186.169L192.734 188.815Z" fill="white"/>
<g opacity="0.35">
<path d="M192.734 188.816C193.318 188.89 193.907 188.901 194.493 188.851L237.967 185.468C243.113 185.07 247 180.53 246.593 175.379L245.535 161.709C244.63 164.21 242.895 167.327 239.777 167.883C238.065 168.192 236.272 167.082 234.635 165.436L235.461 176.081C235.86 181.226 231.975 185.772 226.83 186.171L192.734 188.816Z" fill="#371A45"/>
</g>
<path d="M193.777 190.504C193.362 190.504 192.947 190.479 192.535 190.429L192.604 187.198L226.701 184.548C228.751 184.382 230.652 183.411 231.989 181.848C233.326 180.285 233.99 178.257 233.836 176.206L232.036 153.066C231.894 151.263 231.127 149.566 229.867 148.268C228.608 146.97 226.935 146.151 225.137 145.954L225.187 142.721L234.577 141.988C237.488 141.769 240.367 142.712 242.585 144.61C244.803 146.508 246.179 149.207 246.412 152.117L248.212 175.253C248.433 178.163 247.492 181.042 245.595 183.26C243.698 185.478 240.999 186.855 238.09 187.088L194.615 190.469C194.34 190.491 194.058 190.504 193.777 190.504ZM231.648 145.475C233.757 147.363 235.057 149.992 235.276 152.815L237.076 175.953C237.192 177.394 237.019 178.845 236.57 180.219C236.12 181.594 235.402 182.866 234.457 183.961C234.41 184.016 234.362 184.07 234.316 184.123L237.84 183.85C239.89 183.683 241.791 182.711 243.128 181.148C244.464 179.585 245.129 177.557 244.976 175.506V175.506L243.177 152.367C243.01 150.316 242.039 148.415 240.476 147.077C238.912 145.739 236.883 145.074 234.831 145.226L231.648 145.475Z" fill="#371A45"/>
<path d="M217.432 166.031C217.503 166.89 219.282 173.689 219.282 173.689L224.152 173.282C227.507 173.001 229.937 169.301 229.578 165.015C229.22 160.729 226.21 157.484 222.856 157.765L217.985 158.172C217.985 158.172 217.315 164.639 217.432 166.031Z" fill="#22A7F0"/>
<g opacity="0.35">
<path d="M217.432 166.031C217.503 166.89 219.282 173.689 219.282 173.689L224.152 173.282C227.507 173.001 229.937 169.301 229.578 165.015C229.22 160.729 226.21 157.484 222.856 157.765L217.985 158.172C217.985 158.172 217.315 164.639 217.432 166.031Z" fill="#371A45"/>
</g>
<path d="M218.365 174.987L218.105 173.997C217.682 172.373 216.291 167.026 216.219 166.132C216.097 164.667 216.705 158.72 216.775 158.046L216.879 157.042L222.758 156.551C224.763 156.383 226.707 157.199 228.237 158.849C229.692 160.417 230.6 162.574 230.796 164.913C231.209 169.861 228.276 174.159 224.258 174.495L218.365 174.987ZM218.652 165.927C218.7 166.4 219.442 169.421 220.209 172.39L224.059 172.068C226.739 171.843 228.675 168.725 228.373 165.117C228.222 163.314 227.541 161.679 226.456 160.505C225.446 159.417 224.204 158.874 222.966 158.977L219.102 159.3C218.857 161.773 218.579 165.11 218.647 165.927H218.652Z" fill="#371A45"/>
<path d="M219.294 173.681C222.648 173.4 225.077 169.699 224.719 165.415C224.361 161.13 221.351 157.883 217.996 158.164C214.641 158.444 212.212 162.145 212.571 166.43C212.929 170.715 215.939 173.962 219.294 173.681Z" fill="#22A7F0"/>
<g opacity="0.35">
<path d="M224.711 165.423C225.071 169.706 222.64 173.41 219.287 173.69C215.933 173.971 212.918 170.723 212.563 166.433C212.514 165.867 212.516 165.297 212.569 164.731C213.678 167.602 216.075 169.513 218.68 169.292C221.578 169.049 223.788 166.256 224.099 162.732C224.429 163.596 224.635 164.502 224.711 165.423V165.423Z" fill="#371A45"/>
</g>
<path d="M224.71 165.424C224.736 165.712 224.746 166.001 224.741 166.29C223.795 162.989 221.208 160.707 218.37 160.942C215.244 161.207 212.917 164.438 212.915 168.347C212.735 167.724 212.617 167.084 212.563 166.437C212.203 162.155 214.633 158.452 217.987 158.171C221.341 157.89 224.35 161.137 224.71 165.424Z" fill="white"/>
<path d="M218.881 174.924C215.067 174.924 211.739 171.282 211.343 166.54C211.152 164.198 211.685 161.923 212.859 160.136C214.094 158.254 215.878 157.126 217.881 156.959C221.904 156.621 225.506 160.374 225.919 165.321C226.115 167.664 225.576 169.938 224.402 171.726C223.169 173.608 221.385 174.736 219.38 174.903C219.213 174.917 219.046 174.924 218.881 174.924ZM213.77 166.337C214.072 169.946 216.502 172.691 219.178 172.475C220.419 172.371 221.552 171.631 222.366 170.39C223.242 169.053 223.642 167.327 223.491 165.524C223.19 161.917 220.755 159.163 218.084 159.386C216.842 159.49 215.711 160.23 214.895 161.473C214.019 162.809 213.619 164.535 213.77 166.337Z" fill="#371A45"/>
<path d="M207.992 188.85C207.69 188.85 207.4 188.738 207.176 188.536C206.952 188.333 206.811 188.055 206.781 187.755L205.348 173.674C205.309 173.279 205.171 172.9 204.949 172.571C204.727 172.242 204.426 171.974 204.075 171.79L199.753 169.519C199.028 169.142 198.411 168.587 197.96 167.906C197.509 167.225 197.239 166.441 197.174 165.627L195.633 146.668C195.62 146.509 195.638 146.348 195.687 146.196C195.736 146.044 195.815 145.903 195.919 145.781C196.022 145.659 196.149 145.559 196.291 145.486C196.433 145.413 196.588 145.369 196.748 145.356C196.907 145.343 197.068 145.361 197.22 145.41C197.372 145.459 197.513 145.538 197.635 145.641C197.757 145.745 197.857 145.871 197.93 146.014C198.003 146.156 198.047 146.311 198.06 146.47L199.602 165.429C199.634 165.833 199.768 166.223 199.992 166.561C200.215 166.899 200.521 167.175 200.88 167.363L205.202 169.633C205.911 170.004 206.516 170.545 206.964 171.207C207.411 171.87 207.687 172.633 207.767 173.428L209.2 187.509C209.233 187.831 209.136 188.152 208.932 188.403C208.728 188.654 208.433 188.813 208.111 188.846C208.074 188.848 208.033 188.85 207.992 188.85Z" fill="#371A45"/>
<path d="M280.553 146.151C280.553 146.151 286.323 146.034 288.064 152.692C289.174 156.937 286.784 161.772 286.784 161.772C286.784 161.772 270.887 170.719 243.633 170.855C243.633 170.855 234.991 163.251 242.952 155.509C242.952 155.509 267.794 153.42 280.553 146.151Z" fill="white"/>
<g opacity="0.35">
<path d="M286.782 161.775C286.782 161.775 270.887 170.72 243.63 170.857C243.63 170.857 237.996 165.899 240.015 159.913C240.025 159.945 240.037 159.977 240.047 160.008C241.184 163.209 244.317 165.279 247.711 165.149C272.417 164.194 286.702 156.156 286.702 156.156C287.265 154.937 287.687 153.659 287.962 152.346C287.997 152.459 288.031 152.576 288.058 152.693C289.17 156.936 286.782 161.775 286.782 161.775Z" fill="#371A45"/>
</g>
<path d="M245.859 172.447C244.803 172.448 243.761 172.197 242.821 171.714C241.882 171.231 241.071 170.531 240.457 169.671C237.285 165.226 237.115 160.536 239.989 156.468C240.534 155.698 241.236 155.053 242.049 154.575C242.862 154.098 243.768 153.799 244.706 153.699C249.899 153.138 267.674 150.887 278.34 145.491C280.096 144.603 282.106 144.508 283.856 145.233C285.869 146.065 288.506 147.963 289.634 152.278C290.383 155.143 289.776 158.155 289.135 160.18C288.854 161.054 288.394 161.86 287.785 162.547C287.176 163.235 286.431 163.788 285.597 164.172C280.597 166.494 266.732 171.948 246.02 172.441L245.859 172.447ZM281.409 148.001C280.852 148.003 280.303 148.137 279.807 148.391V148.391C268.954 153.882 251.889 156.192 245.055 156.93C244.576 156.98 244.113 157.132 243.697 157.375C243.281 157.617 242.922 157.946 242.643 158.339C240.571 161.275 240.725 164.45 243.101 167.783C243.424 168.232 243.851 168.596 244.346 168.842C244.841 169.089 245.389 169.21 245.942 169.196C266.045 168.719 279.414 163.467 284.229 161.228C284.655 161.034 285.036 160.754 285.348 160.404C285.661 160.055 285.897 159.645 286.043 159.2C286.554 157.585 287.049 155.216 286.496 153.101C285.861 150.674 284.556 149.038 282.619 148.236C282.235 148.08 281.823 148 281.409 148.002V148.001Z" fill="#371A45"/>
<path d="M162.751 127.04C160.906 122.238 182.231 114.367 191.471 111.58C212.454 105.252 217.112 89.221 210.362 79.8578C197.687 62.2793 152.081 76.3389 138.632 89.5314C133.836 94.2354 123.448 105.789 126.043 123.999" fill="white"/>
<g opacity="0.35">
<path d="M191.473 111.582C182.845 114.178 163.69 121.212 162.679 126.042C145.57 117.811 176.316 108.605 185.202 106.196C202.72 101.443 211.905 93.0988 212.934 85.7754C214.766 94.938 208.487 106.45 191.473 111.582Z" fill="#371A45"/>
</g>
<g opacity="0.35">
<path d="M164.891 127.014L162.641 126.414C162.64 126.29 162.653 126.167 162.68 126.047C163.396 126.416 164.134 126.739 164.891 127.014V127.014Z" fill="#371A45"/>
</g>
<path d="M162.751 128.665C162.422 128.665 162.101 128.565 161.83 128.379C161.56 128.193 161.352 127.929 161.234 127.623C160.99 126.987 160.826 125.967 161.435 124.724C164.721 118.018 189.931 110.349 191.002 110.026C201.138 106.97 208.339 101.117 210.76 93.9706C212.34 89.3086 211.715 84.5109 209.041 80.8086C205.971 76.5496 200.556 74.0601 192.946 73.4107C174.829 71.8628 149.036 81.5993 139.766 90.6951C129.972 100.301 125.895 111.43 127.651 123.768C127.681 123.979 127.669 124.194 127.616 124.4C127.563 124.607 127.47 124.801 127.341 124.972C127.213 125.142 127.053 125.286 126.869 125.394C126.686 125.503 126.482 125.574 126.271 125.604C126.06 125.634 125.845 125.623 125.638 125.57C125.432 125.516 125.238 125.423 125.067 125.295C124.897 125.167 124.753 125.007 124.644 124.823C124.536 124.639 124.465 124.436 124.434 124.225C122.525 110.805 126.917 98.7424 137.494 88.3699C147.45 78.6046 173.963 68.5271 193.226 70.1716C201.82 70.9049 208.027 73.8442 211.679 78.9054C214.971 83.471 215.756 89.3401 213.837 95.0096C211.074 103.164 203.094 109.769 191.94 113.132C179.971 116.742 166.019 122.746 164.351 126.151C164.274 126.31 164.256 126.419 164.266 126.455C164.361 126.701 164.394 126.966 164.363 127.228C164.333 127.49 164.239 127.74 164.089 127.957C163.94 128.175 163.74 128.352 163.507 128.475C163.274 128.598 163.014 128.662 162.751 128.662V128.665Z" fill="#371A45"/>
<path d="M310.115 109.885C309.853 109.884 309.596 109.812 309.373 109.675C291.76 98.9658 285.213 72.6238 284.943 71.5046C284.863 71.1388 284.93 70.7562 285.128 70.4387C285.327 70.1212 285.641 69.894 286.005 69.8059C286.369 69.7177 286.753 69.7756 287.075 69.9671C287.397 70.1586 287.631 70.4685 287.727 70.8304C287.791 71.093 294.273 97.1419 310.86 107.228C311.128 107.39 311.335 107.636 311.449 107.927C311.564 108.218 311.58 108.538 311.496 108.839C311.411 109.14 311.231 109.406 310.981 109.594C310.732 109.783 310.427 109.885 310.115 109.885V109.885Z" fill="#371A45"/>
<path d="M167.313 122.957H167.303C158.04 122.892 149.712 118.152 144.465 109.953C139.432 102.088 138.354 92.6886 141.64 85.4215C141.718 85.2502 141.829 85.0958 141.966 84.9672C142.103 84.8385 142.265 84.7382 142.441 84.672C142.617 84.6057 142.804 84.5747 142.992 84.5808C143.18 84.587 143.365 84.6301 143.537 84.7077C143.708 84.7853 143.862 84.896 143.991 85.0333C144.12 85.1706 144.22 85.3318 144.286 85.5079C144.352 85.684 144.383 85.8714 144.377 86.0594C144.371 86.2474 144.328 86.4324 144.25 86.6037C141.355 92.9961 142.361 101.352 146.877 108.409C151.592 115.776 159.044 120.034 167.323 120.093C167.703 120.094 168.066 120.246 168.334 120.515C168.602 120.785 168.752 121.15 168.75 121.53C168.749 121.91 168.597 122.273 168.327 122.541C168.058 122.809 167.693 122.959 167.313 122.957Z" fill="#371A45"/>
<path d="M202.342 224.608C202.022 224.608 201.711 224.501 201.46 224.303C201.208 224.106 201.029 223.83 200.952 223.52C197.934 211.342 167.125 205.842 155.51 204.745C155.322 204.728 155.14 204.674 154.974 204.586C154.808 204.498 154.66 204.378 154.54 204.233C154.42 204.088 154.33 203.921 154.275 203.741C154.219 203.562 154.2 203.373 154.217 203.185C154.235 202.998 154.289 202.816 154.377 202.65C154.465 202.484 154.585 202.336 154.729 202.216C154.874 202.096 155.041 202.006 155.221 201.95C155.401 201.895 155.59 201.875 155.777 201.893C157.565 202.061 199.609 206.19 203.734 222.826C203.787 223.037 203.79 223.258 203.745 223.47C203.699 223.683 203.606 223.883 203.472 224.054C203.338 224.225 203.166 224.364 202.971 224.459C202.775 224.554 202.56 224.604 202.343 224.603L202.342 224.608Z" fill="#371A45"/>
<path d="M265.808 228.047C264.88 228.047 264.02 228.009 263.238 227.931C262.86 227.893 262.513 227.707 262.273 227.412C262.032 227.118 261.918 226.741 261.956 226.363C261.994 225.985 262.181 225.637 262.475 225.397C262.769 225.156 263.147 225.043 263.525 225.081C274.637 226.188 302.247 218.86 304.552 209.502C304.597 209.319 304.678 209.147 304.789 208.996C304.901 208.844 305.041 208.716 305.202 208.619C305.363 208.521 305.541 208.457 305.727 208.428C305.913 208.4 306.103 208.409 306.286 208.454C306.468 208.499 306.64 208.579 306.792 208.691C306.943 208.802 307.071 208.943 307.169 209.104C307.266 209.265 307.331 209.443 307.359 209.629C307.387 209.815 307.379 210.005 307.334 210.187C305.589 217.267 294.529 221.869 288.091 223.983C280.442 226.492 271.762 228.047 265.808 228.047Z" fill="#371A45"/>
<path d="M152.243 238.139C152.569 238.05 152.793 238.001 153.055 237.948C153.318 237.896 153.558 237.853 153.81 237.811C154.309 237.732 154.808 237.667 155.302 237.629C156.287 237.542 157.275 237.505 158.263 237.518C160.216 237.559 162.163 237.746 164.088 238.08C165.998 238.418 167.885 238.844 169.709 239.479C170.17 239.615 170.619 239.796 171.066 239.976C171.514 240.157 171.962 240.331 172.403 240.524C173.285 240.924 174.145 241.368 174.982 241.856C174.003 241.833 173.054 241.745 172.117 241.65C171.162 241.59 170.237 241.474 169.305 241.391L166.526 241.139C166.064 241.105 165.607 241.044 165.147 241.014L163.768 240.928C161.933 240.833 160.106 240.788 158.298 240.846C157.395 240.867 156.494 240.919 155.608 240.991C155.162 241.022 154.725 241.075 154.288 241.119L153.645 241.202C153.444 241.226 153.204 241.266 153.072 241.287L152.945 241.309C152.539 241.368 152.124 241.271 151.786 241.038C151.448 240.804 151.211 240.45 151.123 240.048C151.036 239.647 151.104 239.227 151.314 238.873C151.524 238.52 151.86 238.259 152.255 238.144L152.243 238.139Z" fill="#371A45"/>
<path d="M291.754 245.817C292.422 243.672 293.803 241.776 295.429 240.175C297.061 238.551 299.045 237.31 301.14 236.322C302.211 235.895 303.285 235.434 304.407 235.158C304.965 235.01 305.519 234.819 306.089 234.73L307.794 234.438C308.367 234.325 308.94 234.3 309.513 234.263C310.086 234.227 310.659 234.191 311.232 234.168C312.378 234.168 313.514 234.254 314.65 234.328C315.056 234.369 315.433 234.562 315.704 234.868C315.975 235.175 316.12 235.572 316.111 235.981C316.101 236.389 315.938 236.78 315.654 237.073C315.369 237.367 314.984 237.542 314.576 237.565H314.404C313.361 237.581 312.322 237.543 311.288 237.539C310.773 237.573 310.258 237.6 309.743 237.62C309.229 237.626 308.716 237.667 308.207 237.74L306.679 237.924C306.424 237.951 306.172 237.997 305.923 238.059L305.173 238.212C304.152 238.365 303.199 238.728 302.203 238.988C300.258 239.674 298.4 240.583 296.664 241.697C294.853 242.848 293.202 244.234 291.754 245.817V245.817Z" fill="#371A45"/>
<defs>
<radialGradient id="paint0_radial_1848_29660" cx="0" cy="0" r="1" gradientUnits="userSpaceOnUse" gradientTransform="translate(233.461 289.15) rotate(90) scale(232.461)">
<stop stop-color="#1A277E"/>
<stop offset="1" stop-color="#4255D0" stop-opacity="0"/>
</radialGradient>
</defs>
</svg>
