<svg width="526" height="97" viewBox="0 0 526 97" fill="none" xmlns="http://www.w3.org/2000/svg">
<path d="M24.2586 15.0541L24.3991 14.9685L24.5272 14.8652L34.9015 6.5H503.62C513.285 6.5 521.12 14.335 521.12 24V67.4747L503.413 81.8868L503.398 81.8985L503.384 81.9105L491.855 91.5827H22C12.335 91.5827 4.5 83.7476 4.5 74.0827V27.0909L24.2586 15.0541Z" fill="url(#paint0_radial_1848_29770)" fill-opacity="0.85" stroke="#FFB400" stroke-width="5"/>
<path d="M5.49255 52.4933V25.9142L31.3036 5.78381H70.1133" stroke="#FFB400" stroke-width="10"/>
<path d="M457.821 91.3064H491.775L520.113 67.1319V43.8064" stroke="#FFB400" stroke-width="10"/>
<path d="M40.199 68C35.705 68 32.45 67.013 30.434 65.039C28.418 63.065 27.41 59.873 27.41 55.463L27.41 43.934C27.41 39.398 28.523 36.101 30.749 34.043C32.975 31.943 36.125 30.893 40.199 30.893L58.595 30.893C61.493 30.893 63.698 31.061 65.21 31.397C66.764 31.691 67.541 32.006 67.541 32.342L65.588 40.217C64.538 40.091 62.48 39.965 59.414 39.839C56.39 39.671 52.568 39.587 47.948 39.587L44.735 39.587C42.761 39.587 41.417 39.965 40.703 40.721C40.031 41.435 39.695 42.548 39.695 44.06L39.695 54.833C39.695 56.261 39.989 57.374 40.577 58.172C41.207 58.928 42.593 59.306 44.735 59.306L47.318 59.306C53.324 59.306 57.902 59.243 61.052 59.117C64.202 58.949 66.092 58.781 66.722 58.613L70.565 65.417C70.565 65.627 70.124 65.942 69.242 66.362C68.402 66.782 66.953 67.16 64.895 67.496C62.879 67.832 60.065 68 56.453 68L40.199 68ZM91.5686 68C87.1166 68 83.8616 67.013 81.8036 65.039C79.7876 63.023 78.7796 59.831 78.7796 55.463L78.7796 43.43C78.7796 39.146 79.7876 35.996 81.8036 33.98C83.8196 31.964 87.0746 30.956 91.5686 30.956L109.965 30.956C114.375 30.956 117.588 31.964 119.604 33.98C121.662 35.996 122.691 39.146 122.691 43.43L122.691 55.463C122.691 59.831 121.662 63.023 119.604 65.039C117.546 67.013 114.333 68 109.965 68L91.5686 68ZM95.9156 59.432L105.681 59.432C108.957 59.432 110.595 57.941 110.595 54.959L110.595 43.934C110.595 40.994 108.957 39.524 105.681 39.524L95.9156 39.524C94.2356 39.524 92.9756 39.86 92.1356 40.532C91.2956 41.204 90.8756 42.338 90.8756 43.934L90.8756 54.959C90.8756 56.513 91.2956 57.647 92.1356 58.361C92.9756 59.075 94.2356 59.432 95.9156 59.432ZM135.285 68L135.285 35.996L134.655 30.956L146.247 30.956L164.013 48.974L166.47 51.746L167.163 51.746L167.163 30.956L179.259 30.956L179.259 68L168.738 68L150.468 49.793L148.011 46.832L147.381 46.832L147.381 68L135.285 68ZM203.084 68L203.084 39.461L188.09 39.461L188.09 30.893L230.489 30.893L230.489 39.461L215.306 39.461L215.306 68L203.084 68ZM228.49 68L246.949 30.956L263.329 30.956L281.725 68L268.18 68L265.093 61.259L245.185 61.259L241.72 68L228.49 68ZM248.65 52.565L261.565 52.565L255.454 39.146L254.824 39.146L248.65 52.565ZM300.062 68C295.568 68 292.313 67.013 290.297 65.039C288.281 63.065 287.273 59.873 287.273 55.463L287.273 43.934C287.273 39.398 288.386 36.101 290.612 34.043C292.838 31.943 295.988 30.893 300.062 30.893L318.458 30.893C321.356 30.893 323.561 31.061 325.073 31.397C326.627 31.691 327.404 32.006 327.404 32.342L325.451 40.217C324.401 40.091 322.343 39.965 319.277 39.839C316.253 39.671 312.431 39.587 307.811 39.587L304.598 39.587C302.624 39.587 301.28 39.965 300.566 40.721C299.894 41.435 299.558 42.548 299.558 44.06L299.558 54.833C299.558 56.261 299.852 57.374 300.44 58.172C301.07 58.928 302.456 59.306 304.598 59.306L307.181 59.306C313.187 59.306 317.765 59.243 320.915 59.117C324.065 58.949 325.955 58.781 326.585 58.613L330.428 65.417C330.428 65.627 329.987 65.942 329.105 66.362C328.265 66.782 326.816 67.16 324.758 67.496C322.742 67.832 319.928 68 316.316 68L300.062 68ZM350.486 68L350.486 39.461L335.492 39.461L335.492 30.893L377.891 30.893L377.891 39.461L362.708 39.461L362.708 68L350.486 68ZM414.911 68.63C410.711 68.63 407.519 67.643 405.335 65.669C403.193 63.695 402.122 60.503 402.122 56.093L402.122 30.956L414.407 30.956L414.407 54.959C414.407 56.933 414.89 58.256 415.856 58.928C416.822 59.6 418.019 59.936 419.447 59.936L427.574 59.936C428.918 59.936 430.094 59.6 431.102 58.928C432.11 58.214 432.614 56.891 432.614 54.959L432.614 30.956L444.71 30.956L444.71 56.093C444.71 60.503 443.639 63.695 441.497 65.669C439.397 67.643 436.226 68.63 431.984 68.63L414.911 68.63ZM463.463 68C460.607 68 458.507 67.874 457.163 67.622C455.819 67.37 455.147 67.076 455.147 66.74L458.927 58.613C459.893 58.781 461.888 58.949 464.912 59.117C467.936 59.243 471.863 59.306 476.693 59.306L481.67 59.306C483.14 59.306 484.127 59.096 484.631 58.676C485.135 58.256 485.387 57.647 485.387 56.849L485.387 56.219C485.387 55.211 485.135 54.518 484.631 54.14C484.127 53.762 483.14 53.573 481.67 53.573L467.243 53.573C463.001 53.573 459.914 52.796 457.982 51.242C456.05 49.646 455.084 47.063 455.084 43.493L455.084 41.225C455.084 39.377 455.42 37.676 456.092 36.122C456.806 34.568 458.003 33.329 459.683 32.405C461.363 31.439 463.673 30.956 466.613 30.956L487.529 30.956C490.091 30.956 492.212 31.103 493.892 31.397C495.614 31.691 496.475 32.006 496.475 32.342L494.585 40.154C493.409 40.028 491.183 39.902 487.907 39.776C484.673 39.608 480.557 39.524 475.559 39.524L471.023 39.461C469.721 39.461 468.797 39.65 468.251 40.028C467.705 40.364 467.411 41.015 467.369 41.981L467.369 42.422C467.369 43.388 467.663 44.06 468.251 44.438C468.839 44.816 469.784 45.005 471.086 45.005L484.946 45.005C487.634 45.005 489.923 45.278 491.813 45.824C493.703 46.37 495.152 47.378 496.16 48.848C497.168 50.276 497.672 52.397 497.672 55.211L497.672 57.479C497.672 60.629 496.853 63.17 495.215 65.102C493.619 67.034 490.826 68 486.836 68L463.463 68Z" fill="#FFB400"/>
<defs>
<radialGradient id="paint0_radial_1848_29770" cx="0" cy="0" r="1" gradientUnits="userSpaceOnUse" gradientTransform="translate(262.81 49.0413) rotate(90) scale(45.0413 260.81)">
<stop stop-color="#4B59BC" stop-opacity="0.21"/>
<stop offset="1" stop-color="#1A277E"/>
</radialGradient>
</defs>
</svg>
