<svg width="605" height="97" viewBox="0 0 605 97" fill="none" xmlns="http://www.w3.org/2000/svg">
<path d="M26.3785 15.1305L26.5159 15.058L26.6433 14.9691L38.7774 6.5H583.62C593.285 6.5 601.12 14.335 601.12 24V67.3665L580.658 81.782L580.643 81.7923L580.629 81.8029L567.162 91.5827H21C11.335 91.5827 3.5 83.7477 3.5 74.0827V27.1946L26.3785 15.1305Z" fill="url(#paint0_radial_1848_29770)" fill-opacity="0.85" stroke="#FFB400" stroke-width="5"/>
<path d="M5.03809 52.4933V25.9142L34.857 5.78381H79.6931" stroke="#FFB400" stroke-width="10"/>
<path d="M527.603 91.3064H566.829L599.568 67.1319V43.8064" stroke="#FFB400" stroke-width="10"/>
<path d="M29.67 68L29.67 35.996L29.04 30.956L58.272 30.956C63.354 30.956 67.155 31.964 69.675 33.98C72.237 35.996 73.518 39.146 73.518 43.43L73.518 55.463C73.518 59.831 72.258 63.023 69.738 65.039C67.218 67.013 63.396 68 58.272 68L29.67 68ZM41.955 59.306L56.382 59.306C59.616 59.306 61.254 57.815 61.296 54.833L61.296 43.934C61.296 42.716 60.939 41.687 60.225 40.847C59.511 39.965 58.23 39.524 56.382 39.524L41.955 39.524L41.955 59.306ZM78.3961 68L96.8551 30.956L113.235 30.956L131.631 68L118.086 68L114.999 61.259L95.0911 61.259L91.6261 68L78.3961 68ZM98.5561 52.565L111.471 52.565L105.36 39.146L104.73 39.146L98.5561 52.565ZM144.654 68L144.654 39.461L129.66 39.461L129.66 30.893L172.059 30.893L172.059 39.461L156.876 39.461L156.876 68L144.654 68ZM180.872 68L180.872 30.956L221.318 30.956L221.318 39.524L193.157 39.524L193.157 44.753L214.01 44.753L214.01 53.51L193.157 53.51L193.157 59.369L220.31 59.369L224.09 67.307C224.09 67.475 223.523 67.643 222.389 67.811C221.255 67.937 219.302 68 216.53 68L180.872 68ZM290.799 68.63C288.993 68.63 287.397 68.525 286.011 68.315C284.667 68.147 283.407 67.79 282.231 67.244C281.055 66.656 279.795 65.837 278.451 64.787C277.653 65.375 276.75 65.921 275.742 66.425C274.734 66.887 273.474 67.265 271.962 67.559C270.45 67.811 268.497 67.937 266.103 67.937L258.858 67.937C256.8 67.937 255.12 67.622 253.818 66.992C252.558 66.362 251.592 65.585 250.92 64.661C250.29 63.737 249.849 62.771 249.597 61.763C249.387 60.755 249.282 59.873 249.282 59.117L249.282 53.825C249.282 51.221 249.891 49.163 251.109 47.651C252.369 46.097 254.154 45.047 256.464 44.501C256.128 44.165 255.75 43.556 255.33 42.674C254.952 41.792 254.763 40.679 254.763 39.335L254.763 38.453C254.763 36.437 255.519 34.673 257.031 33.161C258.543 31.649 261 30.893 264.402 30.893L274.167 30.893C276.939 30.893 278.997 31.25 280.341 31.964C281.727 32.678 282.63 33.581 283.05 34.673C283.512 35.723 283.743 36.815 283.743 37.949L283.743 40.532C283.743 41.33 283.512 41.981 283.05 42.485C282.588 42.989 281.916 43.241 281.034 43.241L272.34 43.241L272.34 41.729C272.34 41.015 272.172 40.469 271.836 40.091C271.542 39.671 270.975 39.461 270.135 39.461L268.623 39.461C267.615 39.461 267.111 39.881 267.111 40.721C267.111 42.149 268.014 43.493 269.82 44.753C271.164 45.677 272.466 46.622 273.726 47.588C275.028 48.554 276.372 49.646 277.758 50.864C278.64 51.62 279.375 52.313 279.963 52.943C280.593 53.531 280.971 53.888 281.097 54.014L281.727 53.573L281.727 44.879L294.39 45.761L294.39 50.927C294.39 51.809 294.264 52.586 294.012 53.258C293.802 53.93 293.34 54.623 292.626 55.337C292.164 55.799 291.429 56.324 290.421 56.912C289.413 57.5 288.51 57.983 287.712 58.361C288.804 59.201 289.98 59.915 291.24 60.503C292.542 61.049 293.739 61.448 294.831 61.7C295.965 61.952 296.826 62.099 297.414 62.141L296.658 67.937C296.07 68.105 295.209 68.252 294.075 68.378C292.983 68.546 291.891 68.63 290.799 68.63ZM263.961 59.243L270.135 59.243C271.017 59.243 271.605 59.201 271.899 59.117C272.193 58.991 272.361 58.907 272.403 58.865C271.521 57.983 270.429 57.017 269.127 55.967C267.825 54.917 266.565 53.972 265.347 53.132C264.927 52.838 264.507 52.607 264.087 52.439C263.709 52.271 263.352 52.187 263.016 52.187C262.008 52.187 261.504 52.88 261.504 54.266L261.504 56.723C261.504 57.689 261.672 58.361 262.008 58.739C262.386 59.075 263.037 59.243 263.961 59.243ZM335.813 68L318.803 31.019L332.096 31.019L341.42 53.321L343.121 58.487L343.688 58.487L345.326 53.321L354.839 31.019L367.817 31.019L366.809 34.799L350.996 68L335.813 68ZM375.397 68L375.397 30.956L415.843 30.956L415.843 39.524L387.682 39.524L387.682 44.753L408.535 44.753L408.535 53.51L387.682 53.51L387.682 59.369L414.835 59.369L418.615 67.307C418.615 67.475 418.048 67.643 416.914 67.811C415.78 67.937 413.827 68 411.055 68L375.397 68ZM428.074 68L428.074 35.996L427.444 30.956L439.036 30.956L456.802 48.974L459.259 51.746L459.952 51.746L459.952 30.956L472.048 30.956L472.048 68L461.527 68L443.257 49.793L440.8 46.832L440.17 46.832L440.17 68L428.074 68ZM496.502 68.63C492.302 68.63 489.11 67.643 486.926 65.669C484.784 63.695 483.713 60.503 483.713 56.093L483.713 30.956L495.998 30.956L495.998 54.959C495.998 56.933 496.481 58.256 497.447 58.928C498.413 59.6 499.61 59.936 501.038 59.936L509.165 59.936C510.509 59.936 511.685 59.6 512.693 58.928C513.701 58.214 514.205 56.891 514.205 54.959L514.205 30.956L526.301 30.956L526.301 56.093C526.301 60.503 525.23 63.695 523.088 65.669C520.988 67.643 517.817 68.63 513.575 68.63L496.502 68.63ZM537.935 68L537.935 30.956L578.381 30.956L578.381 39.524L550.22 39.524L550.22 44.753L571.073 44.753L571.073 53.51L550.22 53.51L550.22 59.369L577.373 59.369L581.153 67.307C581.153 67.475 580.586 67.643 579.452 67.811C578.318 67.937 576.365 68 573.593 68L537.935 68Z" fill="#FFB400"/>
<defs>
<radialGradient id="paint0_radial_1848_29770" cx="0" cy="0" r="1" gradientUnits="userSpaceOnUse" gradientTransform="translate(302.31 49.0413) rotate(90) scale(45.0413 301.31)">
<stop stop-color="#4B59BC" stop-opacity="0.21"/>
<stop offset="1" stop-color="#1A277E"/>
</radialGradient>
</defs>
</svg>
