<svg width="360" height="97" viewBox="0 0 360 97" fill="none" xmlns="http://www.w3.org/2000/svg">
<path d="M18.8789 14.7786L19.009 14.6617L19.1215 14.5279L25.8709 6.5H336.62C346.285 6.5 354.12 14.335 354.12 24V67.7585L342.07 82.2257L342.058 82.24L342.046 82.2545L334.509 91.5827H23C13.335 91.5827 5.5 83.7476 5.5 74.0827V26.8011L18.8789 14.7786Z" fill="url(#paint0_radial_1848_29770)" fill-opacity="0.85" stroke="#FFB400" stroke-width="5"/>
<path d="M5.36633 52.4933V25.9142L22.8642 5.78381H49.1743" stroke="#FFB400" stroke-width="10"/>
<path d="M312.021 91.3064H335.039L354.25 67.1319V43.8064" stroke="#FFB400" stroke-width="10"/>
<path d="M31.04 68L31.04 30.956L71.486 30.956L71.486 39.524L43.325 39.524L43.325 44.753L64.178 44.753L64.178 53.51L43.325 53.51L43.325 59.369L70.478 59.369L74.258 67.307C74.258 67.475 73.691 67.643 72.557 67.811C71.423 67.937 69.47 68 66.698 68L31.04 68ZM95.0564 68L78.0464 31.019L91.3394 31.019L100.663 53.321L102.364 58.487L102.931 58.487L104.569 53.321L114.082 31.019L127.06 31.019L126.052 34.799L110.239 68L95.0564 68ZM134.641 68L134.641 30.956L175.087 30.956L175.087 39.524L146.926 39.524L146.926 44.753L167.779 44.753L167.779 53.51L146.926 53.51L146.926 59.369L174.079 59.369L177.859 67.307C177.859 67.475 177.292 67.643 176.158 67.811C175.024 67.937 173.071 68 170.299 68L134.641 68ZM187.317 68L187.317 35.996L186.687 30.956L198.279 30.956L216.045 48.974L218.502 51.746L219.195 51.746L219.195 30.956L231.291 30.956L231.291 68L220.77 68L202.5 49.793L200.043 46.832L199.413 46.832L199.413 68L187.317 68ZM255.115 68L255.115 39.461L240.121 39.461L240.121 30.893L282.52 30.893L282.52 39.461L267.337 39.461L267.337 68L255.115 68ZM298.452 68C295.596 68 293.496 67.874 292.152 67.622C290.808 67.37 290.136 67.076 290.136 66.74L293.916 58.613C294.882 58.781 296.877 58.949 299.901 59.117C302.925 59.243 306.852 59.306 311.682 59.306L316.659 59.306C318.129 59.306 319.116 59.096 319.62 58.676C320.124 58.256 320.376 57.647 320.376 56.849L320.376 56.219C320.376 55.211 320.124 54.518 319.62 54.14C319.116 53.762 318.129 53.573 316.659 53.573L302.232 53.573C297.99 53.573 294.903 52.796 292.971 51.242C291.039 49.646 290.073 47.063 290.073 43.493L290.073 41.225C290.073 39.377 290.409 37.676 291.081 36.122C291.795 34.568 292.992 33.329 294.672 32.405C296.352 31.439 298.662 30.956 301.602 30.956L322.518 30.956C325.08 30.956 327.201 31.103 328.881 31.397C330.603 31.691 331.464 32.006 331.464 32.342L329.574 40.154C328.398 40.028 326.172 39.902 322.896 39.776C319.662 39.608 315.546 39.524 310.548 39.524L306.012 39.461C304.71 39.461 303.786 39.65 303.24 40.028C302.694 40.364 302.4 41.015 302.358 41.981L302.358 42.422C302.358 43.388 302.652 44.06 303.24 44.438C303.828 44.816 304.773 45.005 306.075 45.005L319.935 45.005C322.623 45.005 324.912 45.278 326.802 45.824C328.692 46.37 330.141 47.378 331.149 48.848C332.157 50.276 332.661 52.397 332.661 55.211L332.661 57.479C332.661 60.629 331.842 63.17 330.204 65.102C328.608 67.034 325.815 68 321.825 68L298.452 68Z" fill="#FFB400"/>
<defs>
<radialGradient id="paint0_radial_1848_29770" cx="0" cy="0" r="1" gradientUnits="userSpaceOnUse" gradientTransform="translate(179.81 49.0413) rotate(90) scale(45.0413 176.81)">
<stop stop-color="#4B59BC" stop-opacity="0.21"/>
<stop offset="1" stop-color="#1A277E"/>
</radialGradient>
</defs>
</svg>
