<svg width="338" height="97" viewBox="0 0 338 97" fill="none" xmlns="http://www.w3.org/2000/svg">
<path d="M18.0537 14.7241L18.1794 14.6037L18.2872 14.4669L24.5686 6.5H314.62C324.285 6.5 332.12 14.335 332.12 24V67.8026L320.806 82.2868L320.795 82.3012L320.784 82.3158L313.762 91.5827H23C13.335 91.5827 5.5 83.7476 5.5 74.0827V26.7535L18.0537 14.7241Z" fill="url(#paint0_radial_1848_29770)" fill-opacity="0.85" stroke="#FFB400" stroke-width="5"/>
<path d="M5.21863 52.4933V25.9142L21.6279 5.78381H46.3011" stroke="#FFB400" stroke-width="10"/>
<path d="M292.798 91.3064H314.384L332.4 67.1319V43.8064" stroke="#FFB400" stroke-width="10"/>
<path d="M31.67 68L31.67 35.996L31.04 30.893L60.209 30.893C63.023 30.893 65.27 31.208 66.95 31.838C68.672 32.426 69.953 33.245 70.793 34.295C71.675 35.303 72.242 36.5 72.494 37.886C72.788 39.23 72.935 40.658 72.935 42.17L72.935 47.147C72.935 49.163 72.599 51.032 71.927 52.754C71.297 54.434 70.1 55.799 68.336 56.849C66.614 57.857 64.115 58.361 60.839 58.361L56.492 58.361C53.846 58.361 51.368 58.298 49.058 58.172C46.79 58.046 45.089 57.941 43.955 57.857L43.955 68L31.67 68ZM43.955 49.793L56.996 49.793C58.382 49.793 59.348 49.52 59.894 48.974C60.44 48.428 60.713 47.546 60.713 46.328L60.713 43.115C60.713 41.897 60.461 41.015 59.957 40.469C59.453 39.881 58.487 39.587 57.059 39.587L43.955 39.587L43.955 49.793ZM125.142 68.63C123.462 68.63 121.593 68.378 119.535 67.874C117.477 67.328 115.44 66.026 113.424 63.968L110.778 61.322C109.518 60.062 108.3 59.033 107.124 58.235C105.99 57.437 104.688 56.849 103.218 56.471C101.748 56.051 99.9003 55.841 97.6743 55.841L97.1703 55.841L97.1703 68L84.8853 68L84.8853 35.996L84.2553 30.893L113.424 30.893C116.112 30.893 118.275 31.229 119.913 31.901C121.593 32.531 122.874 33.392 123.756 34.484C124.68 35.534 125.31 36.731 125.646 38.075C125.982 39.419 126.15 40.784 126.15 42.17L126.15 43.367C126.15 45.887 125.499 48.155 124.197 50.171C122.937 52.145 120.921 53.552 118.149 54.392C119.199 55.022 120.186 55.673 121.11 56.345C122.076 56.975 123.168 57.647 124.386 58.361C125.772 59.159 127.053 59.747 128.229 60.125C129.447 60.461 130.455 60.671 131.253 60.755C132.051 60.839 132.513 60.881 132.639 60.881L130.749 68C130.245 68.126 129.468 68.252 128.418 68.378C127.41 68.546 126.318 68.63 125.142 68.63ZM104.478 47.462C105.528 47.462 106.536 47.441 107.502 47.399C108.51 47.357 109.413 47.294 110.211 47.21C111.639 47.042 112.605 46.601 113.109 45.887C113.655 45.131 113.928 44.228 113.928 43.178L113.928 42.485C113.928 41.561 113.655 40.847 113.109 40.343C112.605 39.839 111.66 39.587 110.274 39.587L97.1703 39.587L97.1703 47.21C98.2203 47.252 99.3753 47.315 100.635 47.399C101.895 47.441 103.176 47.462 104.478 47.462ZM140.854 68L140.854 30.956L152.95 30.956L152.95 68L140.854 68ZM163.633 68L163.633 60.629L187.825 39.524L163.633 39.524L163.633 30.956L205.276 30.956L205.276 38.264L180.517 59.369L203.701 59.369L207.481 67.307C207.481 67.475 206.914 67.643 205.78 67.811C204.646 67.937 202.693 68 199.921 68L163.633 68ZM216.954 68L216.954 30.956L257.4 30.956L257.4 39.524L229.239 39.524L229.239 44.753L250.092 44.753L250.092 53.51L229.239 53.51L229.239 59.369L256.392 59.369L260.172 67.307C260.172 67.475 259.605 67.643 258.471 67.811C257.337 67.937 255.384 68 252.612 68L216.954 68ZM276.119 68C273.263 68 271.163 67.874 269.819 67.622C268.475 67.37 267.803 67.076 267.803 66.74L271.583 58.613C272.549 58.781 274.544 58.949 277.568 59.117C280.592 59.243 284.519 59.306 289.349 59.306L294.326 59.306C295.796 59.306 296.783 59.096 297.287 58.676C297.791 58.256 298.043 57.647 298.043 56.849L298.043 56.219C298.043 55.211 297.791 54.518 297.287 54.14C296.783 53.762 295.796 53.573 294.326 53.573L279.899 53.573C275.657 53.573 272.57 52.796 270.638 51.242C268.706 49.646 267.74 47.063 267.74 43.493L267.74 41.225C267.74 39.377 268.076 37.676 268.748 36.122C269.462 34.568 270.659 33.329 272.339 32.405C274.019 31.439 276.329 30.956 279.269 30.956L300.185 30.956C302.747 30.956 304.868 31.103 306.548 31.397C308.27 31.691 309.131 32.006 309.131 32.342L307.241 40.154C306.065 40.028 303.839 39.902 300.563 39.776C297.329 39.608 293.213 39.524 288.215 39.524L283.679 39.461C282.377 39.461 281.453 39.65 280.907 40.028C280.361 40.364 280.067 41.015 280.025 41.981L280.025 42.422C280.025 43.388 280.319 44.06 280.907 44.438C281.495 44.816 282.44 45.005 283.742 45.005L297.602 45.005C300.29 45.005 302.579 45.278 304.469 45.824C306.359 46.37 307.808 47.378 308.816 48.848C309.824 50.276 310.328 52.397 310.328 55.211L310.328 57.479C310.328 60.629 309.509 63.17 307.871 65.102C306.275 67.034 303.482 68 299.492 68L276.119 68Z" fill="#FFB400"/>
<defs>
<radialGradient id="paint0_radial_1848_29770" cx="0" cy="0" r="1" gradientUnits="userSpaceOnUse" gradientTransform="translate(168.81 49.0413) rotate(90) scale(45.0413 165.81)">
<stop stop-color="#4B59BC" stop-opacity="0.21"/>
<stop offset="1" stop-color="#1A277E"/>
</radialGradient>
</defs>
</svg>
