<svg width="438" height="97" viewBox="0 0 438 97" fill="none" xmlns="http://www.w3.org/2000/svg">
<path d="M21.862 14.9339L22.001 14.8318L22.1247 14.7116L30.5708 6.5H415.618C425.283 6.5 433.118 14.335 433.118 24V67.614L418.417 82.0414L418.403 82.0547L418.39 82.0682L408.984 91.5827H23C13.335 91.5827 5.5 83.7476 5.5 74.0827V26.9522L21.862 14.9339Z" fill="url(#paint0_radial_1848_29770)" fill-opacity="0.85" stroke="#FFB400" stroke-width="5"/>
<path d="M5.89673 52.4933V25.9142L27.3036 5.78381H59.4912" stroke="#FFB400" stroke-width="10"/>
<path d="M381.059 91.3064H409.219L432.722 67.1319V43.8064" stroke="#FFB400" stroke-width="10"/>
<path d="M106.927 68.63C105.247 68.63 103.378 68.378 101.32 67.874C99.262 67.328 97.225 66.026 95.209 63.968L92.563 61.322C91.303 60.062 90.085 59.033 88.909 58.235C87.775 57.437 86.473 56.849 85.003 56.471C83.533 56.051 81.685 55.841 79.459 55.841L78.955 55.841L78.955 68L66.67 68L66.67 35.996L66.04 30.893L95.209 30.893C97.897 30.893 100.06 31.229 101.698 31.901C103.378 32.531 104.659 33.392 105.541 34.484C106.465 35.534 107.095 36.731 107.431 38.075C107.767 39.419 107.935 40.784 107.935 42.17L107.935 43.367C107.935 45.887 107.284 48.155 105.982 50.171C104.722 52.145 102.706 53.552 99.934 54.392C100.984 55.022 101.971 55.673 102.895 56.345C103.861 56.975 104.953 57.647 106.171 58.361C107.557 59.159 108.838 59.747 110.014 60.125C111.232 60.461 112.24 60.671 113.038 60.755C113.836 60.839 114.298 60.881 114.424 60.881L112.534 68C112.03 68.126 111.253 68.252 110.203 68.378C109.195 68.546 108.103 68.63 106.927 68.63ZM86.263 47.462C87.313 47.462 88.321 47.441 89.287 47.399C90.295 47.357 91.198 47.294 91.996 47.21C93.424 47.042 94.39 46.601 94.894 45.887C95.44 45.131 95.713 44.228 95.713 43.178L95.713 42.485C95.713 41.561 95.44 40.847 94.894 40.343C94.39 39.839 93.445 39.587 92.059 39.587L78.955 39.587L78.955 47.21C80.005 47.252 81.16 47.315 82.42 47.399C83.68 47.441 84.961 47.462 86.263 47.462ZM134.798 68C130.346 68 127.091 67.013 125.033 65.039C123.017 63.023 122.009 59.831 122.009 55.463L122.009 43.43C122.009 39.146 123.017 35.996 125.033 33.98C127.049 31.964 130.304 30.956 134.798 30.956L153.194 30.956C157.604 30.956 160.817 31.964 162.833 33.98C164.891 35.996 165.92 39.146 165.92 43.43L165.92 55.463C165.92 59.831 164.891 63.023 162.833 65.039C160.775 67.013 157.562 68 153.194 68L134.798 68ZM139.145 59.432L148.91 59.432C152.186 59.432 153.824 57.941 153.824 54.959L153.824 43.934C153.824 40.994 152.186 39.524 148.91 39.524L139.145 39.524C137.465 39.524 136.205 39.86 135.365 40.532C134.525 41.204 134.105 42.338 134.105 43.934L134.105 54.959C134.105 56.513 134.525 57.647 135.365 58.361C136.205 59.075 137.465 59.432 139.145 59.432ZM189.729 68.63C185.529 68.63 182.337 67.643 180.153 65.669C178.011 63.695 176.94 60.503 176.94 56.093L176.94 30.956L189.225 30.956L189.225 54.959C189.225 56.933 189.708 58.256 190.674 58.928C191.64 59.6 192.837 59.936 194.265 59.936L202.392 59.936C203.736 59.936 204.912 59.6 205.92 58.928C206.928 58.214 207.432 56.891 207.432 54.959L207.432 30.956L219.528 30.956L219.528 56.093C219.528 60.503 218.457 63.695 216.315 65.669C214.215 67.643 211.044 68.63 206.802 68.63L189.729 68.63ZM231.792 68L231.792 35.996L231.162 30.956L242.754 30.956L260.52 48.974L262.977 51.746L263.67 51.746L263.67 30.956L275.766 30.956L275.766 68L265.245 68L246.975 49.793L244.518 46.832L243.888 46.832L243.888 68L231.792 68ZM289.006 68L289.006 35.996L288.376 30.956L317.608 30.956C322.69 30.956 326.491 31.964 329.011 33.98C331.573 35.996 332.854 39.146 332.854 43.43L332.854 55.463C332.854 59.831 331.594 63.023 329.074 65.039C326.554 67.013 322.732 68 317.608 68L289.006 68ZM301.291 59.306L315.718 59.306C318.952 59.306 320.59 57.815 320.632 54.833L320.632 43.934C320.632 42.716 320.275 41.687 319.561 40.847C318.847 39.965 317.566 39.524 315.718 39.524L301.291 39.524L301.291 59.306ZM351.294 68C348.438 68 346.338 67.874 344.994 67.622C343.65 67.37 342.978 67.076 342.978 66.74L346.758 58.613C347.724 58.781 349.719 58.949 352.743 59.117C355.767 59.243 359.694 59.306 364.524 59.306L369.501 59.306C370.971 59.306 371.958 59.096 372.462 58.676C372.966 58.256 373.218 57.647 373.218 56.849L373.218 56.219C373.218 55.211 372.966 54.518 372.462 54.14C371.958 53.762 370.971 53.573 369.501 53.573L355.074 53.573C350.832 53.573 347.745 52.796 345.813 51.242C343.881 49.646 342.915 47.063 342.915 43.493L342.915 41.225C342.915 39.377 343.251 37.676 343.923 36.122C344.637 34.568 345.834 33.329 347.514 32.405C349.194 31.439 351.504 30.956 354.444 30.956L375.36 30.956C377.922 30.956 380.043 31.103 381.723 31.397C383.445 31.691 384.306 32.006 384.306 32.342L382.416 40.154C381.24 40.028 379.014 39.902 375.738 39.776C372.504 39.608 368.388 39.524 363.39 39.524L358.854 39.461C357.552 39.461 356.628 39.65 356.082 40.028C355.536 40.364 355.242 41.015 355.2 41.981L355.2 42.422C355.2 43.388 355.494 44.06 356.082 44.438C356.67 44.816 357.615 45.005 358.917 45.005L372.777 45.005C375.465 45.005 377.754 45.278 379.644 45.824C381.534 46.37 382.983 47.378 383.991 48.848C384.999 50.276 385.503 52.397 385.503 55.211L385.503 57.479C385.503 60.629 384.684 63.17 383.046 65.102C381.45 67.034 378.657 68 374.667 68L351.294 68Z" fill="#FFB400"/>
<defs>
<radialGradient id="paint0_radial_1848_29770" cx="0" cy="0" r="1" gradientUnits="userSpaceOnUse" gradientTransform="translate(219.309 49.0413) rotate(90) scale(45.0413 216.309)">
<stop stop-color="#4B59BC" stop-opacity="0.21"/>
<stop offset="1" stop-color="#1A277E"/>
</radialGradient>
</defs>
</svg>
