<svg width="233" height="54" viewBox="0 0 233 54" fill="none" xmlns="http://www.w3.org/2000/svg">
<path d="M79.9671 33.5537C78.4457 33.5537 77.0449 33.3032 75.7647 32.8023C74.4844 32.3013 73.3712 31.6055 72.425 30.715C71.4787 29.8058 70.7458 28.7482 70.2263 27.5422C69.7068 26.3177 69.4471 24.9818 69.4471 23.5346C69.4471 22.0874 69.7068 20.7608 70.2263 19.5548C70.7458 18.3302 71.4787 17.2727 72.425 16.3821C73.3712 15.4729 74.4844 14.7679 75.7647 14.2669C77.0449 13.766 78.4364 13.5155 79.9393 13.5155C81.4607 13.5155 82.8522 13.766 84.1139 14.2669C85.3941 14.7679 86.5073 15.4729 87.4536 16.3821C88.3998 17.2727 89.1327 18.3302 89.6522 19.5548C90.1717 20.7608 90.4315 22.0874 90.4315 23.5346C90.4315 24.9818 90.1717 26.3177 89.6522 27.5422C89.1327 28.7668 88.3998 29.8244 87.4536 30.715C86.5073 31.6055 85.3941 32.3013 84.1139 32.8023C82.8522 33.3032 81.47 33.5537 79.9671 33.5537ZM79.9393 30.381C80.9226 30.381 81.8318 30.214 82.6667 29.88C83.5016 29.5461 84.2252 29.0729 84.8375 28.4607C85.4498 27.8298 85.9229 27.1062 86.2569 26.2899C86.6094 25.4549 86.7857 24.5365 86.7857 23.5346C86.7857 22.5327 86.6094 21.6236 86.2569 20.8072C85.9229 19.9723 85.4498 19.2487 84.8375 18.6364C84.2252 18.0056 83.5016 17.5231 82.6667 17.1892C81.8318 16.8552 80.9226 16.6882 79.9393 16.6882C78.9559 16.6882 78.0468 16.8552 77.2119 17.1892C76.3955 17.5231 75.6719 18.0056 75.0411 18.6364C74.4288 19.2487 73.9464 19.9723 73.5939 20.8072C73.2599 21.6236 73.0929 22.5327 73.0929 23.5346C73.0929 24.518 73.2599 25.4271 73.5939 26.262C73.9464 27.0969 74.4288 27.8298 75.0411 28.4607C75.6533 29.0729 76.3769 29.5461 77.2119 29.88C78.0468 30.214 78.9559 30.381 79.9393 30.381ZM102.087 33.5537C99.4152 33.5537 97.3186 32.8023 95.7972 31.2994C94.2943 29.7965 93.5429 27.6257 93.5429 24.787V13.7938H97.1609V24.6478C97.1609 26.6517 97.5876 28.1081 98.4411 29.0173C99.3131 29.9264 100.538 30.381 102.115 30.381C103.692 30.381 104.907 29.9264 105.761 29.0173C106.614 28.1081 107.041 26.6517 107.041 24.6478V13.7938H110.603V24.787C110.603 27.6257 109.842 29.7965 108.321 31.2994C106.818 32.8023 104.74 33.5537 102.087 33.5537ZM118.712 33.2754V16.8552H112.255V13.7938H128.787V16.8552H122.33V33.2754H118.712ZM130.946 33.2754V13.7938H138.961C140.686 13.7938 142.161 14.0721 143.386 14.6287C144.629 15.1854 145.585 15.9832 146.252 17.0222C146.92 18.0612 147.254 19.295 147.254 20.7237C147.254 22.1523 146.92 23.3862 146.252 24.4252C145.585 25.4457 144.629 26.2342 143.386 26.7908C142.161 27.3289 140.686 27.5979 138.961 27.5979H132.949L134.564 25.9559V33.2754H130.946ZM143.692 33.2754L138.766 26.2064H142.634L147.588 33.2754H143.692ZM134.564 26.3455L132.949 24.62H138.794C140.389 24.62 141.586 24.2768 142.384 23.5903C143.2 22.9038 143.609 21.9482 143.609 20.7237C143.609 19.4806 143.2 18.5251 142.384 17.8571C141.586 17.1892 140.389 16.8552 138.794 16.8552H132.949L134.564 15.074V26.3455ZM154.085 21.8926H163.77V24.8705H154.085V21.8926ZM154.364 30.2418H165.357V33.2754H150.746V13.7938H164.967V16.8274H154.364V30.2418ZM166.078 33.2754L174.845 13.7938H178.407L187.202 33.2754H183.417L175.875 15.7141H177.322L169.808 33.2754H166.078ZM170.114 28.7668L171.088 25.9281H181.608L182.582 28.7668H170.114ZM197.868 33.5537C196.384 33.5537 195.002 33.3125 193.721 32.8301C192.46 32.3291 191.356 31.6334 190.41 30.7428C189.482 29.8336 188.758 28.7668 188.239 27.5422C187.719 26.3177 187.459 24.9818 187.459 23.5346C187.459 22.0874 187.719 20.7515 188.239 19.527C188.758 18.3024 189.491 17.2448 190.437 16.3543C191.384 15.4451 192.488 14.7493 193.749 14.2669C195.011 13.766 196.393 13.5155 197.896 13.5155C199.492 13.5155 200.948 13.7938 202.265 14.3504C203.583 14.8885 204.696 15.6956 205.605 16.7717L203.267 18.9704C202.562 18.2096 201.774 17.6437 200.902 17.2727C200.03 16.883 199.083 16.6882 198.063 16.6882C197.043 16.6882 196.106 16.8552 195.252 17.1892C194.417 17.5231 193.684 17.9963 193.053 18.6086C192.441 19.2208 191.959 19.9444 191.606 20.7794C191.272 21.6143 191.105 22.5327 191.105 23.5346C191.105 24.5365 191.272 25.4549 191.606 26.2899C191.959 27.1248 192.441 27.8484 193.053 28.4607C193.684 29.0729 194.417 29.5461 195.252 29.88C196.106 30.214 197.043 30.381 198.063 30.381C199.083 30.381 200.03 30.1954 200.902 29.8244C201.774 29.4347 202.562 28.8503 203.267 28.071L205.605 30.2975C204.696 31.3551 203.583 32.1622 202.265 32.7188C200.948 33.2754 199.482 33.5537 197.868 33.5537ZM222.208 13.7938H225.826V33.2754H222.208V13.7938ZM212.133 33.2754H208.515V13.7938H212.133V33.2754ZM222.486 24.9261H211.827V21.8369H222.486V24.9261Z" fill="white"/>
<ellipse cx="27.7242" cy="4.63847" rx="4.82184" ry="4.63847" fill="#F96508"/>
<ellipse cx="4.82184" cy="26.6701" rx="4.63847" ry="4.82184" transform="rotate(-90 4.82184 26.6701)" fill="#026BA1"/>
<ellipse cx="49.4243" cy="27.8318" rx="4.63847" ry="4.82184" transform="rotate(90 49.4243 27.8318)" fill="#FEBA10"/>
<ellipse cx="27.725" cy="48.7033" rx="4.82184" ry="4.63847" transform="rotate(-180 27.725 48.7033)" fill="#06CA3D"/>
<path d="M32.546 20.8726V12.0049C32.546 11.7789 32.3628 11.5957 32.1368 11.5957H23.3115C23.0855 11.5957 22.9023 11.7789 22.9023 12.0049V20.8726" stroke="#F96508" stroke-width="2.31923"/>
<path d="M22.9054 22.0317H13.6709C13.4449 22.0317 13.2617 22.2149 13.2617 22.4408V30.8994C13.2617 31.1254 13.4449 31.3086 13.6709 31.3086H22.9054" stroke="#026BA1" stroke-width="2.31923"/>
<path d="M32.5477 31.3101H41.7822C42.0082 31.3101 42.1914 31.1269 42.1914 30.901V22.4424C42.1914 22.2164 42.0082 22.0332 41.7822 22.0332H32.5477" stroke="#FEBA10" stroke-width="2.31923"/>
<path d="M22.9032 32.4692V41.3369C22.9032 41.5629 23.0864 41.7461 23.3124 41.7461H32.1377C32.3637 41.7461 32.5469 41.5629 32.5469 41.3369V32.4692" stroke="#06CA3D" stroke-width="2.31923"/>
<path d="M77.2932 50.1016V41.9842H78.8007V50.1016H77.2932ZM87.3741 50.1016V41.9842H88.8816V50.1016H87.3741ZM99.1018 50.1016V43.2598H96.4114V41.9842H103.3V43.2598H100.609V50.1016H99.1018ZM120.392 50.1016V41.9842H123.731C124.45 41.9842 125.065 42.1002 125.575 42.3321C126.093 42.5641 126.491 42.8965 126.769 43.3294C127.048 43.7623 127.187 44.2764 127.187 44.8717C127.187 45.467 127.048 45.9811 126.769 46.414C126.491 46.8392 126.093 47.1677 125.575 47.3997C125.065 47.6238 124.45 47.7359 123.731 47.7359H121.226L121.899 47.0518V50.1016H120.392ZM125.703 50.1016L123.65 47.1561H125.262L127.326 50.1016H125.703ZM121.899 47.2141L121.226 46.4952H123.662C124.326 46.4952 124.825 46.3521 125.158 46.0661C125.498 45.7801 125.668 45.3819 125.668 44.8717C125.668 44.3537 125.498 43.9556 125.158 43.6773C124.825 43.399 124.326 43.2598 123.662 43.2598H121.226L121.899 42.5177V47.2141ZM139.055 50.2175C138.421 50.2175 137.837 50.1132 137.304 49.9044C136.77 49.6957 136.307 49.4058 135.912 49.0347C135.518 48.6559 135.213 48.2153 134.996 47.7128C134.78 47.2025 134.672 46.6459 134.672 46.0429C134.672 45.4399 134.78 44.8871 134.996 44.3846C135.213 43.8744 135.518 43.4338 135.912 43.0627C136.307 42.6839 136.77 42.3901 137.304 42.1814C137.837 41.9726 138.417 41.8683 139.043 41.8683C139.677 41.8683 140.257 41.9726 140.783 42.1814C141.316 42.3901 141.78 42.6839 142.174 43.0627C142.569 43.4338 142.874 43.8744 143.09 44.3846C143.307 44.8871 143.415 45.4399 143.415 46.0429C143.415 46.6459 143.307 47.2025 143.09 47.7128C142.874 48.223 142.569 48.6636 142.174 49.0347C141.78 49.4058 141.316 49.6957 140.783 49.9044C140.257 50.1132 139.681 50.2175 139.055 50.2175ZM139.043 48.8956C139.453 48.8956 139.832 48.826 140.18 48.6868C140.528 48.5477 140.829 48.3505 141.084 48.0954C141.339 47.8326 141.537 47.5311 141.676 47.1909C141.823 46.843 141.896 46.4604 141.896 46.0429C141.896 45.6254 141.823 45.2466 141.676 44.9065C141.537 44.5586 141.339 44.2571 141.084 44.002C140.829 43.7391 140.528 43.5381 140.18 43.399C139.832 43.2598 139.453 43.1902 139.043 43.1902C138.634 43.1902 138.255 43.2598 137.907 43.399C137.567 43.5381 137.265 43.7391 137.002 44.002C136.747 44.2571 136.546 44.5586 136.399 44.9065C136.26 45.2466 136.191 45.6254 136.191 46.0429C136.191 46.4526 136.26 46.8314 136.399 47.1793C136.546 47.5272 136.747 47.8326 137.002 48.0954C137.258 48.3505 137.559 48.5477 137.907 48.6868C138.255 48.826 138.634 48.8956 139.043 48.8956ZM155.194 50.2175C154.561 50.2175 153.977 50.1132 153.443 49.9044C152.91 49.6957 152.446 49.4058 152.052 49.0347C151.658 48.6559 151.352 48.2153 151.136 47.7128C150.919 47.2025 150.811 46.6459 150.811 46.0429C150.811 45.4399 150.919 44.8871 151.136 44.3846C151.352 43.8744 151.658 43.4338 152.052 43.0627C152.446 42.6839 152.91 42.3901 153.443 42.1814C153.977 41.9726 154.557 41.8683 155.183 41.8683C155.817 41.8683 156.397 41.9726 156.922 42.1814C157.456 42.3901 157.92 42.6839 158.314 43.0627C158.708 43.4338 159.013 43.8744 159.23 44.3846C159.446 44.8871 159.555 45.4399 159.555 46.0429C159.555 46.6459 159.446 47.2025 159.23 47.7128C159.013 48.223 158.708 48.6636 158.314 49.0347C157.92 49.4058 157.456 49.6957 156.922 49.9044C156.397 50.1132 155.821 50.2175 155.194 50.2175ZM155.183 48.8956C155.593 48.8956 155.971 48.826 156.319 48.6868C156.667 48.5477 156.969 48.3505 157.224 48.0954C157.479 47.8326 157.676 47.5311 157.815 47.1909C157.962 46.843 158.036 46.4604 158.036 46.0429C158.036 45.6254 157.962 45.2466 157.815 44.9065C157.676 44.5586 157.479 44.2571 157.224 44.002C156.969 43.7391 156.667 43.5381 156.319 43.399C155.971 43.2598 155.593 43.1902 155.183 43.1902C154.773 43.1902 154.394 43.2598 154.046 43.399C153.706 43.5381 153.405 43.7391 153.142 44.002C152.887 44.2571 152.686 44.5586 152.539 44.9065C152.4 45.2466 152.33 45.6254 152.33 46.0429C152.33 46.4526 152.4 46.8314 152.539 47.1793C152.686 47.5272 152.887 47.8326 153.142 48.0954C153.397 48.3505 153.699 48.5477 154.046 48.6868C154.394 48.826 154.773 48.8956 155.183 48.8956ZM167.53 50.1016V41.9842H170.87C171.589 41.9842 172.204 42.1002 172.714 42.3321C173.232 42.5641 173.63 42.8965 173.908 43.3294C174.187 43.7623 174.326 44.2764 174.326 44.8717C174.326 45.467 174.187 45.9811 173.908 46.414C173.63 46.8392 173.232 47.1677 172.714 47.3997C172.204 47.6238 171.589 47.7359 170.87 47.7359H168.365L169.038 47.0518V50.1016H167.53ZM172.841 50.1016L170.789 47.1561H172.401L174.465 50.1016H172.841ZM169.038 47.2141L168.365 46.4952H170.801C171.465 46.4952 171.964 46.3521 172.296 46.0661C172.637 45.7801 172.807 45.3819 172.807 44.8717C172.807 44.3537 172.637 43.9556 172.296 43.6773C171.964 43.399 171.465 43.2598 170.801 43.2598H168.365L169.038 42.5177V47.2141ZM183.735 48.1882L183.654 46.4024L187.91 41.9842H189.603L186.066 45.7414L185.231 46.6575L183.735 48.1882ZM182.39 50.1016V41.9842H183.898V50.1016H182.39ZM188.049 50.1016L184.941 46.4024L185.939 45.3007L189.812 50.1016H188.049ZM198.608 45.3587H202.643V46.5995H198.608V45.3587ZM198.724 48.8376H203.304V50.1016H197.216V41.9842H203.142V43.2482H198.724V48.8376ZM212.754 45.3587H216.79V46.5995H212.754V45.3587ZM212.87 48.8376H217.451V50.1016H211.363V41.9842H217.288V43.2482H212.87V48.8376Z" fill="white" fill-opacity="0.9"/>
</svg>
