<svg width="440" height="135" viewBox="0 0 440 135" fill="none" xmlns="http://www.w3.org/2000/svg">
<path d="M22.6912 22.8723L22.6961 22.8683L43.1595 6.5H415C425.217 6.5 433.5 14.7827 433.5 25V95.0753L415.84 113.598L400.003 128.99H25C14.7827 128.99 6.5 120.707 6.5 110.49V35.8899L22.6912 22.8723Z" fill="url(#paint0_radial_2023_70)" fill-opacity="0.85" stroke="#FFB400" stroke-width="5"/>
<path d="M5.66797 72.0435V34.4273L43.8406 5.93756H90.8983" stroke="#FFB400" stroke-width="10"/>
<path d="M344.93 129.493H401.946L434.338 96.4795V57.8787" stroke="#FFB400" stroke-width="10"/>
<path d="M81.572 91.6793C79.7587 91.6793 77.7413 91.4073 75.52 90.8633C73.2987 90.2739 71.1 88.8686 68.924 86.6473L66.068 83.7913C64.708 82.4313 63.3933 81.3206 62.124 80.4593C60.9 79.5979 59.4947 78.9633 57.908 78.5553C56.3213 78.1019 54.3267 77.8753 51.924 77.8753H51.38V90.9993H38.12V56.4553L37.44 50.9473H68.924C71.8253 50.9473 74.16 51.3099 75.928 52.0353C77.7413 52.7153 79.124 53.6446 80.076 54.8233C81.0733 55.9566 81.7533 57.2486 82.116 58.6993C82.4787 60.1499 82.66 61.6233 82.66 63.1193V64.4113C82.66 67.1313 81.9573 69.5793 80.552 71.7553C79.192 73.8859 77.016 75.4046 74.024 76.3113C75.1573 76.9913 76.2227 77.6939 77.22 78.4193C78.2627 79.0993 79.4413 79.8246 80.756 80.5953C82.252 81.4566 83.6347 82.0913 84.904 82.4993C86.2187 82.8619 87.3067 83.0886 88.168 83.1793C89.0293 83.2699 89.528 83.3153 89.664 83.3153L87.624 90.9993C87.08 91.1353 86.2413 91.2713 85.108 91.4073C84.02 91.5886 82.8413 91.6793 81.572 91.6793ZM59.268 68.8313C60.4013 68.8313 61.4893 68.8086 62.532 68.7633C63.62 68.7179 64.5947 68.6499 65.456 68.5593C66.9973 68.3779 68.04 67.9019 68.584 67.1313C69.1733 66.3153 69.468 65.3406 69.468 64.2073V63.4593C69.468 62.4619 69.1733 61.6913 68.584 61.1473C68.04 60.6033 67.02 60.3313 65.524 60.3313H51.38V68.5593C52.5133 68.6046 53.76 68.6726 55.12 68.7633C56.48 68.8086 57.8627 68.8313 59.268 68.8313ZM98.5311 90.9993V51.0153H142.187V60.2633H111.791V65.9073H134.299V75.3593H111.791V81.6833H141.099L145.179 90.2513C145.179 90.4326 144.567 90.6139 143.343 90.7953C142.119 90.9313 140.011 90.9993 137.019 90.9993H98.5311ZM162.392 90.9993C159.309 90.9993 157.043 90.8633 155.592 90.5913C154.141 90.3193 153.416 90.0019 153.416 89.6393L157.496 80.8673C158.539 81.0486 160.692 81.2299 163.956 81.4113C167.22 81.5473 171.459 81.6153 176.672 81.6153H182.044C183.631 81.6153 184.696 81.3886 185.24 80.9353C185.784 80.4819 186.056 79.8246 186.056 78.9633V78.2833C186.056 77.1953 185.784 76.4473 185.24 76.0393C184.696 75.6313 183.631 75.4273 182.044 75.4273H166.472C161.893 75.4273 158.561 74.5886 156.476 72.9113C154.391 71.1886 153.348 68.4006 153.348 64.5473V62.0993C153.348 60.1046 153.711 58.2686 154.436 56.5913C155.207 54.9139 156.499 53.5766 158.312 52.5793C160.125 51.5366 162.619 51.0153 165.792 51.0153H188.368C191.133 51.0153 193.423 51.1739 195.236 51.4913C197.095 51.8086 198.024 52.1486 198.024 52.5113L195.984 60.9433C194.715 60.8073 192.312 60.6713 188.776 60.5353C185.285 60.3539 180.843 60.2633 175.448 60.2633L170.552 60.1953C169.147 60.1953 168.149 60.3993 167.56 60.8073C166.971 61.1699 166.653 61.8726 166.608 62.9153V63.3913C166.608 64.4339 166.925 65.1593 167.56 65.5673C168.195 65.9753 169.215 66.1793 170.62 66.1793H185.58C188.481 66.1793 190.952 66.4739 192.992 67.0633C195.032 67.6526 196.596 68.7406 197.684 70.3273C198.772 71.8686 199.316 74.1579 199.316 77.1953V79.6433C199.316 83.0433 198.432 85.7859 196.664 87.8713C194.941 89.9566 191.927 90.9993 187.62 90.9993H162.392ZM224.333 91.6793C219.8 91.6793 216.355 90.6139 213.997 88.4833C211.685 86.3526 210.529 82.9073 210.529 78.1473V51.0153H223.789V76.9233C223.789 79.0539 224.311 80.4819 225.353 81.2073C226.396 81.9326 227.688 82.2953 229.229 82.2953H238.001C239.452 82.2953 240.721 81.9326 241.809 81.2073C242.897 80.4366 243.441 79.0086 243.441 76.9233V51.0153H256.497V78.1473C256.497 82.9073 255.341 86.3526 253.029 88.4833C250.763 90.6139 247.34 91.6793 242.761 91.6793H224.333ZM269.054 90.9993L269.734 85.5593V51.0153H282.79V81.6833H306.862L310.942 90.2513C310.942 90.4326 310.33 90.6139 309.106 90.7953C307.882 90.9313 305.774 90.9993 302.782 90.9993H269.054ZM320.335 90.9993V60.1953H304.151V50.9473H349.915V60.1953H333.527V90.9993H320.335ZM367.112 90.9993C364.029 90.9993 361.763 90.8633 360.312 90.5913C358.861 90.3193 358.136 90.0019 358.136 89.6393L362.216 80.8673C363.259 81.0486 365.412 81.2299 368.676 81.4113C371.94 81.5473 376.179 81.6153 381.392 81.6153H386.764C388.351 81.6153 389.416 81.3886 389.96 80.9353C390.504 80.4819 390.776 79.8246 390.776 78.9633V78.2833C390.776 77.1953 390.504 76.4473 389.96 76.0393C389.416 75.6313 388.351 75.4273 386.764 75.4273H371.192C366.613 75.4273 363.281 74.5886 361.196 72.9113C359.111 71.1886 358.068 68.4006 358.068 64.5473V62.0993C358.068 60.1046 358.431 58.2686 359.156 56.5913C359.927 54.9139 361.219 53.5766 363.032 52.5793C364.845 51.5366 367.339 51.0153 370.512 51.0153H393.088C395.853 51.0153 398.143 51.1739 399.956 51.4913C401.815 51.8086 402.744 52.1486 402.744 52.5113L400.704 60.9433C399.435 60.8073 397.032 60.6713 393.496 60.5353C390.005 60.3539 385.563 60.2633 380.168 60.2633L375.272 60.1953C373.867 60.1953 372.869 60.3993 372.28 60.8073C371.691 61.1699 371.373 61.8726 371.328 62.9153V63.3913C371.328 64.4339 371.645 65.1593 372.28 65.5673C372.915 65.9753 373.935 66.1793 375.34 66.1793H390.3C393.201 66.1793 395.672 66.4739 397.712 67.0633C399.752 67.6526 401.316 68.7406 402.404 70.3273C403.492 71.8686 404.036 74.1579 404.036 77.1953V79.6433C404.036 83.0433 403.152 85.7859 401.384 87.8713C399.661 89.9566 396.647 90.9993 392.34 90.9993H367.112Z" fill="#FFB400"/>
<defs>
<radialGradient id="paint0_radial_2023_70" cx="0" cy="0" r="1" gradientUnits="userSpaceOnUse" gradientTransform="translate(220 67.745) rotate(90) scale(63.745 216)">
<stop stop-color="#4B59BC" stop-opacity="0.21"/>
<stop offset="1" stop-color="#1A277E"/>
</radialGradient>
</defs>
</svg>
