<svg width="1050" height="320" viewBox="0 0 1050 320" fill="none" xmlns="http://www.w3.org/2000/svg">
<g filter="url(#filter0_d_1162_10730)">
<path d="M78.5 8L11 72.7826V93.8699V164.58V271C11 290.33 26.67 306 46 306L970 306L1038.99 246.201V43C1038.99 23.67 1023.32 8 1003.99 8H558.877H318.818H198.788H78.5Z" fill="url(#paint0_radial_1162_10730)" fill-opacity="0.85" shape-rendering="crispEdges"/>
<path d="M78.5 8L11 72.7826V93.8699V164.58V271C11 290.33 26.67 306 46 306L970 306L1038.99 246.201V43C1038.99 23.67 1023.32 8 1003.99 8H558.877H318.818H198.788H78.5Z" stroke="#FFB400" stroke-width="3.79" shape-rendering="crispEdges"/>
</g>
<path d="M1038.75 170.942C1038.75 199.765 1038.75 245.059 1038.75 245.059L969.479 306H885" stroke="#FFB400" stroke-width="6.4"/>
<path d="M175 8H80.3492L11 73.4828V157" stroke="#FFB400" stroke-width="6.4"/>
<path d="M84.1983 128L72.0003 94.541H84.1413L89.8413 113.579L91.1523 118.538H91.7223L92.4633 115.232L98.3343 94.541H111.444L117.657 115.232L118.683 118.538H119.253L120.564 113.579L125.751 94.541H137.721L137.151 97.961L125.409 128H112.299L106.257 109.589L105.117 104.801H104.547L103.464 109.589L97.4793 128H84.1983ZM145.318 128C142.81 128 140.872 127.639 139.504 126.917C138.174 126.195 137.262 125.207 136.768 123.953C136.274 122.661 136.027 121.179 136.027 119.507V110.9C136.027 109.38 136.274 107.993 136.768 106.739C137.3 105.447 138.231 104.421 139.561 103.661C140.891 102.863 142.81 102.464 145.318 102.464H157.117C160.081 102.464 162.342 102.825 163.9 103.547C165.496 104.231 166.579 105.219 167.149 106.511C167.757 107.765 168.061 109.228 168.061 110.9V118.196H158.086C154.666 118.196 152.063 118.12 150.277 117.968C148.529 117.816 147.294 117.721 146.572 117.683V118.538C146.534 120.058 147.446 120.818 149.308 120.818H151.075C154.115 120.818 156.927 120.761 159.511 120.647C162.095 120.495 164.014 120.362 165.268 120.248L168.688 125.663C168.688 126.043 168.365 126.404 167.719 126.746C167.073 127.088 165.933 127.392 164.299 127.658C162.703 127.886 160.423 128 157.459 128H145.318ZM146.572 112.724H157.516V111.926C157.516 111.166 157.44 110.634 157.288 110.33C157.174 110.026 156.775 109.836 156.091 109.76C155.407 109.684 154.248 109.646 152.614 109.646H149.308C147.484 109.646 146.572 110.406 146.572 111.926V112.724ZM190.851 128C187.507 128 185.113 127.373 183.669 126.119C182.225 124.865 181.503 122.775 181.503 119.849C181.503 117.151 182.244 115.194 183.726 113.978C185.246 112.762 187.621 112.154 190.851 112.154H192.618C194.746 112.154 196.779 112.23 198.717 112.382C200.655 112.534 202.327 112.686 203.733 112.838V111.926C203.733 111.394 203.619 110.881 203.391 110.387C203.163 109.893 202.365 109.646 200.997 109.646H198.147C194.005 109.646 190.813 109.722 188.571 109.874C186.329 109.988 184.942 110.102 184.41 110.216L183.783 104.174C183.783 103.794 184.448 103.49 185.778 103.262C187.108 102.996 188.932 102.806 191.25 102.692C193.568 102.54 196.209 102.464 199.173 102.464H204.873C207.381 102.464 209.3 102.844 210.63 103.604C211.96 104.326 212.872 105.314 213.366 106.568C213.86 107.822 214.107 109.266 214.107 110.9V128H206.013L203.79 126.86C202.878 127.05 201.415 127.297 199.401 127.601C197.425 127.867 195.145 128 192.561 128H190.851ZM194.157 121.274H202.023C202.859 121.274 203.353 121.198 203.505 121.046C203.657 120.894 203.733 120.419 203.733 119.621V117.626H194.157C193.435 117.626 192.903 117.759 192.561 118.025C192.219 118.291 192.048 118.804 192.048 119.564C192.048 120.286 192.219 120.761 192.561 120.989C192.903 121.179 193.435 121.274 194.157 121.274ZM218.375 128V102.464H226.469L228.635 103.604C230.383 102.464 232.701 101.894 235.589 101.894C237.489 101.894 239.161 102.103 240.605 102.521C242.049 102.901 243.208 103.319 244.082 103.775C244.994 104.231 245.564 104.554 245.792 104.744L242.942 112.154C242.562 111.888 241.84 111.527 240.776 111.071C239.75 110.615 238.534 110.197 237.128 109.817C235.722 109.399 234.24 109.19 232.682 109.19H232.055C230.991 109.19 230.174 109.38 229.604 109.76C229.034 110.102 228.749 110.881 228.749 112.097V128H218.375ZM256.21 128C253.702 128 251.764 127.639 250.396 126.917C249.066 126.195 248.154 125.207 247.66 123.953C247.166 122.661 246.919 121.179 246.919 119.507V110.9C246.919 109.38 247.166 107.993 247.66 106.739C248.192 105.447 249.123 104.421 250.453 103.661C251.783 102.863 253.702 102.464 256.21 102.464H268.009C270.973 102.464 273.234 102.825 274.792 103.547C276.388 104.231 277.471 105.219 278.041 106.511C278.649 107.765 278.953 109.228 278.953 110.9V118.196H268.978C265.558 118.196 262.955 118.12 261.169 117.968C259.421 117.816 258.186 117.721 257.464 117.683V118.538C257.426 120.058 258.338 120.818 260.2 120.818H261.967C265.007 120.818 267.819 120.761 270.403 120.647C272.987 120.495 274.906 120.362 276.16 120.248L279.58 125.663C279.58 126.043 279.257 126.404 278.611 126.746C277.965 127.088 276.825 127.392 275.191 127.658C273.595 127.886 271.315 128 268.351 128H256.21ZM257.464 112.724H268.408V111.926C268.408 111.166 268.332 110.634 268.18 110.33C268.066 110.026 267.667 109.836 266.983 109.76C266.299 109.684 265.14 109.646 263.506 109.646H260.2C258.376 109.646 257.464 110.406 257.464 111.926V112.724ZM301.97 128C299.462 128 297.524 127.639 296.156 126.917C294.826 126.195 293.914 125.207 293.42 123.953C292.926 122.661 292.679 121.179 292.679 119.507V110.9C292.679 109.38 292.926 107.993 293.42 106.739C293.952 105.447 294.883 104.421 296.213 103.661C297.543 102.863 299.462 102.464 301.97 102.464H309.266C313.636 102.464 316.847 102.654 318.899 103.034C320.951 103.414 322.11 103.794 322.376 104.174L320.666 110.216C319.868 110.14 318.424 110.026 316.334 109.874C314.244 109.722 311.945 109.646 309.437 109.646H305.96C304.972 109.646 304.269 109.836 303.851 110.216C303.433 110.596 303.224 111.166 303.224 111.926V118.538C303.224 119.298 303.414 119.868 303.794 120.248C304.174 120.628 304.896 120.818 305.96 120.818H308.867C311.679 120.818 314.092 120.761 316.106 120.647C318.158 120.495 319.659 120.362 320.609 120.248L324.029 125.663C324.029 126.195 323.079 126.727 321.179 127.259C319.317 127.753 316.524 128 312.8 128H301.97ZM326.329 128V96.422L325.759 91.862H336.703V128H326.329ZM349.387 128C346.879 128 344.998 127.639 343.744 126.917C342.49 126.195 341.654 125.207 341.236 123.953C340.856 122.661 340.666 121.179 340.666 119.507V110.9C340.666 109.304 340.875 107.879 341.293 106.625C341.711 105.333 342.528 104.326 343.744 103.604C344.998 102.844 346.879 102.464 349.387 102.464H365.233C367.741 102.464 369.603 102.844 370.819 103.604C372.073 104.326 372.89 105.333 373.27 106.625C373.688 107.879 373.897 109.304 373.897 110.9V119.507C373.897 121.179 373.688 122.661 373.27 123.953C372.89 125.207 372.073 126.195 370.819 126.917C369.603 127.639 367.741 128 365.233 128H349.387ZM353.947 120.818H360.73C362.554 120.818 363.447 120.058 363.409 118.538V111.926C363.409 111.166 363.2 110.596 362.782 110.216C362.402 109.836 361.718 109.646 360.73 109.646H354.004C353.016 109.646 352.313 109.836 351.895 110.216C351.477 110.596 351.268 111.166 351.268 111.926V118.538C351.23 120.058 352.123 120.818 353.947 120.818ZM384.306 128C381.76 128 379.955 127.867 378.891 127.601C377.827 127.335 377.295 127.069 377.295 126.803L379.575 120.818C380.031 120.932 381.38 121.065 383.622 121.217C385.902 121.331 389.208 121.388 393.54 121.388H397.587C398.537 121.388 399.126 121.293 399.354 121.103C399.62 120.875 399.753 120.495 399.753 119.963C399.753 119.317 399.601 118.918 399.297 118.766C399.031 118.576 398.461 118.481 397.587 118.481H386.016C383.242 118.481 381.095 117.968 379.575 116.942C378.055 115.878 377.295 113.997 377.295 111.299V110.159C377.295 108.753 377.485 107.48 377.865 106.34C378.245 105.162 379.062 104.231 380.316 103.547C381.57 102.825 383.47 102.464 386.016 102.464H402.888C405.168 102.464 406.783 102.597 407.733 102.863C408.683 103.129 409.158 103.395 409.158 103.661L408.588 109.703C407.98 109.589 406.441 109.475 403.971 109.361C401.539 109.209 398.176 109.133 393.882 109.133H389.835C388.885 109.133 388.277 109.247 388.011 109.475C387.783 109.665 387.669 110.007 387.669 110.501C387.669 110.995 387.783 111.356 388.011 111.584C388.277 111.774 388.885 111.869 389.835 111.869H401.634C404.598 111.869 406.783 112.515 408.189 113.807C409.595 115.099 410.298 116.904 410.298 119.222V120.305C410.298 121.673 410.127 122.946 409.785 124.124C409.443 125.264 408.664 126.195 407.448 126.917C406.232 127.639 404.294 128 401.634 128H384.306ZM422.993 128C420.485 128 418.547 127.639 417.179 126.917C415.849 126.195 414.937 125.207 414.443 123.953C413.949 122.661 413.702 121.179 413.702 119.507V110.9C413.702 109.38 413.949 107.993 414.443 106.739C414.975 105.447 415.906 104.421 417.236 103.661C418.566 102.863 420.485 102.464 422.993 102.464H434.792C437.756 102.464 440.017 102.825 441.575 103.547C443.171 104.231 444.254 105.219 444.824 106.511C445.432 107.765 445.736 109.228 445.736 110.9V118.196H435.761C432.341 118.196 429.738 118.12 427.952 117.968C426.204 117.816 424.969 117.721 424.247 117.683V118.538C424.209 120.058 425.121 120.818 426.983 120.818H428.75C431.79 120.818 434.602 120.761 437.186 120.647C439.77 120.495 441.689 120.362 442.943 120.248L446.363 125.663C446.363 126.043 446.04 126.404 445.394 126.746C444.748 127.088 443.608 127.392 441.974 127.658C440.378 127.886 438.098 128 435.134 128H422.993ZM424.247 112.724H435.191V111.926C435.191 111.166 435.115 110.634 434.963 110.33C434.849 110.026 434.45 109.836 433.766 109.76C433.082 109.684 431.923 109.646 430.289 109.646H426.983C425.159 109.646 424.247 110.406 424.247 111.926V112.724ZM457.882 128C455.374 128 453.493 127.639 452.239 126.917C451.023 126.157 450.206 125.15 449.788 123.896C449.408 122.604 449.218 121.141 449.218 119.507V110.9C449.218 109.456 449.408 108.107 449.788 106.853C450.206 105.561 451.023 104.516 452.239 103.718C453.493 102.882 455.374 102.464 457.882 102.464H459.649C462.423 102.464 464.931 102.54 467.173 102.692C469.453 102.844 471.011 102.977 471.847 103.091V91.862H482.392V128H474.127L471.904 126.86C470.308 127.126 468.579 127.392 466.717 127.658C464.893 127.886 462.518 128 459.592 128H457.882ZM462.499 120.818H470.08C470.878 120.818 471.372 120.723 471.562 120.533C471.752 120.343 471.847 119.868 471.847 119.108V110.045C470.897 109.969 469.776 109.893 468.484 109.817C467.192 109.703 465.767 109.646 464.209 109.646H462.499C460.675 109.646 459.763 110.406 459.763 111.926V118.538C459.763 119.298 459.972 119.868 460.39 120.248C460.808 120.628 461.511 120.818 462.499 120.818ZM499.612 128V109.646H494.938V102.521H499.612V98.588C499.612 92.964 502.69 90.152 508.846 90.152H512.779C517.339 90.152 520.607 90.361 522.583 90.779C524.597 91.197 525.604 91.558 525.604 91.862L523.894 98.474C523.248 98.208 522.089 97.961 520.417 97.733C518.745 97.467 516.731 97.334 514.375 97.334H512.722C511.772 97.334 511.069 97.505 510.613 97.847C510.195 98.189 509.986 98.778 509.986 99.614V102.521H520.702V109.646H509.986V128H499.612ZM531.478 128C528.97 128 527.089 127.639 525.835 126.917C524.581 126.195 523.745 125.207 523.327 123.953C522.947 122.661 522.757 121.179 522.757 119.507V110.9C522.757 109.304 522.966 107.879 523.384 106.625C523.802 105.333 524.619 104.326 525.835 103.604C527.089 102.844 528.97 102.464 531.478 102.464H547.324C549.832 102.464 551.694 102.844 552.91 103.604C554.164 104.326 554.981 105.333 555.361 106.625C555.779 107.879 555.988 109.304 555.988 110.9V119.507C555.988 121.179 555.779 122.661 555.361 123.953C554.981 125.207 554.164 126.195 552.91 126.917C551.694 127.639 549.832 128 547.324 128H531.478ZM536.038 120.818H542.821C544.645 120.818 545.538 120.058 545.5 118.538V111.926C545.5 111.166 545.291 110.596 544.873 110.216C544.493 109.836 543.809 109.646 542.821 109.646H536.095C535.107 109.646 534.404 109.836 533.986 110.216C533.568 110.596 533.359 111.166 533.359 111.926V118.538C533.321 120.058 534.214 120.818 536.038 120.818ZM559.956 128V102.464H568.05L570.216 103.604C571.964 102.464 574.282 101.894 577.17 101.894C579.07 101.894 580.742 102.103 582.186 102.521C583.63 102.901 584.789 103.319 585.663 103.775C586.575 104.231 587.145 104.554 587.373 104.744L584.523 112.154C584.143 111.888 583.421 111.527 582.357 111.071C581.331 110.615 580.115 110.197 578.709 109.817C577.303 109.399 575.821 109.19 574.263 109.19H573.636C572.572 109.19 571.755 109.38 571.185 109.76C570.615 110.102 570.33 110.881 570.33 112.097V128H559.956ZM609.233 128C606.345 128 604.369 127.392 603.305 126.176C602.241 124.96 601.709 123.136 601.709 120.704V109.646H597.035V102.464H599.429C600.075 102.464 600.588 102.35 600.968 102.122C601.386 101.856 601.652 101.4 601.766 100.754L602.849 94.655H612.197V102.464H621.716V109.646H612.197V118.481C612.197 119.431 612.425 120.058 612.881 120.362C613.337 120.666 614.021 120.818 614.933 120.818H620.633L621.773 127.43C620.975 127.544 619.759 127.677 618.125 127.829C616.491 127.943 614.705 128 612.767 128H609.233ZM624.032 128V91.064H634.577V103.604C636.211 103.3 638.149 103.034 640.391 102.806C642.633 102.578 644.742 102.464 646.718 102.464H649.568C651.468 102.464 652.931 102.73 653.957 103.262C654.983 103.794 655.705 104.459 656.123 105.257C656.579 106.055 656.845 106.872 656.921 107.708C657.035 108.506 657.092 109.19 657.092 109.76V128H646.661V111.926C646.661 110.406 645.749 109.646 643.925 109.646H636.287C635.565 109.646 635.09 109.722 634.862 109.874C634.672 109.988 634.577 110.33 634.577 110.9V128H624.032ZM667.142 100.013C663.304 100.013 661.385 98.379 661.385 95.111C661.385 93.287 661.86 92.033 662.81 91.349C663.798 90.627 665.242 90.266 667.142 90.266C669.156 90.266 670.619 90.627 671.531 91.349C672.481 92.033 672.956 93.287 672.956 95.111C672.956 98.379 671.018 100.013 667.142 100.013ZM661.898 128V102.464H672.272V128H661.898ZM683.971 128C681.425 128 679.62 127.867 678.556 127.601C677.492 127.335 676.96 127.069 676.96 126.803L679.24 120.818C679.696 120.932 681.045 121.065 683.287 121.217C685.567 121.331 688.873 121.388 693.205 121.388H697.252C698.202 121.388 698.791 121.293 699.019 121.103C699.285 120.875 699.418 120.495 699.418 119.963C699.418 119.317 699.266 118.918 698.962 118.766C698.696 118.576 698.126 118.481 697.252 118.481H685.681C682.907 118.481 680.76 117.968 679.24 116.942C677.72 115.878 676.96 113.997 676.96 111.299V110.159C676.96 108.753 677.15 107.48 677.53 106.34C677.91 105.162 678.727 104.231 679.981 103.547C681.235 102.825 683.135 102.464 685.681 102.464H702.553C704.833 102.464 706.448 102.597 707.398 102.863C708.348 103.129 708.823 103.395 708.823 103.661L708.253 109.703C707.645 109.589 706.106 109.475 703.636 109.361C701.204 109.209 697.841 109.133 693.547 109.133H689.5C688.55 109.133 687.942 109.247 687.676 109.475C687.448 109.665 687.334 110.007 687.334 110.501C687.334 110.995 687.448 111.356 687.676 111.584C687.942 111.774 688.55 111.869 689.5 111.869H701.299C704.263 111.869 706.448 112.515 707.854 113.807C709.26 115.099 709.963 116.904 709.963 119.222V120.305C709.963 121.673 709.792 122.946 709.45 124.124C709.108 125.264 708.329 126.195 707.113 126.917C705.897 127.639 703.959 128 701.299 128H683.971ZM730.621 128C728.075 128 726.27 127.867 725.206 127.601C724.142 127.335 723.61 127.069 723.61 126.803L725.89 120.818C726.346 120.932 727.695 121.065 729.937 121.217C732.217 121.331 735.523 121.388 739.855 121.388H743.902C744.852 121.388 745.441 121.293 745.669 121.103C745.935 120.875 746.069 120.495 746.069 119.963C746.069 119.317 745.916 118.918 745.612 118.766C745.346 118.576 744.776 118.481 743.902 118.481H732.331C729.557 118.481 727.41 117.968 725.89 116.942C724.37 115.878 723.61 113.997 723.61 111.299V110.159C723.61 108.753 723.8 107.48 724.18 106.34C724.56 105.162 725.377 104.231 726.631 103.547C727.885 102.825 729.785 102.464 732.331 102.464H749.203C751.483 102.464 753.098 102.597 754.049 102.863C754.999 103.129 755.473 103.395 755.473 103.661L754.904 109.703C754.295 109.589 752.756 109.475 750.286 109.361C747.854 109.209 744.491 109.133 740.197 109.133H736.15C735.2 109.133 734.592 109.247 734.326 109.475C734.098 109.665 733.984 110.007 733.984 110.501C733.984 110.995 734.098 111.356 734.326 111.584C734.592 111.774 735.2 111.869 736.15 111.869H747.949C750.913 111.869 753.098 112.515 754.504 113.807C755.91 115.099 756.613 116.904 756.613 119.222V120.305C756.613 121.673 756.442 122.946 756.1 124.124C755.758 125.264 754.979 126.195 753.764 126.917C752.548 127.639 750.61 128 747.949 128H730.621ZM769.308 128C766.8 128 764.862 127.639 763.494 126.917C762.164 126.195 761.252 125.207 760.758 123.953C760.264 122.661 760.017 121.179 760.017 119.507V110.9C760.017 109.38 760.264 107.993 760.758 106.739C761.29 105.447 762.221 104.421 763.551 103.661C764.881 102.863 766.8 102.464 769.308 102.464H781.107C784.071 102.464 786.332 102.825 787.89 103.547C789.486 104.231 790.569 105.219 791.139 106.511C791.747 107.765 792.051 109.228 792.051 110.9V118.196H782.076C778.656 118.196 776.053 118.12 774.267 117.968C772.519 117.816 771.284 117.721 770.562 117.683V118.538C770.524 120.058 771.436 120.818 773.298 120.818H775.065C778.105 120.818 780.917 120.761 783.501 120.647C786.085 120.495 788.004 120.362 789.258 120.248L792.678 125.663C792.678 126.043 792.355 126.404 791.709 126.746C791.063 127.088 789.923 127.392 788.289 127.658C786.693 127.886 784.413 128 781.449 128H769.308ZM770.562 112.724H781.506V111.926C781.506 111.166 781.43 110.634 781.278 110.33C781.164 110.026 780.765 109.836 780.081 109.76C779.397 109.684 778.238 109.646 776.604 109.646H773.298C771.474 109.646 770.562 110.406 770.562 111.926V112.724ZM802.544 128C799.998 128 798.193 127.867 797.129 127.601C796.065 127.335 795.533 127.069 795.533 126.803L797.813 120.818C798.269 120.932 799.618 121.065 801.86 121.217C804.14 121.331 807.446 121.388 811.778 121.388H815.825C816.775 121.388 817.364 121.293 817.592 121.103C817.858 120.875 817.991 120.495 817.991 119.963C817.991 119.317 817.839 118.918 817.535 118.766C817.269 118.576 816.699 118.481 815.825 118.481H804.254C801.48 118.481 799.333 117.968 797.813 116.942C796.293 115.878 795.533 113.997 795.533 111.299V110.159C795.533 108.753 795.723 107.48 796.103 106.34C796.483 105.162 797.3 104.231 798.554 103.547C799.808 102.825 801.708 102.464 804.254 102.464H821.126C823.406 102.464 825.021 102.597 825.971 102.863C826.921 103.129 827.396 103.395 827.396 103.661L826.826 109.703C826.218 109.589 824.679 109.475 822.209 109.361C819.777 109.209 816.414 109.133 812.12 109.133H808.073C807.123 109.133 806.515 109.247 806.249 109.475C806.021 109.665 805.907 110.007 805.907 110.501C805.907 110.995 806.021 111.356 806.249 111.584C806.515 111.774 807.123 111.869 808.073 111.869H819.872C822.836 111.869 825.021 112.515 826.427 113.807C827.833 115.099 828.536 116.904 828.536 119.222V120.305C828.536 121.673 828.365 122.946 828.023 124.124C827.681 125.264 826.902 126.195 825.686 126.917C824.47 127.639 822.532 128 819.872 128H802.544ZM838.95 128C836.404 128 834.599 127.867 833.535 127.601C832.471 127.335 831.939 127.069 831.939 126.803L834.219 120.818C834.675 120.932 836.024 121.065 838.266 121.217C840.546 121.331 843.852 121.388 848.184 121.388H852.231C853.181 121.388 853.77 121.293 853.998 121.103C854.264 120.875 854.397 120.495 854.397 119.963C854.397 119.317 854.245 118.918 853.941 118.766C853.675 118.576 853.105 118.481 852.231 118.481H840.66C837.886 118.481 835.739 117.968 834.219 116.942C832.699 115.878 831.939 113.997 831.939 111.299V110.159C831.939 108.753 832.129 107.48 832.509 106.34C832.889 105.162 833.706 104.231 834.96 103.547C836.214 102.825 838.114 102.464 840.66 102.464H857.532C859.812 102.464 861.427 102.597 862.377 102.863C863.327 103.129 863.802 103.395 863.802 103.661L863.232 109.703C862.624 109.589 861.085 109.475 858.615 109.361C856.183 109.209 852.82 109.133 848.526 109.133H844.479C843.529 109.133 842.921 109.247 842.655 109.475C842.427 109.665 842.313 110.007 842.313 110.501C842.313 110.995 842.427 111.356 842.655 111.584C842.921 111.774 843.529 111.869 844.479 111.869H856.278C859.242 111.869 861.427 112.515 862.833 113.807C864.239 115.099 864.942 116.904 864.942 119.222V120.305C864.942 121.673 864.771 122.946 864.429 124.124C864.087 125.264 863.308 126.195 862.092 126.917C860.876 127.639 858.938 128 856.278 128H838.95ZM874.673 100.013C870.835 100.013 868.916 98.379 868.916 95.111C868.916 93.287 869.391 92.033 870.341 91.349C871.329 90.627 872.773 90.266 874.673 90.266C876.687 90.266 878.15 90.627 879.062 91.349C880.012 92.033 880.487 93.287 880.487 95.111C880.487 98.379 878.549 100.013 874.673 100.013ZM869.429 128V102.464H879.803V128H869.429ZM893.212 128C890.704 128 888.823 127.639 887.569 126.917C886.315 126.195 885.479 125.207 885.061 123.953C884.681 122.661 884.491 121.179 884.491 119.507V110.9C884.491 109.304 884.7 107.879 885.118 106.625C885.536 105.333 886.353 104.326 887.569 103.604C888.823 102.844 890.704 102.464 893.212 102.464H909.058C911.566 102.464 913.428 102.844 914.644 103.604C915.898 104.326 916.715 105.333 917.095 106.625C917.513 107.879 917.722 109.304 917.722 110.9V119.507C917.722 121.179 917.513 122.661 917.095 123.953C916.715 125.207 915.898 126.195 914.644 126.917C913.428 127.639 911.566 128 909.058 128H893.212ZM897.772 120.818H904.555C906.379 120.818 907.272 120.058 907.234 118.538V111.926C907.234 111.166 907.025 110.596 906.607 110.216C906.227 109.836 905.543 109.646 904.555 109.646H897.829C896.841 109.646 896.138 109.836 895.72 110.216C895.302 110.596 895.093 111.166 895.093 111.926V118.538C895.055 120.058 895.948 120.818 897.772 120.818ZM921.69 128V102.464H929.955L932.235 103.604C933.831 103.3 935.75 103.034 937.992 102.806C940.272 102.578 942.4 102.464 944.376 102.464H947.226C949.126 102.464 950.589 102.73 951.615 103.262C952.641 103.794 953.363 104.459 953.781 105.257C954.237 106.055 954.503 106.872 954.579 107.708C954.693 108.506 954.75 109.19 954.75 109.76V128H944.319V111.926C944.319 110.406 943.407 109.646 941.583 109.646H933.945C933.223 109.646 932.748 109.722 932.52 109.874C932.33 109.988 932.235 110.33 932.235 110.9V128H921.69ZM963.66 114.263C963.166 112.667 962.653 110.824 962.121 108.734C961.589 106.644 961.133 104.573 960.753 102.521C960.373 100.469 960.183 98.702 960.183 97.22C960.183 96.118 960.43 95.282 960.924 94.712C961.456 94.142 962.349 93.857 963.603 93.857H970.044C971.298 93.857 972.172 94.142 972.666 94.712C973.198 95.244 973.464 96.08 973.464 97.22C973.464 98.74 973.274 100.545 972.894 102.635C972.552 104.687 972.115 106.758 971.583 108.848C971.051 110.9 970.538 112.705 970.044 114.263H963.66ZM966.795 128C962.957 128 961.038 126.366 961.038 123.098C961.038 121.274 961.513 120.02 962.463 119.336C963.451 118.614 964.895 118.253 966.795 118.253C968.809 118.253 970.272 118.614 971.184 119.336C972.134 120.02 972.609 121.274 972.609 123.098C972.609 126.366 970.671 128 966.795 128Z" fill="#FFB400"/>
<path d="M99.6414 200V179.68L99.2414 176.48H117.801C121.028 176.48 123.441 177.12 125.041 178.4C126.668 179.68 127.481 181.68 127.481 184.4V192.04C127.481 194.813 126.681 196.84 125.081 198.12C123.481 199.373 121.055 200 117.801 200H99.6414ZM107.441 194.48H116.601C118.655 194.48 119.695 193.533 119.721 191.64V184.72C119.721 183.947 119.495 183.293 119.041 182.76C118.588 182.2 117.775 181.92 116.601 181.92H107.441V194.48ZM136.39 200C134.63 200 133.31 199.747 132.43 199.24C131.55 198.733 130.963 198.04 130.67 197.16C130.403 196.253 130.27 195.213 130.27 194.04V188C130.27 186.88 130.416 185.88 130.71 185C131.003 184.093 131.576 183.387 132.43 182.88C133.31 182.347 134.63 182.08 136.39 182.08H147.51C149.27 182.08 150.576 182.347 151.43 182.88C152.31 183.387 152.883 184.093 153.15 185C153.443 185.88 153.59 186.88 153.59 188V194.04C153.59 195.213 153.443 196.253 153.15 197.16C152.883 198.04 152.31 198.733 151.43 199.24C150.576 199.747 149.27 200 147.51 200H136.39ZM139.59 194.96H144.35C145.63 194.96 146.256 194.427 146.23 193.36V188.72C146.23 188.187 146.083 187.787 145.79 187.52C145.523 187.253 145.043 187.12 144.35 187.12H139.63C138.936 187.12 138.443 187.253 138.15 187.52C137.856 187.787 137.71 188.187 137.71 188.72V193.36C137.683 194.427 138.31 194.96 139.59 194.96ZM156.374 200V182.08H162.174L163.774 182.88C164.894 182.667 166.241 182.48 167.814 182.32C169.414 182.16 170.908 182.08 172.294 182.08H174.294C175.628 182.08 176.654 182.267 177.374 182.64C178.094 183.013 178.601 183.48 178.894 184.04C179.214 184.6 179.401 185.173 179.454 185.76C179.534 186.32 179.574 186.8 179.574 187.2V200H172.254V188.72C172.254 187.653 171.614 187.12 170.334 187.12H164.974C164.468 187.12 164.134 187.173 163.974 187.28C163.841 187.36 163.774 187.6 163.774 188V200H156.374ZM183.044 180.72C182.484 180.88 182.151 180.813 182.044 180.52C181.964 180.2 182.017 179.88 182.204 179.56C182.417 179.24 182.697 178.627 183.044 177.72C183.391 176.813 183.631 175.92 183.764 175.04C182.991 174.853 182.337 174.547 181.804 174.12C181.271 173.693 181.004 172.867 181.004 171.64C181.004 170.467 181.351 169.613 182.044 169.08C182.764 168.547 183.764 168.28 185.044 168.28C186.484 168.28 187.591 168.573 188.364 169.16C189.164 169.72 189.564 170.693 189.564 172.08C189.564 173.147 189.337 174.173 188.884 175.16C188.457 176.12 187.897 176.987 187.204 177.76C186.537 178.533 185.831 179.187 185.084 179.72C184.337 180.227 183.657 180.56 183.044 180.72ZM200.525 200C198.498 200 197.112 199.573 196.365 198.72C195.618 197.867 195.245 196.587 195.245 194.88V187.12H191.965V182.08H193.645C194.098 182.08 194.458 182 194.725 181.84C195.018 181.653 195.205 181.333 195.285 180.88L196.045 176.6H202.605V182.08H209.285V187.12H202.605V193.32C202.605 193.987 202.765 194.427 203.085 194.64C203.405 194.853 203.885 194.96 204.525 194.96H208.525L209.325 199.6C208.765 199.68 207.912 199.773 206.765 199.88C205.618 199.96 204.365 200 203.005 200H200.525ZM222.539 200L216.099 182.08H224.139L226.539 191.04L227.179 194.2H227.579L228.179 191.44L230.539 182.08H238.539L241.059 191.44L241.619 194.2H242.019L242.699 190.96L244.939 182.08H253.019L252.379 184.52L246.539 200H237.739L235.219 189.8L234.819 187.92H234.419L233.899 190L231.339 200H222.539ZM259.954 200C258.194 200 256.874 199.747 255.994 199.24C255.114 198.733 254.527 198.04 254.234 197.16C253.967 196.253 253.834 195.213 253.834 194.04V188C253.834 186.88 253.98 185.88 254.274 185C254.567 184.093 255.14 183.387 255.994 182.88C256.874 182.347 258.194 182.08 259.954 182.08H271.074C272.834 182.08 274.14 182.347 274.994 182.88C275.874 183.387 276.447 184.093 276.714 185C277.007 185.88 277.154 186.88 277.154 188V194.04C277.154 195.213 277.007 196.253 276.714 197.16C276.447 198.04 275.874 198.733 274.994 199.24C274.14 199.747 272.834 200 271.074 200H259.954ZM263.154 194.96H267.914C269.194 194.96 269.82 194.427 269.794 193.36V188.72C269.794 188.187 269.647 187.787 269.354 187.52C269.087 187.253 268.607 187.12 267.914 187.12H263.194C262.5 187.12 262.007 187.253 261.714 187.52C261.42 187.787 261.274 188.187 261.274 188.72V193.36C261.247 194.427 261.874 194.96 263.154 194.96ZM279.938 200V182.08H285.618L287.138 182.88C288.365 182.08 289.992 181.68 292.018 181.68C293.352 181.68 294.525 181.827 295.538 182.12C296.552 182.387 297.365 182.68 297.978 183C298.618 183.32 299.018 183.547 299.178 183.68L297.178 188.88C296.912 188.693 296.405 188.44 295.658 188.12C294.938 187.8 294.085 187.507 293.098 187.24C292.112 186.947 291.072 186.8 289.978 186.8H289.538C288.792 186.8 288.218 186.933 287.818 187.2C287.418 187.44 287.218 187.987 287.218 188.84V200H279.938ZM300.37 200V182.08H306.05L307.57 182.88C308.796 182.08 310.423 181.68 312.45 181.68C313.783 181.68 314.956 181.827 315.97 182.12C316.983 182.387 317.796 182.68 318.41 183C319.05 183.32 319.45 183.547 319.61 183.68L317.61 188.88C317.343 188.693 316.836 188.44 316.09 188.12C315.37 187.8 314.516 187.507 313.53 187.24C312.543 186.947 311.503 186.8 310.41 186.8H309.97C309.223 186.8 308.65 186.933 308.25 187.2C307.85 187.44 307.65 187.987 307.65 188.84V200H300.37ZM323.281 207.84C321.814 207.84 320.481 207.693 319.281 207.4C318.081 207.133 317.254 206.867 316.801 206.6L318.401 201.68C319.201 202.027 320.054 202.293 320.961 202.48C321.894 202.667 322.774 202.76 323.601 202.76H324.041C326.361 202.76 328.041 201.84 329.081 200H326.641L318.801 182.08H326.841L330.281 192.72L330.881 195.16H331.281L331.881 192.72L335.361 182.08H343.281L342.641 184.52C342.134 185.56 341.547 186.76 340.881 188.12C340.241 189.453 339.574 190.84 338.881 192.28C338.187 193.72 337.507 195.107 336.841 196.44C336.201 197.773 335.627 198.96 335.121 200C333.814 202.667 332.307 204.64 330.601 205.92C328.894 207.2 326.814 207.84 324.361 207.84H323.281ZM344.131 205.52C343.571 205.68 343.238 205.6 343.131 205.28C343.051 204.987 343.105 204.68 343.291 204.36C343.505 204.04 343.785 203.427 344.131 202.52C344.478 201.613 344.718 200.72 344.851 199.84C344.078 199.653 343.425 199.347 342.891 198.92C342.358 198.493 342.091 197.667 342.091 196.44C342.091 195.267 342.438 194.413 343.131 193.88C343.851 193.347 344.851 193.08 346.131 193.08C347.571 193.08 348.678 193.373 349.451 193.96C350.251 194.52 350.651 195.493 350.651 196.88C350.651 197.947 350.425 198.973 349.971 199.96C349.545 200.92 348.985 201.787 348.291 202.56C347.625 203.333 346.918 203.973 346.171 204.48C345.425 205.013 344.745 205.36 344.131 205.52ZM366.261 200L359.821 182.08H367.861L370.261 191.04L370.901 194.2H371.301L371.901 191.44L374.261 182.08H382.261L384.781 191.44L385.341 194.2H385.741L386.421 190.96L388.661 182.08H396.741L396.101 184.52L390.261 200H381.461L378.941 189.8L378.541 187.92H378.141L377.621 190L375.061 200H366.261ZM404.075 200C402.315 200 400.955 199.747 399.995 199.24C399.062 198.733 398.422 198.04 398.075 197.16C397.729 196.253 397.555 195.213 397.555 194.04V188C397.555 186.933 397.729 185.96 398.075 185.08C398.449 184.173 399.102 183.453 400.035 182.92C400.969 182.36 402.315 182.08 404.075 182.08H412.355C414.435 182.08 416.022 182.333 417.115 182.84C418.235 183.32 418.995 184.013 419.395 184.92C419.822 185.8 420.035 186.827 420.035 188V193.12H413.035C410.635 193.12 408.809 193.067 407.555 192.96C406.329 192.853 405.462 192.787 404.955 192.76V193.36C404.929 194.427 405.569 194.96 406.875 194.96H408.115C410.249 194.96 412.222 194.92 414.035 194.84C415.849 194.733 417.195 194.64 418.075 194.56L420.475 198.36C420.475 198.627 420.249 198.88 419.795 199.12C419.342 199.36 418.542 199.573 417.395 199.76C416.275 199.92 414.675 200 412.595 200H404.075ZM404.955 189.28H412.635V188.72C412.635 188.187 412.582 187.813 412.475 187.6C412.395 187.387 412.115 187.253 411.635 187.2C411.155 187.147 410.342 187.12 409.195 187.12H406.875C405.595 187.12 404.955 187.653 404.955 188.72V189.28ZM422.906 180.72C422.346 180.88 422.013 180.813 421.906 180.52C421.826 180.2 421.88 179.88 422.066 179.56C422.28 179.24 422.56 178.627 422.906 177.72C423.253 176.813 423.493 175.92 423.626 175.04C422.853 174.853 422.2 174.547 421.666 174.12C421.133 173.693 420.866 172.867 420.866 171.64C420.866 170.467 421.213 169.613 421.906 169.08C422.626 168.547 423.626 168.28 424.906 168.28C426.346 168.28 427.453 168.573 428.226 169.16C429.026 169.72 429.426 170.693 429.426 172.08C429.426 173.147 429.2 174.173 428.746 175.16C428.32 176.12 427.76 176.987 427.066 177.76C426.4 178.533 425.693 179.187 424.946 179.72C424.2 180.227 423.52 180.56 422.906 180.72ZM433.827 200V177.84L433.427 174.64H441.107V200H433.827ZM444.688 200V177.84L444.288 174.64H451.968V200H444.688ZM462.338 200V174.64H469.618V182.56C470.765 182.427 472.112 182.32 473.658 182.24C475.232 182.133 477.018 182.08 479.018 182.08H479.418C481.152 182.08 482.458 182.347 483.338 182.88C484.218 183.387 484.805 184.093 485.098 185C485.392 185.88 485.538 186.88 485.538 188V194.04C485.538 195.027 485.365 195.987 485.018 196.92C484.698 197.827 484.098 198.573 483.218 199.16C482.338 199.72 481.072 200 479.418 200H479.018C476.805 200 474.872 199.947 473.218 199.84C471.565 199.707 470.192 199.573 469.098 199.44L468.018 200H462.338ZM470.858 194.92H476.218C477.498 194.92 478.138 194.387 478.138 193.32V188.72C478.165 188.133 478.045 187.72 477.778 187.48C477.512 187.24 476.992 187.12 476.218 187.12H475.818C474.432 187.12 473.178 187.16 472.058 187.24C470.938 187.32 470.125 187.387 469.618 187.44V193.68C469.618 194.24 469.672 194.587 469.778 194.72C469.912 194.853 470.272 194.92 470.858 194.92ZM494.475 200C492.715 200 491.355 199.747 490.395 199.24C489.462 198.733 488.822 198.04 488.475 197.16C488.129 196.253 487.955 195.213 487.955 194.04V188C487.955 186.933 488.129 185.96 488.475 185.08C488.849 184.173 489.502 183.453 490.435 182.92C491.369 182.36 492.715 182.08 494.475 182.08H502.755C504.835 182.08 506.422 182.333 507.515 182.84C508.635 183.32 509.395 184.013 509.795 184.92C510.222 185.8 510.435 186.827 510.435 188V193.12H503.435C501.035 193.12 499.209 193.067 497.955 192.96C496.729 192.853 495.862 192.787 495.355 192.76V193.36C495.329 194.427 495.969 194.96 497.275 194.96H498.515C500.649 194.96 502.622 194.92 504.435 194.84C506.249 194.733 507.595 194.64 508.475 194.56L510.875 198.36C510.875 198.627 510.649 198.88 510.195 199.12C509.742 199.36 508.942 199.573 507.795 199.76C506.675 199.92 505.075 200 502.995 200H494.475ZM495.355 189.28H503.035V188.72C503.035 188.187 502.982 187.813 502.875 187.6C502.795 187.387 502.515 187.253 502.035 187.2C501.555 187.147 500.742 187.12 499.595 187.12H497.275C495.995 187.12 495.355 187.653 495.355 188.72V189.28ZM520.468 200V174.64H527.748V182.56C528.895 182.427 530.241 182.32 531.788 182.24C533.361 182.133 535.148 182.08 537.148 182.08H537.548C539.281 182.08 540.588 182.347 541.468 182.88C542.348 183.387 542.935 184.093 543.228 185C543.521 185.88 543.668 186.88 543.668 188V194.04C543.668 195.027 543.495 195.987 543.148 196.92C542.828 197.827 542.228 198.573 541.348 199.16C540.468 199.72 539.201 200 537.548 200H537.148C534.935 200 533.001 199.947 531.348 199.84C529.695 199.707 528.321 199.573 527.228 199.44L526.148 200H520.468ZM528.988 194.92H534.348C535.628 194.92 536.268 194.387 536.268 193.32V188.72C536.295 188.133 536.175 187.72 535.908 187.48C535.641 187.24 535.121 187.12 534.348 187.12H533.948C532.561 187.12 531.308 187.16 530.188 187.24C529.068 187.32 528.255 187.387 527.748 187.44V193.68C527.748 194.24 527.801 194.587 527.908 194.72C528.041 194.853 528.401 194.92 528.988 194.92ZM552.445 200C550.099 200 548.419 199.56 547.405 198.68C546.392 197.8 545.885 196.333 545.885 194.28C545.885 192.387 546.405 191.013 547.445 190.16C548.512 189.307 550.179 188.88 552.445 188.88H553.685C555.179 188.88 556.605 188.933 557.965 189.04C559.325 189.147 560.499 189.253 561.485 189.36V188.72C561.485 188.347 561.405 187.987 561.245 187.64C561.085 187.293 560.525 187.12 559.565 187.12H557.565C554.659 187.12 552.419 187.173 550.845 187.28C549.272 187.36 548.299 187.44 547.925 187.52L547.485 183.28C547.485 183.013 547.952 182.8 548.885 182.64C549.819 182.453 551.099 182.32 552.725 182.24C554.352 182.133 556.205 182.08 558.285 182.08H562.285C564.045 182.08 565.392 182.347 566.325 182.88C567.259 183.387 567.899 184.08 568.245 184.96C568.592 185.84 568.765 186.853 568.765 188V200H563.085L561.525 199.2C560.885 199.333 559.859 199.507 558.445 199.72C557.059 199.907 555.459 200 553.645 200H552.445ZM554.765 195.28H560.285C560.872 195.28 561.219 195.227 561.325 195.12C561.432 195.013 561.485 194.68 561.485 194.12V192.72H554.765C554.259 192.72 553.885 192.813 553.645 193C553.405 193.187 553.285 193.547 553.285 194.08C553.285 194.587 553.405 194.92 553.645 195.08C553.885 195.213 554.259 195.28 554.765 195.28ZM577.88 200C576.12 200 574.76 199.747 573.8 199.24C572.867 198.733 572.227 198.04 571.88 197.16C571.534 196.253 571.36 195.213 571.36 194.04V188C571.36 186.933 571.534 185.96 571.88 185.08C572.254 184.173 572.907 183.453 573.84 182.92C574.774 182.36 576.12 182.08 577.88 182.08H583C586.067 182.08 588.32 182.213 589.76 182.48C591.2 182.747 592.014 183.013 592.2 183.28L591 187.52C590.44 187.467 589.427 187.387 587.96 187.28C586.494 187.173 584.88 187.12 583.12 187.12H580.68C579.987 187.12 579.494 187.253 579.2 187.52C578.907 187.787 578.76 188.187 578.76 188.72V193.36C578.76 193.893 578.894 194.293 579.16 194.56C579.427 194.827 579.934 194.96 580.68 194.96H582.72C584.694 194.96 586.387 194.92 587.8 194.84C589.24 194.733 590.294 194.64 590.96 194.56L593.36 198.36C593.36 198.733 592.694 199.107 591.36 199.48C590.054 199.827 588.094 200 585.48 200H577.88ZM615.334 200.4C614.028 200.4 612.881 200.267 611.894 200C610.934 199.733 610.014 199.16 609.134 198.28C608.601 197.747 608.068 197.213 607.534 196.68C607.001 196.147 606.468 195.613 605.934 195.08C605.508 194.627 605.161 194.28 604.894 194.04C604.628 193.773 604.361 193.6 604.094 193.52C603.854 193.413 603.508 193.36 603.054 193.36C602.468 193.36 602.121 193.413 602.014 193.52C601.908 193.627 601.854 193.987 601.854 194.6V200H594.574V174.68H601.854V188.24H603.134C603.588 188.24 604.014 188.053 604.414 187.68C604.654 187.44 605.014 187 605.494 186.36C606.001 185.72 606.548 185.013 607.134 184.24C607.721 183.467 608.254 182.76 608.734 182.12H617.134L616.494 183.36C615.854 184.16 615.108 185.04 614.254 186C613.428 186.96 612.614 187.84 611.814 188.64C611.041 189.44 610.414 190 609.934 190.32C610.974 191.013 611.948 191.76 612.854 192.56C613.761 193.333 614.921 194.027 616.334 194.64C617.268 195.04 618.054 195.307 618.694 195.44C619.361 195.547 619.828 195.6 620.094 195.6L618.974 200C618.708 200.08 618.254 200.16 617.614 200.24C617.001 200.347 616.241 200.4 615.334 200.4ZM634.053 200C631.706 200 630.026 199.56 629.013 198.68C628 197.8 627.493 196.333 627.493 194.28C627.493 192.387 628.013 191.013 629.053 190.16C630.12 189.307 631.786 188.88 634.053 188.88H635.293C636.786 188.88 638.213 188.933 639.573 189.04C640.933 189.147 642.106 189.253 643.093 189.36V188.72C643.093 188.347 643.013 187.987 642.853 187.64C642.693 187.293 642.133 187.12 641.173 187.12H639.173C636.266 187.12 634.026 187.173 632.453 187.28C630.88 187.36 629.906 187.44 629.533 187.52L629.093 183.28C629.093 183.013 629.56 182.8 630.493 182.64C631.426 182.453 632.706 182.32 634.333 182.24C635.96 182.133 637.813 182.08 639.893 182.08H643.893C645.653 182.08 647 182.347 647.933 182.88C648.866 183.387 649.506 184.08 649.853 184.96C650.2 185.84 650.373 186.853 650.373 188V200H644.693L643.133 199.2C642.493 199.333 641.466 199.507 640.053 199.72C638.666 199.907 637.066 200 635.253 200H634.053ZM636.373 195.28H641.893C642.48 195.28 642.826 195.227 642.933 195.12C643.04 195.013 643.093 194.68 643.093 194.12V192.72H636.373C635.866 192.72 635.493 192.813 635.253 193C635.013 193.187 634.893 193.547 634.893 194.08C634.893 194.587 635.013 194.92 635.253 195.08C635.493 195.213 635.866 195.28 636.373 195.28ZM665.728 207.04C662.981 207.04 660.741 206.987 659.008 206.88C657.275 206.8 655.941 206.68 655.008 206.52C654.075 206.36 653.435 206.173 653.088 205.96C652.741 205.773 652.568 205.587 652.568 205.4L654.568 201.2C654.861 201.28 655.515 201.427 656.528 201.64C657.541 201.88 659.021 202 660.968 202H667.008C667.701 202 668.195 201.88 668.488 201.64C668.808 201.4 668.955 200.987 668.928 200.4V198.76C668.101 199 666.941 199.2 665.448 199.36C663.981 199.493 662.261 199.56 660.288 199.56H659.128C657.368 199.56 656.048 199.32 655.168 198.84C654.315 198.333 653.741 197.64 653.448 196.76C653.181 195.88 653.048 194.827 653.048 193.6V188C653.048 187.36 653.115 186.693 653.248 186C653.408 185.307 653.688 184.667 654.088 184.08C654.515 183.493 655.128 183.013 655.928 182.64C656.755 182.267 657.821 182.08 659.128 182.08H660.328C662.195 182.08 663.715 182.107 664.888 182.16C666.061 182.213 666.995 182.28 667.688 182.36C668.408 182.44 669.008 182.52 669.488 182.6L670.528 182.08H676.208V201.12C676.208 202.88 675.648 204.307 674.528 205.4C673.408 206.493 671.541 207.04 668.928 207.04H665.728ZM662.368 194.52H667.688C668.301 194.52 668.661 194.467 668.768 194.36C668.875 194.253 668.928 193.907 668.928 193.32V187.4C668.341 187.347 667.768 187.307 667.208 187.28C666.675 187.227 666.061 187.187 665.368 187.16C664.701 187.133 663.848 187.12 662.808 187.12H662.368C661.088 187.12 660.448 187.653 660.448 188.72V192.92C660.421 193.987 661.061 194.52 662.368 194.52ZM685.384 200C683.038 200 681.358 199.56 680.344 198.68C679.331 197.8 678.824 196.333 678.824 194.28C678.824 192.387 679.344 191.013 680.384 190.16C681.451 189.307 683.118 188.88 685.384 188.88H686.624C688.118 188.88 689.544 188.933 690.904 189.04C692.264 189.147 693.438 189.253 694.424 189.36V188.72C694.424 188.347 694.344 187.987 694.184 187.64C694.024 187.293 693.464 187.12 692.504 187.12H690.504C687.598 187.12 685.358 187.173 683.784 187.28C682.211 187.36 681.238 187.44 680.864 187.52L680.424 183.28C680.424 183.013 680.891 182.8 681.824 182.64C682.758 182.453 684.038 182.32 685.664 182.24C687.291 182.133 689.144 182.08 691.224 182.08H695.224C696.984 182.08 698.331 182.347 699.264 182.88C700.198 183.387 700.838 184.08 701.184 184.96C701.531 185.84 701.704 186.853 701.704 188V200H696.024L694.464 199.2C693.824 199.333 692.798 199.507 691.384 199.72C689.998 199.907 688.398 200 686.584 200H685.384ZM687.704 195.28H693.224C693.811 195.28 694.158 195.227 694.264 195.12C694.371 195.013 694.424 194.68 694.424 194.12V192.72H687.704C687.198 192.72 686.824 192.813 686.584 193C686.344 193.187 686.224 193.547 686.224 194.08C686.224 194.587 686.344 194.92 686.584 195.08C686.824 195.213 687.198 195.28 687.704 195.28ZM708.739 180.36C706.046 180.36 704.699 179.213 704.699 176.92C704.699 175.64 705.033 174.76 705.699 174.28C706.393 173.773 707.406 173.52 708.739 173.52C710.153 173.52 711.179 173.773 711.819 174.28C712.486 174.76 712.819 175.64 712.819 176.92C712.819 179.213 711.459 180.36 708.739 180.36ZM705.059 200V182.08H712.339V200H705.059ZM716.029 200V182.08H721.829L723.429 182.88C724.549 182.667 725.896 182.48 727.469 182.32C729.069 182.16 730.562 182.08 731.949 182.08H733.949C735.282 182.08 736.309 182.267 737.029 182.64C737.749 183.013 738.256 183.48 738.549 184.04C738.869 184.6 739.056 185.173 739.109 185.76C739.189 186.32 739.229 186.8 739.229 187.2V200H731.909V188.72C731.909 187.653 731.269 187.12 729.989 187.12H724.629C724.122 187.12 723.789 187.173 723.629 187.28C723.496 187.36 723.429 187.6 723.429 188V200H716.029ZM749.431 200V182.08H755.231L756.831 182.88C757.951 182.667 759.297 182.48 760.871 182.32C762.471 182.16 763.964 182.08 765.351 182.08H767.351C768.684 182.08 769.711 182.267 770.431 182.64C771.151 183.013 771.657 183.48 771.951 184.04C772.271 184.6 772.457 185.173 772.511 185.76C772.591 186.32 772.631 186.8 772.631 187.2V200H765.311V188.72C765.311 187.653 764.671 187.12 763.391 187.12H758.031C757.524 187.12 757.191 187.173 757.031 187.28C756.897 187.36 756.831 187.6 756.831 188V200H749.431ZM781.763 200C780.003 200 778.643 199.747 777.683 199.24C776.75 198.733 776.11 198.04 775.763 197.16C775.416 196.253 775.243 195.213 775.243 194.04V188C775.243 186.933 775.416 185.96 775.763 185.08C776.136 184.173 776.79 183.453 777.723 182.92C778.656 182.36 780.003 182.08 781.763 182.08H790.043C792.123 182.08 793.71 182.333 794.803 182.84C795.923 183.32 796.683 184.013 797.083 184.92C797.51 185.8 797.723 186.827 797.723 188V193.12H790.723C788.323 193.12 786.496 193.067 785.243 192.96C784.016 192.853 783.15 192.787 782.643 192.76V193.36C782.616 194.427 783.256 194.96 784.563 194.96H785.803C787.936 194.96 789.91 194.92 791.723 194.84C793.536 194.733 794.883 194.64 795.763 194.56L798.163 198.36C798.163 198.627 797.936 198.88 797.483 199.12C797.03 199.36 796.23 199.573 795.083 199.76C793.963 199.92 792.363 200 790.283 200H781.763ZM782.643 189.28H790.323V188.72C790.323 188.187 790.27 187.813 790.163 187.6C790.083 187.387 789.803 187.253 789.323 187.2C788.843 187.147 788.03 187.12 786.883 187.12H784.563C783.283 187.12 782.643 187.653 782.643 188.72V189.28ZM798.566 200L799.366 198.4L806.286 191L798.566 182.08H807.046L810.726 187.08H811.126L814.886 182.08H823.406L822.766 183.36L815.406 191L823.406 200H814.846L811.126 195.2H810.726L807.046 200H798.566ZM831.551 200C829.525 200 828.138 199.573 827.391 198.72C826.645 197.867 826.271 196.587 826.271 194.88V187.12H822.991V182.08H824.671C825.125 182.08 825.485 182 825.751 181.84C826.045 181.653 826.231 181.333 826.311 180.88L827.071 176.6H833.631V182.08H840.311V187.12H833.631V193.32C833.631 193.987 833.791 194.427 834.111 194.64C834.431 194.853 834.911 194.96 835.551 194.96H839.551L840.351 199.6C839.791 199.68 838.938 199.773 837.791 199.88C836.645 199.96 835.391 200 834.031 200H831.551ZM851.606 207.84C850.139 207.84 848.806 207.693 847.606 207.4C846.406 207.133 845.579 206.867 845.126 206.6L846.726 201.68C847.526 202.027 848.379 202.293 849.286 202.48C850.219 202.667 851.099 202.76 851.926 202.76H852.366C854.686 202.76 856.366 201.84 857.406 200H854.966L847.126 182.08H855.166L858.606 192.72L859.206 195.16H859.606L860.206 192.72L863.686 182.08H871.606L870.966 184.52C870.459 185.56 869.872 186.76 869.206 188.12C868.566 189.453 867.899 190.84 867.206 192.28C866.512 193.72 865.832 195.107 865.166 196.44C864.526 197.773 863.952 198.96 863.446 200C862.139 202.667 860.632 204.64 858.926 205.92C857.219 207.2 855.139 207.84 852.686 207.84H851.606ZM878.919 200C877.159 200 875.799 199.747 874.839 199.24C873.906 198.733 873.266 198.04 872.919 197.16C872.573 196.253 872.399 195.213 872.399 194.04V188C872.399 186.933 872.573 185.96 872.919 185.08C873.293 184.173 873.946 183.453 874.879 182.92C875.813 182.36 877.159 182.08 878.919 182.08H887.199C889.279 182.08 890.866 182.333 891.959 182.84C893.079 183.32 893.839 184.013 894.239 184.92C894.666 185.8 894.879 186.827 894.879 188V193.12H887.879C885.479 193.12 883.653 193.067 882.399 192.96C881.173 192.853 880.306 192.787 879.799 192.76V193.36C879.773 194.427 880.413 194.96 881.719 194.96H882.959C885.093 194.96 887.066 194.92 888.879 194.84C890.693 194.733 892.039 194.64 892.919 194.56L895.319 198.36C895.319 198.627 895.093 198.88 894.639 199.12C894.186 199.36 893.386 199.573 892.239 199.76C891.119 199.92 889.519 200 887.439 200H878.919ZM879.799 189.28H887.479V188.72C887.479 188.187 887.426 187.813 887.319 187.6C887.239 187.387 886.959 187.253 886.479 187.2C885.999 187.147 885.186 187.12 884.039 187.12H881.719C880.439 187.12 879.799 187.653 879.799 188.72V189.28ZM903.683 200C901.336 200 899.656 199.56 898.643 198.68C897.629 197.8 897.123 196.333 897.123 194.28C897.123 192.387 897.643 191.013 898.683 190.16C899.749 189.307 901.416 188.88 903.683 188.88H904.923C906.416 188.88 907.843 188.933 909.203 189.04C910.563 189.147 911.736 189.253 912.723 189.36V188.72C912.723 188.347 912.643 187.987 912.483 187.64C912.323 187.293 911.763 187.12 910.803 187.12H908.803C905.896 187.12 903.656 187.173 902.083 187.28C900.509 187.36 899.536 187.44 899.163 187.52L898.723 183.28C898.723 183.013 899.189 182.8 900.123 182.64C901.056 182.453 902.336 182.32 903.963 182.24C905.589 182.133 907.443 182.08 909.523 182.08H913.523C915.283 182.08 916.629 182.347 917.563 182.88C918.496 183.387 919.136 184.08 919.483 184.96C919.829 185.84 920.003 186.853 920.003 188V200H914.323L912.763 199.2C912.123 199.333 911.096 199.507 909.683 199.72C908.296 199.907 906.696 200 904.883 200H903.683ZM906.003 195.28H911.523C912.109 195.28 912.456 195.227 912.563 195.12C912.669 195.013 912.723 194.68 912.723 194.12V192.72H906.003C905.496 192.72 905.123 192.813 904.883 193C904.643 193.187 904.523 193.547 904.523 194.08C904.523 194.587 904.643 194.92 904.883 195.08C905.123 195.213 905.496 195.28 906.003 195.28ZM922.998 200V182.08H928.678L930.198 182.88C931.424 182.08 933.051 181.68 935.078 181.68C936.411 181.68 937.584 181.827 938.598 182.12C939.611 182.387 940.424 182.68 941.038 183C941.678 183.32 942.078 183.547 942.238 183.68L940.238 188.88C939.971 188.693 939.464 188.44 938.718 188.12C937.998 187.8 937.144 187.507 936.158 187.24C935.171 186.947 934.131 186.8 933.038 186.8H932.598C931.851 186.8 931.278 186.933 930.878 187.2C930.478 187.44 930.278 187.987 930.278 188.84V200H922.998ZM946.667 200C943.974 200 942.627 198.853 942.627 196.56C942.627 195.28 942.961 194.4 943.627 193.92C944.321 193.413 945.334 193.16 946.667 193.16C948.081 193.16 949.107 193.413 949.747 193.92C950.414 194.4 950.747 195.28 950.747 196.56C950.747 198.853 949.387 200 946.667 200Z" fill="#FFB400"/>
<defs>
<filter id="filter0_d_1162_10730" x="0.298314" y="0.233544" width="1049.4" height="319.404" filterUnits="userSpaceOnUse" color-interpolation-filters="sRGB">
<feFlood flood-opacity="0" result="BackgroundImageFix"/>
<feColorMatrix in="SourceAlpha" type="matrix" values="0 0 0 0 0 0 0 0 0 0 0 0 0 0 0 0 0 0 127 0" result="hardAlpha"/>
<feOffset dy="2.93572"/>
<feGaussianBlur stdDeviation="4.40358"/>
<feComposite in2="hardAlpha" operator="out"/>
<feColorMatrix type="matrix" values="0 0 0 0 1 0 0 0 0 1 0 0 0 0 1 0 0 0 0.25 0"/>
<feBlend mode="normal" in2="BackgroundImageFix" result="effect1_dropShadow_1162_10730"/>
<feBlend mode="normal" in="SourceGraphic" in2="effect1_dropShadow_1162_10730" result="shape"/>
</filter>
<radialGradient id="paint0_radial_1162_10730" cx="0" cy="0" r="1" gradientUnits="userSpaceOnUse" gradientTransform="translate(524.997 157) rotate(90) scale(149 513.997)">
<stop stop-color="#1B256A"/>
<stop offset="0.0001" stop-color="#246CA4"/>
<stop offset="1" stop-color="#1B2469"/>
</radialGradient>
</defs>
</svg>
