<svg width="1050" height="320" viewBox="0 0 1050 320" fill="none" xmlns="http://www.w3.org/2000/svg">
<g filter="url(#filter0_d_1162_10730)">
<path d="M78.5 8L11 72.7826V93.8699V164.58V271C11 290.33 26.67 306 46 306L970 306L1038.99 246.201V43C1038.99 23.67 1023.32 8 1003.99 8H558.877H318.818H198.788H78.5Z" fill="url(#paint0_radial_1162_10730)" fill-opacity="0.85" shape-rendering="crispEdges"/>
<path d="M78.5 8L11 72.7826V93.8699V164.58V271C11 290.33 26.67 306 46 306L970 306L1038.99 246.201V43C1038.99 23.67 1023.32 8 1003.99 8H558.877H318.818H198.788H78.5Z" stroke="#FFB400" stroke-width="3.79" shape-rendering="crispEdges"/>
</g>
<path d="M1038.75 170.942C1038.75 199.765 1038.75 245.059 1038.75 245.059L969.479 306H885" stroke="#FFB400" stroke-width="6.4"/>
<path d="M175 8H80.3492L11 73.4828V157" stroke="#FFB400" stroke-width="6.4"/>
<path d="M84.1983 128L72.0003 94.541H84.1413L89.8413 113.579L91.1523 118.538H91.7223L92.4633 115.232L98.3343 94.541H111.444L117.657 115.232L118.683 118.538H119.253L120.564 113.579L125.751 94.541H137.721L137.151 97.961L125.409 128H112.299L106.257 109.589L105.117 104.801H104.547L103.464 109.589L97.4793 128H84.1983ZM145.318 128C142.81 128 140.872 127.639 139.504 126.917C138.174 126.195 137.262 125.207 136.768 123.953C136.274 122.661 136.027 121.179 136.027 119.507V110.9C136.027 109.38 136.274 107.993 136.768 106.739C137.3 105.447 138.231 104.421 139.561 103.661C140.891 102.863 142.81 102.464 145.318 102.464H157.117C160.081 102.464 162.342 102.825 163.9 103.547C165.496 104.231 166.579 105.219 167.149 106.511C167.757 107.765 168.061 109.228 168.061 110.9V118.196H158.086C154.666 118.196 152.063 118.12 150.277 117.968C148.529 117.816 147.294 117.721 146.572 117.683V118.538C146.534 120.058 147.446 120.818 149.308 120.818H151.075C154.115 120.818 156.927 120.761 159.511 120.647C162.095 120.495 164.014 120.362 165.268 120.248L168.688 125.663C168.688 126.043 168.365 126.404 167.719 126.746C167.073 127.088 165.933 127.392 164.299 127.658C162.703 127.886 160.423 128 157.459 128H145.318ZM146.572 112.724H157.516V111.926C157.516 111.166 157.44 110.634 157.288 110.33C157.174 110.026 156.775 109.836 156.091 109.76C155.407 109.684 154.248 109.646 152.614 109.646H149.308C147.484 109.646 146.572 110.406 146.572 111.926V112.724ZM190.851 128C187.507 128 185.113 127.373 183.669 126.119C182.225 124.865 181.503 122.775 181.503 119.849C181.503 117.151 182.244 115.194 183.726 113.978C185.246 112.762 187.621 112.154 190.851 112.154H192.618C194.746 112.154 196.779 112.23 198.717 112.382C200.655 112.534 202.327 112.686 203.733 112.838V111.926C203.733 111.394 203.619 110.881 203.391 110.387C203.163 109.893 202.365 109.646 200.997 109.646H198.147C194.005 109.646 190.813 109.722 188.571 109.874C186.329 109.988 184.942 110.102 184.41 110.216L183.783 104.174C183.783 103.794 184.448 103.49 185.778 103.262C187.108 102.996 188.932 102.806 191.25 102.692C193.568 102.54 196.209 102.464 199.173 102.464H204.873C207.381 102.464 209.3 102.844 210.63 103.604C211.96 104.326 212.872 105.314 213.366 106.568C213.86 107.822 214.107 109.266 214.107 110.9V128H206.013L203.79 126.86C202.878 127.05 201.415 127.297 199.401 127.601C197.425 127.867 195.145 128 192.561 128H190.851ZM194.157 121.274H202.023C202.859 121.274 203.353 121.198 203.505 121.046C203.657 120.894 203.733 120.419 203.733 119.621V117.626H194.157C193.435 117.626 192.903 117.759 192.561 118.025C192.219 118.291 192.048 118.804 192.048 119.564C192.048 120.286 192.219 120.761 192.561 120.989C192.903 121.179 193.435 121.274 194.157 121.274ZM218.375 128V102.464H226.469L228.635 103.604C230.383 102.464 232.701 101.894 235.589 101.894C237.489 101.894 239.161 102.103 240.605 102.521C242.049 102.901 243.208 103.319 244.082 103.775C244.994 104.231 245.564 104.554 245.792 104.744L242.942 112.154C242.562 111.888 241.84 111.527 240.776 111.071C239.75 110.615 238.534 110.197 237.128 109.817C235.722 109.399 234.24 109.19 232.682 109.19H232.055C230.991 109.19 230.174 109.38 229.604 109.76C229.034 110.102 228.749 110.881 228.749 112.097V128H218.375ZM256.21 128C253.702 128 251.764 127.639 250.396 126.917C249.066 126.195 248.154 125.207 247.66 123.953C247.166 122.661 246.919 121.179 246.919 119.507V110.9C246.919 109.38 247.166 107.993 247.66 106.739C248.192 105.447 249.123 104.421 250.453 103.661C251.783 102.863 253.702 102.464 256.21 102.464H268.009C270.973 102.464 273.234 102.825 274.792 103.547C276.388 104.231 277.471 105.219 278.041 106.511C278.649 107.765 278.953 109.228 278.953 110.9V118.196H268.978C265.558 118.196 262.955 118.12 261.169 117.968C259.421 117.816 258.186 117.721 257.464 117.683V118.538C257.426 120.058 258.338 120.818 260.2 120.818H261.967C265.007 120.818 267.819 120.761 270.403 120.647C272.987 120.495 274.906 120.362 276.16 120.248L279.58 125.663C279.58 126.043 279.257 126.404 278.611 126.746C277.965 127.088 276.825 127.392 275.191 127.658C273.595 127.886 271.315 128 268.351 128H256.21ZM257.464 112.724H268.408V111.926C268.408 111.166 268.332 110.634 268.18 110.33C268.066 110.026 267.667 109.836 266.983 109.76C266.299 109.684 265.14 109.646 263.506 109.646H260.2C258.376 109.646 257.464 110.406 257.464 111.926V112.724ZM301.97 128C299.462 128 297.524 127.639 296.156 126.917C294.826 126.195 293.914 125.207 293.42 123.953C292.926 122.661 292.679 121.179 292.679 119.507V110.9C292.679 109.38 292.926 107.993 293.42 106.739C293.952 105.447 294.883 104.421 296.213 103.661C297.543 102.863 299.462 102.464 301.97 102.464H309.266C313.636 102.464 316.847 102.654 318.899 103.034C320.951 103.414 322.11 103.794 322.376 104.174L320.666 110.216C319.868 110.14 318.424 110.026 316.334 109.874C314.244 109.722 311.945 109.646 309.437 109.646H305.96C304.972 109.646 304.269 109.836 303.851 110.216C303.433 110.596 303.224 111.166 303.224 111.926V118.538C303.224 119.298 303.414 119.868 303.794 120.248C304.174 120.628 304.896 120.818 305.96 120.818H308.867C311.679 120.818 314.092 120.761 316.106 120.647C318.158 120.495 319.659 120.362 320.609 120.248L324.029 125.663C324.029 126.195 323.079 126.727 321.179 127.259C319.317 127.753 316.524 128 312.8 128H301.97ZM326.329 128V96.422L325.759 91.862H336.703V128H326.329ZM349.387 128C346.879 128 344.998 127.639 343.744 126.917C342.49 126.195 341.654 125.207 341.236 123.953C340.856 122.661 340.666 121.179 340.666 119.507V110.9C340.666 109.304 340.875 107.879 341.293 106.625C341.711 105.333 342.528 104.326 343.744 103.604C344.998 102.844 346.879 102.464 349.387 102.464H365.233C367.741 102.464 369.603 102.844 370.819 103.604C372.073 104.326 372.89 105.333 373.27 106.625C373.688 107.879 373.897 109.304 373.897 110.9V119.507C373.897 121.179 373.688 122.661 373.27 123.953C372.89 125.207 372.073 126.195 370.819 126.917C369.603 127.639 367.741 128 365.233 128H349.387ZM353.947 120.818H360.73C362.554 120.818 363.447 120.058 363.409 118.538V111.926C363.409 111.166 363.2 110.596 362.782 110.216C362.402 109.836 361.718 109.646 360.73 109.646H354.004C353.016 109.646 352.313 109.836 351.895 110.216C351.477 110.596 351.268 111.166 351.268 111.926V118.538C351.23 120.058 352.123 120.818 353.947 120.818ZM384.306 128C381.76 128 379.955 127.867 378.891 127.601C377.827 127.335 377.295 127.069 377.295 126.803L379.575 120.818C380.031 120.932 381.38 121.065 383.622 121.217C385.902 121.331 389.208 121.388 393.54 121.388H397.587C398.537 121.388 399.126 121.293 399.354 121.103C399.62 120.875 399.753 120.495 399.753 119.963C399.753 119.317 399.601 118.918 399.297 118.766C399.031 118.576 398.461 118.481 397.587 118.481H386.016C383.242 118.481 381.095 117.968 379.575 116.942C378.055 115.878 377.295 113.997 377.295 111.299V110.159C377.295 108.753 377.485 107.48 377.865 106.34C378.245 105.162 379.062 104.231 380.316 103.547C381.57 102.825 383.47 102.464 386.016 102.464H402.888C405.168 102.464 406.783 102.597 407.733 102.863C408.683 103.129 409.158 103.395 409.158 103.661L408.588 109.703C407.98 109.589 406.441 109.475 403.971 109.361C401.539 109.209 398.176 109.133 393.882 109.133H389.835C388.885 109.133 388.277 109.247 388.011 109.475C387.783 109.665 387.669 110.007 387.669 110.501C387.669 110.995 387.783 111.356 388.011 111.584C388.277 111.774 388.885 111.869 389.835 111.869H401.634C404.598 111.869 406.783 112.515 408.189 113.807C409.595 115.099 410.298 116.904 410.298 119.222V120.305C410.298 121.673 410.127 122.946 409.785 124.124C409.443 125.264 408.664 126.195 407.448 126.917C406.232 127.639 404.294 128 401.634 128H384.306ZM422.993 128C420.485 128 418.547 127.639 417.179 126.917C415.849 126.195 414.937 125.207 414.443 123.953C413.949 122.661 413.702 121.179 413.702 119.507V110.9C413.702 109.38 413.949 107.993 414.443 106.739C414.975 105.447 415.906 104.421 417.236 103.661C418.566 102.863 420.485 102.464 422.993 102.464H434.792C437.756 102.464 440.017 102.825 441.575 103.547C443.171 104.231 444.254 105.219 444.824 106.511C445.432 107.765 445.736 109.228 445.736 110.9V118.196H435.761C432.341 118.196 429.738 118.12 427.952 117.968C426.204 117.816 424.969 117.721 424.247 117.683V118.538C424.209 120.058 425.121 120.818 426.983 120.818H428.75C431.79 120.818 434.602 120.761 437.186 120.647C439.77 120.495 441.689 120.362 442.943 120.248L446.363 125.663C446.363 126.043 446.04 126.404 445.394 126.746C444.748 127.088 443.608 127.392 441.974 127.658C440.378 127.886 438.098 128 435.134 128H422.993ZM424.247 112.724H435.191V111.926C435.191 111.166 435.115 110.634 434.963 110.33C434.849 110.026 434.45 109.836 433.766 109.76C433.082 109.684 431.923 109.646 430.289 109.646H426.983C425.159 109.646 424.247 110.406 424.247 111.926V112.724ZM457.882 128C455.374 128 453.493 127.639 452.239 126.917C451.023 126.157 450.206 125.15 449.788 123.896C449.408 122.604 449.218 121.141 449.218 119.507V110.9C449.218 109.456 449.408 108.107 449.788 106.853C450.206 105.561 451.023 104.516 452.239 103.718C453.493 102.882 455.374 102.464 457.882 102.464H459.649C462.423 102.464 464.931 102.54 467.173 102.692C469.453 102.844 471.011 102.977 471.847 103.091V91.862H482.392V128H474.127L471.904 126.86C470.308 127.126 468.579 127.392 466.717 127.658C464.893 127.886 462.518 128 459.592 128H457.882ZM462.499 120.818H470.08C470.878 120.818 471.372 120.723 471.562 120.533C471.752 120.343 471.847 119.868 471.847 119.108V110.045C470.897 109.969 469.776 109.893 468.484 109.817C467.192 109.703 465.767 109.646 464.209 109.646H462.499C460.675 109.646 459.763 110.406 459.763 111.926V118.538C459.763 119.298 459.972 119.868 460.39 120.248C460.808 120.628 461.511 120.818 462.499 120.818ZM499.612 128V109.646H494.938V102.521H499.612V98.588C499.612 92.964 502.69 90.152 508.846 90.152H512.779C517.339 90.152 520.607 90.361 522.583 90.779C524.597 91.197 525.604 91.558 525.604 91.862L523.894 98.474C523.248 98.208 522.089 97.961 520.417 97.733C518.745 97.467 516.731 97.334 514.375 97.334H512.722C511.772 97.334 511.069 97.505 510.613 97.847C510.195 98.189 509.986 98.778 509.986 99.614V102.521H520.702V109.646H509.986V128H499.612ZM531.478 128C528.97 128 527.089 127.639 525.835 126.917C524.581 126.195 523.745 125.207 523.327 123.953C522.947 122.661 522.757 121.179 522.757 119.507V110.9C522.757 109.304 522.966 107.879 523.384 106.625C523.802 105.333 524.619 104.326 525.835 103.604C527.089 102.844 528.97 102.464 531.478 102.464H547.324C549.832 102.464 551.694 102.844 552.91 103.604C554.164 104.326 554.981 105.333 555.361 106.625C555.779 107.879 555.988 109.304 555.988 110.9V119.507C555.988 121.179 555.779 122.661 555.361 123.953C554.981 125.207 554.164 126.195 552.91 126.917C551.694 127.639 549.832 128 547.324 128H531.478ZM536.038 120.818H542.821C544.645 120.818 545.538 120.058 545.5 118.538V111.926C545.5 111.166 545.291 110.596 544.873 110.216C544.493 109.836 543.809 109.646 542.821 109.646H536.095C535.107 109.646 534.404 109.836 533.986 110.216C533.568 110.596 533.359 111.166 533.359 111.926V118.538C533.321 120.058 534.214 120.818 536.038 120.818ZM559.956 128V102.464H568.05L570.216 103.604C571.964 102.464 574.282 101.894 577.17 101.894C579.07 101.894 580.742 102.103 582.186 102.521C583.63 102.901 584.789 103.319 585.663 103.775C586.575 104.231 587.145 104.554 587.373 104.744L584.523 112.154C584.143 111.888 583.421 111.527 582.357 111.071C581.331 110.615 580.115 110.197 578.709 109.817C577.303 109.399 575.821 109.19 574.263 109.19H573.636C572.572 109.19 571.755 109.38 571.185 109.76C570.615 110.102 570.33 110.881 570.33 112.097V128H559.956ZM609.233 128C606.345 128 604.369 127.392 603.305 126.176C602.241 124.96 601.709 123.136 601.709 120.704V109.646H597.035V102.464H599.429C600.075 102.464 600.588 102.35 600.968 102.122C601.386 101.856 601.652 101.4 601.766 100.754L602.849 94.655H612.197V102.464H621.716V109.646H612.197V118.481C612.197 119.431 612.425 120.058 612.881 120.362C613.337 120.666 614.021 120.818 614.933 120.818H620.633L621.773 127.43C620.975 127.544 619.759 127.677 618.125 127.829C616.491 127.943 614.705 128 612.767 128H609.233ZM624.032 128V91.064H634.577V103.604C636.211 103.3 638.149 103.034 640.391 102.806C642.633 102.578 644.742 102.464 646.718 102.464H649.568C651.468 102.464 652.931 102.73 653.957 103.262C654.983 103.794 655.705 104.459 656.123 105.257C656.579 106.055 656.845 106.872 656.921 107.708C657.035 108.506 657.092 109.19 657.092 109.76V128H646.661V111.926C646.661 110.406 645.749 109.646 643.925 109.646H636.287C635.565 109.646 635.09 109.722 634.862 109.874C634.672 109.988 634.577 110.33 634.577 110.9V128H624.032ZM667.142 100.013C663.304 100.013 661.385 98.379 661.385 95.111C661.385 93.287 661.86 92.033 662.81 91.349C663.798 90.627 665.242 90.266 667.142 90.266C669.156 90.266 670.619 90.627 671.531 91.349C672.481 92.033 672.956 93.287 672.956 95.111C672.956 98.379 671.018 100.013 667.142 100.013ZM661.898 128V102.464H672.272V128H661.898ZM683.971 128C681.425 128 679.62 127.867 678.556 127.601C677.492 127.335 676.96 127.069 676.96 126.803L679.24 120.818C679.696 120.932 681.045 121.065 683.287 121.217C685.567 121.331 688.873 121.388 693.205 121.388H697.252C698.202 121.388 698.791 121.293 699.019 121.103C699.285 120.875 699.418 120.495 699.418 119.963C699.418 119.317 699.266 118.918 698.962 118.766C698.696 118.576 698.126 118.481 697.252 118.481H685.681C682.907 118.481 680.76 117.968 679.24 116.942C677.72 115.878 676.96 113.997 676.96 111.299V110.159C676.96 108.753 677.15 107.48 677.53 106.34C677.91 105.162 678.727 104.231 679.981 103.547C681.235 102.825 683.135 102.464 685.681 102.464H702.553C704.833 102.464 706.448 102.597 707.398 102.863C708.348 103.129 708.823 103.395 708.823 103.661L708.253 109.703C707.645 109.589 706.106 109.475 703.636 109.361C701.204 109.209 697.841 109.133 693.547 109.133H689.5C688.55 109.133 687.942 109.247 687.676 109.475C687.448 109.665 687.334 110.007 687.334 110.501C687.334 110.995 687.448 111.356 687.676 111.584C687.942 111.774 688.55 111.869 689.5 111.869H701.299C704.263 111.869 706.448 112.515 707.854 113.807C709.26 115.099 709.963 116.904 709.963 119.222V120.305C709.963 121.673 709.792 122.946 709.45 124.124C709.108 125.264 708.329 126.195 707.113 126.917C705.897 127.639 703.959 128 701.299 128H683.971ZM730.621 128C728.075 128 726.27 127.867 725.206 127.601C724.142 127.335 723.61 127.069 723.61 126.803L725.89 120.818C726.346 120.932 727.695 121.065 729.937 121.217C732.217 121.331 735.523 121.388 739.855 121.388H743.902C744.852 121.388 745.441 121.293 745.669 121.103C745.935 120.875 746.069 120.495 746.069 119.963C746.069 119.317 745.916 118.918 745.612 118.766C745.346 118.576 744.776 118.481 743.902 118.481H732.331C729.557 118.481 727.41 117.968 725.89 116.942C724.37 115.878 723.61 113.997 723.61 111.299V110.159C723.61 108.753 723.8 107.48 724.18 106.34C724.56 105.162 725.377 104.231 726.631 103.547C727.885 102.825 729.785 102.464 732.331 102.464H749.203C751.483 102.464 753.098 102.597 754.049 102.863C754.999 103.129 755.473 103.395 755.473 103.661L754.904 109.703C754.295 109.589 752.756 109.475 750.286 109.361C747.854 109.209 744.491 109.133 740.197 109.133H736.15C735.2 109.133 734.592 109.247 734.326 109.475C734.098 109.665 733.984 110.007 733.984 110.501C733.984 110.995 734.098 111.356 734.326 111.584C734.592 111.774 735.2 111.869 736.15 111.869H747.949C750.913 111.869 753.098 112.515 754.504 113.807C755.91 115.099 756.613 116.904 756.613 119.222V120.305C756.613 121.673 756.442 122.946 756.1 124.124C755.758 125.264 754.979 126.195 753.764 126.917C752.548 127.639 750.61 128 747.949 128H730.621ZM769.308 128C766.8 128 764.862 127.639 763.494 126.917C762.164 126.195 761.252 125.207 760.758 123.953C760.264 122.661 760.017 121.179 760.017 119.507V110.9C760.017 109.38 760.264 107.993 760.758 106.739C761.29 105.447 762.221 104.421 763.551 103.661C764.881 102.863 766.8 102.464 769.308 102.464H781.107C784.071 102.464 786.332 102.825 787.89 103.547C789.486 104.231 790.569 105.219 791.139 106.511C791.747 107.765 792.051 109.228 792.051 110.9V118.196H782.076C778.656 118.196 776.053 118.12 774.267 117.968C772.519 117.816 771.284 117.721 770.562 117.683V118.538C770.524 120.058 771.436 120.818 773.298 120.818H775.065C778.105 120.818 780.917 120.761 783.501 120.647C786.085 120.495 788.004 120.362 789.258 120.248L792.678 125.663C792.678 126.043 792.355 126.404 791.709 126.746C791.063 127.088 789.923 127.392 788.289 127.658C786.693 127.886 784.413 128 781.449 128H769.308ZM770.562 112.724H781.506V111.926C781.506 111.166 781.43 110.634 781.278 110.33C781.164 110.026 780.765 109.836 780.081 109.76C779.397 109.684 778.238 109.646 776.604 109.646H773.298C771.474 109.646 770.562 110.406 770.562 111.926V112.724ZM802.544 128C799.998 128 798.193 127.867 797.129 127.601C796.065 127.335 795.533 127.069 795.533 126.803L797.813 120.818C798.269 120.932 799.618 121.065 801.86 121.217C804.14 121.331 807.446 121.388 811.778 121.388H815.825C816.775 121.388 817.364 121.293 817.592 121.103C817.858 120.875 817.991 120.495 817.991 119.963C817.991 119.317 817.839 118.918 817.535 118.766C817.269 118.576 816.699 118.481 815.825 118.481H804.254C801.48 118.481 799.333 117.968 797.813 116.942C796.293 115.878 795.533 113.997 795.533 111.299V110.159C795.533 108.753 795.723 107.48 796.103 106.34C796.483 105.162 797.3 104.231 798.554 103.547C799.808 102.825 801.708 102.464 804.254 102.464H821.126C823.406 102.464 825.021 102.597 825.971 102.863C826.921 103.129 827.396 103.395 827.396 103.661L826.826 109.703C826.218 109.589 824.679 109.475 822.209 109.361C819.777 109.209 816.414 109.133 812.12 109.133H808.073C807.123 109.133 806.515 109.247 806.249 109.475C806.021 109.665 805.907 110.007 805.907 110.501C805.907 110.995 806.021 111.356 806.249 111.584C806.515 111.774 807.123 111.869 808.073 111.869H819.872C822.836 111.869 825.021 112.515 826.427 113.807C827.833 115.099 828.536 116.904 828.536 119.222V120.305C828.536 121.673 828.365 122.946 828.023 124.124C827.681 125.264 826.902 126.195 825.686 126.917C824.47 127.639 822.532 128 819.872 128H802.544ZM838.95 128C836.404 128 834.599 127.867 833.535 127.601C832.471 127.335 831.939 127.069 831.939 126.803L834.219 120.818C834.675 120.932 836.024 121.065 838.266 121.217C840.546 121.331 843.852 121.388 848.184 121.388H852.231C853.181 121.388 853.77 121.293 853.998 121.103C854.264 120.875 854.397 120.495 854.397 119.963C854.397 119.317 854.245 118.918 853.941 118.766C853.675 118.576 853.105 118.481 852.231 118.481H840.66C837.886 118.481 835.739 117.968 834.219 116.942C832.699 115.878 831.939 113.997 831.939 111.299V110.159C831.939 108.753 832.129 107.48 832.509 106.34C832.889 105.162 833.706 104.231 834.96 103.547C836.214 102.825 838.114 102.464 840.66 102.464H857.532C859.812 102.464 861.427 102.597 862.377 102.863C863.327 103.129 863.802 103.395 863.802 103.661L863.232 109.703C862.624 109.589 861.085 109.475 858.615 109.361C856.183 109.209 852.82 109.133 848.526 109.133H844.479C843.529 109.133 842.921 109.247 842.655 109.475C842.427 109.665 842.313 110.007 842.313 110.501C842.313 110.995 842.427 111.356 842.655 111.584C842.921 111.774 843.529 111.869 844.479 111.869H856.278C859.242 111.869 861.427 112.515 862.833 113.807C864.239 115.099 864.942 116.904 864.942 119.222V120.305C864.942 121.673 864.771 122.946 864.429 124.124C864.087 125.264 863.308 126.195 862.092 126.917C860.876 127.639 858.938 128 856.278 128H838.95ZM874.673 100.013C870.835 100.013 868.916 98.379 868.916 95.111C868.916 93.287 869.391 92.033 870.341 91.349C871.329 90.627 872.773 90.266 874.673 90.266C876.687 90.266 878.15 90.627 879.062 91.349C880.012 92.033 880.487 93.287 880.487 95.111C880.487 98.379 878.549 100.013 874.673 100.013ZM869.429 128V102.464H879.803V128H869.429ZM893.212 128C890.704 128 888.823 127.639 887.569 126.917C886.315 126.195 885.479 125.207 885.061 123.953C884.681 122.661 884.491 121.179 884.491 119.507V110.9C884.491 109.304 884.7 107.879 885.118 106.625C885.536 105.333 886.353 104.326 887.569 103.604C888.823 102.844 890.704 102.464 893.212 102.464H909.058C911.566 102.464 913.428 102.844 914.644 103.604C915.898 104.326 916.715 105.333 917.095 106.625C917.513 107.879 917.722 109.304 917.722 110.9V119.507C917.722 121.179 917.513 122.661 917.095 123.953C916.715 125.207 915.898 126.195 914.644 126.917C913.428 127.639 911.566 128 909.058 128H893.212ZM897.772 120.818H904.555C906.379 120.818 907.272 120.058 907.234 118.538V111.926C907.234 111.166 907.025 110.596 906.607 110.216C906.227 109.836 905.543 109.646 904.555 109.646H897.829C896.841 109.646 896.138 109.836 895.72 110.216C895.302 110.596 895.093 111.166 895.093 111.926V118.538C895.055 120.058 895.948 120.818 897.772 120.818ZM921.69 128V102.464H929.955L932.235 103.604C933.831 103.3 935.75 103.034 937.992 102.806C940.272 102.578 942.4 102.464 944.376 102.464H947.226C949.126 102.464 950.589 102.73 951.615 103.262C952.641 103.794 953.363 104.459 953.781 105.257C954.237 106.055 954.503 106.872 954.579 107.708C954.693 108.506 954.75 109.19 954.75 109.76V128H944.319V111.926C944.319 110.406 943.407 109.646 941.583 109.646H933.945C933.223 109.646 932.748 109.722 932.52 109.874C932.33 109.988 932.235 110.33 932.235 110.9V128H921.69ZM963.66 114.263C963.166 112.667 962.653 110.824 962.121 108.734C961.589 106.644 961.133 104.573 960.753 102.521C960.373 100.469 960.183 98.702 960.183 97.22C960.183 96.118 960.43 95.282 960.924 94.712C961.456 94.142 962.349 93.857 963.603 93.857H970.044C971.298 93.857 972.172 94.142 972.666 94.712C973.198 95.244 973.464 96.08 973.464 97.22C973.464 98.74 973.274 100.545 972.894 102.635C972.552 104.687 972.115 106.758 971.583 108.848C971.051 110.9 970.538 112.705 970.044 114.263H963.66ZM966.795 128C962.957 128 961.038 126.366 961.038 123.098C961.038 121.274 961.513 120.02 962.463 119.336C963.451 118.614 964.895 118.253 966.795 118.253C968.809 118.253 970.272 118.614 971.184 119.336C972.134 120.02 972.609 121.274 972.609 123.098C972.609 126.366 970.671 128 966.795 128Z" fill="#FFB400"/>
<path d="M168.365 200V179.68L167.965 176.48H186.525C189.751 176.48 192.165 177.12 193.765 178.4C195.391 179.68 196.205 181.68 196.205 184.4V192.04C196.205 194.813 195.405 196.84 193.805 198.12C192.205 199.373 189.778 200 186.525 200H168.365ZM176.165 194.48H185.325C187.378 194.48 188.418 193.533 188.445 191.64V184.72C188.445 183.947 188.218 183.293 187.765 182.76C187.311 182.2 186.498 181.92 185.325 181.92H176.165V194.48ZM205.113 200C203.353 200 202.033 199.747 201.153 199.24C200.273 198.733 199.686 198.04 199.393 197.16C199.126 196.253 198.993 195.213 198.993 194.04V188C198.993 186.88 199.14 185.88 199.433 185C199.726 184.093 200.3 183.387 201.153 182.88C202.033 182.347 203.353 182.08 205.113 182.08H216.233C217.993 182.08 219.3 182.347 220.153 182.88C221.033 183.387 221.606 184.093 221.873 185C222.166 185.88 222.313 186.88 222.313 188V194.04C222.313 195.213 222.166 196.253 221.873 197.16C221.606 198.04 221.033 198.733 220.153 199.24C219.3 199.747 217.993 200 216.233 200H205.113ZM208.313 194.96H213.073C214.353 194.96 214.98 194.427 214.953 193.36V188.72C214.953 188.187 214.806 187.787 214.513 187.52C214.246 187.253 213.766 187.12 213.073 187.12H208.353C207.66 187.12 207.166 187.253 206.873 187.52C206.58 187.787 206.433 188.187 206.433 188.72V193.36C206.406 194.427 207.033 194.96 208.313 194.96ZM225.098 200V182.08H230.898L232.498 182.88C233.618 182.667 234.964 182.48 236.538 182.32C238.138 182.16 239.631 182.08 241.018 182.08H243.018C244.351 182.08 245.378 182.267 246.098 182.64C246.818 183.013 247.324 183.48 247.618 184.04C247.938 184.6 248.124 185.173 248.178 185.76C248.258 186.32 248.298 186.8 248.298 187.2V200H240.978V188.72C240.978 187.653 240.338 187.12 239.058 187.12H233.698C233.191 187.12 232.858 187.173 232.698 187.28C232.564 187.36 232.498 187.6 232.498 188V200H225.098ZM251.767 180.72C251.207 180.88 250.874 180.813 250.767 180.52C250.687 180.2 250.741 179.88 250.927 179.56C251.141 179.24 251.421 178.627 251.767 177.72C252.114 176.813 252.354 175.92 252.487 175.04C251.714 174.853 251.061 174.547 250.527 174.12C249.994 173.693 249.727 172.867 249.727 171.64C249.727 170.467 250.074 169.613 250.767 169.08C251.487 168.547 252.487 168.28 253.767 168.28C255.207 168.28 256.314 168.573 257.087 169.16C257.887 169.72 258.287 170.693 258.287 172.08C258.287 173.147 258.061 174.173 257.607 175.16C257.181 176.12 256.621 176.987 255.927 177.76C255.261 178.533 254.554 179.187 253.807 179.72C253.061 180.227 252.381 180.56 251.767 180.72ZM269.248 200C267.222 200 265.835 199.573 265.088 198.72C264.342 197.867 263.968 196.587 263.968 194.88V187.12H260.688V182.08H262.368C262.822 182.08 263.182 182 263.448 181.84C263.742 181.653 263.928 181.333 264.008 180.88L264.768 176.6H271.328V182.08H278.008V187.12H271.328V193.32C271.328 193.987 271.488 194.427 271.808 194.64C272.128 194.853 272.608 194.96 273.248 194.96H277.248L278.048 199.6C277.488 199.68 276.635 199.773 275.488 199.88C274.342 199.96 273.088 200 271.728 200H269.248ZM291.263 200L284.823 182.08H292.863L295.263 191.04L295.903 194.2H296.303L296.903 191.44L299.263 182.08H307.263L309.783 191.44L310.343 194.2H310.743L311.423 190.96L313.663 182.08H321.743L321.103 184.52L315.263 200H306.463L303.943 189.8L303.543 187.92H303.143L302.623 190L300.063 200H291.263ZM328.677 200C326.917 200 325.597 199.747 324.717 199.24C323.837 198.733 323.25 198.04 322.957 197.16C322.69 196.253 322.557 195.213 322.557 194.04V188C322.557 186.88 322.704 185.88 322.997 185C323.29 184.093 323.864 183.387 324.717 182.88C325.597 182.347 326.917 182.08 328.677 182.08H339.797C341.557 182.08 342.864 182.347 343.717 182.88C344.597 183.387 345.17 184.093 345.437 185C345.73 185.88 345.877 186.88 345.877 188V194.04C345.877 195.213 345.73 196.253 345.437 197.16C345.17 198.04 344.597 198.733 343.717 199.24C342.864 199.747 341.557 200 339.797 200H328.677ZM331.877 194.96H336.637C337.917 194.96 338.544 194.427 338.517 193.36V188.72C338.517 188.187 338.37 187.787 338.077 187.52C337.81 187.253 337.33 187.12 336.637 187.12H331.917C331.224 187.12 330.73 187.253 330.437 187.52C330.144 187.787 329.997 188.187 329.997 188.72V193.36C329.97 194.427 330.597 194.96 331.877 194.96ZM348.662 200V182.08H354.342L355.862 182.88C357.088 182.08 358.715 181.68 360.742 181.68C362.075 181.68 363.248 181.827 364.262 182.12C365.275 182.387 366.088 182.68 366.702 183C367.342 183.32 367.742 183.547 367.902 183.68L365.902 188.88C365.635 188.693 365.128 188.44 364.382 188.12C363.662 187.8 362.808 187.507 361.822 187.24C360.835 186.947 359.795 186.8 358.702 186.8H358.262C357.515 186.8 356.942 186.933 356.542 187.2C356.142 187.44 355.942 187.987 355.942 188.84V200H348.662ZM369.093 200V182.08H374.773L376.293 182.88C377.52 182.08 379.146 181.68 381.173 181.68C382.506 181.68 383.68 181.827 384.693 182.12C385.706 182.387 386.52 182.68 387.133 183C387.773 183.32 388.173 183.547 388.333 183.68L386.333 188.88C386.066 188.693 385.56 188.44 384.813 188.12C384.093 187.8 383.24 187.507 382.253 187.24C381.266 186.947 380.226 186.8 379.133 186.8H378.693C377.946 186.8 377.373 186.933 376.973 187.2C376.573 187.44 376.373 187.987 376.373 188.84V200H369.093ZM392.004 207.84C390.538 207.84 389.204 207.693 388.004 207.4C386.804 207.133 385.978 206.867 385.524 206.6L387.124 201.68C387.924 202.027 388.778 202.293 389.684 202.48C390.618 202.667 391.498 202.76 392.324 202.76H392.764C395.084 202.76 396.764 201.84 397.804 200H395.364L387.524 182.08H395.564L399.004 192.72L399.604 195.16H400.004L400.604 192.72L404.084 182.08H412.004L411.364 184.52C410.858 185.56 410.271 186.76 409.604 188.12C408.964 189.453 408.298 190.84 407.604 192.28C406.911 193.72 406.231 195.107 405.564 196.44C404.924 197.773 404.351 198.96 403.844 200C402.538 202.667 401.031 204.64 399.324 205.92C397.618 207.2 395.538 207.84 393.084 207.84H392.004ZM412.855 205.52C412.295 205.68 411.961 205.6 411.855 205.28C411.775 204.987 411.828 204.68 412.015 204.36C412.228 204.04 412.508 203.427 412.855 202.52C413.201 201.613 413.441 200.72 413.575 199.84C412.801 199.653 412.148 199.347 411.615 198.92C411.081 198.493 410.815 197.667 410.815 196.44C410.815 195.267 411.161 194.413 411.855 193.88C412.575 193.347 413.575 193.08 414.855 193.08C416.295 193.08 417.401 193.373 418.175 193.96C418.975 194.52 419.375 195.493 419.375 196.88C419.375 197.947 419.148 198.973 418.695 199.96C418.268 200.92 417.708 201.787 417.015 202.56C416.348 203.333 415.641 203.973 414.895 204.48C414.148 205.013 413.468 205.36 412.855 205.52ZM434.985 200L428.545 182.08H436.585L438.985 191.04L439.625 194.2H440.025L440.625 191.44L442.985 182.08H450.985L453.505 191.44L454.065 194.2H454.465L455.145 190.96L457.385 182.08H465.465L464.825 184.52L458.985 200H450.185L447.665 189.8L447.265 187.92H446.865L446.345 190L443.785 200H434.985ZM472.799 200C471.039 200 469.679 199.747 468.719 199.24C467.786 198.733 467.146 198.04 466.799 197.16C466.452 196.253 466.279 195.213 466.279 194.04V188C466.279 186.933 466.452 185.96 466.799 185.08C467.172 184.173 467.826 183.453 468.759 182.92C469.692 182.36 471.039 182.08 472.799 182.08H481.079C483.159 182.08 484.746 182.333 485.839 182.84C486.959 183.32 487.719 184.013 488.119 184.92C488.546 185.8 488.759 186.827 488.759 188V193.12H481.759C479.359 193.12 477.532 193.067 476.279 192.96C475.052 192.853 474.186 192.787 473.679 192.76V193.36C473.652 194.427 474.292 194.96 475.599 194.96H476.839C478.972 194.96 480.946 194.92 482.759 194.84C484.572 194.733 485.919 194.64 486.799 194.56L489.199 198.36C489.199 198.627 488.972 198.88 488.519 199.12C488.066 199.36 487.266 199.573 486.119 199.76C484.999 199.92 483.399 200 481.319 200H472.799ZM473.679 189.28H481.359V188.72C481.359 188.187 481.306 187.813 481.199 187.6C481.119 187.387 480.839 187.253 480.359 187.2C479.879 187.147 479.066 187.12 477.919 187.12H475.599C474.319 187.12 473.679 187.653 473.679 188.72V189.28ZM491.63 180.72C491.07 180.88 490.736 180.813 490.63 180.52C490.55 180.2 490.603 179.88 490.79 179.56C491.003 179.24 491.283 178.627 491.63 177.72C491.976 176.813 492.216 175.92 492.35 175.04C491.576 174.853 490.923 174.547 490.39 174.12C489.856 173.693 489.59 172.867 489.59 171.64C489.59 170.467 489.936 169.613 490.63 169.08C491.35 168.547 492.35 168.28 493.63 168.28C495.07 168.28 496.176 168.573 496.95 169.16C497.75 169.72 498.15 170.693 498.15 172.08C498.15 173.147 497.923 174.173 497.47 175.16C497.043 176.12 496.483 176.987 495.79 177.76C495.123 178.533 494.416 179.187 493.67 179.72C492.923 180.227 492.243 180.56 491.63 180.72ZM502.551 200V177.84L502.151 174.64H509.831V200H502.551ZM513.412 200V177.84L513.012 174.64H520.692V200H513.412ZM531.062 200V174.64H538.342V182.56C539.488 182.427 540.835 182.32 542.382 182.24C543.955 182.133 545.742 182.08 547.742 182.08H548.142C549.875 182.08 551.182 182.347 552.062 182.88C552.942 183.387 553.528 184.093 553.822 185C554.115 185.88 554.262 186.88 554.262 188V194.04C554.262 195.027 554.088 195.987 553.742 196.92C553.422 197.827 552.822 198.573 551.942 199.16C551.062 199.72 549.795 200 548.142 200H547.742C545.528 200 543.595 199.947 541.942 199.84C540.288 199.707 538.915 199.573 537.822 199.44L536.742 200H531.062ZM539.582 194.92H544.942C546.222 194.92 546.862 194.387 546.862 193.32V188.72C546.888 188.133 546.768 187.72 546.502 187.48C546.235 187.24 545.715 187.12 544.942 187.12H544.542C543.155 187.12 541.902 187.16 540.782 187.24C539.662 187.32 538.848 187.387 538.342 187.44V193.68C538.342 194.24 538.395 194.587 538.502 194.72C538.635 194.853 538.995 194.92 539.582 194.92ZM563.199 200C561.439 200 560.079 199.747 559.119 199.24C558.186 198.733 557.546 198.04 557.199 197.16C556.852 196.253 556.679 195.213 556.679 194.04V188C556.679 186.933 556.852 185.96 557.199 185.08C557.572 184.173 558.226 183.453 559.159 182.92C560.092 182.36 561.439 182.08 563.199 182.08H571.479C573.559 182.08 575.146 182.333 576.239 182.84C577.359 183.32 578.119 184.013 578.519 184.92C578.946 185.8 579.159 186.827 579.159 188V193.12H572.159C569.759 193.12 567.932 193.067 566.679 192.96C565.452 192.853 564.586 192.787 564.079 192.76V193.36C564.052 194.427 564.692 194.96 565.999 194.96H567.239C569.372 194.96 571.346 194.92 573.159 194.84C574.972 194.733 576.319 194.64 577.199 194.56L579.599 198.36C579.599 198.627 579.372 198.88 578.919 199.12C578.466 199.36 577.666 199.573 576.519 199.76C575.399 199.92 573.799 200 571.719 200H563.199ZM564.079 189.28H571.759V188.72C571.759 188.187 571.706 187.813 571.599 187.6C571.519 187.387 571.239 187.253 570.759 187.2C570.279 187.147 569.466 187.12 568.319 187.12H565.999C564.719 187.12 564.079 187.653 564.079 188.72V189.28ZM589.191 200V174.64H596.471V182.56C597.618 182.427 598.965 182.32 600.511 182.24C602.085 182.133 603.871 182.08 605.871 182.08H606.271C608.005 182.08 609.311 182.347 610.191 182.88C611.071 183.387 611.658 184.093 611.951 185C612.245 185.88 612.391 186.88 612.391 188V194.04C612.391 195.027 612.218 195.987 611.871 196.92C611.551 197.827 610.951 198.573 610.071 199.16C609.191 199.72 607.925 200 606.271 200H605.871C603.658 200 601.725 199.947 600.071 199.84C598.418 199.707 597.045 199.573 595.951 199.44L594.871 200H589.191ZM597.711 194.92H603.071C604.351 194.92 604.991 194.387 604.991 193.32V188.72C605.018 188.133 604.898 187.72 604.631 187.48C604.365 187.24 603.845 187.12 603.071 187.12H602.671C601.285 187.12 600.031 187.16 598.911 187.24C597.791 187.32 596.978 187.387 596.471 187.44V193.68C596.471 194.24 596.525 194.587 596.631 194.72C596.765 194.853 597.125 194.92 597.711 194.92ZM621.169 200C618.822 200 617.142 199.56 616.129 198.68C615.115 197.8 614.609 196.333 614.609 194.28C614.609 192.387 615.129 191.013 616.169 190.16C617.235 189.307 618.902 188.88 621.169 188.88H622.409C623.902 188.88 625.329 188.933 626.689 189.04C628.049 189.147 629.222 189.253 630.209 189.36V188.72C630.209 188.347 630.129 187.987 629.969 187.64C629.809 187.293 629.249 187.12 628.289 187.12H626.289C623.382 187.12 621.142 187.173 619.569 187.28C617.995 187.36 617.022 187.44 616.649 187.52L616.209 183.28C616.209 183.013 616.675 182.8 617.609 182.64C618.542 182.453 619.822 182.32 621.449 182.24C623.075 182.133 624.929 182.08 627.009 182.08H631.009C632.769 182.08 634.115 182.347 635.049 182.88C635.982 183.387 636.622 184.08 636.969 184.96C637.315 185.84 637.489 186.853 637.489 188V200H631.809L630.249 199.2C629.609 199.333 628.582 199.507 627.169 199.72C625.782 199.907 624.182 200 622.369 200H621.169ZM623.489 195.28H629.009C629.595 195.28 629.942 195.227 630.049 195.12C630.155 195.013 630.209 194.68 630.209 194.12V192.72H623.489C622.982 192.72 622.609 192.813 622.369 193C622.129 193.187 622.009 193.547 622.009 194.08C622.009 194.587 622.129 194.92 622.369 195.08C622.609 195.213 622.982 195.28 623.489 195.28ZM646.604 200C644.844 200 643.484 199.747 642.524 199.24C641.59 198.733 640.95 198.04 640.604 197.16C640.257 196.253 640.084 195.213 640.084 194.04V188C640.084 186.933 640.257 185.96 640.604 185.08C640.977 184.173 641.63 183.453 642.564 182.92C643.497 182.36 644.844 182.08 646.604 182.08H651.724C654.79 182.08 657.044 182.213 658.484 182.48C659.924 182.747 660.737 183.013 660.924 183.28L659.724 187.52C659.164 187.467 658.15 187.387 656.684 187.28C655.217 187.173 653.604 187.12 651.844 187.12H649.404C648.71 187.12 648.217 187.253 647.924 187.52C647.63 187.787 647.484 188.187 647.484 188.72V193.36C647.484 193.893 647.617 194.293 647.884 194.56C648.15 194.827 648.657 194.96 649.404 194.96H651.444C653.417 194.96 655.11 194.92 656.524 194.84C657.964 194.733 659.017 194.64 659.684 194.56L662.084 198.36C662.084 198.733 661.417 199.107 660.084 199.48C658.777 199.827 656.817 200 654.204 200H646.604ZM684.058 200.4C682.751 200.4 681.604 200.267 680.618 200C679.658 199.733 678.738 199.16 677.858 198.28C677.324 197.747 676.791 197.213 676.258 196.68C675.724 196.147 675.191 195.613 674.658 195.08C674.231 194.627 673.884 194.28 673.618 194.04C673.351 193.773 673.084 193.6 672.818 193.52C672.578 193.413 672.231 193.36 671.778 193.36C671.191 193.36 670.844 193.413 670.738 193.52C670.631 193.627 670.578 193.987 670.578 194.6V200H663.298V174.68H670.578V188.24H671.858C672.311 188.24 672.738 188.053 673.138 187.68C673.378 187.44 673.738 187 674.218 186.36C674.724 185.72 675.271 185.013 675.858 184.24C676.444 183.467 676.978 182.76 677.458 182.12H685.858L685.218 183.36C684.578 184.16 683.831 185.04 682.978 186C682.151 186.96 681.338 187.84 680.538 188.64C679.764 189.44 679.138 190 678.658 190.32C679.698 191.013 680.671 191.76 681.578 192.56C682.484 193.333 683.644 194.027 685.058 194.64C685.991 195.04 686.778 195.307 687.418 195.44C688.084 195.547 688.551 195.6 688.818 195.6L687.698 200C687.431 200.08 686.978 200.16 686.338 200.24C685.724 200.347 684.964 200.4 684.058 200.4ZM702.776 200C700.43 200 698.75 199.56 697.736 198.68C696.723 197.8 696.216 196.333 696.216 194.28C696.216 192.387 696.736 191.013 697.776 190.16C698.843 189.307 700.51 188.88 702.776 188.88H704.016C705.51 188.88 706.936 188.933 708.296 189.04C709.656 189.147 710.83 189.253 711.816 189.36V188.72C711.816 188.347 711.736 187.987 711.576 187.64C711.416 187.293 710.856 187.12 709.896 187.12H707.896C704.99 187.12 702.75 187.173 701.176 187.28C699.603 187.36 698.63 187.44 698.256 187.52L697.816 183.28C697.816 183.013 698.283 182.8 699.216 182.64C700.15 182.453 701.43 182.32 703.056 182.24C704.683 182.133 706.536 182.08 708.616 182.08H712.616C714.376 182.08 715.723 182.347 716.656 182.88C717.59 183.387 718.23 184.08 718.576 184.96C718.923 185.84 719.096 186.853 719.096 188V200H713.416L711.856 199.2C711.216 199.333 710.19 199.507 708.776 199.72C707.39 199.907 705.79 200 703.976 200H702.776ZM705.096 195.28H710.616C711.203 195.28 711.55 195.227 711.656 195.12C711.763 195.013 711.816 194.68 711.816 194.12V192.72H705.096C704.59 192.72 704.216 192.813 703.976 193C703.736 193.187 703.616 193.547 703.616 194.08C703.616 194.587 703.736 194.92 703.976 195.08C704.216 195.213 704.59 195.28 705.096 195.28ZM734.451 207.04C731.705 207.04 729.465 206.987 727.731 206.88C725.998 206.8 724.665 206.68 723.731 206.52C722.798 206.36 722.158 206.173 721.811 205.96C721.465 205.773 721.291 205.587 721.291 205.4L723.291 201.2C723.585 201.28 724.238 201.427 725.251 201.64C726.265 201.88 727.745 202 729.691 202H735.731C736.425 202 736.918 201.88 737.211 201.64C737.531 201.4 737.678 200.987 737.651 200.4V198.76C736.825 199 735.665 199.2 734.171 199.36C732.705 199.493 730.985 199.56 729.011 199.56H727.851C726.091 199.56 724.771 199.32 723.891 198.84C723.038 198.333 722.465 197.64 722.171 196.76C721.905 195.88 721.771 194.827 721.771 193.6V188C721.771 187.36 721.838 186.693 721.971 186C722.131 185.307 722.411 184.667 722.811 184.08C723.238 183.493 723.851 183.013 724.651 182.64C725.478 182.267 726.545 182.08 727.851 182.08H729.051C730.918 182.08 732.438 182.107 733.611 182.16C734.785 182.213 735.718 182.28 736.411 182.36C737.131 182.44 737.731 182.52 738.211 182.6L739.251 182.08H744.931V201.12C744.931 202.88 744.371 204.307 743.251 205.4C742.131 206.493 740.265 207.04 737.651 207.04H734.451ZM731.091 194.52H736.411C737.025 194.52 737.385 194.467 737.491 194.36C737.598 194.253 737.651 193.907 737.651 193.32V187.4C737.065 187.347 736.491 187.307 735.931 187.28C735.398 187.227 734.785 187.187 734.091 187.16C733.425 187.133 732.571 187.12 731.531 187.12H731.091C729.811 187.12 729.171 187.653 729.171 188.72V192.92C729.145 193.987 729.785 194.52 731.091 194.52ZM754.108 200C751.761 200 750.081 199.56 749.068 198.68C748.054 197.8 747.548 196.333 747.548 194.28C747.548 192.387 748.068 191.013 749.108 190.16C750.174 189.307 751.841 188.88 754.108 188.88H755.348C756.841 188.88 758.268 188.933 759.628 189.04C760.988 189.147 762.161 189.253 763.148 189.36V188.72C763.148 188.347 763.068 187.987 762.908 187.64C762.748 187.293 762.188 187.12 761.228 187.12H759.228C756.321 187.12 754.081 187.173 752.508 187.28C750.934 187.36 749.961 187.44 749.588 187.52L749.148 183.28C749.148 183.013 749.614 182.8 750.548 182.64C751.481 182.453 752.761 182.32 754.388 182.24C756.014 182.133 757.868 182.08 759.948 182.08H763.948C765.708 182.08 767.054 182.347 767.988 182.88C768.921 183.387 769.561 184.08 769.908 184.96C770.254 185.84 770.428 186.853 770.428 188V200H764.748L763.188 199.2C762.548 199.333 761.521 199.507 760.108 199.72C758.721 199.907 757.121 200 755.308 200H754.108ZM756.428 195.28H761.948C762.534 195.28 762.881 195.227 762.988 195.12C763.094 195.013 763.148 194.68 763.148 194.12V192.72H756.428C755.921 192.72 755.548 192.813 755.308 193C755.068 193.187 754.948 193.547 754.948 194.08C754.948 194.587 755.068 194.92 755.308 195.08C755.548 195.213 755.921 195.28 756.428 195.28ZM777.463 180.36C774.769 180.36 773.423 179.213 773.423 176.92C773.423 175.64 773.756 174.76 774.423 174.28C775.116 173.773 776.129 173.52 777.463 173.52C778.876 173.52 779.903 173.773 780.543 174.28C781.209 174.76 781.543 175.64 781.543 176.92C781.543 179.213 780.183 180.36 777.463 180.36ZM773.783 200V182.08H781.063V200H773.783ZM784.752 200V182.08H790.552L792.152 182.88C793.272 182.667 794.619 182.48 796.192 182.32C797.792 182.16 799.286 182.08 800.672 182.08H802.672C804.006 182.08 805.032 182.267 805.752 182.64C806.472 183.013 806.979 183.48 807.272 184.04C807.592 184.6 807.779 185.173 807.832 185.76C807.912 186.32 807.952 186.8 807.952 187.2V200H800.632V188.72C800.632 187.653 799.992 187.12 798.712 187.12H793.352C792.846 187.12 792.512 187.173 792.352 187.28C792.219 187.36 792.152 187.6 792.152 188V200H784.752ZM825.114 200C823.087 200 821.701 199.573 820.954 198.72C820.207 197.867 819.834 196.587 819.834 194.88V187.12H816.554V182.08H818.234C818.687 182.08 819.047 182 819.314 181.84C819.607 181.653 819.794 181.333 819.874 180.88L820.634 176.6H827.194V182.08H833.874V187.12H827.194V193.32C827.194 193.987 827.354 194.427 827.674 194.64C827.994 194.853 828.474 194.96 829.114 194.96H833.114L833.914 199.6C833.354 199.68 832.501 199.773 831.354 199.88C830.207 199.96 828.954 200 827.594 200H825.114ZM835.499 200V174.08H842.899V182.88C844.046 182.667 845.406 182.48 846.979 182.32C848.553 182.16 850.033 182.08 851.419 182.08H853.419C854.753 182.08 855.779 182.267 856.499 182.64C857.219 183.013 857.726 183.48 858.019 184.04C858.339 184.6 858.526 185.173 858.579 185.76C858.659 186.32 858.699 186.8 858.699 187.2V200H851.379V188.72C851.379 187.653 850.739 187.12 849.459 187.12H844.099C843.593 187.12 843.259 187.173 843.099 187.28C842.966 187.36 842.899 187.6 842.899 188V200H835.499ZM867.832 200C866.072 200 864.712 199.747 863.752 199.24C862.818 198.733 862.178 198.04 861.832 197.16C861.485 196.253 861.312 195.213 861.312 194.04V188C861.312 186.933 861.485 185.96 861.832 185.08C862.205 184.173 862.858 183.453 863.792 182.92C864.725 182.36 866.072 182.08 867.832 182.08H876.112C878.192 182.08 879.778 182.333 880.872 182.84C881.992 183.32 882.752 184.013 883.152 184.92C883.578 185.8 883.792 186.827 883.792 188V193.12H876.792C874.392 193.12 872.565 193.067 871.312 192.96C870.085 192.853 869.218 192.787 868.712 192.76V193.36C868.685 194.427 869.325 194.96 870.632 194.96H871.872C874.005 194.96 875.978 194.92 877.792 194.84C879.605 194.733 880.952 194.64 881.832 194.56L884.232 198.36C884.232 198.627 884.005 198.88 883.552 199.12C883.098 199.36 882.298 199.573 881.152 199.76C880.032 199.92 878.432 200 876.352 200H867.832ZM868.712 189.28H876.392V188.72C876.392 188.187 876.338 187.813 876.232 187.6C876.152 187.387 875.872 187.253 875.392 187.2C874.912 187.147 874.098 187.12 872.952 187.12H870.632C869.352 187.12 868.712 187.653 868.712 188.72V189.28ZM423.436 248V230.08H429.236L430.836 230.88C431.956 230.667 433.303 230.48 434.876 230.32C436.476 230.16 437.969 230.08 439.356 230.08H441.356C442.689 230.08 443.716 230.267 444.436 230.64C445.156 231.013 445.663 231.48 445.956 232.04C446.276 232.6 446.463 233.173 446.516 233.76C446.596 234.32 446.636 234.8 446.636 235.2V248H439.316V236.72C439.316 235.653 438.676 235.12 437.396 235.12H432.036C431.529 235.12 431.196 235.173 431.036 235.28C430.903 235.36 430.836 235.6 430.836 236V248H423.436ZM455.768 248C454.008 248 452.648 247.747 451.688 247.24C450.755 246.733 450.115 246.04 449.768 245.16C449.422 244.253 449.248 243.213 449.248 242.04V236C449.248 234.933 449.422 233.96 449.768 233.08C450.142 232.173 450.795 231.453 451.728 230.92C452.662 230.36 454.008 230.08 455.768 230.08H464.048C466.128 230.08 467.715 230.333 468.808 230.84C469.928 231.32 470.688 232.013 471.088 232.92C471.515 233.8 471.728 234.827 471.728 236V241.12H464.728C462.328 241.12 460.502 241.067 459.248 240.96C458.022 240.853 457.155 240.787 456.648 240.76V241.36C456.622 242.427 457.262 242.96 458.568 242.96H459.808C461.942 242.96 463.915 242.92 465.728 242.84C467.542 242.733 468.888 242.64 469.768 242.56L472.168 246.36C472.168 246.627 471.942 246.88 471.488 247.12C471.035 247.36 470.235 247.573 469.088 247.76C467.968 247.92 466.368 248 464.288 248H455.768ZM456.648 237.28H464.328V236.72C464.328 236.187 464.275 235.813 464.168 235.6C464.088 235.387 463.808 235.253 463.328 235.2C462.848 235.147 462.035 235.12 460.888 235.12H458.568C457.288 235.12 456.648 235.653 456.648 236.72V237.28ZM472.572 248L473.372 246.4L480.292 239L472.572 230.08H481.052L484.732 235.08H485.132L488.892 230.08H497.412L496.772 231.36L489.412 239L497.412 248H488.852L485.132 243.2H484.732L481.052 248H472.572ZM505.557 248C503.53 248 502.144 247.573 501.397 246.72C500.65 245.867 500.277 244.587 500.277 242.88V235.12H496.997V230.08H498.677C499.13 230.08 499.49 230 499.757 229.84C500.05 229.653 500.237 229.333 500.317 228.88L501.077 224.6H507.637V230.08H514.317V235.12H507.637V241.32C507.637 241.987 507.797 242.427 508.117 242.64C508.437 242.853 508.917 242.96 509.557 242.96H513.557L514.357 247.6C513.797 247.68 512.944 247.773 511.797 247.88C510.65 247.96 509.397 248 508.037 248H505.557ZM525.611 255.84C524.145 255.84 522.811 255.693 521.611 255.4C520.411 255.133 519.585 254.867 519.131 254.6L520.731 249.68C521.531 250.027 522.385 250.293 523.291 250.48C524.225 250.667 525.105 250.76 525.931 250.76H526.371C528.691 250.76 530.371 249.84 531.411 248H528.971L521.131 230.08H529.171L532.611 240.72L533.211 243.16H533.611L534.211 240.72L537.691 230.08H545.611L544.971 232.52C544.465 233.56 543.878 234.76 543.211 236.12C542.571 237.453 541.905 238.84 541.211 240.28C540.518 241.72 539.838 243.107 539.171 244.44C538.531 245.773 537.958 246.96 537.451 248C536.145 250.667 534.638 252.64 532.931 253.92C531.225 255.2 529.145 255.84 526.691 255.84H525.611ZM552.925 248C551.165 248 549.805 247.747 548.845 247.24C547.911 246.733 547.271 246.04 546.925 245.16C546.578 244.253 546.405 243.213 546.405 242.04V236C546.405 234.933 546.578 233.96 546.925 233.08C547.298 232.173 547.951 231.453 548.885 230.92C549.818 230.36 551.165 230.08 552.925 230.08H561.205C563.285 230.08 564.871 230.333 565.965 230.84C567.085 231.32 567.845 232.013 568.245 232.92C568.671 233.8 568.885 234.827 568.885 236V241.12H561.885C559.485 241.12 557.658 241.067 556.405 240.96C555.178 240.853 554.311 240.787 553.805 240.76V241.36C553.778 242.427 554.418 242.96 555.725 242.96H556.965C559.098 242.96 561.071 242.92 562.885 242.84C564.698 242.733 566.045 242.64 566.925 242.56L569.325 246.36C569.325 246.627 569.098 246.88 568.645 247.12C568.191 247.36 567.391 247.573 566.245 247.76C565.125 247.92 563.525 248 561.445 248H552.925ZM553.805 237.28H561.485V236.72C561.485 236.187 561.431 235.813 561.325 235.6C561.245 235.387 560.965 235.253 560.485 235.2C560.005 235.147 559.191 235.12 558.045 235.12H555.725C554.445 235.12 553.805 235.653 553.805 236.72V237.28ZM577.688 248C575.341 248 573.661 247.56 572.648 246.68C571.635 245.8 571.128 244.333 571.128 242.28C571.128 240.387 571.648 239.013 572.688 238.16C573.755 237.307 575.421 236.88 577.688 236.88H578.928C580.421 236.88 581.848 236.933 583.208 237.04C584.568 237.147 585.741 237.253 586.728 237.36V236.72C586.728 236.347 586.648 235.987 586.488 235.64C586.328 235.293 585.768 235.12 584.808 235.12H582.808C579.901 235.12 577.661 235.173 576.088 235.28C574.515 235.36 573.541 235.44 573.168 235.52L572.728 231.28C572.728 231.013 573.195 230.8 574.128 230.64C575.061 230.453 576.341 230.32 577.968 230.24C579.595 230.133 581.448 230.08 583.528 230.08H587.528C589.288 230.08 590.635 230.347 591.568 230.88C592.501 231.387 593.141 232.08 593.488 232.96C593.835 233.84 594.008 234.853 594.008 236V248H588.328L586.768 247.2C586.128 247.333 585.101 247.507 583.688 247.72C582.301 247.907 580.701 248 578.888 248H577.688ZM580.008 243.28H585.528C586.115 243.28 586.461 243.227 586.568 243.12C586.675 243.013 586.728 242.68 586.728 242.12V240.72H580.008C579.501 240.72 579.128 240.813 578.888 241C578.648 241.187 578.528 241.547 578.528 242.08C578.528 242.587 578.648 242.92 578.888 243.08C579.128 243.213 579.501 243.28 580.008 243.28ZM597.003 248V230.08H602.683L604.203 230.88C605.43 230.08 607.056 229.68 609.083 229.68C610.416 229.68 611.59 229.827 612.603 230.12C613.616 230.387 614.43 230.68 615.043 231C615.683 231.32 616.083 231.547 616.243 231.68L614.243 236.88C613.976 236.693 613.47 236.44 612.723 236.12C612.003 235.8 611.15 235.507 610.163 235.24C609.176 234.947 608.136 234.8 607.043 234.8H606.603C605.856 234.8 605.283 234.933 604.883 235.2C604.483 235.44 604.283 235.987 604.283 236.84V248H597.003ZM620.673 248C617.979 248 616.633 246.853 616.633 244.56C616.633 243.28 616.966 242.4 617.633 241.92C618.326 241.413 619.339 241.16 620.673 241.16C622.086 241.16 623.113 241.413 623.753 241.92C624.419 242.4 624.753 243.28 624.753 244.56C624.753 246.853 623.393 248 620.673 248Z" fill="#FFB400"/>
<defs>
<filter id="filter0_d_1162_10730" x="0.298314" y="0.233544" width="1049.4" height="319.404" filterUnits="userSpaceOnUse" color-interpolation-filters="sRGB">
<feFlood flood-opacity="0" result="BackgroundImageFix"/>
<feColorMatrix in="SourceAlpha" type="matrix" values="0 0 0 0 0 0 0 0 0 0 0 0 0 0 0 0 0 0 127 0" result="hardAlpha"/>
<feOffset dy="2.93572"/>
<feGaussianBlur stdDeviation="4.40358"/>
<feComposite in2="hardAlpha" operator="out"/>
<feColorMatrix type="matrix" values="0 0 0 0 1 0 0 0 0 1 0 0 0 0 1 0 0 0 0.25 0"/>
<feBlend mode="normal" in2="BackgroundImageFix" result="effect1_dropShadow_1162_10730"/>
<feBlend mode="normal" in="SourceGraphic" in2="effect1_dropShadow_1162_10730" result="shape"/>
</filter>
<radialGradient id="paint0_radial_1162_10730" cx="0" cy="0" r="1" gradientUnits="userSpaceOnUse" gradientTransform="translate(524.997 157) rotate(90) scale(149 513.997)">
<stop stop-color="#1B256A"/>
<stop offset="0.0001" stop-color="#246CA4"/>
<stop offset="1" stop-color="#1B2469"/>
</radialGradient>
</defs>
</svg>
