<svg width="469" height="545" viewBox="0 0 469 545" fill="none" xmlns="http://www.w3.org/2000/svg">
<circle cx="233.461" cy="311.736" r="231.461" fill="url(#paint0_radial_1848_29401)" stroke="#FFB400" stroke-width="2"/>
<path d="M6.59607 336.274C2.00425 304.132 4.61585 226.674 51.7968 173.982" stroke="#FFB400" stroke-width="10" stroke-linecap="round"/>
<path d="M177.928 91.7587C204.905 83.0056 274.614 74.195 337.637 108.978" stroke="#FFB400" stroke-width="10" stroke-linecap="round"/>
<path d="M434.928 207.559C448.847 225.208 473.241 277.039 459.465 343.161" stroke="#FFB400" stroke-width="10" stroke-linecap="round"/>
<path d="M38.8828 430.98C53.3757 458.675 98.0312 516.474 160.709 526.117" stroke="#FFB400" stroke-width="10" stroke-linecap="round"/>
<path d="M293.729 531.282C320.132 527.695 381.978 505.626 418.138 446.047" stroke="#FFB400" stroke-width="10" stroke-linecap="round"/>
<path d="M164.439 365V349.252L164.129 346.772H171.631L177.087 357.622L182.667 346.772H189.766V365H183.845V354.553H183.504L182.202 357.901L179.939 363.14H174.297L171.941 357.901L170.67 354.553H170.36V365H164.439ZM195.975 365V346.772H215.877V350.988H202.02V353.561H212.281V357.87H202.02V360.753H215.381L217.241 364.659C217.241 364.742 216.962 364.824 216.404 364.907C215.846 364.969 214.885 365 213.521 365H195.975ZM227.103 365V350.957H219.725V346.741H240.588V350.957H233.117V365H227.103ZM244.925 365V346.772H250.877V365H244.925ZM263.046 365C260.855 365 259.254 364.514 258.241 363.543C257.249 362.551 256.753 360.98 256.753 358.831V352.91C256.753 350.802 257.249 349.252 258.241 348.26C259.233 347.268 260.835 346.772 263.046 346.772H272.098C274.268 346.772 275.849 347.268 276.841 348.26C277.854 349.252 278.36 350.802 278.36 352.91V358.831C278.36 360.98 277.854 362.551 276.841 363.543C275.828 364.514 274.247 365 272.098 365H263.046ZM265.185 360.784H269.99C271.602 360.784 272.408 360.05 272.408 358.583V353.158C272.408 351.711 271.602 350.988 269.99 350.988H265.185C264.358 350.988 263.738 351.153 263.325 351.484C262.912 351.815 262.705 352.373 262.705 353.158V358.583C262.705 359.348 262.912 359.906 263.325 360.257C263.738 360.608 264.358 360.784 265.185 360.784ZM280.829 365L282.007 363.14L288.579 355.886L280.829 346.772H288.61L292.423 352.383H292.764L296.577 346.772H304.358L303.149 348.601L296.608 355.886L304.358 365H296.577L292.764 359.358H292.423L288.61 365H280.829Z" fill="#FFB400"/>
<path d="M177.283 439V430.674H175.857V428.719H177.283V426.672C177.283 426.151 177.383 425.668 177.582 425.223C177.797 424.778 178.142 424.418 178.617 424.142C179.108 423.866 179.752 423.728 180.549 423.728H181.699C183.539 423.728 184.858 423.812 185.655 423.981C186.468 424.15 186.874 424.295 186.874 424.418L186.184 426.166C185.923 426.059 185.456 425.959 184.781 425.867C184.106 425.76 183.294 425.706 182.343 425.706H181.193C180.81 425.706 180.526 425.775 180.342 425.913C180.173 426.051 180.089 426.289 180.089 426.626V428.719H184.873V430.674H180.089V439H177.283ZM190.588 439C189.561 439 188.794 438.793 188.288 438.379C187.797 437.965 187.552 437.29 187.552 436.355V431.64C187.552 431.41 187.567 431.134 187.598 430.812C187.644 430.475 187.751 430.145 187.92 429.823C188.104 429.501 188.403 429.233 188.817 429.018C189.246 428.803 189.837 428.696 190.588 428.696H196.936C197.703 428.696 198.293 428.803 198.707 429.018C199.121 429.233 199.412 429.501 199.581 429.823C199.765 430.145 199.872 430.475 199.903 430.812C199.949 431.134 199.972 431.41 199.972 431.64V436.056C199.972 436.332 199.949 436.639 199.903 436.976C199.872 437.313 199.765 437.635 199.581 437.942C199.397 438.249 199.098 438.502 198.684 438.701C198.27 438.9 197.687 439 196.936 439H190.588ZM191.462 437.022H196.062C196.813 437.022 197.189 436.715 197.189 436.102V431.594C197.189 430.981 196.813 430.674 196.062 430.674H191.462C190.726 430.674 190.358 430.981 190.358 431.594V436.102C190.358 436.715 190.726 437.022 191.462 437.022ZM203.414 439V428.696H205.3L206.174 429.156C206.573 428.941 207.002 428.773 207.462 428.65C207.922 428.527 208.505 428.466 209.21 428.466C210.329 428.466 211.234 428.589 211.924 428.834C212.629 429.079 213.097 429.263 213.327 429.386L212.522 431.387C212.338 431.295 212.031 431.18 211.602 431.042C211.188 430.889 210.697 430.751 210.13 430.628C209.563 430.505 208.942 430.444 208.267 430.444H208.014C207.278 430.444 206.795 430.59 206.565 430.881C206.35 431.172 206.235 431.655 206.22 432.33V439H203.414ZM226.269 439C225.181 439 224.33 438.847 223.716 438.54C223.103 438.233 222.674 437.773 222.428 437.16C222.183 436.547 222.06 435.788 222.06 434.883V429.754C222.06 428.282 222.39 427.201 223.049 426.511C223.709 425.806 224.782 425.453 226.269 425.453H233.192C234.25 425.453 235.055 425.514 235.607 425.637C236.175 425.744 236.458 425.859 236.458 425.982L235.998 427.891C235.738 427.845 234.963 427.799 233.675 427.753C232.403 427.692 230.547 427.661 228.109 427.661H226.936C225.71 427.661 225.096 428.205 225.096 429.294V435.159C225.096 435.68 225.227 436.087 225.487 436.378C225.763 436.654 226.246 436.792 226.936 436.792H227.879C230.425 436.792 232.395 436.769 233.79 436.723C235.201 436.662 236.075 436.6 236.412 436.539L237.355 438.057C237.355 438.134 237.225 438.249 236.964 438.402C236.719 438.555 236.259 438.693 235.584 438.816C234.91 438.939 233.936 439 232.663 439H226.269ZM240.342 439V426.258L240.112 424.418H243.148V439H240.342ZM249.794 439C248.629 439 247.786 438.732 247.264 438.195C246.743 437.643 246.482 436.892 246.482 435.941C246.482 434.944 246.751 434.178 247.287 433.641C247.839 433.104 248.675 432.836 249.794 432.836H250.967C252.117 432.836 253.152 432.867 254.072 432.928C254.992 432.989 255.751 433.051 256.349 433.112V431.594C256.349 431.456 256.334 431.318 256.303 431.18C256.273 431.027 256.181 430.904 256.027 430.812C255.874 430.72 255.613 430.674 255.245 430.674H254.095C252.424 430.674 251.029 430.705 249.909 430.766C248.79 430.812 248.031 430.858 247.632 430.904L247.379 429.156C247.379 428.941 247.962 428.811 249.127 428.765C250.293 428.719 252.24 428.696 254.969 428.696H256.119C256.886 428.696 257.476 428.803 257.89 429.018C258.304 429.233 258.596 429.501 258.764 429.823C258.948 430.145 259.056 430.475 259.086 430.812C259.132 431.134 259.155 431.41 259.155 431.64V439H257.269L256.372 438.54C255.728 438.647 254.954 438.755 254.049 438.862C253.145 438.954 252.11 439 250.944 439H249.794ZM250.392 437.022H255.659C255.997 437.022 256.196 436.991 256.257 436.93C256.319 436.869 256.349 436.677 256.349 436.355V434.584H250.392C249.978 434.584 249.687 434.684 249.518 434.883C249.365 435.082 249.288 435.397 249.288 435.826C249.288 436.255 249.38 436.562 249.564 436.746C249.748 436.93 250.024 437.022 250.392 437.022ZM265.328 439C264.301 439 263.572 438.946 263.143 438.839C262.714 438.732 262.499 438.624 262.499 438.517L263.189 436.792C263.634 436.838 264.446 436.892 265.627 436.953C266.823 436.999 268.295 437.022 270.043 437.022H271.193C271.576 437.022 271.814 436.922 271.906 436.723C272.013 436.508 272.067 436.225 272.067 435.872C272.067 435.519 272.006 435.236 271.883 435.021C271.776 434.806 271.546 434.699 271.193 434.699H265.535C264.462 434.699 263.687 434.5 263.212 434.101C262.737 433.687 262.499 433.074 262.499 432.261V431.341C262.499 431.126 262.522 430.873 262.568 430.582C262.614 430.291 262.729 429.999 262.913 429.708C263.097 429.417 263.396 429.179 263.81 428.995C264.224 428.796 264.799 428.696 265.535 428.696H271.883C272.803 428.696 273.455 428.75 273.838 428.857C274.221 428.964 274.413 429.072 274.413 429.179L274.183 430.904C273.738 430.858 272.918 430.812 271.722 430.766C270.526 430.705 269.062 430.674 267.329 430.674H266.179C265.796 430.674 265.55 430.781 265.443 430.996C265.351 431.195 265.305 431.433 265.305 431.709C265.305 432 265.351 432.246 265.443 432.445C265.55 432.629 265.796 432.721 266.179 432.721H271.837C272.88 432.721 273.646 432.936 274.137 433.365C274.628 433.794 274.873 434.339 274.873 434.998V436.355C274.873 436.631 274.85 436.922 274.804 437.229C274.773 437.536 274.666 437.827 274.482 438.103C274.298 438.364 273.999 438.578 273.585 438.747C273.171 438.916 272.588 439 271.837 439H265.328ZM280.915 439C279.888 439 279.159 438.946 278.73 438.839C278.301 438.732 278.086 438.624 278.086 438.517L278.776 436.792C279.221 436.838 280.033 436.892 281.214 436.953C282.41 436.999 283.882 437.022 285.63 437.022H286.78C287.163 437.022 287.401 436.922 287.493 436.723C287.6 436.508 287.654 436.225 287.654 435.872C287.654 435.519 287.593 435.236 287.47 435.021C287.363 434.806 287.133 434.699 286.78 434.699H281.122C280.049 434.699 279.274 434.5 278.799 434.101C278.324 433.687 278.086 433.074 278.086 432.261V431.341C278.086 431.126 278.109 430.873 278.155 430.582C278.201 430.291 278.316 429.999 278.5 429.708C278.684 429.417 278.983 429.179 279.397 428.995C279.811 428.796 280.386 428.696 281.122 428.696H287.47C288.39 428.696 289.042 428.75 289.425 428.857C289.808 428.964 290 429.072 290 429.179L289.77 430.904C289.325 430.858 288.505 430.812 287.309 430.766C286.113 430.705 284.649 430.674 282.916 430.674H281.766C281.383 430.674 281.137 430.781 281.03 430.996C280.938 431.195 280.892 431.433 280.892 431.709C280.892 432 280.938 432.246 281.03 432.445C281.137 432.629 281.383 432.721 281.766 432.721H287.424C288.467 432.721 289.233 432.936 289.724 433.365C290.215 433.794 290.46 434.339 290.46 434.998V436.355C290.46 436.631 290.437 436.922 290.391 437.229C290.36 437.536 290.253 437.827 290.069 438.103C289.885 438.364 289.586 438.578 289.172 438.747C288.758 438.916 288.175 439 287.424 439H280.915ZM173.851 467C172.548 467 171.605 466.931 171.022 466.793C170.439 466.655 170.064 466.494 169.895 466.31L170.792 464.539C171.037 464.57 171.444 464.608 172.011 464.654C172.578 464.7 173.376 464.738 174.403 464.769C175.446 464.784 176.787 464.792 178.428 464.792C178.919 464.792 179.287 464.708 179.532 464.539C179.793 464.37 179.969 464.163 180.061 463.918C180.168 463.657 180.222 463.404 180.222 463.159V461.664C180.084 461.679 179.708 461.718 179.095 461.779C178.497 461.825 177.562 461.848 176.289 461.848H173.782C172.233 461.848 171.145 461.526 170.516 460.882C169.903 460.223 169.596 459.226 169.596 457.892V457.57C169.596 457.11 169.627 456.642 169.688 456.167C169.765 455.676 169.933 455.232 170.194 454.833C170.455 454.434 170.869 454.112 171.436 453.867C172.003 453.606 172.778 453.476 173.759 453.476H179.072C180.115 453.476 180.92 453.622 181.487 453.913C182.054 454.204 182.461 454.572 182.706 455.017C182.967 455.462 183.12 455.914 183.166 456.374C183.227 456.834 183.258 457.233 183.258 457.57V462.883C183.258 463.19 183.227 463.573 183.166 464.033C183.12 464.493 182.974 464.953 182.729 465.413C182.484 465.858 182.07 466.233 181.487 466.54C180.92 466.847 180.115 467 179.072 467H173.851ZM174.449 459.824H180.222V457.294C180.222 456.865 180.076 456.489 179.785 456.167C179.509 455.845 179.057 455.684 178.428 455.684H174.449C173.744 455.684 173.261 455.86 173 456.213C172.755 456.566 172.632 456.926 172.632 457.294V458.168C172.632 458.689 172.747 459.096 172.977 459.387C173.207 459.678 173.698 459.824 174.449 459.824ZM191.391 467C190.226 467 189.429 466.755 188.999 466.264C188.57 465.773 188.355 465.037 188.355 464.056V458.674H186.469V456.696H187.435C187.727 456.696 187.934 456.65 188.056 456.558C188.194 456.466 188.294 456.282 188.355 456.006L188.815 453.545H191.161V456.696H195.945V458.674H191.161V464.079C191.161 464.462 191.253 464.715 191.437 464.838C191.621 464.961 191.897 465.022 192.265 465.022H195.508L195.738 466.77C195.416 466.816 194.926 466.87 194.266 466.931C193.607 466.977 192.886 467 192.104 467H191.391ZM198.709 467V452.096H201.515V457.156C202.159 457.033 202.933 456.926 203.838 456.834C204.743 456.742 205.778 456.696 206.943 456.696H208.093C208.86 456.696 209.45 456.803 209.864 457.018C210.278 457.233 210.569 457.501 210.738 457.823C210.922 458.145 211.029 458.475 211.06 458.812C211.106 459.134 211.129 459.41 211.129 459.64V467H208.323V459.594C208.323 458.981 207.955 458.674 207.219 458.674H202.205C201.914 458.674 201.722 458.705 201.63 458.766C201.553 458.812 201.515 458.95 201.515 459.18V467H198.709ZM235.371 467.23C234.574 467.23 233.907 467.107 233.37 466.862C232.833 466.617 232.297 466.272 231.76 465.827C231.484 466.011 231.154 466.195 230.771 466.379C230.403 466.548 229.905 466.693 229.276 466.816C228.647 466.923 227.827 466.977 226.815 466.977H224.883C223.932 466.977 223.181 466.824 222.629 466.517C222.092 466.21 221.709 465.781 221.479 465.229C221.249 464.677 221.134 464.033 221.134 463.297V462.515C221.134 461.319 221.372 460.399 221.847 459.755C222.322 459.111 223.005 458.689 223.894 458.49C223.725 458.275 223.557 457.992 223.388 457.639C223.235 457.271 223.158 456.826 223.158 456.305V455.983C223.158 455.615 223.258 455.239 223.457 454.856C223.672 454.457 224.017 454.128 224.492 453.867C224.967 453.591 225.619 453.453 226.447 453.453H228.839C229.606 453.453 230.196 453.545 230.61 453.729C231.024 453.898 231.315 454.12 231.484 454.396C231.668 454.672 231.775 454.956 231.806 455.247C231.852 455.538 231.875 455.799 231.875 456.029V456.88C231.875 457.141 231.798 457.332 231.645 457.455C231.507 457.562 231.315 457.616 231.07 457.616H229.115V456.489C229.115 456.228 229.054 456.029 228.931 455.891C228.808 455.738 228.594 455.661 228.287 455.661H227.16C226.823 455.661 226.577 455.738 226.424 455.891C226.286 456.029 226.217 456.228 226.217 456.489C226.217 456.918 226.309 457.263 226.493 457.524C226.677 457.769 227.007 458.068 227.482 458.421C228.034 458.804 228.578 459.195 229.115 459.594C229.667 459.977 230.181 460.384 230.656 460.813C230.901 461.028 231.17 461.281 231.461 461.572C231.752 461.848 232.021 462.109 232.266 462.354C232.511 462.599 232.672 462.768 232.749 462.86L232.979 462.699V458.605L236.222 458.835V460.767C236.222 461.089 236.176 461.373 236.084 461.618C236.007 461.863 235.839 462.116 235.578 462.377C235.333 462.622 235.087 462.868 234.842 463.113C234.597 463.358 234.351 463.604 234.106 463.849C234.643 464.37 235.21 464.746 235.808 464.976C236.421 465.206 236.927 465.321 237.326 465.321L237.05 466.977C236.927 467.038 236.713 467.092 236.406 467.138C236.115 467.199 235.77 467.23 235.371 467.23ZM225.665 464.47H228.54C229.169 464.47 229.606 464.416 229.851 464.309C230.112 464.202 230.257 464.133 230.288 464.102C229.905 463.734 229.445 463.282 228.908 462.745C228.371 462.208 227.766 461.664 227.091 461.112C226.508 460.637 225.956 460.399 225.435 460.399C225.036 460.399 224.707 460.537 224.446 460.813C224.201 461.074 224.078 461.434 224.078 461.894V462.86C224.078 463.427 224.201 463.841 224.446 464.102C224.691 464.347 225.098 464.47 225.665 464.47ZM248.054 467V455.684L245.294 455.891L245.133 453.936L251.09 453.246V467H248.054ZM259.908 467C258.834 467 257.991 466.847 257.378 466.54C256.764 466.233 256.327 465.773 256.067 465.16C255.821 464.547 255.699 463.788 255.699 462.883V457.57C255.699 456.681 255.821 455.937 256.067 455.339C256.312 454.726 256.741 454.266 257.355 453.959C257.968 453.637 258.819 453.476 259.908 453.476H265.221C266.294 453.476 267.13 453.637 267.728 453.959C268.341 454.266 268.77 454.726 269.016 455.339C269.276 455.937 269.407 456.681 269.407 457.57V462.883C269.407 464.232 269.108 465.26 268.51 465.965C267.912 466.655 266.815 467 265.221 467H259.908ZM260.575 464.792H264.577C265.144 464.792 265.581 464.646 265.888 464.355C266.21 464.064 266.371 463.665 266.371 463.159V457.294C266.371 456.849 266.21 456.474 265.888 456.167C265.566 455.845 265.129 455.684 264.577 455.684H260.575C260.023 455.684 259.578 455.83 259.241 456.121C258.903 456.412 258.735 456.803 258.735 457.294V463.159C258.735 463.68 258.896 464.087 259.218 464.378C259.555 464.654 260.007 464.792 260.575 464.792ZM277.545 467C276.38 467 275.583 466.755 275.153 466.264C274.724 465.773 274.509 465.037 274.509 464.056V458.674H272.623V456.696H273.589C273.881 456.696 274.088 456.65 274.21 456.558C274.348 456.466 274.448 456.282 274.509 456.006L274.969 453.545H277.315V456.696H282.099V458.674H277.315V464.079C277.315 464.462 277.407 464.715 277.591 464.838C277.775 464.961 278.051 465.022 278.419 465.022H281.662L281.892 466.77C281.57 466.816 281.08 466.87 280.42 466.931C279.761 466.977 279.04 467 278.258 467H277.545ZM284.863 467V452.096H287.669V457.156C288.313 457.033 289.087 456.926 289.992 456.834C290.896 456.742 291.931 456.696 293.097 456.696H294.247C295.013 456.696 295.604 456.803 296.018 457.018C296.432 457.233 296.723 457.501 296.892 457.823C297.076 458.145 297.183 458.475 297.214 458.812C297.26 459.134 297.283 459.41 297.283 459.64V467H294.477V459.594C294.477 458.981 294.109 458.674 293.373 458.674H288.359C288.067 458.674 287.876 458.705 287.784 458.766C287.707 458.812 287.669 458.95 287.669 459.18V467H284.863Z" fill="white"/>
<path d="M234.159 253.499C233.184 253.516 232.132 253.582 231.017 253.694C219.077 254.871 200.556 260.997 200.556 260.997L179.491 291.624C178.918 292.453 178.085 293.068 177.124 293.373C176.163 293.677 175.128 293.654 174.182 293.307C157.898 287.281 143.609 279.628 131.674 270.037C130.93 269.44 130.393 268.623 130.142 267.702C129.891 266.781 129.937 265.804 130.275 264.912C130.536 264.229 130.842 263.463 131.192 262.636C133.152 258.085 136.573 251.856 141.505 248.913C149.769 243.987 160.853 250.647 160.853 250.647C160.853 250.647 175.659 228.922 180.518 223.508C185.376 218.093 201.718 211.432 201.718 211.432L230.918 232.074C230.918 232.074 245.638 253.316 234.159 253.499Z" fill="#F8F8F8"/>
<path d="M336.8 224.821C336.765 228.431 335.512 231.924 333.246 234.734C327.926 241.344 316.369 251.928 297.837 250.295C293.594 249.923 289.862 246.985 286.585 242.315C269.23 217.618 264.516 144.373 264.516 144.373L288.534 124.658C288.534 124.658 311.998 125.485 320.609 133.194C324.369 136.56 328.123 147.722 331.072 162.577C332.538 169.963 333.81 178.266 334.777 186.98C335.548 193.915 336.126 201.102 336.465 208.293C336.733 213.842 336.841 219.39 336.8 224.821Z" fill="#F8F8F8"/>
<path d="M301.642 252.467C300.35 252.467 299.024 252.408 297.663 252.289C285.608 251.227 276.037 232.567 269.216 196.829C264.251 170.822 262.536 144.762 262.52 144.502C262.499 144.238 262.531 143.972 262.614 143.719C262.697 143.467 262.829 143.234 263.003 143.033C263.177 142.833 263.388 142.669 263.626 142.551C263.864 142.433 264.123 142.363 264.388 142.346C264.653 142.329 264.918 142.365 265.169 142.452C265.42 142.538 265.651 142.674 265.849 142.851C266.047 143.027 266.208 143.242 266.323 143.481C266.437 143.721 266.503 143.98 266.516 144.245C266.533 144.503 268.235 170.343 273.155 196.11C279.418 228.905 288.246 247.44 298.015 248.3C315.671 249.852 326.69 239.682 331.688 233.481C333.669 231.02 334.765 227.964 334.799 224.804C335.142 184.065 326.549 141.202 319.273 134.687C311.307 127.553 288.696 126.668 288.468 126.66C287.938 126.642 287.436 126.413 287.074 126.024C286.712 125.636 286.519 125.119 286.537 124.589C286.556 124.058 286.785 123.556 287.173 123.194C287.562 122.832 288.078 122.639 288.609 122.657C289.597 122.692 312.9 123.605 321.944 131.704C330.945 139.764 339.139 185.025 338.804 224.838C338.761 228.901 337.353 232.833 334.806 235.999C329.692 242.341 318.833 252.465 301.642 252.467Z" fill="#371A45"/>
<path d="M336.466 208.295C328.963 213.138 315.929 216.621 310.893 212.821L311.525 186.12L311.851 172.709C311.851 172.709 321.269 165.789 331.076 162.579C335.608 161.097 338.135 167.738 339.612 176.016C339.629 176.116 339.645 176.227 339.668 176.341C341.334 185.916 341.628 197.534 341.995 201.299C342.208 203.53 339.925 206.057 336.466 208.295Z" fill="#F8F8F8"/>
<path d="M317.117 216.435C314.191 216.435 311.574 215.85 309.676 214.418C309.26 214.095 308.989 213.621 308.92 213.1C308.851 212.578 308.989 212.051 309.306 211.631C309.623 211.211 310.093 210.932 310.613 210.856C311.134 210.779 311.663 210.91 312.088 211.221C315.534 213.822 325.66 212.118 333.76 207.576C338.203 205.083 340.105 202.676 339.989 201.491C339.887 200.449 339.794 198.89 339.677 196.91C339.206 188.982 337.954 167.924 333.163 164.663C332.694 164.345 332.267 164.291 331.687 164.481C322.313 167.55 313.112 174.253 313.02 174.32C312.808 174.481 312.567 174.597 312.31 174.663C312.053 174.729 311.785 174.744 311.522 174.706C311.259 174.667 311.007 174.577 310.779 174.44C310.552 174.304 310.354 174.123 310.197 173.909C310.04 173.695 309.927 173.452 309.864 173.194C309.802 172.936 309.792 172.668 309.834 172.406C309.876 172.144 309.97 171.893 310.11 171.667C310.25 171.442 310.434 171.246 310.65 171.092C311.045 170.802 320.446 163.947 330.442 160.674C332.199 160.1 333.92 160.334 335.416 161.353C341.339 165.383 342.785 181.698 343.674 196.672C343.789 198.607 343.879 200.134 343.975 201.101C344.294 204.365 341.363 207.905 335.72 211.07C330.797 213.83 323.285 216.435 317.117 216.435Z" fill="#371A45"/>
<g opacity="0.25">
<path d="M336.463 208.292C336.73 213.84 336.846 219.388 336.801 224.819C336.766 228.43 335.514 231.922 333.247 234.732C327.927 241.343 316.37 251.926 297.838 250.293C293.595 249.922 289.863 246.984 286.586 242.313C286.892 231.495 288.402 230.701 289.602 220.188C290.896 208.793 293.117 201.389 294.6 199.724L311.521 186.117L312.333 185.467C312.333 185.467 312.932 191.809 321.629 191.509C326.094 191.353 331.132 189.732 334.775 186.977C338.228 184.361 340.423 180.724 339.662 176.336C341.327 185.911 341.622 197.528 341.988 201.294C342.205 203.527 339.922 206.054 336.463 208.292Z" fill="#371A45"/>
</g>
<path d="M337.456 170.179C334.365 171.124 331.238 172.194 328.245 173.418C326.192 174.32 323.815 175.219 322.245 176.717C322.17 176.79 322.151 176.842 322.093 176.905C322.093 176.944 322.065 176.931 322.053 176.971C321.955 177.463 321.889 177.96 321.856 178.461C321.673 181.68 321.77 185.019 321.856 188.315C321.957 191.623 322.097 194.931 322.277 198.241C321.778 194.965 321.315 191.682 320.887 188.392C320.481 185.09 320.055 181.821 319.912 178.423C319.912 177.881 319.894 177.256 319.974 176.701C320.006 176.248 320.243 175.758 320.502 175.401C322.294 173.21 324.684 172.111 327.004 170.786C330.005 169.203 333.034 167.823 336.167 166.517C338.704 165.571 340.043 169.319 337.46 170.184L337.456 170.179Z" fill="#371A45"/>
<path d="M175.762 295.59C174.987 295.59 174.219 295.452 173.493 295.182C156.627 288.946 142.137 281.01 130.424 271.598C129.348 270.737 128.573 269.557 128.21 268.228C127.847 266.899 127.916 265.488 128.405 264.2C130.197 259.472 134.149 250.98 140.482 247.197C147.735 242.87 156.572 246.274 160.212 248.044C163.663 243.013 174.829 226.855 179.031 222.173C184.14 216.481 200.277 209.856 200.961 209.577C201.452 209.376 202.004 209.378 202.494 209.584C202.984 209.789 203.372 210.181 203.573 210.672C203.774 211.164 203.772 211.716 203.567 212.206C203.361 212.696 202.969 213.084 202.478 213.285C198.052 215.091 185.748 220.691 182.017 224.847C177.301 230.102 162.661 251.562 162.511 251.778C162.224 252.2 161.785 252.496 161.286 252.606C160.787 252.715 160.264 252.629 159.826 252.366C159.728 252.307 149.653 246.391 142.536 250.632C137.244 253.79 133.759 261.374 132.153 265.614C131.964 266.112 131.938 266.657 132.078 267.17C132.219 267.684 132.518 268.139 132.934 268.472C144.312 277.613 158.424 285.335 174.883 291.422C175.411 291.618 175.989 291.632 176.526 291.462C177.063 291.292 177.528 290.947 177.847 290.484L198.913 259.857C199.161 259.497 199.519 259.228 199.934 259.091C200.849 258.789 222.48 251.68 234.129 251.493C235.863 251.464 236.188 250.849 236.288 250.646C237.758 247.785 232.973 238.549 229.276 233.207C229.114 232.992 228.997 232.746 228.933 232.484C228.868 232.222 228.857 231.95 228.901 231.684C228.944 231.418 229.04 231.163 229.184 230.936C229.328 230.708 229.517 230.511 229.738 230.358C229.96 230.205 230.211 230.098 230.475 230.043C230.739 229.989 231.011 229.989 231.275 230.043C231.54 230.096 231.79 230.203 232.012 230.355C232.234 230.508 232.423 230.704 232.568 230.932C234.328 233.472 242.949 246.447 239.85 252.48C239.158 253.828 237.615 255.446 234.193 255.501C224.224 255.661 205.506 261.511 201.828 262.692L181.147 292.757C180.546 293.631 179.742 294.345 178.804 294.839C177.866 295.332 176.822 295.59 175.762 295.59Z" fill="#371A45"/>
<g opacity="0.25">
<path d="M234.948 244.336C234.948 245.585 234.114 246.28 233.142 248.779C232.737 249.818 231.971 251.611 231.02 253.694C219.081 254.871 200.56 260.997 200.56 260.997L179.495 291.624C178.922 292.453 178.089 293.068 177.128 293.373C176.167 293.677 175.132 293.654 174.185 293.307C157.902 287.281 143.613 279.629 131.678 270.037C130.934 269.44 130.397 268.623 130.146 267.702C129.894 266.781 129.941 265.804 130.279 264.912C130.54 264.229 130.846 263.463 131.196 262.636L136.583 265.807C155.298 275.993 168.926 276.703 175.524 264.324C175.524 264.324 188.296 247.109 198.497 240C208.697 232.892 207.321 221.562 207.321 221.562L231.895 241.277C232.726 241.976 234.948 243.087 234.948 244.336Z" fill="#371A45"/>
</g>
<path d="M200.792 262.108C200.659 262.108 200.526 262.092 200.397 262.061C180.064 257.119 167.762 241.208 167.249 240.533C167.116 240.359 167.019 240.16 166.963 239.949C166.908 239.737 166.894 239.517 166.923 239.3C166.953 239.083 167.024 238.874 167.134 238.685C167.244 238.496 167.391 238.331 167.565 238.198C167.739 238.065 167.937 237.969 168.149 237.913C168.36 237.857 168.581 237.843 168.797 237.872C169.014 237.902 169.223 237.974 169.412 238.084C169.601 238.194 169.767 238.34 169.899 238.514C170.034 238.688 182.042 254.17 201.184 258.823C201.58 258.919 201.927 259.157 202.16 259.491C202.393 259.826 202.494 260.234 202.446 260.639C202.398 261.044 202.203 261.417 201.898 261.688C201.593 261.958 201.2 262.108 200.792 262.108V262.108Z" fill="#371A45"/>
<path d="M160.328 219.108C160.328 219.108 176.071 215.876 188.547 206.711L157.887 209.046" fill="#F8F8F8"/>
<g opacity="0.25">
<path d="M160.326 219.108C160.326 219.108 176.069 215.876 188.545 206.711L157.885 209.046" fill="#371A45"/>
</g>
<path d="M160.328 221.111C159.832 221.11 159.354 220.925 158.987 220.593C158.619 220.26 158.388 219.803 158.338 219.31C158.289 218.816 158.423 218.322 158.717 217.923C159.01 217.523 159.441 217.247 159.927 217.147C160.08 217.115 175.404 213.883 187.363 205.098C187.792 204.795 188.322 204.672 188.84 204.756C189.358 204.841 189.822 205.125 190.133 205.547C190.444 205.97 190.576 206.498 190.501 207.018C190.427 207.537 190.151 208.007 189.734 208.325C177.056 217.644 161.393 220.934 160.732 221.069C160.599 221.097 160.464 221.111 160.328 221.111V221.111Z" fill="#371A45"/>
<path d="M289.787 265.067L268.045 293.478C262.627 300.559 252.673 302.441 245.137 297.676C238.451 293.45 232.802 285.559 229.326 277.239C226.717 271.014 225.328 264.545 225.617 259.174C225.734 257.276 226.371 255.447 227.459 253.887L229.692 250.628C229.692 250.628 210.138 244.668 205.928 214.163V206.199C205.928 206.199 195.749 205.522 195.004 204.194C194.26 202.867 184.848 170.474 184.848 170.474C184.848 170.474 197.599 149.731 215.925 141.684C224.566 137.892 236.634 136.436 246.969 135.953C258.554 135.411 267.967 136.103 267.967 136.103L284.26 135.242C284.26 135.242 298.117 139.191 305.519 152.33C312.921 165.469 315.149 188.667 308.485 200.49C317.144 229.946 313.428 252.81 289.787 265.067Z" fill="#F8F8F8"/>
<path d="M254.181 302.277C250.601 302.286 247.092 301.277 244.064 299.367C231.169 291.206 222.94 271.578 223.614 259.066C223.752 256.801 224.511 254.619 225.806 252.756L226.646 251.529C220.998 248.783 207.426 239.665 203.943 214.435C203.93 214.344 203.924 214.253 203.924 214.162V208.06C194.432 207.276 193.674 205.921 193.256 205.172C192.515 203.844 186.462 183.213 182.92 171.038C182.842 170.77 182.82 170.488 182.858 170.211C182.895 169.935 182.99 169.669 183.136 169.431C183.671 168.564 196.432 148.063 215.117 139.856C233.685 131.701 266.711 134.011 268.107 134.113C268.632 134.157 269.119 134.407 269.462 134.808C269.805 135.208 269.976 135.729 269.937 136.255C269.899 136.781 269.655 137.27 269.257 137.617C268.86 137.964 268.342 138.14 267.815 138.107C267.482 138.084 234.381 135.769 216.727 143.526C201.113 150.383 189.459 167.097 187.019 170.798C190.36 182.272 195.516 199.731 196.637 202.901C198.03 203.405 202.426 203.968 206.058 204.211C206.565 204.245 207.04 204.47 207.387 204.841C207.734 205.212 207.928 205.701 207.928 206.209V214.031C211.956 242.815 230.09 248.666 230.273 248.722C230.574 248.813 230.849 248.975 231.076 249.192C231.302 249.41 231.475 249.678 231.579 249.975C231.683 250.271 231.716 250.588 231.674 250.9C231.633 251.212 231.519 251.509 231.341 251.769L229.109 255.026C228.23 256.281 227.712 257.753 227.612 259.282C226.997 270.66 234.819 288.777 246.203 295.983C252.774 300.143 261.667 298.508 266.448 292.262L288.194 263.855C288.373 263.621 288.601 263.43 288.862 263.294C309.885 252.398 315.669 232.04 306.56 201.057C306.485 200.801 306.461 200.531 306.492 200.265C306.522 199.999 306.605 199.742 306.737 199.509C312.665 188.992 311.226 166.545 303.774 153.318C296.884 141.089 283.835 137.207 283.708 137.172C283.197 137.026 282.765 136.684 282.507 136.219C282.249 135.755 282.186 135.207 282.332 134.697C282.478 134.186 282.82 133.754 283.285 133.496C283.749 133.238 284.297 133.175 284.807 133.321C285.406 133.491 299.545 137.656 307.263 151.355C314.488 164.177 317.35 187.714 310.632 200.723C315.099 216.241 315.933 229.005 313.185 239.733C310.186 251.436 302.759 260.487 291.104 266.644L269.63 294.702C265.855 299.627 260.04 302.277 254.181 302.277Z" fill="#371A45"/>
<path d="M220.747 176.336H262.985C264.804 176.336 266.548 177.058 267.833 178.344C269.119 179.63 269.841 181.374 269.841 183.192V208.766C269.841 210.555 269.142 212.273 267.893 213.553C266.644 214.834 264.944 215.576 263.155 215.621L220.917 216.668C220.002 216.691 219.093 216.53 218.241 216.196C217.39 215.862 216.614 215.36 215.959 214.722C215.304 214.083 214.784 213.319 214.429 212.477C214.074 211.634 213.891 210.728 213.891 209.813V183.192C213.891 181.374 214.613 179.63 215.899 178.344C217.184 177.058 218.928 176.336 220.747 176.336V176.336Z" fill="#F8F8F8"/>
<path d="M220.738 218.676C218.39 218.674 216.138 217.739 214.479 216.078C212.819 214.417 211.887 212.164 211.887 209.816V183.193C211.89 180.844 212.824 178.592 214.485 176.932C216.145 175.271 218.397 174.337 220.745 174.334H262.984C265.332 174.337 267.584 175.271 269.245 176.932C270.905 178.592 271.84 180.844 271.843 183.193V208.766C271.856 211.081 270.956 213.309 269.34 214.966C267.723 216.624 265.519 217.578 263.204 217.623L220.965 218.67C220.889 218.674 220.814 218.676 220.738 218.676ZM220.745 178.339C219.459 178.341 218.225 178.852 217.315 179.762C216.405 180.672 215.893 181.906 215.892 183.193V209.816C215.892 210.464 216.021 211.105 216.272 211.702C216.524 212.299 216.892 212.839 217.356 213.291C217.819 213.744 218.368 214.099 218.971 214.335C219.574 214.572 220.218 214.686 220.866 214.67L263.104 213.622C264.373 213.597 265.581 213.074 266.467 212.166C267.353 211.258 267.846 210.037 267.839 208.768V183.195C267.837 181.908 267.325 180.674 266.415 179.764C265.505 178.854 264.271 178.343 262.984 178.341L220.745 178.339Z" fill="#371A45"/>
<path d="M208.573 176.801H250.811C252.63 176.801 254.374 177.524 255.66 178.81C256.945 180.096 257.668 181.84 257.668 183.658V209.231C257.668 211.021 256.969 212.739 255.72 214.02C254.47 215.3 252.77 216.042 250.982 216.086L208.743 217.134C207.829 217.157 206.919 216.996 206.067 216.662C205.216 216.328 204.44 215.826 203.785 215.187C203.131 214.549 202.61 213.785 202.255 212.942C201.9 212.1 201.717 211.194 201.717 210.279V183.658C201.717 182.758 201.894 181.866 202.238 181.034C202.583 180.202 203.088 179.446 203.725 178.809C204.361 178.173 205.117 177.667 205.949 177.323C206.781 176.978 207.672 176.801 208.573 176.801V176.801Z" fill="#F8F8F8"/>
<path d="M237.679 218.36C237.172 218.36 236.685 218.162 236.322 217.808C235.959 217.453 235.749 216.971 235.737 216.464C235.653 213.03 235.551 207.649 235.649 204.876C232.604 204.117 223.471 202.909 215.263 202.058C214.8 202.011 214.37 201.798 214.051 201.46C213.731 201.122 213.543 200.681 213.522 200.216L212.411 176.891C212.393 176.633 212.426 176.373 212.51 176.128C212.593 175.883 212.725 175.657 212.897 175.463C213.069 175.27 213.278 175.113 213.512 175.001C213.745 174.889 213.999 174.825 214.258 174.813C214.516 174.8 214.775 174.84 215.018 174.929C215.261 175.018 215.484 175.155 215.674 175.331C215.864 175.507 216.016 175.72 216.123 175.956C216.229 176.192 216.287 176.447 216.294 176.706L217.325 198.365C237.848 200.545 238.706 201.738 239.226 202.459C239.399 202.696 239.518 202.967 239.578 203.254C239.638 203.54 239.637 203.837 239.574 204.123C239.441 204.971 239.492 211.025 239.623 216.368C239.636 216.883 239.443 217.382 239.088 217.755C238.732 218.129 238.243 218.345 237.728 218.358L237.679 218.36ZM235.779 203.285C235.77 203.327 235.762 203.37 235.756 203.412C235.763 203.364 235.771 203.322 235.779 203.281V203.285Z" fill="#371A45"/>
<path d="M208.567 219.139C206.219 219.137 203.967 218.202 202.307 216.541C200.647 214.88 199.715 212.628 199.715 210.279V183.655C199.718 181.307 200.652 179.055 202.313 177.395C203.973 175.734 206.225 174.8 208.573 174.797H250.812C253.161 174.8 255.412 175.734 257.073 177.395C258.734 179.055 259.668 181.307 259.671 183.655V209.229C259.684 211.544 258.785 213.772 257.168 215.429C255.551 217.087 253.347 218.041 251.032 218.085L208.793 219.133L208.567 219.139ZM208.573 178.802C207.287 178.803 206.053 179.315 205.143 180.225C204.233 181.135 203.721 182.369 203.719 183.655V210.279C203.719 210.927 203.849 211.568 204.1 212.165C204.352 212.761 204.72 213.302 205.184 213.754C205.647 214.206 206.197 214.561 206.799 214.798C207.402 215.035 208.046 215.149 208.694 215.133L250.932 214.085C252.201 214.06 253.409 213.537 254.295 212.629C255.18 211.721 255.673 210.5 255.666 209.231V183.658C255.664 182.371 255.152 181.137 254.242 180.227C253.333 179.317 252.099 178.806 250.812 178.804L208.573 178.802Z" fill="#371A45"/>
<path d="M256.344 201.402L256.189 204.335C256.139 205.248 255.75 206.111 255.098 206.752C254.445 207.394 253.576 207.768 252.662 207.802L198.92 209.718L124.637 212.373C124.155 212.39 123.674 212.312 123.222 212.142C122.77 211.973 122.356 211.716 122.003 211.386C121.651 211.057 121.367 210.66 121.168 210.221C120.969 209.781 120.859 209.306 120.844 208.824L120.75 205.776C120.732 205.209 120.846 204.645 121.084 204.131C121.322 203.616 121.677 203.163 122.121 202.81H122.127C122.738 202.31 123.497 202.025 124.287 201.999L198.371 199.428H198.521L252.557 197.551C253.064 197.533 253.57 197.621 254.042 197.81C254.513 197.998 254.941 198.282 255.297 198.644C255.653 199.006 255.93 199.438 256.11 199.913C256.29 200.388 256.37 200.895 256.344 201.402V201.402Z" fill="#BCC4CC"/>
<g opacity="0.61">
<path d="M256.339 201.402L256.231 203.435C256.024 202.623 255.546 201.906 254.876 201.403C254.206 200.9 253.384 200.641 252.547 200.67L198.569 202.547L198.492 199.426L252.555 197.549C253.063 197.532 253.568 197.62 254.04 197.809C254.511 197.997 254.939 198.282 255.294 198.644C255.65 199.006 255.927 199.438 256.107 199.913C256.286 200.388 256.366 200.895 256.339 201.402V201.402Z" fill="#CEB7FF"/>
</g>
<path d="M199.033 209.442L198.91 209.431L122.128 202.811H122.121L119.207 196.431L97.0388 147.937C96.755 147.32 96.6419 146.638 96.7113 145.962C96.7806 145.286 97.03 144.641 97.4332 144.094L99.1551 141.75C99.4906 141.297 99.9224 140.924 100.419 140.658C100.916 140.392 101.466 140.24 102.029 140.212L166.383 136.807C168.519 136.693 170.636 137.255 172.434 138.414C174.231 139.573 175.618 141.268 176.396 143.26L176.529 143.594L198.372 199.434L198.749 205.171L199.033 209.442Z" fill="#BCC4CC"/>
<g opacity="0.61">
<path d="M198.429 200.353L177.503 146.861C176.724 144.869 175.338 143.174 173.54 142.015C171.743 140.857 169.626 140.294 167.49 140.408L103.136 143.816C102.573 143.845 102.023 143.999 101.527 144.266C101.031 144.533 100.6 144.907 100.265 145.361L98.5433 147.703C98.1277 148.267 97.876 148.934 97.8162 149.631L97.0349 147.937C96.7511 147.32 96.638 146.638 96.7074 145.962C96.7767 145.286 97.026 144.641 97.4293 144.094L99.1512 141.75C99.4867 141.297 99.9185 140.924 100.415 140.658C100.912 140.392 101.462 140.24 102.025 140.212L166.379 136.807C168.515 136.693 170.632 137.255 172.43 138.414C174.227 139.573 175.614 141.268 176.392 143.26L198.368 199.434L198.429 200.353Z" fill="#CEB7FF"/>
</g>
<path d="M124.5 214.073C123.109 214.071 121.773 213.529 120.775 212.56C119.777 211.591 119.194 210.272 119.151 208.882L119.055 205.83C119.012 204.413 119.532 203.036 120.501 202.001C121.469 200.966 122.808 200.355 124.225 200.304L252.496 195.849C253.238 195.823 253.978 195.952 254.668 196.228C255.358 196.503 255.983 196.919 256.503 197.449C257.024 197.979 257.429 198.611 257.692 199.306C257.955 200 258.071 200.742 258.032 201.484L257.879 204.416C257.816 205.756 257.249 207.022 256.293 207.963C255.337 208.904 254.061 209.449 252.72 209.491L124.697 214.064C124.632 214.072 124.565 214.073 124.5 214.073ZM124.343 203.695C123.823 203.715 123.331 203.939 122.975 204.319C122.62 204.699 122.428 205.205 122.444 205.725L122.538 208.777C122.546 209.036 122.605 209.291 122.712 209.527C122.819 209.764 122.972 209.976 123.161 210.153C123.351 210.331 123.574 210.469 123.817 210.559C124.06 210.65 124.318 210.692 124.577 210.683L252.6 206.11C253.093 206.094 253.562 205.894 253.913 205.548C254.265 205.202 254.473 204.736 254.496 204.244L254.65 201.311C254.665 201.039 254.623 200.766 254.526 200.511C254.429 200.255 254.28 200.023 254.088 199.829C253.898 199.632 253.669 199.478 253.415 199.377C253.161 199.275 252.888 199.229 252.615 199.241L124.343 203.695Z" fill="#371A45"/>
<path d="M199.031 211.136C198.601 211.135 198.187 210.972 197.873 210.678C197.56 210.384 197.37 209.982 197.341 209.553L196.698 199.8L174.817 143.87C174.168 142.21 173.013 140.796 171.515 139.831C170.017 138.865 168.253 138.395 166.473 138.49L102.12 141.893C101.807 141.909 101.502 141.995 101.226 142.144C100.951 142.293 100.712 142.501 100.527 142.754L98.8041 145.095C98.5813 145.4 98.4437 145.758 98.4056 146.133C98.3675 146.509 98.4303 146.887 98.5874 147.23L123.667 202.106C123.759 202.308 123.811 202.527 123.819 202.749C123.827 202.972 123.791 203.193 123.713 203.402C123.636 203.61 123.518 203.802 123.366 203.964C123.215 204.127 123.033 204.259 122.83 204.351C122.628 204.444 122.409 204.496 122.187 204.504C121.965 204.512 121.743 204.476 121.534 204.398C121.326 204.32 121.135 204.202 120.972 204.051C120.809 203.899 120.677 203.717 120.585 203.515L95.4979 148.642C95.0903 147.75 94.9284 146.765 95.029 145.789C95.1296 144.813 95.489 143.882 96.0701 143.092L97.7931 140.749C98.2746 140.092 98.8963 139.551 99.6131 139.164C100.33 138.778 101.124 138.555 101.937 138.514L166.29 135.109C168.782 134.975 171.252 135.631 173.35 136.983C175.447 138.335 177.065 140.314 177.973 142.639L199.948 198.813C200.01 198.975 200.046 199.145 200.057 199.318L200.718 209.329C200.733 209.552 200.704 209.774 200.632 209.985C200.561 210.196 200.449 210.391 200.302 210.558C200.155 210.725 199.977 210.862 199.778 210.961C199.578 211.059 199.361 211.117 199.139 211.132C199.106 211.135 199.069 211.136 199.031 211.136Z" fill="#371A45"/>
<g opacity="0.25">
<path d="M198.918 209.721L124.634 212.376C124.152 212.393 123.671 212.314 123.219 212.145C122.767 211.976 122.353 211.719 122.001 211.389C121.648 211.06 121.364 210.663 121.166 210.224C120.967 209.784 120.857 209.309 120.842 208.827L120.747 205.779C120.729 205.212 120.844 204.648 121.082 204.134C121.32 203.619 121.675 203.166 122.118 202.813L119.203 196.432C153.662 195.566 175.335 183.047 172.983 151.126V141.686L176.526 143.591L198.368 199.431H198.518C198.601 201.475 198.679 203.412 198.745 205.174C198.807 206.763 198.862 208.201 198.907 209.439C198.912 209.532 198.912 209.627 198.918 209.721Z" fill="#371A45"/>
</g>
<path d="M132.344 214.626C132.344 214.626 135.584 202.316 148.635 204.44C161.687 206.564 164.74 219.527 155.577 224.247C146.414 228.968 117.258 228.227 120.96 205.088C120.96 205.092 122.069 211.848 132.344 214.626Z" fill="#F8F8F8"/>
<g opacity="0.25">
<path d="M155.573 224.248C149.243 227.508 133.371 228.163 125.385 220.627C133.121 222.698 142.04 221.688 146.407 219.435C152.584 216.254 153.21 209.328 148.961 204.502C161.728 206.794 164.66 219.567 155.573 224.248Z" fill="#371A45"/>
</g>
<path d="M143.579 228.544C137.436 228.544 130.744 227.153 125.884 223.632C121.829 220.695 117.34 215.038 118.983 204.777C119.058 204.308 119.297 203.88 119.658 203.571C120.02 203.262 120.479 203.092 120.955 203.091V203.091C121.43 203.09 121.89 203.257 122.253 203.564C122.615 203.87 122.858 204.296 122.936 204.764C122.971 204.952 123.943 209.577 131.091 212.133C133.167 207.235 138.676 200.786 148.957 202.463C156.362 203.671 161.764 208.347 162.719 214.375C163.477 219.192 161.093 223.656 156.494 226.026C153.522 227.559 148.744 228.544 143.579 228.544ZM122.881 211.871C123.498 215.402 125.286 218.254 128.234 220.389C135.845 225.902 149.18 225.292 154.66 222.468C157.719 220.893 159.253 218.101 158.762 215.002C158.247 211.745 155.201 207.541 148.312 206.418C137.185 204.601 134.394 214.702 134.28 215.132C134.213 215.388 134.096 215.627 133.936 215.837C133.776 216.047 133.576 216.223 133.347 216.356C133.118 216.488 132.866 216.574 132.604 216.608C132.342 216.643 132.076 216.625 131.821 216.556C127.634 215.424 124.797 213.662 122.881 211.871Z" fill="#371A45"/>
<path d="M281.933 185.293C281.199 191.502 278.512 197.527 274.652 200.487L256.347 194.351C256.347 194.351 252.021 199.348 241.126 198.238C230.23 197.127 225.229 186.091 225.229 186.091C225.229 186.091 220.58 195.743 214.955 191.856C213.422 190.795 212.679 189.49 212.439 188.124C212.122 186.347 212.639 184.464 213.345 182.882C214.198 181.004 215.398 179.305 216.882 177.872L227.312 167.604C236.103 156.036 248.415 164.366 256.928 169.269H277.754C281.505 172.985 282.654 179.224 281.933 185.293Z" fill="#F8F8F8"/>
<path d="M274.653 202.492C274.436 202.491 274.221 202.454 274.017 202.384L256.817 196.619C254.809 198.214 249.814 201.136 240.921 200.23C232.746 199.396 227.645 193.665 225.178 189.994C223.836 191.819 221.829 193.895 219.326 194.559C217.446 195.058 215.542 194.689 213.818 193.498C210.169 190.976 209.354 186.913 211.519 182.06C212.474 179.954 213.818 178.048 215.478 176.439L225.808 166.272C235.111 154.184 247.847 161.636 256.284 166.572L257.47 167.264H277.753C278.281 167.264 278.787 167.472 279.162 167.843C282.707 171.352 284.501 177.17 284.083 183.805C283.602 191.445 280.379 198.616 275.872 202.074C275.523 202.344 275.094 202.491 274.653 202.492ZM256.348 192.352C256.565 192.353 256.779 192.39 256.984 192.46L274.214 198.236C277.391 195.243 279.709 189.518 280.084 183.563C280.409 178.456 279.243 174.036 276.88 171.277H256.928C256.577 171.278 256.232 171.185 255.929 171.01C255.387 170.698 254.829 170.372 254.258 170.035C243.951 164.004 235.539 160.086 228.901 168.818C228.843 168.894 228.78 168.967 228.711 169.034L218.28 179.3C216.977 180.558 215.922 182.05 215.169 183.698C213.166 188.189 215.29 189.658 216.089 190.211C217.088 190.902 217.823 190.817 218.292 190.696C220.604 190.089 222.826 186.45 223.422 185.224C223.588 184.881 223.848 184.593 224.172 184.393C224.495 184.193 224.869 184.09 225.25 184.094C225.63 184.099 226.001 184.212 226.32 184.42C226.638 184.628 226.891 184.923 227.048 185.269C227.092 185.366 231.737 195.274 241.324 196.252C250.91 197.229 254.795 193.088 254.832 193.046C255.02 192.828 255.253 192.653 255.514 192.534C255.776 192.414 256.06 192.352 256.348 192.352V192.352Z" fill="#371A45"/>
<path d="M223.474 185.129L230.921 175.75L226.983 187.059C226.895 187.311 226.759 187.543 226.581 187.742C226.404 187.941 226.189 188.103 225.949 188.219C225.709 188.336 225.448 188.403 225.182 188.419C224.916 188.434 224.649 188.397 224.397 188.309C223.09 187.882 222.607 186.184 223.474 185.129V185.129Z" fill="#371A45"/>
<path d="M254.518 193.535L259.239 188.662L258.173 195.173L254.518 193.535Z" fill="#371A45"/>
<g opacity="0.25">
<path d="M281.933 185.293C281.2 191.502 278.512 197.527 274.652 200.487L256.348 194.351C256.348 194.351 252.022 199.348 241.126 198.238C230.23 197.127 225.229 186.091 225.229 186.091C225.229 186.091 220.581 195.743 214.956 191.856C213.422 190.795 212.68 189.49 212.439 188.124L213.056 187.508C213.056 187.508 217.221 190.284 221.759 184.081C226.201 178.005 231.977 172.907 232.21 172.703C232.066 173.059 227.551 184.343 236.653 189.63C245.91 195 257.112 180.283 257.112 180.283C257.112 180.283 263.776 186.114 279.882 185.282C280.565 185.243 281.25 185.247 281.933 185.293Z" fill="#371A45"/>
</g>
<path d="M228.476 249.041C234.197 244.923 243.322 240.782 250.192 244.346C253.364 246.253 256.105 248.843 258.497 251.622C260.828 254.327 262.848 257.285 264.52 260.44C260.352 256.009 255.851 251.974 250.564 249.034C248.576 247.95 246.498 247.111 244.205 247.067C239.45 247.09 234.75 249.522 230.912 252.219C228.761 253.806 226.374 250.718 228.476 249.041V249.041Z" fill="#371A45"/>
<path d="M257.973 301.844C257.519 301.844 257.08 301.686 256.731 301.396C256.382 301.106 256.145 300.703 256.062 300.257C255.978 299.811 256.054 299.35 256.274 298.954C256.495 298.558 256.848 298.251 257.271 298.087C257.781 297.889 258.506 297.463 258.896 296.055C260.888 288.848 251.744 269.758 244.843 260.895C237.673 251.69 231.904 252.588 231.663 252.63C231.414 252.683 231.157 252.686 230.907 252.639C230.657 252.593 230.418 252.497 230.206 252.357C229.993 252.218 229.809 252.038 229.666 251.828C229.523 251.617 229.423 251.381 229.372 251.132C229.268 250.624 229.369 250.097 229.654 249.664C229.938 249.231 230.382 248.929 230.889 248.822C231.223 248.751 239.124 247.218 247.916 258.507C254.458 266.907 265.283 287.562 262.648 297.091C262.024 299.351 260.652 300.948 258.68 301.712C258.454 301.8 258.215 301.845 257.973 301.844V301.844Z" fill="#371A45"/>
<path d="M245.601 243.719C245.561 243.757 245.525 243.799 245.493 243.844C245.483 243.857 245.451 243.909 245.461 243.891C245.527 243.783 245.688 243.507 245.755 243.396C248.66 238.479 252.135 233.924 256.023 229.742C261.387 223.859 268.987 219.631 276.962 218.854C278.928 218.726 280.903 218.83 282.844 219.164C280.9 219.314 279.006 219.598 277.184 220.114C271.766 221.673 267.039 224.882 263.017 228.749C261.677 230.029 260.301 231.27 258.968 232.578C255.66 235.896 252.83 239.694 250.299 243.638C250.071 244.005 249.408 245.071 249.194 245.441L249.011 245.751L248.914 245.917C247.437 248.535 243.738 246.094 245.593 243.722L245.601 243.719Z" fill="#371A45"/>
<path d="M280.778 278.501C280.384 278.501 280.002 278.36 279.702 278.105C279.401 277.85 279.201 277.497 279.136 277.108C275.848 257.301 263.472 241.188 251.546 241.188C251.112 241.177 250.698 240.996 250.395 240.685C250.092 240.374 249.922 239.956 249.922 239.522C249.922 239.087 250.092 238.669 250.395 238.358C250.698 238.047 251.112 237.867 251.546 237.855C265.258 237.855 278.821 254.858 282.423 276.561C282.495 276.997 282.391 277.444 282.134 277.804C281.877 278.163 281.488 278.406 281.052 278.478C280.961 278.493 280.87 278.501 280.778 278.501V278.501Z" fill="#371A45"/>
<path d="M277.416 167.297L288.54 167.419L278.094 171.243C275.024 172.144 274.221 167.472 277.416 167.297Z" fill="#371A45"/>
<path d="M295.79 207.154C285.557 207.154 274.581 202.632 273.879 202.338C273.396 202.128 273.016 201.737 272.82 201.249C272.624 200.76 272.628 200.215 272.831 199.729C273.034 199.244 273.42 198.858 273.906 198.655C274.391 198.452 274.937 198.448 275.425 198.644C282.035 201.409 300.588 206.897 306.939 199.215C307.28 198.814 307.765 198.563 308.289 198.516C308.814 198.47 309.336 198.632 309.742 198.967C310.148 199.303 310.405 199.784 310.458 200.308C310.512 200.832 310.356 201.356 310.026 201.766C306.672 205.823 301.339 207.154 295.79 207.154Z" fill="#371A45"/>
<path d="M271.57 169.123L271.09 160.109L275.424 168.027C275.684 168.506 275.744 169.067 275.591 169.589C275.439 170.112 275.085 170.552 274.608 170.815C273.325 171.558 271.619 170.591 271.574 169.123H271.57Z" fill="#371A45"/>
<path d="M202.815 177.056C203.145 174.123 203.659 171.214 204.356 168.346C205.049 165.523 205.931 162.719 207.174 160.104C206.274 164.319 206.229 168.576 206.448 172.834C206.529 174.234 206.644 175.674 206.816 177.007C207.049 179.977 202.653 180.041 202.807 177.056H202.815Z" fill="#371A45"/>
<g opacity="0.25">
<path d="M308.483 200.492C317.142 229.947 313.426 252.812 289.784 265.069L268.043 293.48C262.625 300.561 252.67 302.443 245.135 297.678C238.449 293.452 232.8 285.561 229.324 277.241C229.974 277.763 230.629 278.334 231.289 278.952C253.871 300.056 251.543 269.511 251.543 269.511C273.225 288.243 261.99 257.421 261.812 256.921L269.837 263.219C269.837 263.219 271.736 258.221 288.535 243.503C305.334 228.786 295.478 211.294 295.478 211.294C283.537 213.654 269.837 204.907 269.837 205.168C269.837 205.429 258.963 203.796 258.547 204.074C258.131 204.351 258.453 195.061 258.453 195.061L275.64 200.881L281.933 185.293C286.475 185.227 296.482 185.185 296.482 185.185C307.895 161.304 286.736 148.226 286.736 148.226C260.923 159.583 229.252 151.309 228.074 150.975L246.967 135.947C258.552 135.405 267.966 136.097 267.966 136.097L284.259 135.236C284.259 135.236 298.115 139.185 305.518 152.324C312.92 165.463 315.148 188.669 308.483 200.492Z" fill="#371A45"/>
</g>
<g opacity="0.25">
<path d="M327.925 133.266L327.758 133.199C327.814 133.169 327.925 133.266 327.925 133.266Z" fill="#371A45"/>
</g>
<path d="M241.147 150.869C282.176 150.869 315.438 117.608 315.438 76.5782C315.438 35.5484 282.176 2.28711 241.147 2.28711C200.117 2.28711 166.855 35.5484 166.855 76.5782C166.855 117.608 200.117 150.869 241.147 150.869Z" fill="#F8F8F8"/>
<g opacity="0.25">
<path d="M310.599 102.961C296.027 141.322 253.123 160.604 214.768 146.032C202.959 141.567 192.49 134.151 184.359 124.492C189.564 128.209 195.227 131.238 201.208 133.505C239.568 148.076 282.466 128.795 297.038 90.44C306.96 64.3192 301.182 36.0897 284.374 16.1348C311.179 35.2748 322.845 70.7267 310.599 102.961Z" fill="#371A45"/>
</g>
<path d="M172.168 105.058C176.325 114.626 183.292 124.906 194.769 134.641C227.646 156.54 271.931 148.078 290.66 102.553L287.701 64.8255C286.126 59.0097 282.905 53.494 278.49 48.4964C251.401 17.871 179.403 6.70964 167.6 66.024C167.6 66.024 162.91 83.7553 172.168 105.058Z" fill="#371A45"/>
<g opacity="0.7">
<path d="M172.17 105.06C176.327 114.627 183.293 124.908 194.77 134.643C227.647 156.542 271.933 148.08 290.661 102.555L287.703 64.8272C286.127 59.0114 282.907 53.4957 278.492 48.498C288.425 100.063 225.09 152.505 172.632 105.289L172.17 105.06Z" fill="#111A28"/>
</g>
<path d="M238.104 152.537C236.67 152.537 235.207 152.488 233.716 152.392C233.467 152.38 233.223 152.319 232.998 152.213C232.772 152.106 232.571 151.955 232.404 151.769C232.238 151.583 232.111 151.366 232.029 151.131C231.948 150.895 231.914 150.646 231.93 150.397C231.947 150.148 232.012 149.905 232.124 149.682C232.235 149.459 232.39 149.26 232.579 149.098C232.768 148.935 232.987 148.812 233.224 148.735C233.461 148.658 233.712 148.63 233.96 148.651C252.772 149.881 268.884 143.042 281.856 128.329C290.725 118.274 295.028 107.762 295.781 105.813L294.201 59.3039C286.922 42.7938 272.191 29.5129 252.686 21.8798C232.718 14.0625 211.066 13.6822 194.767 20.8601C194.314 21.0488 193.806 21.0524 193.35 20.8701C192.894 20.6878 192.529 20.3341 192.331 19.885C192.133 19.436 192.119 18.9273 192.292 18.4681C192.466 18.009 192.812 17.6361 193.257 17.4294C210.449 9.857 233.177 10.2157 254.048 18.3884C274.618 26.4408 290.148 40.5582 297.781 58.1379C297.875 58.3536 297.927 58.5853 297.935 58.8206L299.54 106.067C299.548 106.302 299.511 106.537 299.431 106.759C299.254 107.257 294.967 119.098 284.755 130.717C275.838 140.862 260.667 152.535 238.104 152.537Z" fill="#371A45"/>
<path d="M231.639 148.009C218.655 148.009 205.473 143.969 193.753 136.161C193.358 135.888 193.086 135.47 192.996 134.999C192.906 134.527 193.005 134.039 193.271 133.639C193.538 133.239 193.95 132.96 194.42 132.862C194.89 132.763 195.38 132.853 195.785 133.112C212.013 143.922 231.159 147.117 248.312 141.879C266.034 136.46 280.4 122.403 288.801 102.256L285.888 65.1417C282.962 54.5439 273.752 44.1194 260.602 36.5341C247.475 28.9552 231.747 24.8873 217.454 25.3662C202.454 25.8723 176.265 31.868 169.395 66.3868C169.3 66.8635 169.02 67.2829 168.616 67.5529C168.212 67.8229 167.717 67.9213 167.24 67.8264C166.764 67.7316 166.344 67.4513 166.074 67.0472C165.804 66.6431 165.706 66.1483 165.801 65.6716C171.18 38.6525 189.966 22.6268 217.33 21.7036C249.342 20.6297 283.04 40.5586 289.469 64.3507C289.499 64.4603 289.518 64.5724 289.527 64.6855L292.488 102.409C292.511 102.695 292.465 102.983 292.356 103.25C283.553 124.646 268.291 139.609 249.382 145.385C243.63 147.134 237.65 148.018 231.639 148.009V148.009Z" fill="#371A45"/>
<path d="M241.179 153.162C231.877 153.153 222.656 151.448 213.966 148.132C174.515 133.143 154.608 88.8498 169.595 49.3994C176.856 30.2864 191.125 15.1461 209.773 6.7653C228.421 -1.61545 249.217 -2.22878 268.329 5.0315C307.782 20.0202 327.686 64.3112 312.699 103.765C305.439 122.877 291.169 138.017 272.521 146.398C262.671 150.846 251.987 153.152 241.179 153.162V153.162ZM241.118 4.49944C230.944 4.50979 220.888 6.68087 211.616 10.869C194.062 18.7567 180.634 33.0074 173.798 50.9967C159.691 88.1314 178.426 129.82 215.561 143.926C233.549 150.759 253.122 150.179 270.674 142.291C288.225 134.403 301.656 120.152 308.492 102.164L310.594 102.963L308.492 102.164C322.599 65.0296 303.864 23.3404 266.729 9.2338C258.551 6.11295 249.872 4.50862 241.118 4.49944V4.49944Z" fill="#371A45"/>
<path d="M317.859 82.2166C318.034 95.5386 311.418 106.273 301.054 106.407C290.69 106.542 282.149 95.854 281.973 82.5319C281.798 69.2098 290.057 58.2988 300.42 58.1634C310.783 58.0279 317.684 68.8945 317.859 82.2166Z" fill="#F8F8F8"/>
<g opacity="0.25">
<path d="M301.047 106.405C290.687 106.539 282.143 95.8527 281.975 82.5317C281.92 78.3056 282.709 74.3233 284.151 70.8535C285.869 82.1026 293.654 90.5549 302.871 90.4368C309.727 90.3436 314.944 85.6222 317.64 78.5776C317.771 79.7696 317.844 80.9811 317.856 82.2142C318.026 95.5396 311.415 106.271 301.047 106.405Z" fill="#371A45"/>
</g>
<path d="M300.853 108.659C295.219 108.659 289.927 105.918 285.934 100.922C282.019 96.0231 279.814 89.503 279.722 82.5624C279.531 68.0212 288.801 56.0678 300.389 55.915C306.04 55.8564 311.181 58.6609 314.801 63.8579C318.127 68.6313 320.011 75.1417 320.104 82.1885C320.303 97.3777 312.302 108.51 301.08 108.657L300.853 108.659ZM300.612 60.412H300.448C291.346 60.5323 284.062 70.4409 284.221 82.5017C284.299 88.4475 286.155 93.9881 289.448 98.1124C292.609 102.068 296.719 104.215 301.022 104.158C309.639 104.05 315.773 94.8301 315.607 82.247C315.527 76.0899 313.931 70.4724 311.112 66.4261C309.193 63.6759 305.819 60.412 300.612 60.412Z" fill="#371A45"/>
<path d="M307.313 104.837C298.244 104.837 290.759 94.7097 290.591 82.157C290.514 76.1581 292.09 70.4745 295.033 66.1519C298.113 61.6223 302.319 59.0964 306.876 59.0379C307.803 59.0274 308.728 59.1241 309.632 59.3261C309.711 59.3436 309.789 59.366 309.865 59.3933C310.318 59.5563 310.691 59.8872 310.906 60.3176C311.122 60.748 311.164 61.2448 311.023 61.7052C310.882 62.1655 310.57 62.5541 310.151 62.7904C309.731 63.0268 309.237 63.0928 308.771 62.9747C308.163 62.8437 307.543 62.7808 306.922 62.7872C303.627 62.8284 300.505 64.7724 298.134 68.2595C295.623 71.9525 294.276 76.8711 294.341 82.1072C294.482 92.6096 300.289 101.088 307.31 101.088H307.428C308.366 101.079 309.296 100.908 310.176 100.582C310.408 100.491 310.655 100.447 310.904 100.453C311.153 100.458 311.398 100.513 311.625 100.615C311.852 100.716 312.057 100.862 312.228 101.043C312.398 101.225 312.531 101.438 312.618 101.671C312.705 101.904 312.744 102.152 312.734 102.401C312.725 102.65 312.665 102.894 312.56 103.119C312.455 103.345 312.306 103.547 312.122 103.715C311.937 103.882 311.722 104.011 311.487 104.094C310.203 104.57 308.847 104.821 307.478 104.836L307.313 104.837Z" fill="#371A45"/>
<g opacity="0.5">
<path d="M222.334 36.9757C200.306 50.7063 187.504 69.7358 185.23 94.8098C185.048 96.8199 182.203 97.0951 181.643 95.1565C172.467 63.3532 176.976 35.8606 221.262 33.585C223.16 33.4842 223.946 35.969 222.334 36.9757Z" fill="#CEB7FF"/>
</g>
<g opacity="0.5">
<path d="M265.191 83.431L264.797 83.4635C263.061 83.6048 261.335 83.095 259.955 82.0333C258.574 80.9717 257.638 79.4342 257.329 77.7203C257.257 77.3143 257.181 76.921 257.101 76.5403C256.33 72.7595 258.727 69.0632 262.51 68.2852L262.807 68.2245C264.514 67.875 266.291 68.1738 267.79 69.0629C269.29 69.952 270.404 71.3676 270.916 73.0337C271.074 73.5393 271.222 74.045 271.362 74.5507C271.641 75.5457 271.697 76.59 271.525 77.609C271.353 78.628 270.958 79.5964 270.369 80.4449C269.779 81.2935 269.009 82.0012 268.114 82.5174C267.219 83.0337 266.22 83.3456 265.191 83.431V83.431Z" fill="#CEB7FF"/>
</g>
<g opacity="0.5">
<path d="M250.841 125.959C250.035 125.478 249.334 124.838 248.78 124.08C248.226 123.321 247.83 122.459 247.617 121.544C247.403 120.63 247.376 119.681 247.537 118.756C247.698 117.83 248.043 116.947 248.553 116.158C251.902 111.004 254.276 105.279 255.555 99.2675C256.37 95.4498 260.075 92.9824 263.892 93.8017L264.874 94.0119C268.726 94.8376 271.167 98.6834 270.218 102.506C267.852 112.026 263.407 119.489 260.121 124.049C259.094 125.472 257.571 126.458 255.853 126.811C254.135 127.165 252.346 126.861 250.841 125.959Z" fill="#CEB7FF"/>
</g>
<g opacity="0.25">
<path d="M213.889 237.061C213.889 237.061 238.509 243.967 257.667 229.713L248.795 242.948L245.635 245.038C238.957 245.41 233.54 246.928 230.154 250.294C223.375 247.811 217.766 243.665 213.889 237.061Z" fill="#371A45"/>
</g>
<g opacity="0.25">
<path d="M206.026 164.342C206.026 164.342 197.711 171.765 193.348 186.601L199.028 198.891L201.019 197.546C201.019 197.546 201.944 182.208 201.713 181.93C201.482 181.653 204.186 178.806 204.812 174.71C205.439 170.614 205.393 168.091 205.393 168.091" fill="#371A45"/>
</g>
<path d="M162.441 249.433L165.8 257.11L159.262 251.869C159.05 251.7 158.873 251.491 158.742 251.254C158.61 251.017 158.527 250.756 158.497 250.487C158.467 250.217 158.49 249.945 158.566 249.685C158.641 249.424 158.767 249.181 158.936 248.97C159.855 247.762 161.862 248.042 162.434 249.433H162.441Z" fill="#371A45"/>
<path d="M297.749 144.339C297.373 144.338 297.005 144.232 296.687 144.033C296.369 143.833 296.113 143.548 295.949 143.211C295.785 142.873 295.719 142.495 295.76 142.122C295.8 141.749 295.944 141.394 296.176 141.099C305.675 129.027 320.298 131.121 320.916 131.215C321.434 131.304 321.895 131.592 322.202 132.018C322.509 132.443 322.636 132.972 322.557 133.491C322.478 134.01 322.198 134.477 321.778 134.791C321.358 135.106 320.832 135.243 320.312 135.173C319.78 135.094 307.348 133.377 299.323 143.575C299.136 143.813 298.897 144.006 298.624 144.138C298.351 144.271 298.052 144.339 297.749 144.339Z" fill="#371A45"/>
<g opacity="0.25">
<path d="M298.532 125.604C298.532 125.604 287.143 130.848 303.109 148.232C297.372 142.359 291.42 137.785 285.084 135.515L293.9 125.053" fill="#371A45"/>
</g>
<path d="M155.21 160.574C155.46 161.117 155.675 161.677 155.854 162.248C153.524 164.148 148.919 166.816 143.406 169.337C137.894 171.857 132.867 173.599 129.904 174.119C129.589 173.61 129.307 173.081 129.059 172.537L129.023 172.46C128.914 172.216 128.812 171.971 128.717 171.725C128.496 171.156 128.312 170.573 128.166 169.98C128.166 169.957 128.154 169.933 128.149 169.909C127.374 166.679 127.741 163.28 129.188 160.29C130.634 157.3 133.072 154.903 136.085 153.506C139.099 152.109 142.503 151.798 145.72 152.626C148.937 153.455 151.768 155.371 153.732 158.05C153.775 158.108 153.818 158.167 153.859 158.226C154.212 158.724 154.532 159.245 154.819 159.784C154.927 159.986 155.036 160.192 155.13 160.401C155.157 160.459 155.184 160.515 155.21 160.574Z" fill="#CEB7FF"/>
<path d="M156.465 167.795C156.275 169.975 155.591 172.082 154.464 173.958C153.337 175.833 151.797 177.426 149.961 178.617C148.125 179.807 146.042 180.563 143.87 180.826C141.698 181.09 139.494 180.855 137.427 180.138C136.1 179.678 134.848 179.027 133.709 178.205C137.232 177.304 141.302 175.855 145.512 173.929C149.722 172.004 153.479 169.871 156.465 167.795Z" fill="#CEB7FF"/>
<path d="M155.858 162.245C153.528 164.147 148.923 166.816 143.411 169.335C137.9 171.855 132.87 173.597 129.907 174.117C129.593 173.608 129.311 173.079 129.062 172.535L129.027 172.458C128.919 172.214 128.811 171.97 128.721 171.724C128.5 171.154 128.317 170.572 128.17 169.979C128.164 169.955 128.158 169.931 128.153 169.907C127.474 167.069 127.674 164.09 128.726 161.368C129.779 158.645 131.635 156.307 134.048 154.664C132.421 157.195 131.626 160.172 131.772 163.177C131.817 164.062 131.944 164.941 132.152 165.803C132.152 165.826 132.163 165.85 132.169 165.874C132.174 165.898 132.187 165.945 132.201 165.99C132.934 168.461 135.594 169.495 138.161 169.262C143.053 168.818 153.646 163.093 155.9 161.77C156.058 162.151 155.737 161.86 155.858 162.245Z" fill="#CEB7FF"/>
<path d="M145.512 173.929C149.722 172.004 153.479 169.871 156.465 167.795C156.414 168.38 156.327 168.962 156.204 169.536C153.907 171.22 150.233 173.304 145.953 175.262C141.854 177.138 138.03 178.513 135.275 179.189C134.732 178.895 134.209 178.567 133.709 178.205C137.232 177.304 141.302 175.855 145.512 173.929Z" fill="#CEB7FF"/>
<path d="M155.132 160.398C155.159 160.456 155.186 160.507 155.212 160.571C155.462 161.115 155.677 161.674 155.856 162.245C153.526 164.146 148.921 166.813 143.408 169.334C137.896 171.855 132.869 173.596 129.906 174.116C129.592 173.607 129.309 173.079 129.061 172.534L129.025 172.457C131.836 172.132 136.959 170.447 142.571 167.879C148.41 165.209 153.179 162.319 155.132 160.398Z" fill="#CEB7FF"/>
<path d="M127.748 167.765L127.794 166.796C129.754 166.889 134.873 165.239 140.242 162.787C146.648 159.861 150.78 157.055 151.553 155.803L152.378 156.312C151.356 157.969 146.641 160.925 140.645 163.669C135.063 166.22 129.88 167.866 127.748 167.765Z" fill="#CEB7FF"/>
<path d="M128.447 162.872L128.301 161.914C130.503 161.577 134.319 160.248 138.259 158.446C142.388 156.557 145.953 154.479 147.578 153.021L148.229 153.741C146.543 155.258 142.878 157.402 138.666 159.328C134.646 161.164 130.738 162.523 128.447 162.872Z" fill="#CEB7FF"/>
<path d="M128.15 170.391V169.422C130.4 169.422 135.689 167.695 141.312 165.123C147.211 162.424 152.157 159.398 153.34 157.764L154.126 158.331C152.834 160.116 147.847 163.199 141.716 166.005C135.887 168.67 130.563 170.392 128.15 170.391Z" fill="#CEB7FF"/>
<path d="M137.445 180.381L137.427 180.14L137.318 179.924L137.363 179.9H137.414C139.358 179.751 143.06 178.536 146.841 176.805C150.649 175.063 153.897 173.121 155.32 171.723L155.659 172.069C154.199 173.499 150.897 175.482 147.044 177.245C143.149 179.024 139.473 180.226 137.445 180.381Z" fill="#CEB7FF"/>
<path d="M156.465 167.795C156.245 170.329 155.356 172.76 153.89 174.838C152.424 176.917 150.432 178.57 148.119 179.628C145.806 180.686 143.253 181.112 140.722 180.862C138.19 180.612 135.771 179.695 133.709 178.205C137.232 177.304 141.302 175.855 145.512 173.929C149.722 172.004 153.479 169.871 156.465 167.795Z" fill="#CEB7FF"/>
<path d="M163.478 159.032C164.355 160.946 161.507 164.29 156.464 167.796C153.478 169.872 149.721 172.005 145.511 173.93C141.301 175.856 137.231 177.305 133.708 178.206C127.758 179.731 123.366 179.697 122.489 177.783C121.694 176.042 123.968 173.123 128.168 169.98C128.314 170.573 128.498 171.156 128.719 171.725C127.558 172.683 126.985 173.442 127.189 173.88C127.393 174.319 128.373 174.388 129.907 174.119C132.869 173.599 137.902 171.856 143.409 169.337C148.916 166.817 153.526 164.148 155.856 162.248C157.062 161.263 157.657 160.484 157.452 160.036C157.248 159.589 156.305 159.532 154.821 159.784C154.535 159.245 154.214 158.724 153.861 158.226C158.989 157.105 162.683 157.291 163.478 159.032Z" fill="#CEB7FF"/>
<path d="M128.631 171.488C128.66 171.566 128.69 171.644 128.72 171.722C127.559 172.679 126.986 173.437 127.19 173.877C127.393 174.317 128.375 174.384 129.907 174.115C131.872 173.77 134.749 172.887 138.072 171.596C138.018 171.865 138.018 172.142 138.072 172.412C136.789 172.894 135.546 173.319 134.367 173.682C129.24 175.257 126.565 175.235 126.252 174.548C126.069 174.146 126.601 173.133 128.631 171.488Z" fill="#CEB7FF"/>
<path d="M128.244 170.793L128.367 170.946C127.495 171.606 126.674 172.331 125.91 173.113C126.366 172.449 127.143 171.677 128.244 170.793Z" fill="#CEB7FF"/>
<path d="M128.496 171.097L128.373 170.943C128.391 170.928 128.411 170.914 128.432 170.898L128.496 171.097Z" fill="#CEB7FF"/>
<path d="M125.917 173.117C125.443 173.813 125.322 174.395 125.542 174.877C125.762 175.359 126.261 175.607 126.96 175.718C128.783 176.007 131.92 175.257 134.599 174.434C135.811 174.062 137.091 173.622 138.409 173.127C138.662 173.452 139.039 173.697 139.527 173.885C137.577 174.63 135.687 175.26 133.915 175.755C127.6 177.521 124.856 177.046 124.424 176.105C124.184 175.578 124.53 174.575 125.917 173.117Z" fill="#CEB7FF"/>
<path d="M145.258 174.048C141.14 175.916 137.164 177.322 133.713 178.205C127.764 179.73 123.371 179.696 122.495 177.781C121.7 176.047 123.974 173.121 128.174 169.979C128.218 170.153 128.264 170.326 128.314 170.5L128.075 170.187C125.636 172.053 122.9 174.65 123.715 176.426C124.029 177.113 124.774 177.485 125.759 177.641C128.078 178.006 131.719 177.181 134.13 176.507C136.418 175.857 138.67 175.087 140.878 174.2C142.039 174.348 143.524 174.293 145.258 174.048Z" fill="#CEB7FF"/>
<path d="M138.404 173.126C137.085 173.621 135.803 174.061 134.594 174.433C131.915 175.257 128.778 176.006 126.956 175.717C126.257 175.609 125.752 175.344 125.537 174.876C125.323 174.408 125.439 173.812 125.912 173.116C126.676 172.334 127.497 171.61 128.369 170.949L128.491 171.102C128.536 171.233 128.581 171.363 128.628 171.494C126.598 173.139 126.066 174.152 126.25 174.553C126.564 175.241 129.238 175.263 134.364 173.686C135.543 173.323 136.786 172.899 138.069 172.416C138.094 172.541 138.134 172.662 138.186 172.777C138.244 172.902 138.318 173.019 138.404 173.126V173.126Z" fill="#CEB7FF"/>
<path d="M128.373 170.944C127.501 171.605 126.68 172.329 125.916 173.111C126.368 172.443 127.145 171.671 128.25 170.787L128.373 170.944Z" fill="#CEB7FF"/>
<path d="M128.494 171.098L128.739 171.403C128.702 171.431 128.666 171.461 128.631 171.49C128.584 171.36 128.539 171.23 128.494 171.098Z" fill="#CEB7FF"/>
<path d="M153.031 166.004C150.461 167.613 147.361 169.262 144.066 170.772C142.15 171.648 140.24 172.445 138.408 173.131C138.322 173.023 138.249 172.904 138.191 172.779C138.139 172.663 138.099 172.542 138.074 172.418C139.907 171.734 141.82 170.937 143.74 170.06C147.005 168.565 150.074 166.933 152.614 165.341C157.159 162.492 158.89 160.455 158.574 159.769C158.386 159.358 157.236 159.098 154.565 159.593L154.456 159.013L154.421 158.821C155.819 158.561 156.913 158.478 157.716 158.573C158.545 158.673 159.063 158.962 159.283 159.44C160.064 161.133 156.312 163.945 153.031 166.004Z" fill="#CEB7FF"/>
<path d="M140.872 174.201C138.664 175.088 136.412 175.858 134.124 176.508C131.712 177.182 128.072 178.007 125.753 177.642C124.768 177.486 124.019 177.114 123.709 176.427C122.894 174.651 125.63 172.054 128.069 170.188L128.308 170.501C128.347 170.635 128.386 170.769 128.429 170.902C128.409 170.917 128.388 170.931 128.371 170.946L128.248 170.793C127.143 171.677 126.366 172.449 125.914 173.118C124.527 174.575 124.181 175.579 124.421 176.102C124.855 177.044 127.597 177.518 133.913 175.752C135.684 175.257 137.575 174.627 139.525 173.883C139.96 174.041 140.412 174.148 140.872 174.201V174.201Z" fill="#CEB7FF"/>
<path d="M128.244 170.793L128.367 170.946C127.495 171.606 126.674 172.331 125.91 173.113C126.366 172.449 127.143 171.677 128.244 170.793Z" fill="#CEB7FF"/>
<path d="M128.311 170.5L128.548 170.81L128.432 170.901C128.389 170.772 128.355 170.634 128.311 170.5Z" fill="#CEB7FF"/>
<path d="M154.904 166.999C152.047 168.896 148.572 170.792 144.854 172.497C143.519 173.109 142.186 173.678 140.87 174.2C140.41 174.147 139.958 174.04 139.523 173.881C141.163 173.257 142.845 172.553 144.529 171.783C148.213 170.101 151.646 168.219 154.472 166.346C159.938 162.721 161.373 160.335 160.942 159.392C160.703 158.87 159.721 158.475 157.719 158.569C156.623 158.635 155.533 158.782 154.459 159.009L154.242 159.053L154.083 158.285C157.088 157.659 160.843 157.289 161.655 159.065C162.716 161.374 157.884 165.028 154.904 166.999Z" fill="#CEB7FF"/>
<path d="M163.478 159.032C164.355 160.946 161.507 164.29 156.464 167.796C153.478 169.872 149.721 172.005 145.511 173.93C141.301 175.856 137.231 177.305 133.708 178.206C127.758 179.731 123.366 179.697 122.489 177.783C121.694 176.042 123.968 173.123 128.168 169.98C128.314 170.573 128.498 171.156 128.719 171.725C127.558 172.683 126.985 173.442 127.189 173.88C127.393 174.319 128.373 174.388 129.907 174.119C132.869 173.599 137.902 171.856 143.409 169.337C148.916 166.817 153.526 164.148 155.856 162.248C157.062 161.263 157.657 160.484 157.452 160.036C157.248 159.589 156.305 159.532 154.821 159.784C154.535 159.245 154.214 158.724 153.861 158.226C158.989 157.105 162.683 157.291 163.478 159.032Z" fill="#CEB7FF"/>
<g opacity="0.41">
<path d="M155.862 162.295C155.592 162.512 155.289 162.748 154.959 162.989C154.822 162.61 154.669 162.235 154.5 161.864C154.473 161.807 154.446 161.756 154.42 161.693C154.322 161.483 154.218 161.277 154.109 161.075C153.823 160.536 153.502 160.015 153.149 159.517C153.108 159.458 153.065 159.4 153.022 159.341C151.644 157.464 149.83 155.948 147.737 154.926C145.644 153.904 143.334 153.406 141.005 153.474C138.677 153.542 136.4 154.174 134.37 155.317C132.34 156.459 130.618 158.078 129.352 160.033C130.369 158.053 131.832 156.337 133.625 155.018C135.419 153.7 137.493 152.815 139.686 152.435C141.879 152.054 144.131 152.187 146.264 152.824C148.396 153.461 150.352 154.584 151.978 156.105C152.628 156.712 153.22 157.379 153.745 158.097C153.789 158.156 153.831 158.216 153.873 158.275C154.226 158.773 154.546 159.293 154.833 159.831C154.941 160.034 155.05 160.241 155.143 160.449C155.171 160.506 155.198 160.564 155.223 160.622C155.471 161.166 155.684 161.725 155.862 162.295V162.295Z" fill="#CEB7FF"/>
</g>
<path d="M155.212 160.572C155.462 161.116 155.677 161.675 155.856 162.246C153.526 164.147 148.921 166.815 143.409 169.335C137.896 171.856 132.869 173.597 129.907 174.117C129.592 173.608 129.309 173.08 129.061 172.535C128.938 172.267 128.824 171.996 128.719 171.724C127.395 168.306 127.426 164.512 128.806 161.116C130.186 157.721 132.811 154.98 136.144 153.456C139.477 151.931 143.267 151.736 146.738 152.912C150.21 154.088 153.101 156.546 154.821 159.782C154.959 160.04 155.09 160.303 155.212 160.572Z" fill="#CEB7FF"/>
<path d="M154.05 161.142C154.276 161.635 154.47 162.142 154.633 162.659C152.524 164.379 148.355 166.792 143.372 169.072C138.388 171.352 133.836 172.929 131.156 173.399C130.872 172.938 130.617 172.46 130.391 171.968L130.36 171.897C130.26 171.681 130.167 171.459 130.082 171.233C129.883 170.718 129.716 170.191 129.584 169.655C129.584 169.634 129.573 169.612 129.569 169.59C128.867 166.668 129.199 163.593 130.507 160.888C131.816 158.182 134.021 156.013 136.748 154.749C139.474 153.485 142.554 153.205 145.465 153.954C148.375 154.704 150.936 156.438 152.713 158.862C152.752 158.915 152.789 158.971 152.827 159.023C153.146 159.473 153.436 159.944 153.694 160.431C153.792 160.615 153.886 160.801 153.975 160.99C154.002 161.038 154.026 161.09 154.05 161.142Z" fill="#FFB200"/>
<path d="M155.177 167.678C155.065 168.95 154.767 170.199 154.293 171.385C153.052 174.491 150.661 177 147.618 178.389C144.575 179.778 141.114 179.941 137.954 178.844C137.281 178.612 136.629 178.325 136.003 177.986C135.512 177.72 135.039 177.423 134.586 177.096C137.773 176.28 141.455 174.969 145.264 173.227C149.073 171.485 152.475 169.556 155.177 167.678Z" fill="#FF9100"/>
<path d="M154.63 162.655C152.523 164.376 148.353 166.79 143.369 169.069C138.386 171.348 133.833 172.926 131.154 173.396C130.87 172.935 130.614 172.457 130.389 171.965C130.378 171.941 130.368 171.918 130.357 171.895C130.257 171.678 130.165 171.453 130.08 171.23C129.88 170.715 129.714 170.188 129.581 169.652C129.581 169.63 129.57 169.609 129.566 169.587C128.952 167.019 129.133 164.325 130.085 161.862C131.038 159.399 132.716 157.284 134.899 155.797C133.426 158.087 132.706 160.779 132.84 163.498C132.88 164.299 132.994 165.094 133.182 165.873L133.198 165.939C133.205 165.967 133.215 166.001 133.227 166.047C133.89 168.282 136.297 169.218 138.619 169.007C143.044 168.606 152.628 163.426 154.666 162.23C154.811 162.57 154.52 162.307 154.63 162.655Z" fill="#FF9100"/>
<path d="M145.27 173.227C149.078 171.485 152.477 169.556 155.178 167.678C155.132 168.207 155.054 168.734 154.942 169.253C152.864 170.777 149.54 172.661 145.669 174.433C141.959 176.129 138.502 177.377 136.009 177.986C135.518 177.72 135.045 177.423 134.592 177.096C137.78 176.28 141.464 174.969 145.27 173.227Z" fill="#D66B09"/>
<path d="M153.973 160.986C153.998 161.038 154.022 161.095 154.046 161.142C154.272 161.635 154.466 162.142 154.629 162.659C152.52 164.379 148.351 166.792 143.368 169.072C138.384 171.352 133.832 172.929 131.152 173.399C130.868 172.938 130.612 172.46 130.387 171.968L130.355 171.897C132.898 171.606 137.532 170.079 142.612 167.756C147.893 165.338 152.207 162.722 153.973 160.986Z" fill="#D66B09"/>
<path d="M129.205 167.65L129.246 166.774C131.02 166.859 135.65 165.365 140.508 163.143C146.304 160.491 150.044 157.958 150.741 156.824L151.488 157.285C150.563 158.784 146.297 161.459 140.868 163.94C135.823 166.251 131.134 167.737 129.205 167.65Z" fill="#D66B09"/>
<path d="M129.831 163.223L129.697 162.356C131.69 162.052 135.142 160.85 138.708 159.219C142.443 157.51 145.672 155.629 147.136 154.311L147.723 154.961C146.198 156.336 142.883 158.272 139.072 160.015C135.438 161.678 131.897 162.907 129.831 163.223Z" fill="#D66B09"/>
<path d="M129.564 170.024V169.145C131.599 169.145 136.384 167.583 141.471 165.255C146.808 162.814 151.282 160.077 152.353 158.598L153.064 159.112C151.895 160.726 147.384 163.515 141.836 166.048C136.564 168.467 131.747 170.026 129.564 170.024Z" fill="#D66B09"/>
<path d="M137.971 179.064L137.955 178.847L137.852 178.653L137.892 178.631H137.937C139.696 178.498 143.045 177.398 146.471 175.831C149.914 174.256 152.853 172.495 154.141 171.234L154.447 171.548C153.126 172.84 150.14 174.635 146.654 176.23C143.132 177.836 139.805 178.924 137.971 179.064Z" fill="#D66B09"/>
<path d="M142.223 180.103C139.369 180.104 136.588 179.207 134.273 177.538L133.332 176.858L134.456 176.57C137.726 175.733 141.391 174.403 145.043 172.734C148.695 171.065 152.095 169.158 154.868 167.232L155.82 166.57L155.72 167.727C155.427 171.104 153.878 174.249 151.38 176.541C148.881 178.832 145.614 180.103 142.223 180.103V180.103ZM135.906 177.306C137.634 178.32 139.581 178.902 141.582 179.004C143.584 179.105 145.58 178.723 147.402 177.89C149.224 177.056 150.819 175.795 152.05 174.215C153.282 172.634 154.114 170.78 154.477 168.809C151.856 170.535 148.776 172.221 145.496 173.722C142.216 175.223 138.926 176.452 135.907 177.306H135.906Z" fill="#371A45"/>
<path d="M161.526 159.746C162.32 161.48 159.744 164.505 155.181 167.676C152.479 169.554 149.08 171.483 145.272 173.226C141.464 174.968 137.781 176.278 134.594 177.094C129.211 178.474 125.238 178.443 124.445 176.711C123.725 175.137 125.783 172.498 129.582 169.652C129.715 170.188 129.882 170.715 130.081 171.23C129.031 172.096 128.515 172.782 128.696 173.18C128.877 173.578 129.768 173.638 131.155 173.397C133.834 172.927 138.388 171.35 143.37 169.07C148.353 166.79 152.523 164.377 154.631 162.657C155.722 161.766 156.257 161.061 156.076 160.656C155.895 160.25 155.037 160.2 153.692 160.428C153.433 159.94 153.144 159.47 152.825 159.019C157.465 158.004 160.807 158.173 161.526 159.746Z" fill="#FFD766"/>
<path d="M129.999 171.021C130.025 171.092 130.052 171.162 130.079 171.238C129.029 172.105 128.512 172.79 128.694 173.189C128.876 173.588 129.767 173.647 131.153 173.405C132.93 173.093 135.533 172.294 138.539 171.13C138.491 171.374 138.491 171.625 138.539 171.869C137.378 172.302 136.254 172.689 135.187 173.018C130.549 174.442 128.131 174.426 127.847 173.801C127.681 173.426 128.162 172.507 129.999 171.021Z" fill="#FFAA39"/>
<path d="M129.656 170.387L129.764 170.525C128.976 171.124 128.234 171.781 127.543 172.49C127.953 171.885 128.658 171.184 129.656 170.387Z" fill="#FF9100"/>
<path d="M129.877 170.665L129.768 170.527C129.784 170.513 129.803 170.499 129.821 170.486L129.877 170.665Z" fill="#FF9100"/>
<path d="M127.54 172.492C127.106 173.121 126.998 173.648 127.199 174.084C127.401 174.52 127.85 174.745 128.483 174.843C130.133 175.104 132.971 174.425 135.394 173.681C136.49 173.344 137.647 172.946 138.841 172.499C139.11 172.813 139.459 173.049 139.852 173.181C138.089 173.855 136.378 174.425 134.775 174.873C129.061 176.471 126.58 176.042 126.188 175.189C125.972 174.718 126.285 173.807 127.54 172.492Z" fill="#FFAA39"/>
<path d="M145.042 173.333C141.317 175.024 137.721 176.297 134.598 177.096C129.215 178.475 125.242 178.445 124.448 176.711C123.73 175.139 125.788 172.5 129.587 169.652C129.626 169.811 129.669 169.968 129.714 170.125L129.497 169.841C127.292 171.529 124.816 173.88 125.553 175.487C125.838 176.109 126.511 176.443 127.402 176.585C129.499 176.916 132.792 176.169 134.976 175.559C137.046 174.97 139.083 174.274 141.08 173.472C142.13 173.608 143.475 173.557 145.042 173.333Z" fill="#FFAA39"/>
<path d="M138.845 172.504C137.653 172.952 136.494 173.35 135.398 173.687C132.975 174.431 130.137 175.109 128.487 174.848C127.855 174.748 127.398 174.511 127.203 174.09C127.008 173.668 127.115 173.126 127.544 172.498C128.235 171.789 128.977 171.132 129.765 170.533L129.873 170.671C129.912 170.79 129.955 170.908 129.997 171.026C128.155 172.514 127.679 173.431 127.846 173.794C128.13 174.416 130.549 174.435 135.186 173.01C136.253 172.685 137.378 172.297 138.538 171.862C138.561 171.974 138.598 172.083 138.646 172.187C138.699 172.301 138.765 172.407 138.845 172.504V172.504Z" fill="#FFCF6E"/>
<path d="M129.764 170.525C128.976 171.124 128.234 171.781 127.543 172.49C127.951 171.885 128.655 171.184 129.654 170.387L129.764 170.525Z" fill="#FFEC90"/>
<path d="M129.877 170.664L130.094 170.94C130.061 170.966 130.028 170.992 129.996 171.019C129.958 170.902 129.916 170.784 129.877 170.664Z" fill="#FFEC90"/>
<path d="M152.072 166.054C149.462 167.662 146.753 169.103 143.961 170.367C142.227 171.159 140.5 171.884 138.843 172.501C138.763 172.401 138.697 172.292 138.645 172.176C138.597 172.072 138.56 171.963 138.537 171.85C140.195 171.232 141.927 170.511 143.664 169.716C146.617 168.364 149.394 166.889 151.691 165.447C155.802 162.87 157.368 161.027 157.084 160.406C156.914 160.036 155.874 159.799 153.461 160.248L153.363 159.724L153.331 159.549C154.596 159.314 155.587 159.239 156.313 159.326C157.063 159.416 157.531 159.677 157.73 160.11C158.434 161.65 155.041 164.192 152.072 166.054Z" fill="#FFEC90"/>
<path d="M141.074 173.471C139.077 174.273 137.04 174.969 134.97 175.558C132.787 176.168 129.493 176.915 127.397 176.584C126.505 176.442 125.832 176.108 125.547 175.486C124.81 173.879 127.281 171.528 129.491 169.84L129.708 170.124C129.743 170.245 129.778 170.367 129.816 170.487C129.798 170.5 129.78 170.513 129.763 170.527L129.655 170.388C128.654 171.188 127.951 171.889 127.544 172.492C126.289 173.809 125.976 174.717 126.193 175.191C126.584 176.044 129.065 176.473 134.779 174.874C136.382 174.427 138.093 173.857 139.856 173.183C140.249 173.327 140.658 173.424 141.074 173.471V173.471Z" fill="#FFCF6E"/>
<path d="M129.656 170.387L129.764 170.525C128.976 171.124 128.234 171.781 127.543 172.49C127.953 171.885 128.658 171.184 129.656 170.387Z" fill="#FFAA39"/>
<path d="M129.707 170.121L129.924 170.402L129.815 170.484C129.777 170.366 129.742 170.245 129.707 170.121Z" fill="#FFEC90"/>
<path d="M153.771 166.957C151.186 168.673 148.041 170.392 144.678 171.931C143.47 172.484 142.264 172.999 141.075 173.471C140.658 173.424 140.249 173.327 139.855 173.183C141.339 172.618 142.86 171.981 144.384 171.285C147.713 169.762 150.823 168.062 153.378 166.366C158.324 163.087 159.621 160.928 159.23 160.081C159.013 159.608 158.124 159.251 156.314 159.336C155.322 159.394 154.336 159.527 153.364 159.734L153.168 159.774L153.024 159.079C155.742 158.514 159.14 158.178 159.874 159.785C160.833 161.868 156.462 165.173 153.771 166.957Z" fill="#FFEC90"/>
<path d="M128.136 178.626C126.186 178.626 124.532 178.203 123.954 176.937C122.844 174.51 126.801 171.059 129.263 169.217L129.92 168.725L130.116 169.522C130.243 170.038 130.403 170.544 130.594 171.039L130.735 171.406L130.433 171.655C129.533 172.397 129.295 172.794 129.232 172.943C129.39 172.995 129.864 173.077 131.068 172.866C133.784 172.389 138.415 170.747 143.15 168.581C147.885 166.414 152.156 163.985 154.294 162.24C155.24 161.468 155.486 161.057 155.552 160.903C155.397 160.852 154.94 160.773 153.792 160.968L153.405 161.034L153.221 160.689C152.973 160.221 152.695 159.77 152.389 159.337L151.915 158.668L152.716 158.493C155.717 157.837 160.917 157.101 162.027 159.527C163.255 162.209 158.463 166.068 155.497 168.129C152.673 170.092 149.212 172.03 145.505 173.726C141.798 175.421 138.067 176.774 134.735 177.627C132.879 178.095 130.318 178.626 128.136 178.626ZM129.279 170.571C125.471 173.553 124.524 175.57 124.944 176.486C125.421 177.526 128.195 178.173 134.464 176.568C137.734 175.731 141.399 174.401 145.051 172.732C148.703 171.063 152.103 169.156 154.876 167.23C160.186 163.54 161.514 161.015 161.037 159.97C160.619 159.055 158.475 158.453 153.728 159.384C153.819 159.531 153.907 159.679 153.993 159.829C155.491 159.62 156.292 159.809 156.575 160.426C156.885 161.104 156.393 161.92 154.98 163.074C152.741 164.901 148.488 167.325 143.602 169.56C138.716 171.796 134.099 173.429 131.249 173.928C129.452 174.242 128.511 174.081 128.201 173.404C127.92 172.786 128.301 172.056 129.439 171.059C129.38 170.9 129.328 170.736 129.274 170.571H129.279Z" fill="#371A45"/>
<g opacity="0.41">
<path d="M154.634 162.699C154.389 162.899 154.117 163.108 153.817 163.327C153.693 162.986 153.555 162.647 153.402 162.31C153.378 162.258 153.353 162.202 153.329 162.155C153.24 161.965 153.146 161.778 153.049 161.596C152.79 161.109 152.5 160.638 152.182 160.187L152.067 160.028C150.82 158.329 149.179 156.959 147.285 156.034C145.392 155.11 143.302 154.659 141.195 154.72C139.089 154.782 137.029 155.354 135.192 156.388C133.356 157.422 131.798 158.886 130.652 160.654C131.664 158.68 133.164 156.998 135.009 155.767C136.855 154.537 138.984 153.798 141.196 153.623C143.407 153.447 145.626 153.84 147.643 154.765C149.659 155.689 151.406 157.114 152.716 158.903C152.756 158.956 152.794 159.012 152.832 159.064C153.151 159.514 153.44 159.985 153.699 160.472C153.797 160.656 153.891 160.842 153.98 161.03C154.004 161.082 154.029 161.139 154.052 161.186C154.277 161.678 154.472 162.183 154.634 162.699V162.699Z" fill="#CEB7FF"/>
</g>
<path d="M130.885 173.995L130.691 173.682C130.395 173.202 130.129 172.704 129.894 172.192C129.779 171.938 129.67 171.683 129.569 171.426C128.381 168.344 128.359 164.935 129.508 161.839C130.656 158.742 132.895 156.172 135.805 154.61C138.715 153.048 142.094 152.602 145.31 153.356C148.525 154.11 151.354 156.012 153.266 158.705C153.598 159.175 153.9 159.665 154.171 160.172C154.3 160.415 154.423 160.663 154.539 160.917C154.773 161.429 154.976 161.956 155.146 162.493L155.254 162.844L154.968 163.077C152.729 164.904 148.476 167.328 143.59 169.564C138.704 171.799 134.087 173.432 131.237 173.932L130.885 173.995ZM142.213 154.084C140.188 154.081 138.193 154.571 136.401 155.513C134.608 156.455 133.073 157.82 131.928 159.49C130.782 161.159 130.061 163.083 129.828 165.094C129.594 167.105 129.855 169.143 130.587 171.031C130.678 171.268 130.777 171.503 130.884 171.737C131.047 172.095 131.229 172.447 131.425 172.789C134.181 172.237 138.614 170.644 143.143 168.572C147.671 166.5 151.775 164.188 153.995 162.464C153.865 162.092 153.718 161.724 153.553 161.365C153.447 161.132 153.334 160.904 153.215 160.681C152.966 160.214 152.687 159.763 152.382 159.33C151.229 157.707 149.704 156.383 147.935 155.47C146.166 154.558 144.204 154.082 142.213 154.084Z" fill="#371A45"/>
<defs>
<radialGradient id="paint0_radial_1848_29401" cx="0" cy="0" r="1" gradientUnits="userSpaceOnUse" gradientTransform="translate(233.461 311.736) rotate(90) scale(232.461)">
<stop stop-color="#1A277E"/>
<stop offset="1" stop-color="#4255D0" stop-opacity="0"/>
</radialGradient>
</defs>
</svg>
