<svg width="553" height="97" viewBox="0 0 553 97" fill="none" xmlns="http://www.w3.org/2000/svg">
<path d="M25.3343 15.0834L25.474 15.0026L25.6023 14.9044L36.5847 6.5H531.62C541.285 6.5 549.12 14.335 549.12 24V67.4354L530.462 81.8472L530.448 81.8585L530.433 81.87L518.235 91.5827H22C12.335 91.5827 4.5 83.7476 4.5 74.0827V27.1289L25.3343 15.0834Z" fill="url(#paint0_radial_1848_29770)" fill-opacity="0.85" stroke="#FFB400" stroke-width="5"/>
<path d="M5.68225 52.4933V25.9142L32.8786 5.78381H73.7713" stroke="#FFB400" stroke-width="10"/>
<path d="M482.292 91.3064H518.069L547.928 67.1319V43.8064" stroke="#FFB400" stroke-width="10"/>
<path d="M25.504 68L43.963 30.956L60.343 30.956L78.739 68L65.194 68L62.107 61.259L42.199 61.259L38.734 68L25.504 68ZM45.664 52.565L58.579 52.565L52.468 39.146L51.838 39.146L45.664 52.565ZM86.8237 68L86.8237 30.893L115.552 30.893C119.5 30.893 122.377 31.691 124.183 33.287C125.989 34.841 126.892 36.731 126.892 38.957L126.892 40.847C126.892 42.569 126.514 43.997 125.758 45.131C125.044 46.223 124.267 47 123.427 47.462C125.275 48.05 126.745 49.079 127.837 50.549C128.929 51.977 129.475 53.867 129.475 56.219L129.475 57.353C129.475 58.613 129.328 59.873 129.034 61.133C128.74 62.393 128.173 63.548 127.333 64.598C126.535 65.606 125.38 66.425 123.868 67.055C122.398 67.685 120.466 68 118.072 68L86.8237 68ZM99.1087 45.194L111.709 45.194C112.801 45.194 113.557 44.963 113.977 44.501C114.397 44.039 114.607 43.409 114.607 42.611L114.607 41.981C114.607 41.099 114.397 40.469 113.977 40.091C113.557 39.713 112.612 39.524 111.142 39.524L99.1087 39.524L99.1087 45.194ZM99.1087 59.369L114.292 59.369C115.384 59.369 116.14 59.18 116.56 58.802C116.98 58.382 117.19 57.731 117.19 56.849L117.19 55.715C117.19 54.917 116.917 54.308 116.371 53.888C115.825 53.426 114.88 53.195 113.536 53.195L99.1087 53.195L99.1087 59.369ZM152.998 68C148.546 68 145.291 67.013 143.233 65.039C141.217 63.023 140.209 59.831 140.209 55.463L140.209 43.43C140.209 39.146 141.217 35.996 143.233 33.98C145.249 31.964 148.504 30.956 152.998 30.956L171.394 30.956C175.804 30.956 179.017 31.964 181.033 33.98C183.091 35.996 184.12 39.146 184.12 43.43L184.12 55.463C184.12 59.831 183.091 63.023 181.033 65.039C178.975 67.013 175.762 68 171.394 68L152.998 68ZM157.345 59.432L167.11 59.432C170.386 59.432 172.024 57.941 172.024 54.959L172.024 43.934C172.024 40.994 170.386 39.524 167.11 39.524L157.345 39.524C155.665 39.524 154.405 39.86 153.565 40.532C152.725 41.204 152.305 42.338 152.305 43.934L152.305 54.959C152.305 56.513 152.725 57.647 153.565 58.361C154.405 59.075 155.665 59.432 157.345 59.432ZM207.928 68.63C203.728 68.63 200.536 67.643 198.352 65.669C196.21 63.695 195.139 60.503 195.139 56.093L195.139 30.956L207.424 30.956L207.424 54.959C207.424 56.933 207.907 58.256 208.873 58.928C209.839 59.6 211.036 59.936 212.464 59.936L220.591 59.936C221.935 59.936 223.111 59.6 224.119 58.928C225.127 58.214 225.631 56.891 225.631 54.959L225.631 30.956L237.727 30.956L237.727 56.093C237.727 60.503 236.656 63.695 234.514 65.669C232.414 67.643 229.243 68.63 225.001 68.63L207.928 68.63ZM260.575 68L260.575 39.461L245.581 39.461L245.581 30.893L287.98 30.893L287.98 39.461L272.797 39.461L272.797 68L260.575 68ZM313.156 68L313.156 30.956L353.602 30.956L353.602 39.524L325.441 39.524L325.441 44.753L346.294 44.753L346.294 53.51L325.441 53.51L325.441 59.369L352.594 59.369L356.374 67.307C356.374 67.475 355.807 67.643 354.673 67.811C353.539 67.937 351.586 68 348.814 68L313.156 68ZM360.162 68L362.556 64.22L375.912 49.478L360.162 30.956L375.975 30.956L383.724 42.359L384.417 42.359L392.166 30.956L407.979 30.956L405.522 34.673L392.229 49.478L407.979 68L392.166 68L384.417 56.534L383.724 56.534L375.975 68L360.162 68ZM410.99 68L429.449 30.956L445.829 30.956L464.225 68L450.68 68L447.593 61.259L427.685 61.259L424.22 68L410.99 68ZM431.15 52.565L444.065 52.565L437.954 39.146L437.324 39.146L431.15 52.565ZM472.94 68L472.94 35.996L472.31 30.956L487.556 30.956L498.644 53.006L509.984 30.956L524.411 30.956L524.411 68L512.378 68L512.378 46.769L511.685 46.769L509.039 53.573L504.44 64.22L492.974 64.22L488.186 53.573L485.603 46.769L484.973 46.769L484.973 68L472.94 68Z" fill="#FFB400"/>
<defs>
<radialGradient id="paint0_radial_1848_29770" cx="0" cy="0" r="1" gradientUnits="userSpaceOnUse" gradientTransform="translate(276.81 49.0413) rotate(90) scale(45.0413 274.81)">
<stop stop-color="#4B59BC" stop-opacity="0.21"/>
<stop offset="1" stop-color="#1A277E"/>
</radialGradient>
</defs>
</svg>
