<svg width="450" height="97" viewBox="0 0 450 97" fill="none" xmlns="http://www.w3.org/2000/svg">
<path d="M22.2943 14.9521L22.4339 14.8521L22.5586 14.734L31.2506 6.5H427C436.665 6.5 444.5 14.335 444.5 24V67.5948L429.415 82.0188L429.401 82.0319L429.388 82.0452L419.712 91.5827H23C13.335 91.5827 5.5 83.7476 5.5 74.0827V26.9716L22.2943 14.9521Z" fill="url(#paint0_radial_1885_49)" fill-opacity="0.85" stroke="#FFB400" stroke-width="5"/>
<path d="M5.96631 52.4933V25.9142L27.9364 5.78381H60.9709" stroke="#FFB400" stroke-width="10"/>
<path d="M391.757 91.3064H420.658L444.779 67.1319V43.8064" stroke="#FFB400" stroke-width="10"/>
<path d="M28.5604 68L47.0194 30.956L63.3994 30.956L81.7954 68L68.2504 68L65.1634 61.259L45.2554 61.259L41.7904 68L28.5604 68ZM48.7204 52.565L61.6354 52.565L55.5244 39.146L54.8944 39.146L48.7204 52.565ZM89.8801 68L89.8801 30.893L118.608 30.893C122.556 30.893 125.433 31.691 127.239 33.287C129.045 34.841 129.948 36.731 129.948 38.957L129.948 40.847C129.948 42.569 129.57 43.997 128.814 45.131C128.1 46.223 127.323 47 126.483 47.462C128.331 48.05 129.801 49.079 130.893 50.549C131.985 51.977 132.531 53.867 132.531 56.219L132.531 57.353C132.531 58.613 132.384 59.873 132.09 61.133C131.796 62.393 131.229 63.548 130.389 64.598C129.591 65.606 128.436 66.425 126.924 67.055C125.454 67.685 123.522 68 121.128 68L89.8801 68ZM102.165 45.194L114.765 45.194C115.857 45.194 116.613 44.963 117.033 44.501C117.453 44.039 117.663 43.409 117.663 42.611L117.663 41.981C117.663 41.099 117.453 40.469 117.033 40.091C116.613 39.713 115.668 39.524 114.198 39.524L102.165 39.524L102.165 45.194ZM102.165 59.369L117.348 59.369C118.44 59.369 119.196 59.18 119.616 58.802C120.036 58.382 120.246 57.731 120.246 56.849L120.246 55.715C120.246 54.917 119.973 54.308 119.427 53.888C118.881 53.426 117.936 53.195 116.592 53.195L102.165 53.195L102.165 59.369ZM156.054 68C151.602 68 148.347 67.013 146.289 65.039C144.273 63.023 143.265 59.831 143.265 55.463L143.265 43.43C143.265 39.146 144.273 35.996 146.289 33.98C148.305 31.964 151.56 30.956 156.054 30.956L174.45 30.956C178.86 30.956 182.073 31.964 184.089 33.98C186.147 35.996 187.176 39.146 187.176 43.43L187.176 55.463C187.176 59.831 186.147 63.023 184.089 65.039C182.031 67.013 178.818 68 174.45 68L156.054 68ZM160.401 59.432L170.166 59.432C173.442 59.432 175.08 57.941 175.08 54.959L175.08 43.934C175.08 40.994 173.442 39.524 170.166 39.524L160.401 39.524C158.721 39.524 157.461 39.86 156.621 40.532C155.781 41.204 155.361 42.338 155.361 43.934L155.361 54.959C155.361 56.513 155.781 57.647 156.621 58.361C157.461 59.075 158.721 59.432 160.401 59.432ZM210.985 68.63C206.785 68.63 203.593 67.643 201.409 65.669C199.267 63.695 198.196 60.503 198.196 56.093L198.196 30.956L210.481 30.956L210.481 54.959C210.481 56.933 210.964 58.256 211.93 58.928C212.896 59.6 214.093 59.936 215.521 59.936L223.648 59.936C224.992 59.936 226.168 59.6 227.176 58.928C228.184 58.214 228.688 56.891 228.688 54.959L228.688 30.956L240.784 30.956L240.784 56.093C240.784 60.503 239.713 63.695 237.571 65.669C235.471 67.643 232.3 68.63 228.058 68.63L210.985 68.63ZM263.632 68L263.632 39.461L248.638 39.461L248.638 30.893L291.037 30.893L291.037 39.461L275.854 39.461L275.854 68L263.632 68ZM328.056 68.63C323.856 68.63 320.664 67.643 318.48 65.669C316.338 63.695 315.267 60.503 315.267 56.093L315.267 30.956L327.552 30.956L327.552 54.959C327.552 56.933 328.035 58.256 329.001 58.928C329.967 59.6 331.164 59.936 332.592 59.936L340.719 59.936C342.063 59.936 343.239 59.6 344.247 58.928C345.255 58.214 345.759 56.891 345.759 54.959L345.759 30.956L357.855 30.956L357.855 56.093C357.855 60.503 356.784 63.695 354.642 65.669C352.542 67.643 349.371 68.63 345.129 68.63L328.056 68.63ZM376.608 68C373.752 68 371.652 67.874 370.308 67.622C368.964 67.37 368.292 67.076 368.292 66.74L372.072 58.613C373.038 58.781 375.033 58.949 378.057 59.117C381.081 59.243 385.008 59.306 389.838 59.306L394.815 59.306C396.285 59.306 397.272 59.096 397.776 58.676C398.28 58.256 398.532 57.647 398.532 56.849L398.532 56.219C398.532 55.211 398.28 54.518 397.776 54.14C397.272 53.762 396.285 53.573 394.815 53.573L380.388 53.573C376.146 53.573 373.059 52.796 371.127 51.242C369.195 49.646 368.229 47.063 368.229 43.493L368.229 41.225C368.229 39.377 368.565 37.676 369.237 36.122C369.951 34.568 371.148 33.329 372.828 32.405C374.508 31.439 376.818 30.956 379.758 30.956L400.674 30.956C403.236 30.956 405.357 31.103 407.037 31.397C408.759 31.691 409.62 32.006 409.62 32.342L407.73 40.154C406.554 40.028 404.328 39.902 401.052 39.776C397.818 39.608 393.702 39.524 388.704 39.524L384.168 39.461C382.866 39.461 381.942 39.65 381.396 40.028C380.85 40.364 380.556 41.015 380.514 41.981L380.514 42.422C380.514 43.388 380.808 44.06 381.396 44.438C381.984 44.816 382.929 45.005 384.231 45.005L398.091 45.005C400.779 45.005 403.068 45.278 404.958 45.824C406.848 46.37 408.297 47.378 409.305 48.848C410.313 50.276 410.817 52.397 410.817 55.211L410.817 57.479C410.817 60.629 409.998 63.17 408.36 65.102C406.764 67.034 403.971 68 399.981 68L376.608 68Z" fill="#FFB400"/>
<defs>
<radialGradient id="paint0_radial_1885_49" cx="0" cy="0" r="1" gradientUnits="userSpaceOnUse" gradientTransform="translate(225 49.0413) rotate(90) scale(45.0413 222)">
<stop stop-color="#4B59BC" stop-opacity="0.21"/>
<stop offset="1" stop-color="#1A277E"/>
</radialGradient>
</defs>
</svg>
