<svg width="542" height="97" viewBox="0 0 542 97" fill="none" xmlns="http://www.w3.org/2000/svg">
<path d="M24.8729 15.0712L25.013 14.9884L25.1413 14.8881L35.863 6.5H519.62C529.285 6.5 537.12 14.335 537.12 24V67.452L518.87 81.8637L518.855 81.8752L518.841 81.8869L506.93 91.5827H22C12.335 91.5827 4.5 83.7476 4.5 74.0827V27.1129L24.8729 15.0712Z" fill="url(#paint0_radial_1848_29770)" fill-opacity="0.85" stroke="#FFB400" stroke-width="5"/>
<path d="M5.60168 52.4933V25.9142L32.2042 5.78381H72.2041" stroke="#FFB400" stroke-width="10"/>
<path d="M471.807 91.3064H506.802L536.009 67.1319V43.8064" stroke="#FFB400" stroke-width="10"/>
<path d="M40.199 68C35.705 68 32.45 67.013 30.434 65.039C28.418 63.065 27.41 59.873 27.41 55.463L27.41 43.934C27.41 39.398 28.523 36.101 30.749 34.043C32.975 31.943 36.125 30.893 40.199 30.893L58.595 30.893C61.493 30.893 63.698 31.061 65.21 31.397C66.764 31.691 67.541 32.006 67.541 32.342L65.588 40.217C64.538 40.091 62.48 39.965 59.414 39.839C56.39 39.671 52.568 39.587 47.948 39.587L44.735 39.587C42.761 39.587 41.417 39.965 40.703 40.721C40.031 41.435 39.695 42.548 39.695 44.06L39.695 54.833C39.695 56.261 39.989 57.374 40.577 58.172C41.207 58.928 42.593 59.306 44.735 59.306L47.318 59.306C53.324 59.306 57.902 59.243 61.052 59.117C64.202 58.949 66.092 58.781 66.722 58.613L70.565 65.417C70.565 65.627 70.124 65.942 69.242 66.362C68.402 66.782 66.953 67.16 64.895 67.496C62.879 67.832 60.065 68 56.453 68L40.199 68ZM74.8736 68L93.3326 30.956L109.713 30.956L128.109 68L114.564 68L111.477 61.259L91.5686 61.259L88.1036 68L74.8736 68ZM95.0336 52.565L107.949 52.565L101.838 39.146L101.208 39.146L95.0336 52.565ZM141.132 68L141.132 39.461L126.138 39.461L126.138 30.893L168.537 30.893L168.537 39.461L153.354 39.461L153.354 68L141.132 68ZM177.35 68L177.35 30.956L217.796 30.956L217.796 39.524L189.635 39.524L189.635 44.753L210.488 44.753L210.488 53.51L189.635 53.51L189.635 59.369L216.788 59.369L220.568 67.307C220.568 67.475 220.001 67.643 218.867 67.811C217.733 67.937 215.78 68 213.008 68L177.35 68ZM241.555 68C237.061 68 233.806 67.013 231.79 65.039C229.774 63.065 228.766 59.873 228.766 55.463L228.766 43.934C228.766 39.398 229.879 36.101 232.105 34.043C234.331 31.943 237.481 30.893 241.555 30.893L262.597 30.893C265.495 30.893 267.7 31.061 269.212 31.397C270.766 31.691 271.543 32.006 271.543 32.342L269.59 40.217C268.54 40.091 266.482 39.965 263.416 39.839C260.392 39.671 256.57 39.587 251.95 39.587L246.091 39.587C244.117 39.587 242.773 39.965 242.059 40.721C241.387 41.435 241.051 42.548 241.051 44.06L241.051 54.833C241.051 56.261 241.345 57.374 241.933 58.172C242.563 58.928 243.949 59.306 246.091 59.306L251.194 59.306C253.126 59.306 254.869 59.306 256.423 59.306C257.977 59.264 259.342 59.222 260.518 59.18L260.518 54.392L257.998 54.455L249.745 55.085L249.745 46.391L272.551 46.391L272.551 65.354L273.181 66.677C273.181 67.013 272.299 67.328 270.535 67.622C268.771 67.874 265.789 68 261.589 68L241.555 68ZM296.678 68C292.226 68 288.971 67.013 286.913 65.039C284.897 63.023 283.889 59.831 283.889 55.463L283.889 43.43C283.889 39.146 284.897 35.996 286.913 33.98C288.929 31.964 292.184 30.956 296.678 30.956L315.074 30.956C319.484 30.956 322.697 31.964 324.713 33.98C326.771 35.996 327.8 39.146 327.8 43.43L327.8 55.463C327.8 59.831 326.771 63.023 324.713 65.039C322.655 67.013 319.442 68 315.074 68L296.678 68ZM301.025 59.432L310.79 59.432C314.066 59.432 315.704 57.941 315.704 54.959L315.704 43.934C315.704 40.994 314.066 39.524 310.79 39.524L301.025 39.524C299.345 39.524 298.085 39.86 297.245 40.532C296.405 41.204 295.985 42.338 295.985 43.934L295.985 54.959C295.985 56.513 296.405 57.647 297.245 58.361C298.085 59.075 299.345 59.432 301.025 59.432ZM380.651 68.63C378.971 68.63 377.102 68.378 375.044 67.874C372.986 67.328 370.949 66.026 368.933 63.968L366.287 61.322C365.027 60.062 363.809 59.033 362.633 58.235C361.499 57.437 360.197 56.849 358.727 56.471C357.257 56.051 355.409 55.841 353.183 55.841L352.679 55.841L352.679 68L340.394 68L340.394 35.996L339.764 30.893L368.933 30.893C371.621 30.893 373.784 31.229 375.422 31.901C377.102 32.531 378.383 33.392 379.265 34.484C380.189 35.534 380.819 36.731 381.155 38.075C381.491 39.419 381.659 40.784 381.659 42.17L381.659 43.367C381.659 45.887 381.008 48.155 379.706 50.171C378.446 52.145 376.43 53.552 373.658 54.392C374.708 55.022 375.695 55.673 376.619 56.345C377.585 56.975 378.677 57.647 379.895 58.361C381.281 59.159 382.562 59.747 383.738 60.125C384.956 60.461 385.964 60.671 386.762 60.755C387.56 60.839 388.022 60.881 388.148 60.881L386.258 68C385.754 68.126 384.977 68.252 383.927 68.378C382.919 68.546 381.827 68.63 380.651 68.63ZM359.987 47.462C361.037 47.462 362.045 47.441 363.011 47.399C364.019 47.357 364.922 47.294 365.72 47.21C367.148 47.042 368.114 46.601 368.618 45.887C369.164 45.131 369.437 44.228 369.437 43.178L369.437 42.485C369.437 41.561 369.164 40.847 368.618 40.343C368.114 39.839 367.169 39.587 365.783 39.587L352.679 39.587L352.679 47.21C353.729 47.252 354.884 47.315 356.144 47.399C357.404 47.441 358.685 47.462 359.987 47.462ZM396.364 68L396.364 30.956L408.46 30.956L408.46 68L396.364 68ZM421.032 68L421.032 30.956L461.478 30.956L461.478 39.524L433.317 39.524L433.317 44.753L454.17 44.753L454.17 53.51L433.317 53.51L433.317 59.369L460.47 59.369L464.25 67.307C464.25 67.475 463.683 67.643 462.549 67.811C461.415 67.937 459.462 68 456.69 68L421.032 68ZM480.197 68C477.341 68 475.241 67.874 473.897 67.622C472.553 67.37 471.881 67.076 471.881 66.74L475.661 58.613C476.627 58.781 478.622 58.949 481.646 59.117C484.67 59.243 488.597 59.306 493.427 59.306L498.404 59.306C499.874 59.306 500.861 59.096 501.365 58.676C501.869 58.256 502.121 57.647 502.121 56.849L502.121 56.219C502.121 55.211 501.869 54.518 501.365 54.14C500.861 53.762 499.874 53.573 498.404 53.573L483.977 53.573C479.735 53.573 476.648 52.796 474.716 51.242C472.784 49.646 471.818 47.063 471.818 43.493L471.818 41.225C471.818 39.377 472.154 37.676 472.826 36.122C473.54 34.568 474.737 33.329 476.417 32.405C478.097 31.439 480.407 30.956 483.347 30.956L504.263 30.956C506.825 30.956 508.946 31.103 510.626 31.397C512.348 31.691 513.209 32.006 513.209 32.342L511.319 40.154C510.143 40.028 507.917 39.902 504.641 39.776C501.407 39.608 497.291 39.524 492.293 39.524L487.757 39.461C486.455 39.461 485.531 39.65 484.985 40.028C484.439 40.364 484.145 41.015 484.103 41.981L484.103 42.422C484.103 43.388 484.397 44.06 484.985 44.438C485.573 44.816 486.518 45.005 487.82 45.005L501.68 45.005C504.368 45.005 506.657 45.278 508.547 45.824C510.437 46.37 511.886 47.378 512.894 48.848C513.902 50.276 514.406 52.397 514.406 55.211L514.406 57.479C514.406 60.629 513.587 63.17 511.949 65.102C510.353 67.034 507.56 68 503.57 68L480.197 68Z" fill="#FFB400"/>
<defs>
<radialGradient id="paint0_radial_1848_29770" cx="0" cy="0" r="1" gradientUnits="userSpaceOnUse" gradientTransform="translate(270.81 49.0413) rotate(90) scale(45.0413 268.81)">
<stop stop-color="#4B59BC" stop-opacity="0.21"/>
<stop offset="1" stop-color="#1A277E"/>
</radialGradient>
</defs>
</svg>
