<svg width="484" height="97" viewBox="0 0 484 97" fill="none" xmlns="http://www.w3.org/2000/svg">
<path d="M22.6512 15.0032L22.7919 14.91L22.9188 14.7987L32.3819 6.5H461.62C471.285 6.5 479.12 14.335 479.12 24V67.5375L462.834 81.9538L462.82 81.9663L462.806 81.979L452.28 91.5827H22C12.335 91.5827 4.5 83.7476 4.5 74.0827V27.0291L22.6512 15.0032Z" fill="url(#paint0_radial_1848_29770)" fill-opacity="0.85" stroke="#FFB400" stroke-width="5"/>
<path d="M5.21057 52.4933V25.9142L28.9433 5.78381H64.6281" stroke="#FFB400" stroke-width="10"/>
<path d="M421.122 91.3064H452.342L478.398 67.1319V43.8064" stroke="#FFB400" stroke-width="10"/>
<path d="M27.9997 68L27.9997 30.956L40.0957 30.956L40.0957 68L27.9997 68ZM53.2982 68L53.2982 35.996L52.6682 30.956L64.2602 30.956L82.0262 48.974L84.4832 51.746L85.1762 51.746L85.1762 30.956L97.2722 30.956L97.2722 68L86.7512 68L68.4812 49.793L66.0242 46.832L65.3942 46.832L65.3942 68L53.2982 68ZM109.882 68L109.882 30.956L121.978 30.956L121.978 68L109.882 68ZM145.765 68L145.765 39.461L130.771 39.461L130.771 30.893L173.17 30.893L173.17 39.461L157.987 39.461L157.987 68L145.765 68ZM181.983 68L181.983 30.956L194.079 30.956L194.079 68L181.983 68ZM202.115 68L220.574 30.956L236.954 30.956L255.35 68L241.805 68L238.718 61.259L218.81 61.259L215.345 68L202.115 68ZM222.275 52.565L235.19 52.565L229.079 39.146L228.449 39.146L222.275 52.565ZM268.374 68L268.374 39.461L253.38 39.461L253.38 30.893L295.779 30.893L295.779 39.461L280.596 39.461L280.596 68L268.374 68ZM316.751 68C312.299 68 309.044 67.013 306.986 65.039C304.97 63.023 303.962 59.831 303.962 55.463L303.962 43.43C303.962 39.146 304.97 35.996 306.986 33.98C309.002 31.964 312.257 30.956 316.751 30.956L335.147 30.956C339.557 30.956 342.77 31.964 344.786 33.98C346.844 35.996 347.873 39.146 347.873 43.43L347.873 55.463C347.873 59.831 346.844 63.023 344.786 65.039C342.728 67.013 339.515 68 335.147 68L316.751 68ZM321.098 59.432L330.863 59.432C334.139 59.432 335.777 57.941 335.777 54.959L335.777 43.934C335.777 40.994 334.139 39.524 330.863 39.524L321.098 39.524C319.418 39.524 318.158 39.86 317.318 40.532C316.478 41.204 316.058 42.338 316.058 43.934L316.058 54.959C316.058 56.513 316.478 57.647 317.318 58.361C318.158 59.075 319.418 59.432 321.098 59.432ZM400.724 68.63C399.044 68.63 397.175 68.378 395.117 67.874C393.059 67.328 391.022 66.026 389.006 63.968L386.36 61.322C385.1 60.062 383.882 59.033 382.706 58.235C381.572 57.437 380.27 56.849 378.8 56.471C377.33 56.051 375.482 55.841 373.256 55.841L372.752 55.841L372.752 68L360.467 68L360.467 35.996L359.837 30.893L389.006 30.893C391.694 30.893 393.857 31.229 395.495 31.901C397.175 32.531 398.456 33.392 399.338 34.484C400.262 35.534 400.892 36.731 401.228 38.075C401.564 39.419 401.732 40.784 401.732 42.17L401.732 43.367C401.732 45.887 401.081 48.155 399.779 50.171C398.519 52.145 396.503 53.552 393.731 54.392C394.781 55.022 395.768 55.673 396.692 56.345C397.658 56.975 398.75 57.647 399.968 58.361C401.354 59.159 402.635 59.747 403.811 60.125C405.029 60.461 406.037 60.671 406.835 60.755C407.633 60.839 408.095 60.881 408.221 60.881L406.331 68C405.827 68.126 405.05 68.252 404 68.378C402.992 68.546 401.9 68.63 400.724 68.63ZM380.06 47.462C381.11 47.462 382.118 47.441 383.084 47.399C384.092 47.357 384.995 47.294 385.793 47.21C387.221 47.042 388.187 46.601 388.691 45.887C389.237 45.131 389.51 44.228 389.51 43.178L389.51 42.485C389.51 41.561 389.237 40.847 388.691 40.343C388.187 39.839 387.242 39.587 385.856 39.587L372.752 39.587L372.752 47.21C373.802 47.252 374.957 47.315 376.217 47.399C377.477 47.441 378.758 47.462 380.06 47.462ZM423.556 68C420.7 68 418.6 67.874 417.256 67.622C415.912 67.37 415.24 67.076 415.24 66.74L419.02 58.613C419.986 58.781 421.981 58.949 425.005 59.117C428.029 59.243 431.956 59.306 436.786 59.306L441.763 59.306C443.233 59.306 444.22 59.096 444.724 58.676C445.228 58.256 445.48 57.647 445.48 56.849L445.48 56.219C445.48 55.211 445.228 54.518 444.724 54.14C444.22 53.762 443.233 53.573 441.763 53.573L427.336 53.573C423.094 53.573 420.007 52.796 418.075 51.242C416.143 49.646 415.177 47.063 415.177 43.493L415.177 41.225C415.177 39.377 415.513 37.676 416.185 36.122C416.899 34.568 418.096 33.329 419.776 32.405C421.456 31.439 423.766 30.956 426.706 30.956L447.622 30.956C450.184 30.956 452.305 31.103 453.985 31.397C455.707 31.691 456.568 32.006 456.568 32.342L454.678 40.154C453.502 40.028 451.276 39.902 448 39.776C444.766 39.608 440.65 39.524 435.652 39.524L431.116 39.461C429.814 39.461 428.89 39.65 428.344 40.028C427.798 40.364 427.504 41.015 427.462 41.981L427.462 42.422C427.462 43.388 427.756 44.06 428.344 44.438C428.932 44.816 429.877 45.005 431.179 45.005L445.039 45.005C447.727 45.005 450.016 45.278 451.906 45.824C453.796 46.37 455.245 47.378 456.253 48.848C457.261 50.276 457.765 52.397 457.765 55.211L457.765 57.479C457.765 60.629 456.946 63.17 455.308 65.102C453.712 67.034 450.919 68 446.929 68L423.556 68Z" fill="#FFB400"/>
<defs>
<radialGradient id="paint0_radial_1848_29770" cx="0" cy="0" r="1" gradientUnits="userSpaceOnUse" gradientTransform="translate(241.81 49.0413) rotate(90) scale(45.0413 239.81)">
<stop stop-color="#4B59BC" stop-opacity="0.21"/>
<stop offset="1" stop-color="#1A277E"/>
</radialGradient>
</defs>
</svg>
