<svg width="367" height="97" viewBox="0 0 367 97" fill="none" xmlns="http://www.w3.org/2000/svg">
<path d="M19.142 14.7948L19.2733 14.6791L19.3871 14.5463L26.2859 6.5H343.62C353.285 6.5 361.12 14.335 361.12 24V67.7448L348.835 82.2072L348.823 82.2215L348.811 82.2359L341.109 91.5827H23C13.335 91.5827 5.5 83.7477 5.5 74.0827V26.8157L19.142 14.7948Z" fill="url(#paint0_radial_1848_29770)" fill-opacity="0.85" stroke="#FFB400" stroke-width="5"/>
<path d="M5.41162 52.4933V25.9142L23.2559 5.78381H50.0868" stroke="#FFB400" stroke-width="10"/>
<path d="M318.14 91.3064H341.614L361.205 67.1319V43.8064" stroke="#FFB400" stroke-width="10"/>
<path d="M29.67 68L29.67 35.996L29.04 30.893L58.209 30.893C61.023 30.893 63.27 31.208 64.95 31.838C66.672 32.426 67.953 33.245 68.793 34.295C69.675 35.303 70.242 36.5 70.494 37.886C70.788 39.23 70.935 40.658 70.935 42.17L70.935 47.147C70.935 49.163 70.599 51.032 69.927 52.754C69.297 54.434 68.1 55.799 66.336 56.849C64.614 57.857 62.115 58.361 58.839 58.361L54.492 58.361C51.846 58.361 49.368 58.298 47.058 58.172C44.79 58.046 43.089 57.941 41.955 57.857L41.955 68L29.67 68ZM41.955 49.793L54.996 49.793C56.382 49.793 57.348 49.52 57.894 48.974C58.44 48.428 58.713 47.546 58.713 46.328L58.713 43.115C58.713 41.897 58.461 41.015 57.957 40.469C57.453 39.881 56.487 39.587 55.059 39.587L41.955 39.587L41.955 49.793ZM73.9664 68L92.4254 30.956L108.805 30.956L127.201 68L113.656 68L110.569 61.259L90.6614 61.259L87.1964 68L73.9664 68ZM94.1264 52.565L107.041 52.565L100.93 39.146L100.3 39.146L94.1264 52.565ZM135.916 68L135.916 35.996L135.286 30.893L164.455 30.893C167.269 30.893 169.516 31.208 171.196 31.838C172.918 32.426 174.199 33.245 175.039 34.295C175.921 35.303 176.488 36.5 176.74 37.886C177.034 39.23 177.181 40.658 177.181 42.17L177.181 47.147C177.181 49.163 176.845 51.032 176.173 52.754C175.543 54.434 174.346 55.799 172.582 56.849C170.86 57.857 168.361 58.361 165.085 58.361L160.738 58.361C158.092 58.361 155.614 58.298 153.304 58.172C151.036 58.046 149.335 57.941 148.201 57.857L148.201 68L135.916 68ZM148.201 49.793L161.242 49.793C162.628 49.793 163.594 49.52 164.14 48.974C164.686 48.428 164.959 47.546 164.959 46.328L164.959 43.115C164.959 41.897 164.707 41.015 164.203 40.469C163.699 39.881 162.733 39.587 161.305 39.587L148.201 39.587L148.201 49.793ZM188.501 68L188.501 30.956L228.947 30.956L228.947 39.524L200.786 39.524L200.786 44.753L221.639 44.753L221.639 53.51L200.786 53.51L200.786 59.369L227.939 59.369L231.719 67.307C231.719 67.475 231.152 67.643 230.018 67.811C228.884 67.937 226.931 68 224.159 68L188.501 68ZM281.435 68.63C279.755 68.63 277.886 68.378 275.828 67.874C273.77 67.328 271.733 66.026 269.717 63.968L267.071 61.322C265.811 60.062 264.593 59.033 263.417 58.235C262.283 57.437 260.981 56.849 259.511 56.471C258.041 56.051 256.193 55.841 253.967 55.841L253.463 55.841L253.463 68L241.178 68L241.178 35.996L240.548 30.893L269.717 30.893C272.405 30.893 274.568 31.229 276.206 31.901C277.886 32.531 279.167 33.392 280.049 34.484C280.973 35.534 281.603 36.731 281.939 38.075C282.275 39.419 282.443 40.784 282.443 42.17L282.443 43.367C282.443 45.887 281.792 48.155 280.49 50.171C279.23 52.145 277.214 53.552 274.442 54.392C275.492 55.022 276.479 55.673 277.403 56.345C278.369 56.975 279.461 57.647 280.679 58.361C282.065 59.159 283.346 59.747 284.522 60.125C285.74 60.461 286.748 60.671 287.546 60.755C288.344 60.839 288.806 60.881 288.932 60.881L287.042 68C286.538 68.126 285.761 68.252 284.711 68.378C283.703 68.546 282.611 68.63 281.435 68.63ZM260.771 47.462C261.821 47.462 262.829 47.441 263.795 47.399C264.803 47.357 265.706 47.294 266.504 47.21C267.932 47.042 268.898 46.601 269.402 45.887C269.948 45.131 270.221 44.228 270.221 43.178L270.221 42.485C270.221 41.561 269.948 40.847 269.402 40.343C268.898 39.839 267.953 39.587 266.567 39.587L253.463 39.587L253.463 47.21C254.513 47.252 255.668 47.315 256.928 47.399C258.188 47.441 259.469 47.462 260.771 47.462ZM304.266 68C301.41 68 299.31 67.874 297.966 67.622C296.622 67.37 295.95 67.076 295.95 66.74L299.73 58.613C300.696 58.781 302.691 58.949 305.715 59.117C308.739 59.243 312.666 59.306 317.496 59.306L322.473 59.306C323.943 59.306 324.93 59.096 325.434 58.676C325.938 58.256 326.19 57.647 326.19 56.849L326.19 56.219C326.19 55.211 325.938 54.518 325.434 54.14C324.93 53.762 323.943 53.573 322.473 53.573L308.046 53.573C303.804 53.573 300.717 52.796 298.785 51.242C296.853 49.646 295.887 47.063 295.887 43.493L295.887 41.225C295.887 39.377 296.223 37.676 296.895 36.122C297.609 34.568 298.806 33.329 300.486 32.405C302.166 31.439 304.476 30.956 307.416 30.956L328.332 30.956C330.894 30.956 333.015 31.103 334.695 31.397C336.417 31.691 337.278 32.006 337.278 32.342L335.388 40.154C334.212 40.028 331.986 39.902 328.71 39.776C325.476 39.608 321.36 39.524 316.362 39.524L311.826 39.461C310.524 39.461 309.6 39.65 309.054 40.028C308.508 40.364 308.214 41.015 308.172 41.981L308.172 42.422C308.172 43.388 308.466 44.06 309.054 44.438C309.642 44.816 310.587 45.005 311.889 45.005L325.749 45.005C328.437 45.005 330.726 45.278 332.616 45.824C334.506 46.37 335.955 47.378 336.963 48.848C337.971 50.276 338.475 52.397 338.475 55.211L338.475 57.479C338.475 60.629 337.656 63.17 336.018 65.102C334.422 67.034 331.629 68 327.639 68L304.266 68Z" fill="#FFB400"/>
<defs>
<radialGradient id="paint0_radial_1848_29770" cx="0" cy="0" r="1" gradientUnits="userSpaceOnUse" gradientTransform="translate(183.31 49.0413) rotate(90) scale(45.0413 180.31)">
<stop stop-color="#4B59BC" stop-opacity="0.21"/>
<stop offset="1" stop-color="#1A277E"/>
</radialGradient>
</defs>
</svg>
