<svg width="1050" height="116" viewBox="0 0 1050 116" fill="none" xmlns="http://www.w3.org/2000/svg">
<g filter="url(#filter0_d_1848_29784)">
<path d="M53.2146 8.91385L16.8236 25.6406C13.2744 27.272 11 30.8206 11 34.7268V34.9309V57.1073V91.46C11 96.9828 15.4771 101.46 21 101.46H992.244C993.586 101.46 994.915 101.19 996.15 100.665L1032.38 85.2914C1036.07 83.7236 1038.47 80.0992 1038.47 76.0861V18C1038.47 12.4772 1033.99 8 1028.47 8H558.597H318.661H198.692H57.391C55.9493 8 54.5246 8.31174 53.2146 8.91385Z" fill="url(#paint0_radial_1848_29784)" fill-opacity="0.85" shape-rendering="crispEdges"/>
<path d="M53.2146 8.91385L16.8236 25.6406C13.2744 27.272 11 30.8206 11 34.7268V34.9309V57.1073V91.46C11 96.9828 15.4771 101.46 21 101.46H992.244C993.586 101.46 994.915 101.19 996.15 100.665L1032.38 85.2914C1036.07 83.7236 1038.47 80.0992 1038.47 76.0861V18C1038.47 12.4772 1033.99 8 1028.47 8H558.597H318.661H198.692H57.391C55.9493 8 54.5246 8.31174 53.2146 8.91385Z" stroke="#FFB400" stroke-width="4" shape-rendering="crispEdges"/>
</g>
<path d="M1037.98 60.0125C1037.98 68.9195 1037.98 82.9162 1037.98 82.9162L1002.53 101.748H959.297" stroke="#FFB400" stroke-width="7"/>
<path d="M89.68 8H44.2707L11 26.3421V49.7358" stroke="#FFB400" stroke-width="7"/>
<path d="M59.159 73C56.303 73 54.203 72.874 52.859 72.622C51.515 72.37 50.843 72.076 50.843 71.74L54.623 63.613C55.589 63.781 57.584 63.949 60.608 64.117C63.632 64.243 67.559 64.306 72.389 64.306H77.366C78.836 64.306 79.823 64.096 80.327 63.676C80.831 63.256 81.083 62.647 81.083 61.849V61.219C81.083 60.211 80.831 59.518 80.327 59.14C79.823 58.762 78.836 58.573 77.366 58.573H62.939C58.697 58.573 55.61 57.796 53.678 56.242C51.746 54.646 50.78 52.063 50.78 48.493V46.225C50.78 44.377 51.116 42.676 51.788 41.122C52.502 39.568 53.699 38.329 55.379 37.405C57.059 36.439 59.369 35.956 62.309 35.956H83.225C85.787 35.956 87.908 36.103 89.588 36.397C91.31 36.691 92.171 37.006 92.171 37.342L90.281 45.154C89.105 45.028 86.879 44.902 83.603 44.776C80.369 44.608 76.253 44.524 71.255 44.524L66.719 44.461C65.417 44.461 64.493 44.65 63.947 45.028C63.401 45.364 63.107 46.015 63.065 46.981V47.422C63.065 48.388 63.359 49.06 63.947 49.438C64.535 49.816 65.48 50.005 66.782 50.005H80.642C83.33 50.005 85.619 50.278 87.509 50.824C89.399 51.37 90.848 52.378 91.856 53.848C92.864 55.276 93.368 57.397 93.368 60.211V62.479C93.368 65.629 92.549 68.17 90.911 70.102C89.315 72.034 86.522 73 82.532 73H59.159ZM115.916 73V44.461H100.922V35.893H143.321V44.461H128.138V73H115.916ZM163.978 73.63C159.778 73.63 156.586 72.643 154.402 70.669C152.26 68.695 151.189 65.503 151.189 61.093V35.956H163.474V59.959C163.474 61.933 163.957 63.256 164.923 63.928C165.889 64.6 167.086 64.936 168.514 64.936H176.641C177.985 64.936 179.161 64.6 180.169 63.928C181.177 63.214 181.681 61.891 181.681 59.959V35.956H193.777V61.093C193.777 65.503 192.706 68.695 190.564 70.669C188.464 72.643 185.293 73.63 181.051 73.63H163.978ZM206.041 73V40.996L205.411 35.956H234.643C239.725 35.956 243.526 36.964 246.046 38.98C248.608 40.996 249.889 44.146 249.889 48.43V60.463C249.889 64.831 248.629 68.023 246.109 70.039C243.589 72.013 239.767 73 234.643 73H206.041ZM218.326 64.306H232.753C235.987 64.306 237.625 62.815 237.667 59.833V48.934C237.667 47.716 237.31 46.687 236.596 45.847C235.882 44.965 234.601 44.524 232.753 44.524H218.326V64.306ZM261.21 73V35.956H301.656V44.524H273.495V49.753H294.348V58.51H273.495V64.369H300.648L304.428 72.307C304.428 72.475 303.861 72.643 302.727 72.811C301.593 72.937 299.64 73 296.868 73H261.21ZM313.886 73V40.996L313.256 35.956H324.848L342.614 53.974L345.071 56.746H345.764V35.956H357.86V73H347.339L329.069 54.793L326.612 51.832H325.982V73H313.886ZM381.685 73V44.461H366.691V35.893H409.09V44.461H393.907V73H381.685ZM475.152 73.63C473.472 73.63 471.603 73.378 469.545 72.874C467.487 72.328 465.45 71.026 463.434 68.968L460.788 66.322C459.528 65.062 458.31 64.033 457.134 63.235C456 62.437 454.698 61.849 453.228 61.471C451.758 61.051 449.91 60.841 447.684 60.841H447.18V73H434.895V40.996L434.265 35.893H463.434C466.122 35.893 468.285 36.229 469.923 36.901C471.603 37.531 472.884 38.392 473.766 39.484C474.69 40.534 475.32 41.731 475.656 43.075C475.992 44.419 476.16 45.784 476.16 47.17V48.367C476.16 50.887 475.509 53.155 474.207 55.171C472.947 57.145 470.931 58.552 468.159 59.392C469.209 60.022 470.196 60.673 471.12 61.345C472.086 61.975 473.178 62.647 474.396 63.361C475.782 64.159 477.063 64.747 478.239 65.125C479.457 65.461 480.465 65.671 481.263 65.755C482.061 65.839 482.523 65.881 482.649 65.881L480.759 73C480.255 73.126 479.478 73.252 478.428 73.378C477.42 73.546 476.328 73.63 475.152 73.63ZM454.488 52.462C455.538 52.462 456.546 52.441 457.512 52.399C458.52 52.357 459.423 52.294 460.221 52.21C461.649 52.042 462.615 51.601 463.119 50.887C463.665 50.131 463.938 49.228 463.938 48.178V47.485C463.938 46.561 463.665 45.847 463.119 45.343C462.615 44.839 461.67 44.587 460.284 44.587H447.18V52.21C448.23 52.252 449.385 52.315 450.645 52.399C451.905 52.441 453.186 52.462 454.488 52.462ZM490.865 73V35.956H531.311V44.524H503.15V49.753H524.003V58.51H503.15V64.369H530.303L534.083 72.307C534.083 72.475 533.516 72.643 532.382 72.811C531.248 72.937 529.295 73 526.523 73H490.865ZM555.07 73C550.576 73 547.321 72.013 545.305 70.039C543.289 68.065 542.281 64.873 542.281 60.463V48.934C542.281 44.398 543.394 41.101 545.62 39.043C547.846 36.943 550.996 35.893 555.07 35.893H576.112C579.01 35.893 581.215 36.061 582.727 36.397C584.281 36.691 585.058 37.006 585.058 37.342L583.105 45.217C582.055 45.091 579.997 44.965 576.931 44.839C573.907 44.671 570.085 44.587 565.465 44.587H559.606C557.632 44.587 556.288 44.965 555.574 45.721C554.902 46.435 554.566 47.548 554.566 49.06V59.833C554.566 61.261 554.86 62.374 555.448 63.172C556.078 63.928 557.464 64.306 559.606 64.306H564.709C566.641 64.306 568.384 64.306 569.938 64.306C571.492 64.264 572.857 64.222 574.033 64.18V59.392L571.513 59.455L563.26 60.085V51.391H586.066V70.354L586.696 71.677C586.696 72.013 585.814 72.328 584.05 72.622C582.286 72.874 579.304 73 575.104 73H555.07ZM598.033 73V35.956H610.129V73H598.033ZM629.821 73C626.965 73 624.865 72.874 623.521 72.622C622.177 72.37 621.505 72.076 621.505 71.74L625.285 63.613C626.251 63.781 628.246 63.949 631.27 64.117C634.294 64.243 638.221 64.306 643.051 64.306H648.028C649.498 64.306 650.485 64.096 650.989 63.676C651.493 63.256 651.745 62.647 651.745 61.849V61.219C651.745 60.211 651.493 59.518 650.989 59.14C650.485 58.762 649.498 58.573 648.028 58.573H633.601C629.359 58.573 626.272 57.796 624.34 56.242C622.408 54.646 621.442 52.063 621.442 48.493V46.225C621.442 44.377 621.778 42.676 622.45 41.122C623.164 39.568 624.361 38.329 626.041 37.405C627.721 36.439 630.031 35.956 632.971 35.956H653.887C656.449 35.956 658.57 36.103 660.25 36.397C661.972 36.691 662.833 37.006 662.833 37.342L660.943 45.154C659.767 45.028 657.541 44.902 654.265 44.776C651.031 44.608 646.915 44.524 641.917 44.524L637.381 44.461C636.079 44.461 635.155 44.65 634.609 45.028C634.063 45.364 633.769 46.015 633.727 46.981V47.422C633.727 48.388 634.021 49.06 634.609 49.438C635.197 49.816 636.142 50.005 637.444 50.005H651.304C653.992 50.005 656.281 50.278 658.171 50.824C660.061 51.37 661.51 52.378 662.518 53.848C663.526 55.276 664.03 57.397 664.03 60.211V62.479C664.03 65.629 663.211 68.17 661.573 70.102C659.977 72.034 657.184 73 653.194 73H629.821ZM686.577 73V44.461H671.583V35.893H713.982V44.461H698.799V73H686.577ZM763.683 73.63C762.003 73.63 760.134 73.378 758.076 72.874C756.018 72.328 753.981 71.026 751.965 68.968L749.319 66.322C748.059 65.062 746.841 64.033 745.665 63.235C744.531 62.437 743.229 61.849 741.759 61.471C740.289 61.051 738.441 60.841 736.215 60.841H735.711V73H723.426V40.996L722.796 35.893H751.965C754.653 35.893 756.816 36.229 758.454 36.901C760.134 37.531 761.415 38.392 762.297 39.484C763.221 40.534 763.851 41.731 764.187 43.075C764.523 44.419 764.691 45.784 764.691 47.17V48.367C764.691 50.887 764.04 53.155 762.738 55.171C761.478 57.145 759.462 58.552 756.69 59.392C757.74 60.022 758.727 60.673 759.651 61.345C760.617 61.975 761.709 62.647 762.927 63.361C764.313 64.159 765.594 64.747 766.77 65.125C767.988 65.461 768.996 65.671 769.794 65.755C770.592 65.839 771.054 65.881 771.18 65.881L769.29 73C768.786 73.126 768.009 73.252 766.959 73.378C765.951 73.546 764.859 73.63 763.683 73.63ZM743.019 52.462C744.069 52.462 745.077 52.441 746.043 52.399C747.051 52.357 747.954 52.294 748.752 52.21C750.18 52.042 751.146 51.601 751.65 50.887C752.196 50.131 752.469 49.228 752.469 48.178V47.485C752.469 46.561 752.196 45.847 751.65 45.343C751.146 44.839 750.201 44.587 748.815 44.587H735.711V52.21C736.761 52.252 737.916 52.315 739.176 52.399C740.436 52.441 741.717 52.462 743.019 52.462ZM774.859 73L793.318 35.956H809.698L828.094 73H814.549L811.462 66.259H791.554L788.089 73H774.859ZM795.019 57.565H807.934L801.823 44.146H801.193L795.019 57.565ZM841.117 73V44.461H826.123V35.893H868.522V44.461H853.339V73H841.117ZM877.335 73V35.956H889.431V73H877.335ZM914.163 73C909.711 73 906.456 72.013 904.398 70.039C902.382 68.023 901.374 64.831 901.374 60.463V48.43C901.374 44.146 902.382 40.996 904.398 38.98C906.414 36.964 909.669 35.956 914.163 35.956H932.559C936.969 35.956 940.182 36.964 942.198 38.98C944.256 40.996 945.285 44.146 945.285 48.43V60.463C945.285 64.831 944.256 68.023 942.198 70.039C940.14 72.013 936.927 73 932.559 73H914.163ZM918.51 64.432H928.275C931.551 64.432 933.189 62.941 933.189 59.959V48.934C933.189 45.994 931.551 44.524 928.275 44.524H918.51C916.83 44.524 915.57 44.86 914.73 45.532C913.89 46.204 913.47 47.338 913.47 48.934V59.959C913.47 61.513 913.89 62.647 914.73 63.361C915.57 64.075 916.83 64.432 918.51 64.432ZM957.879 73V40.996L957.249 35.956H968.841L986.607 53.974L989.064 56.746H989.757V35.956H1001.85V73H991.332L973.062 54.793L970.605 51.832H969.975V73H957.879Z" fill="#FFB400"/>
<defs>
<filter id="filter0_d_1848_29784" x="0.192845" y="0.128563" width="1049.09" height="115.074" filterUnits="userSpaceOnUse" color-interpolation-filters="sRGB">
<feFlood flood-opacity="0" result="BackgroundImageFix"/>
<feColorMatrix in="SourceAlpha" type="matrix" values="0 0 0 0 0 0 0 0 0 0 0 0 0 0 0 0 0 0 127 0" result="hardAlpha"/>
<feOffset dy="2.93572"/>
<feGaussianBlur stdDeviation="4.40358"/>
<feComposite in2="hardAlpha" operator="out"/>
<feColorMatrix type="matrix" values="0 0 0 0 1 0 0 0 0 1 0 0 0 0 1 0 0 0 0.25 0"/>
<feBlend mode="normal" in2="BackgroundImageFix" result="effect1_dropShadow_1848_29784"/>
<feBlend mode="normal" in="SourceGraphic" in2="effect1_dropShadow_1848_29784" result="shape"/>
</filter>
<radialGradient id="paint0_radial_1848_29784" cx="0" cy="0" r="1" gradientUnits="userSpaceOnUse" gradientTransform="translate(524.735 54.73) rotate(90) scale(46.73 513.735)">
<stop stop-color="#4B59BC"/>
<stop offset="0.0001" stop-color="#246CA4"/>
<stop offset="1" stop-color="#1B2469"/>
</radialGradient>
</defs>
</svg>
