<svg width="409" height="97" viewBox="0 0 409 97" fill="none" xmlns="http://www.w3.org/2000/svg">
<path d="M20.7633 14.8834L20.9001 14.7757L21.0207 14.65L28.8416 6.5H386.62C396.285 6.5 404.12 14.335 404.12 24V67.6646L390.393 82.1032L390.38 82.1169L390.367 82.1308L381.65 91.5827H23C13.335 91.5827 5.5 83.7476 5.5 74.0827V26.9001L20.7633 14.8834Z" fill="url(#paint0_radial_1848_29770)" fill-opacity="0.85" stroke="#FFB400" stroke-width="5"/>
<path d="M5.70203 52.4933V25.9142L25.6741 5.78381H55.7043" stroke="#FFB400" stroke-width="10"/>
<path d="M355.71 91.3064H381.983L403.91 67.1319V43.8064" stroke="#FFB400" stroke-width="10"/>
<path d="M42.884 68.63C38.684 68.63 35.492 67.643 33.308 65.669C31.166 63.695 30.095 60.503 30.095 56.093L30.095 30.956L42.38 30.956L42.38 54.959C42.38 56.933 42.863 58.256 43.829 58.928C44.795 59.6 45.992 59.936 47.42 59.936L55.547 59.936C56.891 59.936 58.067 59.6 59.075 58.928C60.083 58.214 60.587 56.891 60.587 54.959L60.587 30.956L72.683 30.956L72.683 56.093C72.683 60.503 71.612 63.695 69.47 65.669C67.37 67.643 64.199 68.63 59.957 68.63L42.884 68.63ZM84.9468 68L84.9468 35.996L84.3168 30.893L113.486 30.893C116.3 30.893 118.547 31.208 120.227 31.838C121.949 32.426 123.23 33.245 124.07 34.295C124.952 35.303 125.519 36.5 125.771 37.886C126.065 39.23 126.212 40.658 126.212 42.17L126.212 47.147C126.212 49.163 125.876 51.032 125.204 52.754C124.574 54.434 123.377 55.799 121.613 56.849C119.891 57.857 117.392 58.361 114.116 58.361L109.769 58.361C107.123 58.361 104.645 58.298 102.335 58.172C100.067 58.046 98.3658 57.941 97.2318 57.857L97.2318 68L84.9468 68ZM97.2318 49.793L110.273 49.793C111.659 49.793 112.625 49.52 113.171 48.974C113.717 48.428 113.99 47.546 113.99 46.328L113.99 43.115C113.99 41.897 113.738 41.015 113.234 40.469C112.73 39.881 111.764 39.587 110.336 39.587L97.2318 39.587L97.2318 49.793ZM138.162 68L138.162 35.996L137.532 30.956L166.764 30.956C171.846 30.956 175.647 31.964 178.167 33.98C180.729 35.996 182.01 39.146 182.01 43.43L182.01 55.463C182.01 59.831 180.75 63.023 178.23 65.039C175.71 67.013 171.888 68 166.764 68L138.162 68ZM150.447 59.306L164.874 59.306C168.108 59.306 169.746 57.815 169.788 54.833L169.788 43.934C169.788 42.716 169.431 41.687 168.717 40.847C168.003 39.965 166.722 39.524 164.874 39.524L150.447 39.524L150.447 59.306ZM186.888 68L205.347 30.956L221.727 30.956L240.123 68L226.578 68L223.491 61.259L203.583 61.259L200.118 68L186.888 68ZM207.048 52.565L219.963 52.565L213.852 39.146L213.222 39.146L207.048 52.565ZM253.147 68L253.147 39.461L238.153 39.461L238.153 30.893L280.552 30.893L280.552 39.461L265.369 39.461L265.369 68L253.147 68ZM289.365 68L289.365 30.956L329.811 30.956L329.811 39.524L301.65 39.524L301.65 44.753L322.503 44.753L322.503 53.51L301.65 53.51L301.65 59.369L328.803 59.369L332.583 67.307C332.583 67.475 332.016 67.643 330.882 67.811C329.748 67.937 327.795 68 325.023 68L289.365 68ZM348.53 68C345.674 68 343.574 67.874 342.23 67.622C340.886 67.37 340.214 67.076 340.214 66.74L343.994 58.613C344.96 58.781 346.955 58.949 349.979 59.117C353.003 59.243 356.93 59.306 361.76 59.306L366.737 59.306C368.207 59.306 369.194 59.096 369.698 58.676C370.202 58.256 370.454 57.647 370.454 56.849L370.454 56.219C370.454 55.211 370.202 54.518 369.698 54.14C369.194 53.762 368.207 53.573 366.737 53.573L352.31 53.573C348.068 53.573 344.981 52.796 343.049 51.242C341.117 49.646 340.151 47.063 340.151 43.493L340.151 41.225C340.151 39.377 340.487 37.676 341.159 36.122C341.873 34.568 343.07 33.329 344.75 32.405C346.43 31.439 348.74 30.956 351.68 30.956L372.596 30.956C375.158 30.956 377.279 31.103 378.959 31.397C380.681 31.691 381.542 32.006 381.542 32.342L379.652 40.154C378.476 40.028 376.25 39.902 372.974 39.776C369.74 39.608 365.624 39.524 360.626 39.524L356.09 39.461C354.788 39.461 353.864 39.65 353.318 40.028C352.772 40.364 352.478 41.015 352.436 41.981L352.436 42.422C352.436 43.388 352.73 44.06 353.318 44.438C353.906 44.816 354.851 45.005 356.153 45.005L370.013 45.005C372.701 45.005 374.99 45.278 376.88 45.824C378.77 46.37 380.219 47.378 381.227 48.848C382.235 50.276 382.739 52.397 382.739 55.211L382.739 57.479C382.739 60.629 381.92 63.17 380.282 65.102C378.686 67.034 375.893 68 371.903 68L348.53 68Z" fill="#FFB400"/>
<defs>
<radialGradient id="paint0_radial_1848_29770" cx="0" cy="0" r="1" gradientUnits="userSpaceOnUse" gradientTransform="translate(204.81 49.0413) rotate(90) scale(45.0413 201.81)">
<stop stop-color="#4B59BC" stop-opacity="0.21"/>
<stop offset="1" stop-color="#1A277E"/>
</radialGradient>
</defs>
</svg>
